<svg xmlns="http://www.w3.org/2000/svg" width="1170" height="400" viewBox="0 0 1170 400"><path fill="#0387B6" d="M883.8 104.1c-15.4-17-34.2-30.9-54.6-40.3-20.5-9.4-42.7-14.4-65-14.6-22.3-.3-44.6 4.1-65.3 13.1-20.7 8.9-39.7 22.3-55.5 38.9l-14.9-16.1c17.9-18.7 39.2-33.7 62.5-43.7 23.3-10 48.4-14.9 73.5-14.6 25.1.3 50.1 5.9 73.1 16.5 23 10.6 44.1 26.1 61.5 45.2l-15.3 15.6z"/><path fill="#73808A" d="M853 135.3c-11.5-12.8-25.5-23.3-40.9-30.4-15.3-7.1-32-10.8-48.6-11-16.7-.2-33.3 3.2-48.8 9.9-15.4 6.7-29.7 16.9-41.4 29.4l-14.9-16.1c13.8-14.6 30.4-26.4 48.5-34.2 18.1-7.8 37.6-11.7 57-11.5 19.5.2 38.9 4.6 56.8 12.8 17.9 8.3 34.3 20.4 47.7 35.3L853 135.3z"/><path fill="#76C044" d="M822.2 166.4c-7.6-8.6-16.9-15.7-27.1-20.4-10.2-4.8-21.2-7.2-32.3-7.3-11.1-.1-22.1 2.2-32.4 6.8-10.2 4.6-19.6 11.5-27.4 20l-14.9-16.1c9.8-10.6 21.6-19.1 34.4-24.7 12.8-5.7 26.7-8.5 40.6-8.3 13.9.1 27.7 3.2 40.5 9.1 12.8 5.9 24.4 14.7 34 25.4l-15.4 15.5z"/><path d="M278 287.2c2.1 3.4 4.9 6.1 8.3 8.1 3.4 2 7.3 3.5 11.6 4.3 4.3.9 8.7 1.3 13.3 1.3 3.5 0 7.2-.3 11-.8s7.4-1.5 10.6-2.9c3.2-1.4 5.9-3.5 8-6.2 2.1-2.7 3.2-6.2 3.2-10.4 0-5.8-2.2-10.2-6.6-13.1-4.4-3-9.8-5.4-16.4-7.2-6.6-1.8-13.7-3.5-21.4-5-7.7-1.5-14.8-3.6-21.4-6.3-6.6-2.7-12-6.5-16.4-11.4-4.4-4.9-6.6-11.7-6.6-20.5 0-6.8 1.5-12.7 4.6-17.6 3.1-4.9 7-8.9 11.8-11.9 4.8-3.1 10.2-5.3 16.3-6.8 6-1.5 12-2.2 18-2.2 7.7 0 14.8.7 21.3 2s12.2 3.6 17.2 6.8c5 3.2 9 7.6 11.9 13.1 3 5.5 4.7 12.4 5.3 20.6h-22.3c-.4-4.4-1.5-8-3.4-10.9-1.9-2.9-4.4-5.2-7.4-7-3-1.7-6.3-3-9.8-3.8-3.6-.8-7.2-1.2-10.9-1.2-3.3 0-6.7.3-10.1.8-3.4.5-6.5 1.4-9.3 2.8-2.8 1.3-5.1 3.1-6.8 5.3-1.8 2.2-2.6 5-2.6 8.5 0 3.9 1.4 7 4.1 9.6 2.7 2.5 6.2 4.6 10.4 6.3 4.2 1.7 8.9 3.1 14.2 4.2 5.3 1.1 10.5 2.3 15.8 3.5 5.6 1.2 11.1 2.7 16.4 4.5 5.3 1.8 10.1 4.1 14.2 7 4.1 2.9 7.4 6.5 10 10.9 2.5 4.4 3.8 9.8 3.8 16.3 0 8.2-1.7 15.1-5.1 20.5-3.4 5.4-7.9 9.8-13.4 13.1-5.5 3.3-11.7 5.6-18.6 7-6.9 1.3-13.8 2-20.6 2-7.5 0-14.7-.8-21.5-2.4-6.8-1.6-12.9-4.2-18.1-7.7-5.3-3.6-9.5-8.3-12.6-14.2-3.2-5.9-4.9-13-5.3-21.4H275c-.3 4.8.9 9 3 12.4zm219.7 30.3v-18.4h-.5c-3.7 7.5-9.5 13-17.3 16.3-7.9 3.3-16.5 5-26 5-10.5 0-19.7-1.9-27.4-5.8-7.8-3.8-14.3-9-19.4-15.5-5.2-6.5-9.1-14-11.7-22.6-2.6-8.6-3.9-17.7-3.9-27.3 0-9.6 1.3-18.7 3.8-27.3 2.5-8.6 6.4-16.1 11.6-22.5 5.2-6.4 11.6-11.5 19.4-15.2 7.8-3.8 16.8-5.6 27.2-5.6 3.5 0 7.3.4 11.3 1.1 4 .7 8.1 1.9 12.1 3.5 4 1.7 7.8 3.9 11.4 6.6 3.6 2.7 6.6 6.1 9.1 10.1h.5V130H520v187.5h-22.3zm-80.2-48.2c1.7 6 4.2 11.4 7.6 16.2 3.4 4.7 7.8 8.5 13.1 11.3 5.3 2.8 11.6 4.2 18.8 4.2 7.5 0 13.9-1.5 19.2-4.5 5.3-3 9.5-6.9 12.9-11.7 3.3-4.8 5.7-10.3 7.2-16.4 1.5-6.1 2.2-12.3 2.2-18.6 0-6.7-.8-13.1-2.4-19.3-1.6-6.2-4.1-11.7-7.5-16.4-3.4-4.7-7.8-8.5-13.3-11.4-5.4-2.9-12-4.3-19.7-4.3-7.5 0-13.9 1.5-19.2 4.5-5.3 3-9.5 6.9-12.6 11.8-3.2 4.9-5.4 10.5-6.8 16.8-1.4 6.3-2.1 12.8-2.1 19.4.1 6.2.9 12.4 2.6 18.4zm157.9-87.6v21.5h.5c9.3-16.5 24-24.7 44.1-24.7 8.9 0 16.4 1.2 22.3 3.7 5.9 2.5 10.8 5.9 14.4 10.2 3.7 4.4 6.3 9.6 7.7 15.6 1.5 6 2.2 12.7 2.2 20.1v89.3h-22.3v-91.9c0-8.4-2.5-15.1-7.4-20s-11.6-7.4-20.2-7.4c-6.8 0-12.7 1.1-17.7 3.2s-9.1 5.1-12.5 8.9c-3.3 3.9-5.8 8.4-7.5 13.5-1.7 5.2-2.5 10.8-2.5 16.9v76.7h-22.3V181.7h21.2zm230.3 127.1c-10.2 7.7-22.9 11.6-38.3 11.6-10.9 0-20.3-1.8-28.2-5.3-8-3.5-14.7-8.4-20.1-14.7-5.4-6.3-9.5-13.8-12.2-22.6-2.7-8.8-4.2-18.3-4.6-28.6 0-10.3 1.6-19.8 4.7-28.4 3.2-8.6 7.6-16 13.3-22.3 5.7-6.3 12.4-11.2 20.2-14.7 7.8-3.5 16.3-5.3 25.6-5.3 12.1 0 22.1 2.5 30.1 7.5s14.4 11.3 19.2 19c4.8 7.7 8.1 16.1 10 25.2 1.8 9.1 2.6 17.8 2.2 26H725.9c-.2 6 .5 11.6 2.1 16.9 1.6 5.3 4.1 10.1 7.6 14.2s8 7.4 13.4 9.8c5.4 2.5 11.8 3.7 19.2 3.7 9.5 0 17.2-2.2 23.2-6.6 6-4.4 10-11 11.9-20h22.1c-3 15.5-9.6 26.9-19.7 34.6zm-5.4-87.1c-2-4.7-4.7-8.8-8.1-12.2-3.4-3.4-7.4-6.1-12.1-8.1-4.6-2-9.8-3-15.4-3-5.8 0-11 1-15.6 3s-8.6 4.8-11.9 8.3c-3.3 3.5-6 7.6-7.9 12.2-1.9 4.6-3.1 9.6-3.4 14.8h78c-.4-5.3-1.6-10.3-3.6-15zm117.5-40v19.7h-27v84.3c0 2.6.2 4.7.7 6.3.4 1.6 1.3 2.8 2.5 3.7 1.2.9 2.9 1.4 5.1 1.7 2.2.3 5 .4 8.5.4h10.2v19.7h-17.1c-5.8 0-10.7-.4-14.8-1.2-4.1-.8-7.4-2.2-10-4.3-2.5-2.1-4.4-5.1-5.6-8.9-1.2-3.8-1.8-8.9-1.8-15.2v-86.4h-23.1v-19.7h23.1V141h22.3v40.7h27z"/><path d="M265.8 351.4v3.3h.1c.6-1.3 1.4-2.2 2.3-2.8.9-.6 2-.9 3.4-.8v2.7c-1 0-1.9.1-2.6.4-.7.3-1.3.7-1.7 1.2-.4.5-.8 1.2-1 2-.2.8-.3 1.7-.3 2.7v6.9h-2.6v-15.5h2.4zM290 367v-2.5h-.1c-.5 1-1.2 1.7-2.1 2.1-.8.5-1.8.7-3 .7-1 0-1.9-.1-2.6-.4-.7-.3-1.2-.7-1.7-1.2-.4-.5-.7-1.1-.9-1.8-.2-.7-.3-1.5-.3-2.3v-10.2h2.6v10.5c0 1 .3 1.7.8 2.3.6.6 1.3.8 2.3.8.8 0 1.5-.1 2-.4.6-.2 1-.6 1.4-1 .4-.4.7-1 .9-1.5.2-.6.3-1.2.3-1.9v-8.8h2.6V367H290zm14.5-15.6v3.3h.1c.6-1.3 1.4-2.2 2.3-2.8s2-.9 3.4-.8v2.7c-1 0-1.9.1-2.6.4-.7.3-1.3.7-1.7 1.2-.4.5-.8 1.2-1 2-.2.8-.3 1.7-.3 2.7v6.9h-2.6v-15.5h2.4zm25.7 15.9c-.7 0-1.2-.2-1.6-.6-.4-.4-.6-1-.6-1.8-.7.8-1.5 1.4-2.4 1.8-.9.4-1.9.6-3 .6-.7 0-1.4-.1-2-.2-.6-.1-1.2-.4-1.6-.7-.5-.4-.8-.8-1.1-1.4-.3-.6-.4-1.2-.4-2 0-.9.1-1.6.5-2.2s.7-1 1.2-1.4c.5-.3 1.1-.6 1.7-.8.6-.2 1.3-.3 1.9-.5.7-.1 1.4-.2 2-.3.6-.1 1.2-.2 1.7-.3.5-.1.9-.3 1.1-.6.3-.3.4-.6.4-1.1 0-.6-.1-1-.3-1.4-.2-.3-.5-.6-.8-.8-.3-.2-.7-.3-1.1-.4-.4-.1-.8-.1-1.2-.1-1.1 0-2 .2-2.7.6-.7.4-1.1 1.2-1.2 2.3H318c0-1 .2-1.8.6-2.4s.8-1.2 1.4-1.6c.6-.4 1.3-.7 2.1-.9s1.6-.3 2.5-.3c.7 0 1.4 0 2.1.2.7.1 1.3.3 1.9.6.6.3 1 .7 1.4 1.3.3.6.5 1.3.5 2.2v8c0 .6 0 1 .1 1.3.1.3.3.4.7.4.2 0 .5 0 .8-.2v2c-.5.6-1.2.7-1.9.7zm-3.6-7.8c-.5.1-1.1.2-1.6.3-.6.1-1.1.2-1.7.2-.6.1-1.1.2-1.6.4s-.8.5-1.1.9c-.3.4-.4.9-.4 1.5 0 .4.1.8.3 1.1.2.3.4.5.7.7.3.2.6.3 1 .4.4.1.7.1 1.1.1.8 0 1.6-.1 2.2-.3.6-.2 1.1-.5 1.5-.9.4-.3.7-.7.8-1.1.2-.4.3-.8.3-1.2V359c-.6.2-1 .4-1.5.5zm16.5-14V367h-2.6v-21.4h2.6zm26.8 0v8.2h.1c.2-.5.5-.9.8-1.2.4-.3.8-.6 1.2-.8.5-.2.9-.4 1.4-.5.5-.1 1-.2 1.4-.2 1 0 1.9.1 2.6.4.7.3 1.2.7 1.7 1.2.4.5.7 1.1.9 1.8.2.7.3 1.5.3 2.3V367h-2.6v-10.5c0-1-.3-1.7-.8-2.3s-1.3-.8-2.3-.8c-.8 0-1.5.1-2 .4-.6.2-1 .6-1.4 1-.4.4-.7 1-.9 1.5-.2.6-.3 1.2-.3 1.9v8.8h-2.6v-21.4h2.5zm20.3 3.1v-3.1h2.6v3.1h-2.6zm2.6 2.8V367h-2.6v-15.5h2.6zm21.6 19.9c-1.2 1.3-3 1.9-5.5 1.9-.7 0-1.5-.1-2.2-.2-.8-.2-1.4-.4-2-.8-.6-.4-1.1-.8-1.5-1.4-.4-.6-.6-1.3-.7-2.1h2.6c0 .5.2.9.4 1.2.3.3.6.6 1 .8.4.2.8.3 1.3.4.5.1.9.1 1.3.1.8 0 1.6-.1 2.1-.4.6-.3 1.1-.7 1.4-1.2.4-.5.7-1.1.8-1.8.2-.7.3-1.5.3-2.4v-1h-.1c-.4 1-1.1 1.7-2 2.1-.9.5-1.8.7-2.8.7-1.2 0-2.2-.2-3-.6s-1.6-1-2.2-1.7c-.6-.7-1-1.5-1.3-2.5-.3-1-.4-2-.4-3 0-.9.1-1.9.4-2.8.2-1 .6-1.9 1.2-2.6.6-.8 1.3-1.4 2.2-2 .9-.5 2.1-.8 3.4-.8 1 0 1.9.2 2.7.6.8.4 1.5 1.1 1.9 1.9v-2.2h2.4v14.2c.1 2.5-.5 4.4-1.7 5.6zm-3.2-6.9c.6-.4 1.1-.8 1.4-1.4.4-.6.6-1.2.8-1.9.2-.7.3-1.4.3-2.2 0-.7-.1-1.4-.2-2-.2-.7-.4-1.3-.8-1.8-.3-.5-.8-1-1.4-1.3-.6-.3-1.2-.5-2-.5s-1.5.2-2.1.5c-.6.3-1.1.7-1.4 1.2s-.6 1.1-.8 1.8-.3 1.4-.3 2.1c0 .7.1 1.4.2 2.1.1.7.4 1.3.7 1.9.3.6.8 1 1.4 1.4.6.4 1.3.5 2.1.5.7.1 1.5-.1 2.1-.4zm17.4-18.9v8.2h.1c.2-.5.5-.9.8-1.2.4-.3.8-.6 1.2-.8.5-.2.9-.4 1.4-.5.5-.1 1-.2 1.4-.2 1 0 1.9.1 2.6.4.7.3 1.2.7 1.7 1.2.4.5.7 1.1.9 1.8.2.7.3 1.5.3 2.3V367h-2.6v-10.5c0-1-.3-1.7-.8-2.3s-1.3-.8-2.3-.8c-.8 0-1.5.1-2 .4-.6.2-1 .6-1.4 1-.4.4-.7 1-.9 1.5-.2.6-.3 1.2-.3 1.9v8.8H426v-21.4h2.6zm36.4 18c.2.4.6.7.9.9.4.2.8.4 1.3.5.5.1 1 .2 1.5.2.4 0 .8 0 1.3-.1l1.2-.3c.4-.2.7-.4.9-.7.2-.3.4-.7.4-1.2 0-.7-.3-1.2-.8-1.5-.5-.3-1.1-.6-1.9-.8l-2.4-.6c-.9-.2-1.7-.4-2.4-.7-.8-.3-1.4-.7-1.9-1.3-.5-.6-.8-1.3-.8-2.3 0-.8.2-1.5.5-2 .3-.6.8-1 1.4-1.4.6-.4 1.2-.6 1.9-.8.7-.2 1.4-.3 2.1-.3.9 0 1.7.1 2.4.2s1.4.4 2 .8c.6.4 1 .9 1.4 1.5.3.6.5 1.4.6 2.4H472c0-.5-.2-.9-.4-1.2-.2-.3-.5-.6-.8-.8-.3-.2-.7-.3-1.1-.4-.4-.1-.8-.1-1.2-.1-.4 0-.8 0-1.2.1-.4.1-.7.2-1.1.3-.3.2-.6.4-.8.6-.2.3-.3.6-.3 1s.2.8.5 1.1c.3.3.7.5 1.2.7.5.2 1 .4 1.6.5s1.2.3 1.8.4c.6.1 1.3.3 1.9.5s1.2.5 1.6.8c.5.3.9.7 1.1 1.2.3.5.4 1.1.4 1.9 0 .9-.2 1.7-.6 2.3-.4.6-.9 1.1-1.5 1.5-.6.4-1.3.6-2.1.8-.8.2-1.6.2-2.4.2-.9 0-1.7-.1-2.5-.3-.8-.2-1.5-.5-2.1-.9-.6-.4-1.1-.9-1.4-1.6-.4-.7-.6-1.5-.6-2.4h2.6c0 .4.2.9.4 1.3zm21.7-12.1v2.1h.1c.4-.9 1.1-1.5 2-1.9.9-.4 1.9-.6 3-.6 1.2 0 2.2.2 3.1.7.9.4 1.6 1 2.2 1.8.6.8 1 1.6 1.3 2.6s.5 2 .5 3.1-.1 2.1-.4 3.1c-.3 1-.7 1.8-1.3 2.6-.6.7-1.3 1.3-2.2 1.7-.9.4-1.9.6-3.1.6-.4 0-.8 0-1.3-.1s-.9-.2-1.4-.4c-.5-.2-.9-.4-1.3-.7-.4-.3-.8-.7-1-1.2h-.1v8h-2.6v-21.4h2.5zm9.2 5.5c-.2-.7-.5-1.3-.9-1.8s-.9-1-1.5-1.3c-.6-.3-1.3-.5-2.1-.5-.9 0-1.6.2-2.2.5s-1.1.8-1.5 1.3c-.4.6-.7 1.2-.8 1.9-.2.7-.3 1.4-.3 2.1 0 .8.1 1.5.3 2.2.2.7.5 1.3.9 1.9.4.5.9 1 1.5 1.3.6.3 1.4.5 2.3.5.9 0 1.6-.2 2.2-.5.6-.3 1.1-.8 1.4-1.4.4-.6.6-1.2.8-1.9.2-.7.2-1.5.2-2.2 0-.7-.1-1.4-.3-2.1zm23 9.1c-1.2.9-2.6 1.3-4.4 1.3-1.2 0-2.3-.2-3.2-.6-.9-.4-1.7-1-2.3-1.7-.6-.7-1.1-1.6-1.4-2.6-.3-1-.5-2.1-.5-3.3 0-1.2.2-2.3.5-3.2.4-1 .9-1.8 1.5-2.6s1.4-1.3 2.3-1.7c.9-.4 1.9-.6 2.9-.6 1.4 0 2.5.3 3.4.9.9.6 1.6 1.3 2.2 2.2.6.9.9 1.8 1.1 2.9.2 1 .3 2 .3 3h-11.6c0 .7.1 1.3.2 1.9.2.6.5 1.2.9 1.6.4.5.9.8 1.5 1.1.6.3 1.4.4 2.2.4 1.1 0 2-.2 2.7-.8.7-.5 1.1-1.3 1.4-2.3h2.5c-.3 1.9-1.1 3.2-2.2 4.1zm-.6-10c-.2-.5-.5-1-.9-1.4-.4-.4-.9-.7-1.4-.9-.5-.2-1.1-.3-1.8-.3s-1.3.1-1.8.3c-.5.2-1 .5-1.4.9-.4.4-.7.9-.9 1.4-.2.5-.3 1.1-.4 1.7h8.9c0-.6-.1-1.2-.3-1.7zm22.7 10c-1.2.9-2.6 1.3-4.4 1.3-1.2 0-2.3-.2-3.2-.6-.9-.4-1.7-1-2.3-1.7-.6-.7-1.1-1.6-1.4-2.6-.3-1-.5-2.1-.5-3.3 0-1.2.2-2.3.5-3.2.4-1 .9-1.8 1.5-2.6.7-.7 1.4-1.3 2.3-1.7s1.9-.6 2.9-.6c1.4 0 2.5.3 3.4.9.9.6 1.6 1.3 2.2 2.2.6.9.9 1.8 1.1 2.9.2 1 .3 2 .3 3h-11.6c0 .7.1 1.3.2 1.9.2.6.5 1.2.9 1.6.4.5.9.8 1.5 1.1.6.3 1.4.4 2.2.4 1.1 0 2-.2 2.7-.8.7-.5 1.1-1.3 1.4-2.3h2.5c-.3 1.9-1 3.2-2.2 4.1zm-.6-10c-.2-.5-.5-1-.9-1.4-.4-.4-.9-.7-1.4-.9-.5-.2-1.1-.3-1.8-.3s-1.3.1-1.8.3c-.5.2-1 .5-1.4.9-.4.4-.7.9-.9 1.4-.2.5-.3 1.1-.4 1.7h8.9c0-.6-.1-1.2-.3-1.7zm23.1 11v-2.1h-.1c-.4.9-1.1 1.5-2 1.9s-1.9.6-3 .6c-1.2 0-2.2-.2-3.1-.7-.9-.4-1.6-1-2.2-1.8-.6-.7-1-1.6-1.3-2.6s-.5-2-.5-3.1.1-2.1.4-3.1c.3-1 .7-1.8 1.3-2.6.6-.7 1.3-1.3 2.2-1.7.9-.4 1.9-.6 3.1-.6.4 0 .8 0 1.3.1s.9.2 1.4.4c.5.2.9.4 1.3.8.4.3.8.7 1 1.2h.1v-8h2.6V367h-2.5zm-9.2-5.6c.2.7.5 1.3.9 1.8s.9 1 1.5 1.3c.6.3 1.3.5 2.1.5.9 0 1.6-.2 2.2-.5s1.1-.8 1.5-1.3c.4-.6.7-1.2.8-1.9.2-.7.3-1.4.3-2.1 0-.8-.1-1.5-.3-2.2-.2-.7-.5-1.3-.9-1.9-.4-.5-.9-1-1.5-1.3-.6-.3-1.4-.5-2.3-.5-.9 0-1.6.2-2.2.5s-1.1.8-1.4 1.4c-.4.6-.6 1.2-.8 1.9-.2.7-.2 1.5-.2 2.2 0 .8.1 1.5.3 2.1zM603 367l-3.2-12.3h-.1l-3.1 12.3h-2.8l-5-15.5h2.8l3.5 12.7h.1l3.1-12.7h2.8l3.2 12.7h.1l3.5-12.7h2.6l-5 15.5H603zm16.2-18.4v-3.1h2.6v3.1h-2.6zm2.6 2.8V367h-2.6v-15.5h2.6zm12.2 0v3.3h.1c.6-1.3 1.4-2.2 2.3-2.8.9-.6 2-.9 3.4-.8v2.7c-1 0-1.9.1-2.6.4-.7.3-1.3.7-1.7 1.2-.4.5-.8 1.2-1 2-.2.8-.3 1.7-.3 2.7v6.9h-2.6v-15.5h2.4zm24.2 14.6c-1.2.9-2.6 1.3-4.4 1.3-1.2 0-2.3-.2-3.2-.6-.9-.4-1.7-1-2.3-1.7s-1.1-1.6-1.4-2.6c-.3-1-.5-2.1-.5-3.3 0-1.2.2-2.3.5-3.2.4-1 .9-1.8 1.5-2.6.7-.7 1.4-1.3 2.3-1.7.9-.4 1.9-.6 2.9-.6 1.4 0 2.5.3 3.4.9.9.6 1.6 1.3 2.2 2.2.6.9.9 1.8 1.1 2.9.2 1 .3 2 .3 3H649c0 .7.1 1.3.2 1.9.2.6.5 1.2.9 1.6.4.5.9.8 1.5 1.1.6.3 1.4.4 2.2.4 1.1 0 2-.2 2.7-.8.7-.5 1.1-1.3 1.4-2.3h2.5c-.3 1.9-1.1 3.2-2.2 4.1zm-.6-10c-.2-.5-.5-1-.9-1.4-.4-.4-.9-.7-1.4-.9-.5-.2-1.1-.3-1.8-.3s-1.3.1-1.8.3c-.5.2-1 .5-1.4.9-.4.4-.7.9-.9 1.4-.2.5-.4 1.1-.4 1.7h8.9c0-.6-.1-1.2-.3-1.7zm14.4-10.5V367h-2.6v-21.4h2.6zm21 20.5c-1.2.9-2.6 1.3-4.4 1.3-1.2 0-2.3-.2-3.2-.6-.9-.4-1.7-1-2.3-1.7s-1.1-1.6-1.4-2.6c-.3-1-.5-2.1-.5-3.3 0-1.2.2-2.3.5-3.2.4-1 .9-1.8 1.5-2.6s1.4-1.3 2.3-1.7c.9-.4 1.9-.6 2.9-.6 1.4 0 2.5.3 3.4.9.9.6 1.6 1.3 2.2 2.2.6.9.9 1.8 1.1 2.9.2 1 .3 2 .3 3h-11.6c0 .7.1 1.3.2 1.9.2.6.5 1.2.9 1.6.4.5.9.8 1.5 1.1.6.3 1.4.4 2.2.4 1.1 0 2-.2 2.7-.8.7-.5 1.1-1.3 1.4-2.3h2.5c-.3 1.9-1.1 3.2-2.2 4.1zm-.6-10c-.2-.5-.5-1-.9-1.4-.4-.4-.9-.7-1.4-.9-.5-.2-1.1-.3-1.8-.3s-1.3.1-1.8.3c-.5.2-1 .5-1.4.9-.4.4-.7.9-.9 1.4-.2.5-.4 1.1-.4 1.7h8.9c0-.6-.1-1.2-.3-1.7zm13.7 7.5c.2.4.6.7.9.9.4.2.8.4 1.3.5.5.1 1 .2 1.5.2.4 0 .8 0 1.3-.1l1.2-.3c.4-.2.7-.4.9-.7.2-.3.4-.7.4-1.2 0-.7-.3-1.2-.8-1.5-.5-.3-1.1-.6-1.9-.8l-2.4-.6c-.9-.2-1.7-.4-2.4-.7-.8-.3-1.4-.7-1.9-1.3-.5-.6-.8-1.3-.8-2.3 0-.8.2-1.5.5-2 .4-.6.8-1 1.4-1.4.6-.4 1.2-.6 1.9-.8.7-.2 1.4-.3 2.1-.3.9 0 1.7.1 2.4.2s1.4.4 2 .8c.6.4 1 .9 1.4 1.5.3.6.5 1.4.6 2.4h-2.6c0-.5-.2-.9-.4-1.2-.2-.3-.5-.6-.8-.8-.3-.2-.7-.3-1.1-.4-.4-.1-.8-.1-1.2-.1-.4 0-.8 0-1.2.1-.4.1-.7.2-1.1.3-.3.2-.6.4-.8.6-.2.3-.3.6-.3 1s.2.8.5 1.1c.3.3.7.5 1.2.7.5.2 1 .4 1.6.5s1.2.3 1.8.4c.6.1 1.3.3 1.9.5s1.2.5 1.6.8c.5.3.9.7 1.1 1.2.3.5.4 1.1.4 1.9 0 .9-.2 1.7-.6 2.3-.4.6-.9 1.1-1.5 1.5-.6.4-1.3.6-2.1.8-.8.2-1.6.2-2.4.2-.9 0-1.7-.1-2.5-.3-.8-.2-1.5-.5-2.1-.9-.6-.4-1.1-.9-1.4-1.6-.4-.7-.6-1.5-.6-2.4h2.6c0 .4.1.9.4 1.3zm21 0c.2.4.6.7.9.9.4.2.8.4 1.3.5.5.1 1 .2 1.5.2.4 0 .8 0 1.3-.1l1.2-.3c.4-.2.7-.4.9-.7.2-.3.4-.7.4-1.2 0-.7-.3-1.2-.8-1.5-.5-.3-1.1-.6-1.9-.8l-2.4-.6c-.9-.2-1.7-.4-2.4-.7-.8-.3-1.4-.7-1.9-1.3-.5-.6-.8-1.3-.8-2.3 0-.8.2-1.5.5-2 .4-.6.8-1 1.4-1.4.6-.4 1.2-.6 1.9-.8.7-.2 1.4-.3 2.1-.3.9 0 1.7.1 2.4.2s1.4.4 2 .8c.6.4 1 .9 1.4 1.5.3.6.5 1.4.6 2.4h-2.6c0-.5-.2-.9-.4-1.2-.2-.3-.5-.6-.8-.8-.3-.2-.7-.3-1.1-.4-.4-.1-.8-.1-1.2-.1-.4 0-.8 0-1.2.1-.4.1-.7.2-1.1.3-.3.2-.6.4-.8.6-.2.3-.3.6-.3 1s.2.8.5 1.1c.3.3.7.5 1.2.7.5.2 1 .4 1.6.5s1.2.3 1.8.4c.6.1 1.3.3 1.9.5s1.2.5 1.6.8c.5.3.9.7 1.1 1.2.3.5.4 1.1.4 1.9 0 .9-.2 1.7-.6 2.3-.4.6-.9 1.1-1.5 1.5-.6.4-1.3.6-2.1.8-.8.2-1.6.2-2.4.2-.9 0-1.7-.1-2.5-.3-.8-.2-1.5-.5-2.1-.9-.6-.4-1.1-.9-1.4-1.6-.4-.7-.6-1.5-.6-2.4h2.6c0 .4.2.9.4 1.3zm33.6-14.9v-3.1h2.6v3.1h-2.6zm2.5 2.8V367h-2.6v-15.5h2.6zm12.4 0v2.5h.1c1.1-1.9 2.7-2.8 5-2.8 1 0 1.9.1 2.6.4.7.3 1.2.7 1.7 1.2.4.5.7 1.1.9 1.8.2.7.3 1.5.3 2.3V367h-2.6v-10.5c0-1-.3-1.7-.8-2.3-.6-.6-1.3-.8-2.3-.8-.8 0-1.5.1-2 .4-.6.2-1 .6-1.4 1-.4.4-.7 1-.9 1.5-.2.6-.3 1.2-.3 1.9v8.8h-2.6v-15.5h2.3zm26.9 0v2.3h-3.1v9.6c0 .3 0 .5.1.7 0 .2.1.3.3.4.1.1.3.2.6.2h2.2v2.3h-2c-.7 0-1.2 0-1.7-.1s-.9-.3-1.1-.5c-.3-.2-.5-.6-.6-1-.1-.4-.2-1-.2-1.7v-9.9h-2.6v-2.3h2.6v-4.7h2.6v4.7h2.9zm19.8 14.6c-1.2.9-2.6 1.3-4.4 1.3-1.2 0-2.3-.2-3.2-.6-.9-.4-1.7-1-2.3-1.7s-1.1-1.6-1.4-2.6c-.3-1-.5-2.1-.5-3.3 0-1.2.2-2.3.5-3.2.4-1 .9-1.8 1.5-2.6.7-.7 1.4-1.3 2.3-1.7.9-.4 1.9-.6 2.9-.6 1.4 0 2.5.3 3.4.9.9.6 1.6 1.3 2.2 2.2.6.9.9 1.8 1.1 2.9.2 1 .3 2 .3 3h-11.6c0 .7.1 1.3.2 1.9.2.6.5 1.2.9 1.6.4.5.9.8 1.5 1.1.6.3 1.4.4 2.2.4 1.1 0 2-.2 2.7-.8.7-.5 1.1-1.3 1.4-2.3h2.5c-.3 1.9-1 3.2-2.2 4.1zm-.6-10c-.2-.5-.5-1-.9-1.4-.4-.4-.9-.7-1.4-.9-.5-.2-1.1-.3-1.8-.3s-1.3.1-1.8.3c-.5.2-1 .5-1.4.9-.4.4-.7.9-.9 1.4-.2.5-.4 1.1-.4 1.7h8.9c.1-.6-.1-1.2-.3-1.7zm14.1-4.6v3.3h.1c.6-1.3 1.4-2.2 2.3-2.8.9-.6 2-.9 3.4-.8v2.7c-1 0-1.9.1-2.6.4-.7.3-1.3.7-1.7 1.2-.4.5-.8 1.2-1 2-.2.8-.3 1.7-.3 2.7v6.9h-2.6v-15.5h2.4zm16.6 0v2.5h.1c1.1-1.9 2.7-2.8 5-2.8 1 0 1.9.1 2.6.4.7.3 1.2.7 1.7 1.2.4.5.7 1.1.9 1.8.2.7.3 1.5.3 2.3V367h-2.6v-10.5c0-1-.3-1.7-.8-2.3-.6-.6-1.3-.8-2.3-.8-.8 0-1.5.1-2 .4-.6.2-1 .6-1.4 1-.4.4-.7 1-.9 1.5s-.3 1.2-.3 1.9v8.8H850v-15.5h2.4zm31.3 14.6c-1.2.9-2.6 1.3-4.4 1.3-1.2 0-2.3-.2-3.2-.6-.9-.4-1.7-1-2.3-1.7s-1.1-1.6-1.4-2.6c-.3-1-.5-2.1-.5-3.3 0-1.2.2-2.3.5-3.2.4-1 .9-1.8 1.5-2.6s1.4-1.3 2.3-1.7c.9-.4 1.9-.6 2.9-.6 1.4 0 2.5.3 3.4.9.9.6 1.6 1.3 2.2 2.2.6.9.9 1.8 1.1 2.9.2 1 .3 2 .3 3h-11.6c0 .7.1 1.3.2 1.9.2.6.5 1.2.9 1.6.4.5.9.8 1.5 1.1.6.3 1.4.4 2.2.4 1.1 0 2-.2 2.7-.8.7-.5 1.1-1.3 1.4-2.3h2.5c-.3 1.9-1 3.2-2.2 4.1zm-.6-10c-.2-.5-.5-1-.9-1.4-.4-.4-.9-.7-1.4-.9-.5-.2-1.1-.3-1.8-.3s-1.3.1-1.8.3c-.5.2-1 .5-1.4.9-.4.4-.7.9-.9 1.4-.2.5-.4 1.1-.4 1.7h8.9c.1-.6-.1-1.2-.3-1.7zm18.4-4.6v2.3h-3.1v9.6c0 .3 0 .5.1.7 0 .2.1.3.3.4.1.1.3.2.6.2h2.2v2.3h-2c-.7 0-1.2 0-1.7-.1s-.9-.3-1.1-.5c-.3-.2-.5-.6-.6-1-.1-.4-.2-1-.2-1.7v-9.9h-2.6v-2.3h2.6v-4.7h2.6v4.7h2.9z" fill="#231F20"/></svg>