<?xml version="1.0" encoding="utf-8"?>
<!-- Generator: Adobe Illustrator 18.1.1, SVG Export Plug-In . SVG Version: 6.00 Build 0)  -->
<!DOCTYPE svg PUBLIC "-//W3C//DTD SVG 1.1//EN" "http://www.w3.org/Graphics/SVG/1.1/DTD/svg11.dtd">
<svg version="1.1" id="Layer_1" xmlns="http://www.w3.org/2000/svg" xmlns:xlink="http://www.w3.org/1999/xlink" x="0px" y="0px"
	 width="800px" height="166.8px" viewBox="-599 217.6 800 166.8" enable-background="new -599 217.6 800 166.8"
	 xml:space="preserve">
<g>
	<polygon fill-rule="evenodd" clip-rule="evenodd" fill="#F48120" points="-527.3,378.8 -467.4,378.8 -439.2,348.5 -409.8,377.9 
		-282.1,377.9 -437.4,217.6 -599,378.9 	"/>
	<g>
		<path fill-rule="evenodd" clip-rule="evenodd" fill="#404041" d="M195.4,240.7c0-2.4-1.8-3.5-5.4-3.5h-4.8v12.2h3v-5h1.5l2.4,5
			h3.3l-2.7-5.4C194.4,243.6,195.4,242.4,195.4,240.7z M189.7,242.7h-1.5V239h1.4c1.8,0,2.7,0.6,2.7,1.8
			C192.2,242.1,191.3,242.7,189.7,242.7z"/>
		<path fill-rule="evenodd" clip-rule="evenodd" fill="#404041" d="M197.8,235.7c-2.1-2.1-5-3.3-8-3.3c-4.1,0-7.5,2-9.5,5.4
			c-1.2,1.8-1.7,3.8-1.7,5.7c0,2.9,1.1,5.6,3.2,7.7c2.1,2.1,5,3.3,8,3.3c2.9,0,5.7-1.2,7.8-3.2c2.1-2.1,3.3-4.8,3.3-7.8
			C201,240.6,199.9,237.8,197.8,235.7z M196.5,250.1c-2,1.7-4.2,2.7-6.6,2.7c-2.6,0-4.8-1.1-6.6-2.9c-1.8-1.7-2.7-3.9-2.7-6.3
			c0-2.6,1.1-4.8,2.9-6.6c1.7-1.8,3.9-2.7,6.5-2.7c2.6,0,4.8,1.1,6.6,2.9c1.8,1.7,2.7,3.9,2.7,6.6
			C199.2,246,198.1,248.4,196.5,250.1z"/>
		<path fill-rule="evenodd" clip-rule="evenodd" fill="#404041" d="M-229.9,262c0-2.9,1.5-5.7,9.2-5.7c9.2,0,15.4,4.7,20.2,8v-31.7
			c-2.6,1.8-4.4,2-7.4,2c-5.7,0-10.6-2-18.7-2c-22.5,0-36.2,13.7-36.2,30.8c0,26.4,44.4,29.6,44.4,47.2c0,7.5-7.1,12.7-17.4,12.7
			c-6.5,0-11.6-1.8-16.3-4.7l-50.1-85.4c-0.2-0.3-1.1-0.3-1.2-0.2l-64.4,107.9c-0.9,1.7-2.6,3.6-4.5,4.7h43.9c-2-1.7-3.2-3-3.2-5.4
			c0-1.8,0.5-3.2,1.4-5.1l3.3-6.8h47.1l3.2,6.8c1.1,2,1.4,3.3,1.4,5.1c0,2.4-1.1,3.8-3,5.4h31.4c4.2,0.6,8.6,0.8,13.6,0.8
			c29.3,0,47.7-13.1,47.7-34.9C-185.6,278.4-229.9,274.2-229.9,262z M-313.9,306.1l11.5-18.6l11.6,18.6H-313.9z"/>
		<path fill-rule="evenodd" clip-rule="evenodd" fill="#404041" d="M-82.3,344.5h70.2v-29.1c-3.8,3.5-8.3,5.3-14.3,5.3h-19.5v-74.3
			c0-5.9,1.2-9.7,4.8-11.3h-41.2c3.8,1.7,4.8,5.4,4.8,11.3v86.6C-77.4,339-78.5,342.9-82.3,344.5z"/>
		<path fill-rule="evenodd" clip-rule="evenodd" fill="#404041" d="M-150.8,333.1v-32.6h29.9v32.6c0,5.9-1.2,9.8-4.8,11.5h41.2
			c-3.6-1.7-4.8-5.6-4.8-11.5v-86.6c0-5.9,1.2-9.7,4.8-11.3h-41.2c3.6,1.7,4.8,5.4,4.8,11.3v30.5h-29.9v-30.5
			c0-5.9,1.2-9.7,4.8-11.3h-41.2c3.6,1.7,4.8,5.4,4.8,11.3v86.6c0,5.9-1.2,9.8-4.8,11.5h41.2C-149.6,342.9-150.8,339-150.8,333.1z"
			/>
		<path fill-rule="evenodd" clip-rule="evenodd" fill="#404041" d="M130.1,235.1c2,1.4,3.3,2.7,3.3,4.8c0,1.7-0.9,3.3-2.9,6.3
			l-16.1,24.9l-17.2-24.4c-2.3-3.5-3.5-5.3-3.5-6.8c0-2.1,1.4-3.5,3.3-4.8H73.2H49.8h-59.9c4.5,2.3,5.4,5.9,5.4,11.3v86.6
			c0,5.9-1.2,9.8-4.8,11.5h83.3v-29.1c-3.9,3.5-8.5,5.3-14.3,5.3H26.8v-19.2h21.4c5.4,0,7.8,2.6,10.7,5.4v-34.4
			c-2.9,2.7-5.3,5.4-10.7,5.4H26.8v-19.3h32c5.9,0,10.6,2,14.3,5.6v-1.1L97.8,295v38c0,5.9-1.2,9.8-4.8,11.5h41.2
			c-3.6-1.7-4.8-5.6-4.8-11.5v-38l42-52.8c2.7-3.2,5.1-5.4,7.7-7.1H130.1z"/>
		<polygon fill-rule="evenodd" clip-rule="evenodd" fill="#404041" points="-274.2,380.3 -271.5,380.3 -271.5,371.3 -261.9,371.3 
			-261.9,369.3 -271.5,369.3 -271.5,363.3 -259.3,363.3 -259.3,361.3 -274.2,361.3 		"/>
		<path fill-rule="evenodd" clip-rule="evenodd" fill="#404041" d="M-243.6,373.4c0,3.6-1.5,5.3-5.4,5.3c-3.6,0-5.3-1.7-5.3-5.3
			v-12.1h-2.9v12.1c0,5,2.4,7.2,8,7.2c5.6,0,8.1-2.4,8.1-7.2v-12.1h-2.6V373.4z"/>
		<path fill-rule="evenodd" clip-rule="evenodd" fill="#404041" d="M-219,366.7c0-3.5-2.9-5.4-8.5-5.4h-8.3v19h2.9V372h6.9l4.5,8.3
			h2.9l-4.8-8.8C-220.4,370.6-219,369-219,366.7z M-227.9,370h-5v-6.8h5.3c3.6,0,5.6,1.2,5.6,3.5C-222,369-224,370-227.9,370z"/>
		<polygon fill-rule="evenodd" clip-rule="evenodd" fill="#404041" points="-200.1,377 -211.1,361.3 -215.1,361.3 -215.1,380.3 
			-212.7,380.3 -212.7,363.4 -200.7,380.3 -197.7,380.3 -197.7,361.3 -200.1,361.3 		"/>
		<rect x="-192.3" y="361.3" fill-rule="evenodd" clip-rule="evenodd" fill="#404041" width="2.9" height="19"/>
		<polygon fill-rule="evenodd" clip-rule="evenodd" fill="#404041" points="-187,363.3 -180.4,363.3 -180.4,380.3 -177.3,380.3 
			-177.3,363.3 -170.7,363.3 -170.7,361.3 -187,361.3 		"/>
		<path fill-rule="evenodd" clip-rule="evenodd" fill="#404041" d="M-154.7,373.4c0,3.6-1.5,5.3-5.4,5.3c-3.8,0-5.3-1.7-5.3-5.3
			v-12.1h-2.9v12.1c0,5,2.4,7.2,7.8,7.2c5.6,0,8.1-2.4,8.1-7.2v-12.1h-2.4V373.4z"/>
		<path fill-rule="evenodd" clip-rule="evenodd" fill="#404041" d="M-130.1,366.7c0-3.5-2.9-5.4-8.6-5.4h-8.1v19h2.9V372h6.8
			l4.5,8.3h2.9l-4.7-8.8C-131.6,370.6-130.1,369-130.1,366.7z M-139,370h-5v-6.8h5.1c3.8,0,5.6,1.2,5.6,3.5
			C-133.3,369-135.1,370-139,370z"/>
		<polygon fill-rule="evenodd" clip-rule="evenodd" fill="#404041" points="-123.3,371.3 -113.8,371.3 -113.8,369.3 -123.3,369.3 
			-123.3,363.3 -111.2,363.3 -111.2,361.3 -126.2,361.3 -126.2,380.3 -110.9,380.3 -110.9,378.3 -123.3,378.3 		"/>
		<rect x="-97.4" y="361.3" fill-rule="evenodd" clip-rule="evenodd" fill="#404041" width="2.9" height="19"/>
		<polygon fill-rule="evenodd" clip-rule="evenodd" fill="#404041" points="-74,377 -85.1,361.3 -89.1,361.3 -89.1,380.3 
			-86.6,380.3 -86.6,363.4 -74.6,380.3 -71.7,380.3 -71.7,361.3 -74,361.3 		"/>
		<path fill-rule="evenodd" clip-rule="evenodd" fill="#404041" d="M-52.4,362.8c-1.5-1.1-3.6-1.5-6.2-1.5h-7.7v19h7.2
			c6.9,0,11.3-3.8,11.3-9.5C-47.7,367.3-49.4,364.6-52.4,362.8z M-58.9,378.3h-4.5v-15.1h4.4c5.3,0,8.1,2.7,8.1,7.5
			C-50.9,375.6-53.7,378.3-58.9,378.3z"/>
		<path fill-rule="evenodd" clip-rule="evenodd" fill="#404041" d="M-30.2,373.4c0,3.6-1.5,5.3-5.4,5.3c-3.8,0-5.3-1.7-5.3-5.3
			v-12.1h-2.9v12.1c0,5,2.4,7.2,7.8,7.2c5.6,0,8.1-2.4,8.1-7.2v-12.1h-2.4V373.4z"/>
		<path fill-rule="evenodd" clip-rule="evenodd" fill="#404041" d="M-13.6,369.6c-1.8-0.5-3.6-0.8-5.1-1.5c-0.8-0.5-1.4-1.2-1.4-2.1
			c0-1.8,2-3,5-3c3,0,5.1,1.1,5.9,3.3l2.7-0.6c-1.2-3-4.2-4.7-8.6-4.7c-4.8,0-8,2.3-8,5.4c0,1.2,0.6,2.3,1.8,3
			c1.8,1.5,4.1,1.7,6.3,2.1c3.9,0.9,5.9,1.5,5.9,3.8c0,1.8-2.1,3.3-5.6,3.3c-3.3,0-5.7-1.4-6.8-3.9l-2.7,0.3
			c1.4,3.6,4.7,5.6,9.7,5.6c5.1,0,8.6-2.3,8.6-5.4C-5.9,372-8.5,370.6-13.6,369.6z"/>
		<polygon fill-rule="evenodd" clip-rule="evenodd" fill="#404041" points="-4.8,363.3 1.9,363.3 1.9,380.3 4.8,380.3 4.8,363.3 
			11.5,363.3 11.5,361.3 -4.8,361.3 		"/>
		<path fill-rule="evenodd" clip-rule="evenodd" fill="#404041" d="M30.6,366.7c0-3.5-2.9-5.4-8.6-5.4h-8.1v19h2.9V372h6.8l4.5,8.3
			h2.9l-4.7-8.8C29.1,370.6,30.6,369,30.6,366.7z M21.7,370h-5v-6.8h5.1c3.8,0,5.6,1.2,5.6,3.5C27.4,369,25.6,370,21.7,370z"/>
		<rect x="34.5" y="361.3" fill-rule="evenodd" clip-rule="evenodd" fill="#404041" width="3" height="19"/>
		<polygon fill-rule="evenodd" clip-rule="evenodd" fill="#404041" points="45.9,371.3 55.4,371.3 55.4,369.3 45.9,369.3 
			45.9,363.3 58.1,363.3 58.1,361.3 43,361.3 43,380.3 58.4,380.3 58.4,378.3 45.9,378.3 		"/>
		<path fill-rule="evenodd" clip-rule="evenodd" fill="#404041" d="M70.3,369.6c-1.8-0.5-3.6-0.8-5.1-1.5c-0.9-0.5-1.4-1.2-1.4-2.1
			c0-1.8,1.8-3,5-3c3,0,5,1.1,5.9,3.3l2.7-0.6c-1.2-3-4.2-4.7-8.6-4.7c-4.8,0-8,2.3-8,5.4c0,1.2,0.6,2.3,1.7,3
			c2,1.5,4.2,1.7,6.5,2.1c3.9,0.9,5.9,1.5,5.9,3.8c0,1.8-2.3,3.3-5.6,3.3c-3.3,0-5.7-1.4-6.8-3.9l-2.9,0.3c1.4,3.6,4.8,5.6,9.7,5.6
			c5.3,0,8.6-2.3,8.6-5.4C77.9,372,75.4,370.6,70.3,369.6z"/>
		<polygon fill-rule="evenodd" clip-rule="evenodd" fill="#404041" points="82.7,380.6 84.5,380.6 82.4,384.4 83.9,384.4 
			86.5,380.2 86.5,377.3 82.7,377.3 		"/>
		<rect x="102.6" y="361.3" fill-rule="evenodd" clip-rule="evenodd" fill="#404041" width="3" height="19"/>
		<polygon fill-rule="evenodd" clip-rule="evenodd" fill="#404041" points="126,377 114.8,361.3 111.1,361.3 111.1,380.3 
			113.3,380.3 113.3,363.4 125.5,380.3 128.4,380.3 128.4,361.3 126,361.3 		"/>
		<path fill-rule="evenodd" clip-rule="evenodd" fill="#404041" d="M142.1,378.6c-4.1,0-6.6-2.9-6.6-7.8s2.7-7.8,6.6-7.8
			c3,0,5.1,1.5,5.9,4.5l2.6-0.5c-1.1-3.9-4.1-6-8.5-6c-2.6,0-4.8,0.8-6.5,2.3c-2.3,1.8-3.3,4.4-3.3,7.5c0,6.2,3.8,9.8,9.8,9.8
			c4.4,0,7.4-2.1,8.6-6.2L148,374C147.1,377.1,145.2,378.6,142.1,378.6z"/>
		<rect x="154.8" y="377" fill-rule="evenodd" clip-rule="evenodd" fill="#404041" width="3.8" height="3.3"/>
	</g>
</g>
</svg>
