<?xml version="1.0" encoding="utf-8"?>
<!-- Generator: Adobe Illustrator 18.1.1, SVG Export Plug-In . SVG Version: 6.00 Build 0)  -->
<!DOCTYPE svg PUBLIC "-//W3C//DTD SVG 1.1//EN" "http://www.w3.org/Graphics/SVG/1.1/DTD/svg11.dtd">
<svg version="1.1" id="Layer_1" xmlns="http://www.w3.org/2000/svg" xmlns:xlink="http://www.w3.org/1999/xlink" x="0px" y="0px"
	 width="200px" height="200px" viewBox="64 126 200 200" enable-background="new 64 126 200 200" xml:space="preserve">
<g>
	<path fill="#CCCED3" d="M261.3,211.8c0-0.6-0.4-0.9-1.3-0.9h-1.2v0.1v3h0.7v-1.3h0.4l0.6,1.2h0.8l-0.7-1.3
		C261,212.5,261.3,212.2,261.3,211.8z M260,212.2h-0.4v-0.8h0.3c0.4,0,0.7,0.1,0.7,0.4S260.4,212.2,260,212.2z"/>
	<path fill="#CCCED3" d="M262,210.6c-0.5-0.5-1.2-0.8-2-0.8c-1,0-1.9,0.5-2.3,1.3c-0.3,0.4-0.4,0.9-0.4,1.4c0,0.7,0.3,1.4,0.8,1.9
		s1.2,0.8,2,0.8c0.7,0,1.4-0.3,1.9-0.8s0.8-1.2,0.8-1.9C262.8,211.8,262.5,211.1,262,210.6z M261.5,214.1c-0.5,0.4-1,0.7-1.6,0.7
		c-0.6,0-1.2-0.3-1.6-0.7c-0.4-0.4-0.7-1-0.7-1.6c0-0.6,0.3-1.2,0.7-1.6c0.4-0.5,1-0.7,1.6-0.7c0.6,0,1.2,0.3,1.6,0.7
		c0.4,0.4,0.7,1,0.7,1.6C262.2,213.1,262,213.7,261.5,214.1z"/>
	<path fill="#CCCED3" d="M156.5,217.1c0-0.7,0.4-1.4,2.3-1.4c2.3,0,3.8,1.2,5,2v-7.8c-0.6,0.4-1.1,0.5-1.8,0.5
		c-1.4,0-2.6-0.5-4.6-0.5c-5.6,0-8.9,3.4-8.9,7.6c0,6.5,11,7.3,11,11.7c0,1.9-1.8,3.1-4.3,3.1c-1.6,0-2.9-0.4-4-1.2L138.8,210
		c0-0.1-0.3-0.1-0.3,0l-15.9,26.6c-0.2,0.4-0.6,0.9-1.1,1.2h9.1c0.1,0.2,0.3,0.3,0.4,0.5h-10.8c0.5-0.3,0.9-0.8,1.1-1.2l5.3-8.9
		l-21.4-22.1l-39.9,39.8H83h14.8l6.9-7.5l7.3,7.3h31.5l-11.2-11.6l0.3-0.6h11.6l0.8,1.7c0.3,0.5,0.3,0.8,0.3,1.3
		c0,0.6-0.3,0.9-0.7,1.3h7.6v-0.1c1,0.1,2.1,0.2,3.4,0.2c7.2,0,11.8-3.2,11.8-8.6C167.3,221.1,156.5,220.1,156.5,217.1z
		 M135.7,227.9l2.8-4.6l2.9,4.6H135.7z"/>
	<path fill="#CCCED3" d="M201.8,231.6v-18.3c0-1.5,0.3-2.4,1.2-2.8h-10.2c0.9,0.4,1.2,1.3,1.2,2.8v21.4c0,1.5-0.3,2.4-1.2,2.8h17.3
		v-7.2c-0.9,0.9-2,1.3-3.5,1.3H201.8z"/>
	<path fill="#CCCED3" d="M192.2,210.4H182c0.9,0.4,1.2,1.3,1.2,2.8v7.5h-7.4v-7.5c0-1.5,0.3-2.4,1.2-2.8h-10.2
		c0.9,0.4,1.2,1.3,1.2,2.8v21.4c0,1.5-0.3,2.4-1.2,2.8H177c-0.9-0.4-1.2-1.4-1.2-2.8v-8h7.4v8c0,1.5-0.3,2.4-1.2,2.8h10.2
		c-0.9-0.4-1.2-1.4-1.2-2.8v-21.4C191,211.7,191.4,210.8,192.2,210.4z"/>
	<path fill="#CCCED3" d="M245.2,210.4c0.5,0.3,0.8,0.7,0.8,1.2c0,0.4-0.2,0.8-0.7,1.6l-4,6.1l-4.2-6c-0.6-0.9-0.9-1.3-0.9-1.7
		c0-0.5,0.3-0.9,0.8-1.2h-5.9h-5.8h-14.8c1.1,0.6,1.3,1.5,1.3,2.8v21.4c0,1.5-0.3,2.4-1.2,2.8h20.6v-7.2c-1,0.9-2.1,1.3-3.5,1.3h-8
		v-4.7h5.3c1.3,0,1.9,0.6,2.6,1.3v-8.4c-0.7,0.7-1.3,1.3-2.6,1.3h-5.3v-4.8h7.9c1.5,0,2.6,0.5,3.5,1.4v-0.3l6.1,7.9v9.4
		c0,1.5-0.3,2.4-1.2,2.8h10.2c-0.9-0.4-1.2-1.4-1.2-2.8v-9.4l10.4-13c0.7-0.8,1.3-1.3,1.9-1.8H245.2z"/>
</g>
</svg>
