<?xml version="1.0" encoding="utf-8"?>
<!-- Generator: Adobe Illustrator 18.1.1, SVG Export Plug-In . SVG Version: 6.00 Build 0)  -->
<!DOCTYPE svg PUBLIC "-//W3C//DTD SVG 1.1//EN" "http://www.w3.org/Graphics/SVG/1.1/DTD/svg11.dtd">
<svg version="1.1" id="Layer_1" xmlns="http://www.w3.org/2000/svg" xmlns:xlink="http://www.w3.org/1999/xlink" x="0px" y="0px"
	 width="200px" height="200px" viewBox="64 126 200 200" enable-background="new 64 126 200 200" xml:space="preserve">
<g>
	<path fill="#CCCED3" d="M119,185.1c-22.6,0-41,18.3-41,40.9c0,22.6,18.3,41,41,41s40.9-18.3,40.9-41
		C160,203.4,141.7,185.1,119,185.1z M129,240.4L129,240.4v3.2h-8.5h-3.1v-35.2h3.1v32H129z M153.2,226.1c0,18.9-15.3,34.3-34.2,34.3
		c-18.9,0-34.3-15.3-34.3-34.3c0-18.9,15.3-34.3,34.3-34.3c0.5,0,1,0,1.5,0v3.1c-0.5,0-1,0-1.5,0c-17.2,0-31.2,14-31.2,31.2
		s14,31.2,31.2,31.2c16.7,0,30.4-13.2,31.1-29.8v-0.1H129v-3.1h24.2C153.2,224.9,153.2,225.5,153.2,226.1z M111,213.1
		c0,2.7-2.2,4.8-4.8,4.8c-2.7,0-4.8-2.2-4.8-4.8c0-2.7,2.2-4.8,4.8-4.8S111,210.4,111,213.1z"/>
	<polygon fill="#CCCED3" points="191,237.4 191,236.4 191,205.6 180.3,205.6 180.3,246.1 209.5,246.1 209.5,237.4 192,237.4 	"/>
	<path fill="#CCCED3" d="M232.2,223.1v7.2h7.2h1c0,0,0.1,9-8.4,9c-2.1,0-4.1-0.8-5.5-2.3c-2.3-2.3-3.5-6.2-3.5-11.2
		c0-8.3,3.3-13.3,8.8-13.3c3.5,0,6,2.1,6.7,5.3h11.4c-0.5-4.4-1.8-6.9-4.9-9.3c-3.4-2.6-7.7-3.9-12.8-3.9c-6.1,0-11.2,1.9-14.8,5.4
		c-3.7,3.7-5.7,9.2-5.7,15.8c0,7.1,2.1,13.1,5.8,16.8c3,3,6.9,4.5,11.4,4.5c9.9,0,12.2-5.9,12.2-5.9v2.7v2.1h8.9v-22.9H232.2z"/>
</g>
</svg>
