<?xml version="1.0" encoding="utf-8"?>
<!-- Generator: Adobe Illustrator 18.1.0, SVG Export Plug-In . SVG Version: 6.00 Build 0)  -->
<!DOCTYPE svg PUBLIC "-//W3C//DTD SVG 1.1//EN" "http://www.w3.org/Graphics/SVG/1.1/DTD/svg11.dtd">
<svg version="1.1" id="Layer_1" xmlns="http://www.w3.org/2000/svg" xmlns:xlink="http://www.w3.org/1999/xlink" x="0px" y="0px"
	 width="200px" height="200px" viewBox="-299 201 200 200" enable-background="new -299 201 200 200" xml:space="preserve">
<g>
	<polygon fill="#FFFFFF" points="-238.8,293.2 -249.7,325 -233.5,325 -222.5,293.2 	"/>
	<path fill="#FFFFFF" d="M-227.9,289.8c4.8,0,9.1-3.1,9.6-6.9s-3-6.9-7.8-6.9s-9.1,3.1-9.6,6.9S-232.7,289.8-227.9,289.8z"/>
	<polygon fill="#FFFFFF" points="-254.2,274.8 -261.4,296 -266.5,274.8 -281.3,274.8 -299,325 -282.8,325 -275.6,304.8 -270.7,325 
		-255.2,325 -237.9,274.8 	"/>
	<path fill="#FFFFFF" d="M-100,295c-1.3-2-3.7-3.1-7.2-3.1c-2.6,0-4.9,0.5-7,1.4c-1.9,0.8-3.9,2.2-6.1,4l1.4-4.2h-15.6l-11,31.9h4.1
		v0.1h11.4V325h0.1l5.9-17c0.3-0.5,0.6-0.8,1-1.1c1.1-1,2.3-1.4,3.6-1.4c1.2,0,1.9,0.4,2.4,1.1c0.4,0.7,0.3,1.9-0.2,3.6l-4.8,15
		h15.4l6.6-20.7C-98.7,300.2-98.7,297.2-100,295z"/>
	<polygon fill="#FFFFFF" points="-178.7,293 -196,293 -205,303.2 -195.2,274.8 -211.5,274.8 -228.7,325 -212.5,325 -208.1,312.2 
		-205.6,325 -189.4,325 -192.5,308.8 	"/>
	<path fill="#FFFFFF" d="M-146.4,295.5c-3.1-3-8.1-4.4-14.3-4.4c-5.4,0-11.1,0.8-15.7,3.9c-4.1,2.7-7,6.9-8.3,13
		c-1.3,6.1-0.2,10.9,2.8,14.2c3,3.3,7.8,5,14.1,5s12-1.4,16.4-4.4s7.5-7.5,8.5-13.7C-142,303-143.3,298.5-146.4,295.5z
		 M-159.3,309.5c-0.7,2.4-1.6,4.1-2.7,5.2c-1.1,1.1-2.4,1.5-3.7,1.5c-1.4,0-2.4-0.6-2.9-1.7c-0.5-1.2-0.5-3,0.2-5.5
		c0.6-2.5,1.6-4.3,2.8-5.5s2.5-1.7,3.9-1.7s2.4,0.7,2.8,2C-158.5,305-158.6,307-159.3,309.5z"/>
</g>
</svg>
