<?xml version="1.0" encoding="utf-8"?>
<!-- Generator: Adobe Illustrator 18.1.1, SVG Export Plug-In . SVG Version: 6.00 Build 0)  -->
<!DOCTYPE svg PUBLIC "-//W3C//DTD SVG 1.1//EN" "http://www.w3.org/Graphics/SVG/1.1/DTD/svg11.dtd">
<svg version="1.1" id="Layer_1" xmlns="http://www.w3.org/2000/svg" xmlns:xlink="http://www.w3.org/1999/xlink" x="0px" y="0px"
	 width="200px" height="200px" viewBox="64 126 200 200" enable-background="new 64 126 200 200" xml:space="preserve">
<g>
	<polygon fill="#CCCED3" points="124.2,218.2 113.3,250 129.5,250 140.5,218.2 	"/>
	<path fill="#CCCED3" d="M135.1,214.8c4.8,0,9.1-3.1,9.6-6.9s-3-6.9-7.8-6.9s-9.1,3.1-9.6,6.9S130.3,214.8,135.1,214.8z"/>
	<polygon fill="#CCCED3" points="108.8,199.8 101.6,221 96.5,199.8 81.7,199.8 64,250 80.2,250 87.4,229.8 92.3,250 107.8,250 
		125.1,199.8 	"/>
	<path fill="#CCCED3" d="M263,220c-1.3-2-3.7-3.1-7.2-3.1c-2.6,0-4.9,0.5-7,1.4c-1.9,0.8-3.9,2.2-6.1,4l1.4-4.2h-15.6l-11,31.9h4.1
		v0.1H233V250h0.1l5.9-17c0.3-0.5,0.6-0.8,1-1.1c1.1-1,2.3-1.4,3.6-1.4c1.2,0,1.9,0.4,2.4,1.1c0.4,0.7,0.3,1.9-0.2,3.6l-4.8,15h15.4
		l6.6-20.7C264.3,225.2,264.3,222.2,263,220z"/>
	<polygon fill="#CCCED3" points="184.3,218 167,218 158,228.2 167.8,199.8 151.5,199.8 134.3,250 150.5,250 154.9,237.2 157.4,250 
		173.6,250 170.5,233.8 	"/>
	<path fill="#CCCED3" d="M216.6,220.5c-3.1-3-8.1-4.4-14.3-4.4c-5.4,0-11.1,0.8-15.7,3.9c-4.1,2.7-7,6.9-8.3,13s-0.2,10.9,2.8,14.2
		c3,3.3,7.8,5,14.1,5s12-1.4,16.4-4.4s7.5-7.5,8.5-13.7C221,228,219.7,223.5,216.6,220.5z M203.7,234.5c-0.7,2.4-1.6,4.1-2.7,5.2
		c-1.1,1.1-2.4,1.5-3.7,1.5c-1.4,0-2.4-0.6-2.9-1.7c-0.5-1.2-0.5-3,0.2-5.5c0.6-2.5,1.6-4.3,2.8-5.5s2.5-1.7,3.9-1.7s2.4,0.7,2.8,2
		C204.5,230,204.4,232,203.7,234.5z"/>
</g>
</svg>
