<?xml version="1.0" encoding="utf-8"?>
<!-- Generator: Adobe Illustrator 18.1.1, SVG Export Plug-In . SVG Version: 6.00 Build 0)  -->
<!DOCTYPE svg PUBLIC "-//W3C//DTD SVG 1.1//EN" "http://www.w3.org/Graphics/SVG/1.1/DTD/svg11.dtd">
<svg version="1.1" id="Layer_1" xmlns="http://www.w3.org/2000/svg" xmlns:xlink="http://www.w3.org/1999/xlink" x="0px" y="0px"
	 width="200px" height="200px" viewBox="64 126 200 200" enable-background="new 64 126 200 200" xml:space="preserve">
<g>
	<path fill="#CCCED3" d="M236.2,173.2c-1.4-6.3-5.2-8.8-8.7-10.5c-5.6-2.5-9.6-2.3-20.4,1.3c0,0-40.8,13-43.1,13.8L120.8,164
		c-10.9-3.6-14.9-3.9-20.4-1.3c-3.5,1.7-7.3,4.2-8.7,10.5c-1.4,6.2-2.7,44.9-2.7,52c0,24.2,0.4,50.7,5.8,59.3
		c2.8,4.5,7.9,6.7,15.1,6.4c5.2-0.2,9.9-1.6,11.8-2.2c0,0,40.1-12.4,42.4-13.2l42.4,13.2c1.8,0.6,6.6,2,11.7,2.2
		c7.2,0.3,12.3-1.9,15.1-6.4c5.3-8.6,5.8-35.1,5.8-59.3C238.9,218.1,237.6,179.4,236.2,173.2z M209.9,255.9
		c-4.5,2.3-42.1,18.5-46,19c-3.9-0.5-41.5-16.7-46-19c-4.1-1.9-20.6-8.7-20.6-30.4c0-19,15.7-26.6,26.4-31.2
		c4.6-2,38.9-15.6,40.2-15.6s35.5,13.5,40.1,15.6c10.7,4.7,26.4,12.2,26.4,31.2C230.4,247.1,213.9,253.9,209.9,255.9z"/>
	<path fill="#CCCED3" d="M209.9,235.6c-2,0-3.6,1.6-3.6,3.6s1.6,3.6,3.6,3.6s3.6-1.6,3.6-3.6S211.9,235.6,209.9,235.6z M209.9,242.2
		c-1.6,0-3-1.3-3-3s1.4-3,3-3s3,1.3,3,3C212.9,240.8,211.5,242.2,209.9,242.2z"/>
	<path fill="#CCCED3" d="M130.7,204.6c2.7-3.3,5.9-2.3,7.2-0.9c1.9,2.1,4.2,5.7,6.3,4.1s0.8-4.6-0.2-5.7c-1-1.2-3.2-3.3-8.1-2.8
		c-3.7,0.4-5.8,2.9-7,4.2c-1.2,1.3-4.8,5.5-4.3,13.8c0.4,6,2.2,12.1,2.2,15s-0.3,5.5-2.7,6.8s-6.8-0.1-9.9-5.3
		c-0.7-1.2-2.7-1.9-4.1-0.8c-1.4,1.2-1.1,4.2,0.4,5.8c1.5,1.6,5.5,5.5,11.9,3.2s10.4-10.9,9.6-16.8
		C131.3,219.2,128,207.9,130.7,204.6z"/>
	<path fill="#CCCED3" d="M206,213l-5.5,12.8c-1.3,2.9-6.8,13.9-8.8,13.9s0.5-6.1,1.4-8.2l8-18.4h-6L190,225
		c-1.7,4.2-7.7,14.7-9.8,14.7s0.6-6.7,1.9-10l13.1-30.2h-6.1l-10.8,25.2c-2.6,6-8.4,15-9.9,15c-1.6,0,0-5.1,1.5-8.6l7.8-18h-5.6
		l-1.7,4.2c0.1-1.3,0.3-4.8-2.3-4.8c-4.5,0-9.9,7.1-12.3,11.2c-2.7,4.7-10.9,17-15.1,17.5c-2.7-0.2-1.4-8.4-0.7-10.3
		c1.6,0.6,4.7-0.4,6.3-1.3c1.1-0.6,8.2-6.3,8.2-12.3c0-5.8-3.6-5.5-5.5-5c-9.5,3.1-16,15.5-15.4,25c0.2,2.5,1.7,5.8,4.9,5.8
		c5.6,0,11.7-9.7,13.1-11.3c-0.3,1.1-2.8,11.3,1.9,11.3c4.3,0,8.6-7,9.4-8.2c-0.1,0.9-1.6,8.2,1.8,8.2c4.1,0,8.1-7.1,9.7-9.2
		c-0.3,1-2,9.2,2,9.2c4.1,0,8-6.6,9.5-8.6c-0.3,2.1-1.9,8.6,2.3,8.6c3.9,0,6.9-5.8,8.3-7.6l-4.4,10c-2.2,5-4.1,4.9-5.5,4.8
		c-1.5-0.1-4.7-2.2-6.1-3.1c-1.5-0.9-3.3-1.2-4.1-0.5s-1,3.2,1.2,4.5c2.1,1.3,5.8,2.6,12.6-0.6s10.6-11.2,12-14.6l9.9-23H206z
		 M150.2,213.5c2.3,0.2-3.2,12.2-6.6,14.8c-0.9,0.7-2.1,1.9-3.4,1.2C140.3,226.9,146.6,213.1,150.2,213.5z M156.8,239.7
		c-2.3,0,1.3-10.3,2.5-13c1.3-2.7,7-12.7,9-12.3c1.3,0.4-0.1,6.5-2.7,12.3C163.5,231.5,159.1,239.7,156.8,239.7z"/>
	<path fill="#CCCED3" d="M211.6,238.2c0-0.8-0.7-1.1-1.4-1.1h-1.7v4h0.6v-1.9h0.7l1,1.9h0.7l-1-1.9
		C211.1,239.3,211.6,239,211.6,238.2z M209.7,238.8h-0.6v-1h1c0.5,0,0.9,0,0.9,0.5C211,238.9,210.3,238.8,209.7,238.8z"/>
</g>
</svg>
