<?xml version="1.0" encoding="utf-8"?>
<!-- Generator: Adobe Illustrator 18.1.1, SVG Export Plug-In . SVG Version: 6.00 Build 0)  -->
<!DOCTYPE svg PUBLIC "-//W3C//DTD SVG 1.1//EN" "http://www.w3.org/Graphics/SVG/1.1/DTD/svg11.dtd">
<svg version="1.1" id="Layer_1" xmlns="http://www.w3.org/2000/svg" xmlns:xlink="http://www.w3.org/1999/xlink" x="0px" y="0px"
	 width="200px" height="200px" viewBox="64 126 200 200" enable-background="new 64 126 200 200" xml:space="preserve">
<g>
	<path fill="#CCCED3" d="M135.1,208.4c-6.9,0-14.3,2.4-18.4,6.2c-3.3,3-5,7.2-5,11.4s1.6,8.4,5,11.4c4.5,4,11.2,6.2,18.4,6.2
		c7.2,0,14.1-2.1,18.5-6.2c3.2-3,4.9-7.3,4.9-11.4c0-4.2-1.6-8.3-4.9-11.4C148.9,210.4,142.8,208.4,135.1,208.4z M145,235.1
		c-2.5,2.5-6,3.8-9.9,3.8c-3.8,0-7.4-1.4-9.9-3.8c-2.4-2.3-3.6-5.7-3.6-9.2s1.2-6.8,3.6-9.2c2.4-2.4,6.1-3.8,9.9-3.8
		s7.4,1.4,9.9,3.8c2.4,2.3,3.6,5.6,3.6,9.2C148.6,229.7,147.5,232.7,145,235.1z"/>
	<path fill="#CCCED3" d="M98.7,224c-1-0.5-2.6-1-3.9-1.4c-2.5-0.6-8.2-1.4-10.9-1.7c-2.8-0.3-7.8-0.7-9.8-1.3
		c-0.6-0.2-1.8-0.8-1.8-2.2c0-1,0.6-1.9,1.7-2.6c1.8-1.1,5.3-1.8,9-1.8c4.4,0,8,1,10.4,2c0.8,0.4,1.7,0.9,2.5,1.5
		c0.8,0.7,2,2.1,2.4,4.1h3.9V210h-4.4v1.3c0,0.4-0.4,0.9-1.2,0.5c-2-1-7.5-3.3-14.4-3.3c-3.9,0-8.3,0.7-12,2.4
		c-3.4,1.5-6.3,4-6.3,8.1c0,3.7,2.4,5.9,2.3,5.8c1,0.9,2.6,2.5,6.8,3.4c1.9,0.4,5.9,1,9.9,1.5c4,0.4,7.9,0.8,9.5,1.2
		c1.3,0.3,3.4,0.8,3.4,3.2s-2.2,3.1-2.6,3.3c-0.4,0.2-3.1,1.4-7.9,1.4c-3.6,0-7.9-1.1-9.4-1.6c-1.8-0.6-3.7-1.5-5.5-3.7
		c-0.4-0.5-1.1-2-1.1-3.5h-4.4v12.3h4.9v-1.7c0-0.2,0.2-1,1.1-0.6c1,0.5,4,1.7,7.1,2.3c2.6,0.5,4.2,0.9,7.4,0.9c5.2,0,8-0.8,9.9-1.4
		c1.8-0.5,4.1-1.5,5.9-2.9c1-0.8,3.1-2.8,3.1-6.5c0-3.5-1.9-5.7-2.6-6.4C101,225.2,99.9,224.5,98.7,224z"/>
	<path fill="#CCCED3" d="M193.5,214.3h0.2h4c1.9,0,2.2,0.7,2.2,2.4l0.2,13l-21.5-19.4h-15.3v3.9h3.4c2.5,0,2.6,1.4,2.6,2.6v18.3
		c0,1.1,0.1,2.6-1.5,2.6h-4.2v3.9h18v-3.9h-4.4c-1.7,0-1.8-0.8-1.9-2.5v-15.6l24.7,22.1h6.3l-0.3-24.9c0-1.8,0.1-2.4,2-2.4h3.9v-3.9
		h-18.4V214.3z"/>
	<path fill="#CCCED3" d="M245.5,237.7l-0.8-0.8l-0.1-0.8v-6.2l0.1-0.6c0.3-0.4,11.4-13,11.9-13.6c1.1-1.2,1.7-1.5,3.1-1.5h3.9v-3.9
		H246v3.9h2.7c0.8,0,1,0.8,0.6,1.2l-7.5,8.8h-0.2l-7.3-8.8c-0.5-0.6-0.1-1.2,0.5-1.2h2.6v-3.9h-21.5v3.9h3.8c1.7,0,2.8,1,3.4,1.7
		c0.5,0.6,11.5,13,11.7,13.3l0.3,0.5v6.2l-0.1,0.8l-0.8,0.8l-1.1,0.1h-3.8v3.9h21.4v-3.9h-4L245.5,237.7z"/>
	<path fill="#CCCED3" d="M261.8,239c0-0.7-0.3-0.9-0.6-1c0.3-0.2,0.7-0.5,0.7-1.2c0-1.1-0.9-1.4-1.7-1.4h-2.4v5.2h0.7v-2.2h1.7
		c0.8,0,0.9,0.5,0.9,0.9l0.1,1.3h0.9v-0.1l-0.3-0.6V239z M260.1,237.7h-1.6v-1.8h1.7c0.3,0,0.9,0.1,0.9,0.9
		C261.2,237.5,260.6,237.7,260.1,237.7z"/>
	<path fill="#CCCED3" d="M259.8,233.7c-2.3,0-4.2,1.9-4.2,4.2c0,2.3,1.9,4.2,4.2,4.2c2.3,0,4.2-1.9,4.2-4.2
		C264,235.6,262.1,233.7,259.8,233.7z M259.8,241.7c-2.1,0-3.7-1.7-3.7-3.7c0-2.1,1.7-3.7,3.7-3.7c2.1,0,3.7,1.7,3.7,3.7
		S261.8,241.7,259.8,241.7z"/>
</g>
</svg>
