<?xml version="1.0" encoding="utf-8"?>
<!-- Generator: Adobe Illustrator 18.1.1, SVG Export Plug-In . SVG Version: 6.00 Build 0)  -->
<!DOCTYPE svg PUBLIC "-//W3C//DTD SVG 1.1//EN" "http://www.w3.org/Graphics/SVG/1.1/DTD/svg11.dtd">
<svg version="1.1" id="Layer_1" xmlns="http://www.w3.org/2000/svg" xmlns:xlink="http://www.w3.org/1999/xlink" x="0px" y="0px"
	 width="200px" height="200px" viewBox="64 126 200 200" enable-background="new 64 126 200 200" xml:space="preserve">
<g>
	<path fill="#CCCED3" d="M246,228.7l2.9-10.2l0,0l2.9,10.2H246z M255.4,240.7h8.6l-8.9-29.4h-12.3l-8.9,29.4h8.6l1.6-5.4h9.7
		L255.4,240.7z"/>
	<path fill="#CCCED3" d="M101.5,226c0-1.6,0-2.6,0.1-3.3c0.2-4.5,2-5.1,5.5-5.1s5.3,0.5,5.5,5.1c0,0.7,0.1,1.7,0.1,3.3
		c0,1.6,0,2.6-0.1,3.3c-0.2,4.5-2,5.1-5.5,5.1s-5.3-0.5-5.5-5.1C101.6,228.6,101.5,227.6,101.5,226 M107.1,241.2
		c8.9,0,13.2-1.6,13.8-9.6c0.1-1.9,0.2-3.9,0.2-5.7c0-1.8,0-3.8-0.2-5.7c-0.6-8-4.9-9.6-13.8-9.6c-8.9,0-13.2,1.6-13.8,9.6
		c-0.1,1.9-0.2,3.9-0.2,5.7c0,1.8,0,3.8,0.2,5.7C94,239.7,98.3,241.2,107.1,241.2"/>
	<polygon fill="#CCCED3" points="64,211.3 64,218.6 72.8,218.6 72.8,240.7 81.6,240.7 81.6,218.6 90.4,218.6 90.4,211.3 	"/>
	<rect x="190.6" y="211.3" fill="#CCCED3" width="8.3" height="29.4"/>
	<polygon fill="#CCCED3" points="165.4,222 165.4,211.3 157.1,211.3 157.1,240.7 165.4,240.7 165.4,229.4 175,229.4 175,240.7 
		183.3,240.7 183.3,211.3 175,211.3 175,222 	"/>
	<path fill="#CCCED3" d="M214.7,218h5.8c1.5,0,2.4,0.7,2.4,2.4c0,1.5-0.9,2.4-2.4,2.4h-5.8V218z M214.7,228.6h5.8
		c2.3,0,2.8,1,2.8,2.7c0,1.6-0.9,2.7-2.8,2.7h-5.8V228.6z M226.4,225.3c3.7-0.9,4.8-3.2,4.8-6.4c0-6.5-4.1-7.7-9.9-7.7h-15v29.4H222
		c7.2,0,9.7-3.1,9.7-7.9C231.8,229.4,231,226.5,226.4,225.3"/>
	<path fill="#CCCED3" d="M125.9,231.1h7.9c0,1.4,0.2,2.4,0.9,2.9c0.8,0.6,1.5,0.8,3.8,0.8s4.7,0,4.7-2.8c0-2.2-1.4-2.7-3.9-2.8
		c-6.3-0.3-8.6-0.5-10.9-2.3c-1.6-1.2-2.4-3.5-2.4-6.6c0-5.3,1.9-7.2,4.5-8.5c2.8-1.3,13.6-1.3,16.5,0c3.7,1.7,3.8,5.4,3.8,8.8h-7.9
		c0-1.7-0.4-2.2-0.7-2.5c-0.8-0.7-2-0.9-3.7-0.9c-2,0-4.4,0.1-4.4,2.6c0,1.9,0.8,2.7,3,2.8c2.9,0.2,8.8,0.4,10.8,1.6
		c2.9,1.7,3.7,4,3.7,7.8c0,5.5-2,7.1-4.7,8.3c-3.1,1.4-13.7,1.4-17.1-0.1C126,238.4,125.9,235.1,125.9,231.1"/>
</g>
</svg>
