<?xml version="1.0" encoding="utf-8"?>
<!-- Generator: Adobe Illustrator 18.1.1, SVG Export Plug-In . SVG Version: 6.00 Build 0)  -->
<!DOCTYPE svg PUBLIC "-//W3C//DTD SVG 1.1//EN" "http://www.w3.org/Graphics/SVG/1.1/DTD/svg11.dtd">
<svg version="1.1" id="Layer_1" xmlns="http://www.w3.org/2000/svg" xmlns:xlink="http://www.w3.org/1999/xlink" x="0px" y="0px"
	 width="200px" height="200px" viewBox="64 126 200 200" enable-background="new 64 126 200 200" xml:space="preserve">
<g>
	<path fill="#CCCED3" d="M144,212c2.7,0,3.3-1.7,3.3-3.5c0-1.6-0.3-3.1-2.4-3.4c0,0,0,0,0,0c-0.3,0-0.6-0.1-0.9-0.1
		c-0.3,0-0.6,0-0.9,0.1c-2,0.3-2.4,1.8-2.3,3.4C140.7,210.3,141.3,212,144,212z"/>
	<path fill="#CCCED3" d="M243.8,218.7c-0.2-0.3-0.4-0.6-0.6-0.9c-1.5-1.9-3.7-3-6.8-3.3c-0.4,0-0.9-0.1-1.4-0.1
		c-7.8,0-11,4.6-11,12.7c0,7.6,2.8,12.6,10.9,12.6c8,0,10.8-5,10.8-12.6c0-1,0-2-0.1-2.9C245.3,222.1,244.7,220.2,243.8,218.7z
		 M238.7,233.6c-0.8,1.2-2.1,1.8-3.9,1.8c-4.4,0-5.3-3.8-5.3-8.2c0-1.8,0.2-3.4,0.6-4.8c0.1-0.2,0.1-0.4,0.2-0.6
		c0.3-0.8,0.8-1.5,1.5-2c0.8-0.6,1.9-1,3.2-1c2.2,0,3.5,1,4.2,2.5c0.7,1.5,0.9,3.6,0.9,5.9c0,1.7-0.1,3.3-0.5,4.6
		C239.3,232.5,239.1,233.1,238.7,233.6z"/>
	<path fill="#CCCED3" d="M195.7,223.4c4.7-4.9,8.5-9.4,11.2-13.6c1.4-2.1,1.4-3.5,0.8-4.1c4.9-8.1,6.8-14.5,4.1-17.4
		c-4.6-4.8-21.6,4.3-38.9,18.7v1.9c17-14.2,33-22.5,36.7-18.6c1.9,2,0.2,8.2-4,15.4c-0.6,0.3-1.3,0.9-1.9,1.8
		c-2.4,3.5-5.4,7.3-8.6,11.2c-1.5-2.8-4-4.1-6.9-4.1c-2.7,0-5.5,1.2-7.1,2.1h-0.2l-0.4-1.8h-4.1v22.9c-20,17.7-38.3,28-42.3,23.8
		c-2.5-2.6,1.6-11.1,9-21.1h-2c-7.8,10.7-12.1,19.9-8.9,23.2c4.8,5.1,24.6-5.3,44.4-22.1l-0.1,0.1v9.1l5.5-0.6V239h0.2
		c1.5,0.3,3.2,0.5,4.8,0.5c6.4,0,10.2-4.2,10.2-12.8c0-1.6-0.1-3.1-0.4-4.4C196.5,222.7,196.1,223.1,195.7,223.4z M181.8,232.6
		c-0.1,0.2-0.3,0.3-0.4,0.4c0.2-5.2,0.2-7.7,0.2-12.6c1.3-0.4,2.7-0.7,4.1-0.7c2.8,0,4.6,0.8,5.3,3.5
		C188.1,226.4,185,229.6,181.8,232.6z M185.6,234.8c-0.6,0-1.2,0-1.7,0c0.1-0.1,0.2-0.2,0.3-0.3c2.5-2.3,4.8-4.6,6.9-6.7
		C190.8,233.3,188.7,234.8,185.6,234.8z"/>
	<path fill="#CCCED3" d="M96.2,194.7C96.2,194.8,96.2,194.8,96.2,194.7C96.2,194.8,96.2,194.8,96.2,194.7
		C96.2,194.8,96.2,194.8,96.2,194.7z"/>
	<path fill="#CCCED3" d="M78.9,193.7c0,0.1,0.1,0.1,0.1,0.1c0.2,0.2,0.5,0.2,0.7,0.2c0.3,0,0.6-0.1,0.8-0.2c3.5-1.4,8-2,11.7-1.7
		c0.1,0,0.1,0,0.2,0c0.5,0,1,0,1.5,0s1,0,1.4,0.1c0.4,0.1,0.8,0.1,1.2,0.2c0.3,0,0.7,0.1,1,0.2c0.3,0.1,0.6,0.2,0.8,0.3
		c0.2,0.1,0.4,0.2,0.6,0.3c0.2,0.1,0.3,0.2,0.4,0.3c0.1,0.1,0.2,0.2,0.2,0.3s-0.1,0.2-0.2,0.3c-0.1,0.1-0.2,0.2-0.4,0.3
		c-0.1,0.1-0.3,0.2-0.5,0.2c-0.2,0.1-0.4,0.1-0.6,0.2c-0.2,0.1-0.4,0.1-0.7,0.1c-0.2,0-0.5,0.1-0.7,0.1h-0.1c0,0-0.1,0-0.1,0
		c0-0.1,0-0.2,0-0.2c0,0,0,0,0,0c0,0,0,0,0,0c0-0.1,0-0.1-0.1-0.2c-0.1-0.1-0.3-0.3-0.5-0.4c-0.2-0.1-0.5-0.2-0.9-0.3
		c-0.3-0.1-0.7-0.2-1-0.2c-0.3-0.1-0.7-0.1-1.1-0.1c-0.3,0-0.5,0-0.8,0s-0.5,0-0.8,0c-0.4,0-0.8,0-1.1,0.1c-0.3,0-0.7,0.1-1,0.2
		c-0.4,0.1-0.7,0.2-0.9,0.3c-0.2,0.1-0.4,0.3-0.5,0.4c-0.1,0.2-0.2,0.3-0.1,0.5c0.1,0.2,0.2,0.3,0.5,0.5c0.1,0.1,0.2,0.1,0.3,0.2
		c0.2,0.1,0.5,0.3,0.8,0.3c0.4,0.2,1,0.3,1.6,0.4c0.6,0.1,1.3,0.2,2.1,0.3c0.4,0.1,0.8,0.1,1.2,0.1c0.4,0,0.8,0,1.3,0
		c0.1,0,0.2,0,0.3,0c0.4,0,0.8,0,1.1,0c0.5,0,1,0,1.4-0.1c1-0.1,1.9-0.2,2.8-0.3c0.9-0.1,1.7-0.3,2.4-0.5c0.8-0.2,1.4-0.4,1.9-0.7
		c0.5-0.2,0.9-0.5,1.1-0.8c0.1-0.1,0.2-0.3,0.2-0.5c0-0.1,0-0.3-0.1-0.4c-0.1-0.3-0.4-0.6-0.9-0.9c-0.5-0.4-1.2-0.6-2-0.9
		s-1.8-0.5-2.9-0.7c-1.1-0.2-2.4-0.4-3.7-0.5c-1.3-0.1-2.8-0.2-4.2-0.2c-0.1,0-0.3,0-0.4,0c-3.8,0-8.7,0.5-12.3,2.2
		c-0.3,0.1-0.5,0.3-0.7,0.5c-0.2,0.2-0.3,0.3-0.3,0.5C78.8,193.6,78.8,193.7,78.9,193.7z"/>
	<path fill="#CCCED3" d="M210.5,214.5c-7.7,0-10.9,4.6-11,12.7c0,7.6,2.9,12.6,10.9,12.6s10.8-5,10.8-12.6
		C221.2,219.1,218.2,214.5,210.5,214.5z M210.4,235.4c-4.4,0-5.3-3.8-5.3-8.2c0-4.8,1.1-8.4,5.5-8.4c4.4,0,5.1,3.8,5.1,8.4
		C215.7,231.8,214.7,235.4,210.4,235.4z"/>
	<path fill="#CCCED3" d="M262.4,209.4L262.4,209.4L262.4,209.4l-1-1.6c0.6,0,0.9-0.3,0.9-1c0,0,0,0,0,0c0,0,0,0,0-0.1
		c0-0.8-0.5-1.1-1.4-1.1h-1.4v0.1v3.6v0.1h0.6c0,0,0-0.1,0-0.1v-1.5h0.6l1,1.6H262.4z M260.2,206.2h0.6c0.4,0,0.8,0.1,0.8,0.5
		c0,0.5-0.4,0.6-0.9,0.6h-0.5V206.2z"/>
	<path fill="#CCCED3" d="M260.8,204.1c-1.8,0-3.3,1.3-3.3,3.4c0,1.9,1.4,3.4,3.3,3.4c1.8,0,3.3-1.3,3.3-3.4
		C264.1,205.4,262.6,204.1,260.8,204.1z M258.2,207.5c0-0.4,0.1-0.8,0.2-1.1c0.2-0.5,0.5-0.9,0.9-1.2c0.3-0.2,0.6-0.3,0.9-0.4
		c0.2,0,0.4-0.1,0.5-0.1c0.2,0,0.4,0,0.5,0.1c0.1,0,0.3,0.1,0.4,0.1c0,0,0,0,0.1,0c0.1,0.1,0.3,0.1,0.4,0.2c0,0,0,0,0.1,0
		c0.1,0.1,0.2,0.2,0.3,0.2c0,0,0.1,0.1,0.1,0.1c0.1,0.1,0.1,0.1,0.2,0.2c0.1,0.1,0.1,0.1,0.2,0.2c0,0.1,0.1,0.1,0.1,0.2
		c0.1,0.1,0.1,0.2,0.1,0.3c0,0.1,0,0.1,0.1,0.2c0,0.1,0.1,0.2,0.1,0.3c0,0.2,0.1,0.4,0.1,0.6c0,1.6-1.2,2.8-2.6,2.8
		C259.2,210.3,258.2,209,258.2,207.5z"/>
	<polygon fill="#CCCED3" points="108.5,204.6 108.3,204.6 101.6,229.6 94.9,204.6 94.8,204.6 89.5,204.6 89.4,204.6 82.6,229.6 
		76,204.6 75.9,204.6 70.5,204.6 70.4,204.6 79.9,239.2 80,239.2 85.4,239.2 85.5,239.2 92.2,214.3 98.9,239.2 99,239.2 
		104.4,239.2 104.5,239.2 114,204.6 113.9,204.6 	"/>
	<path fill="#CCCED3" d="M136.5,239.3v-0.1h0v-15.1c0-7.6-3-9.6-7.4-9.6c-2.5,0-4.5,0.4-7,1.4h-0.2l0.1-3.1v-0.1v-8.4v-0.1l-5.5,0.4
		v0.1h-0.1v34.5h5.5v-0.1h0.1v-19c1.4-0.4,2.6-0.7,4.2-0.7c2.6,0,4.8,0.6,4.8,5.2v14.7H136.5z"/>
	<rect x="141.2" y="214.9" fill="#CCCED3" width="5.5" height="24.4"/>
	<path fill="#CCCED3" d="M156.6,239.1h0.4v-18.5c1.2-0.6,2.3-0.8,3.7-0.8c1.1,0,2.1,0.1,3.1,0.3v-0.2c0.1,0,0.1,0,0.2,0v-5.4
		c-0.4-0.1-0.8-0.1-1.1-0.1c-3,0-5.3,1.1-6.7,2.3h-0.3l-0.7-2h-3.7v0.2h-0.2h-0.2v24.5h5.5V239.1z"/>
	<polygon fill="#CCCED3" points="171.8,204.3 171.7,204.4 171.7,204.2 166.3,204.7 166.3,239.2 166.3,239.3 171.8,239.3 	"/>
	<polygon fill="#CCCED3" points="249.3,239.2 249.3,239.3 254.8,239.3 254.8,239.2 254.8,204.3 254.8,204.2 249.3,204.7 	"/>
	<path fill="#CCCED3" d="M119.7,196.8c0.6-0.4,1.1-0.7,1.4-1.1c0.4-0.4,0.6-0.8,0.7-1.2c0.1-0.4,0.1-0.8-0.1-1.2c0,0,0-0.1-0.1-0.1
		c0,0,0-0.1,0-0.1c-0.2-0.4-0.5-0.8-0.9-1.2c-0.4-0.4-1-0.8-1.7-1.1c-0.7-0.4-1.5-0.7-2.5-1c-0.9-0.3-2-0.6-3.2-0.9
		s-2.4-0.5-3.8-0.8c-1.4-0.2-2.8-0.4-4.3-0.6s-3.1-0.3-4.7-0.4c-1.6-0.1-3.3-0.2-5-0.2s-3.4,0-5.1,0c-1.7,0.1-3.4,0.1-5,0.3
		c-1.6,0.1-3.2,0.3-4.8,0.5c-1.5,0.2-3,0.4-4.4,0.7c-1.4,0.3-2.7,0.6-3.9,0.9S70,190,69,190.4c-1,0.4-1.8,0.8-2.5,1.2
		c-0.7,0.4-1.3,0.9-1.7,1.3c-0.4,0.4-0.7,0.9-0.8,1.4c-0.1,0.5,0,0.9,0.2,1.4c0,0.1,0.1,0.1,0.1,0.2c0,0,0,0,0,0
		c0.2,0.5,0.6,0.9,1.2,1.4c0.5,0.5,1.3,0.9,2.1,1.3c0.9,0.4,1.9,0.8,3,1.2c1.1,0.4,2.4,0.8,3.8,1.1c1.4,0.3,2.9,0.6,4.5,0.9
		c1.6,0.3,3.3,0.5,5.1,0.7s3.7,0.3,5.6,0.5c0.3,0,0.6,0,0.8,0c0.3,0,0.5,0,0.7-0.1c0.2-0.1,0.4-0.3,0.5-0.5c0-0.1,0-0.2-0.1-0.3
		c-0.1-0.2-0.2-0.3-0.4-0.5c-0.2-0.1-0.5-0.2-0.7-0.2c-1-0.1-1.9-0.1-2.9-0.2c-1.2-0.1-2.4-0.2-3.6-0.4c-1.1-0.2-2.2-0.3-3.3-0.5
		c-1-0.2-2-0.4-2.9-0.6c-0.8-0.2-1.5-0.4-2.1-0.6c-1.8-0.6-3.2-1.2-4.2-1.9c-0.4-0.3-0.8-0.6-1.1-0.9c-0.2-0.2-0.4-0.5-0.5-0.7
		c-0.1-0.3-0.1-0.6,0-0.9c0.1-0.3,0.2-0.6,0.5-0.9c0.2-0.3,0.6-0.6,1-0.9c0.4-0.3,0.9-0.6,1.4-0.8c0.5-0.3,1.2-0.5,1.9-0.8
		c0.4-0.1,0.8-0.3,1.2-0.4c0.8-0.2,1.6-0.4,2.4-0.6c0.5-0.1,0.9-0.2,1.4-0.3c0.9-0.2,1.9-0.3,2.8-0.5c1-0.1,2-0.3,3.1-0.4
		c1-0.1,2.1-0.2,3.2-0.3c1.1-0.1,2.2-0.1,3.3-0.1s2.2,0,3.3,0s2.2,0.1,3.2,0.1c1,0.1,2.1,0.1,3.1,0.2c1,0.1,2,0.2,2.9,0.3
		c0.9,0.1,1.8,0.3,2.7,0.4c1.7,0.3,3.2,0.7,4.4,1.1c1.2,0.4,2.2,0.9,3,1.4c0.6,0.4,1.1,0.9,1.3,1.3c0.2,0.5,0.1,1-0.3,1.5
		c-0.4,0.5-1,1-1.9,1.4c-0.8,0.4-1.9,0.8-3.2,1.2c-0.8,0.2-1.6,0.4-2.6,0.6c0.2-0.2,0.4-0.4,0.5-0.8c0-0.3-0.2-0.6-0.5-0.7
		c-0.2-0.1-0.4-0.1-0.6-0.1c-0.5,0-1.1,0.1-1.4,0.3c-0.3,0.1-0.6,0.2-0.9,0.3c-0.6,0.2-1.3,0.3-2,0.5c-0.7,0.1-1.4,0.3-2.2,0.4
		c-0.8,0.1-1.5,0.2-2.3,0.2c-0.8,0.1-1.6,0.1-2.4,0.1c-0.2,0-0.4,0-0.6,0c0,0-0.1,0-0.1,0c-0.7,0-1.3,0-2,0c-1,0-2-0.1-2.9-0.1
		c-0.9-0.1-1.8-0.2-2.7-0.3c-0.8-0.1-1.6-0.2-2.4-0.4c-0.7-0.1-1.4-0.3-2-0.4c-0.6-0.1-1.1-0.3-1.5-0.5c-0.2-0.1-0.5-0.1-0.7-0.1
		c0,0,0,0,0,0c0,0-0.1,0-0.1,0c-0.2,0-0.5,0.1-0.6,0.3c-0.1,0.2,0,0.5,0.2,0.6c0.2,0.2,0.4,0.3,0.6,0.4c0.1,0,0.2,0.1,0.3,0.1
		c0.5,0.2,1.1,0.4,1.6,0.5c0.6,0.2,1.2,0.3,1.9,0.5c0.7,0.1,1.4,0.3,2.1,0.4c0.7,0.1,1.5,0.2,2.3,0.3s1.6,0.1,2.5,0.2
		c0.9,0,1.7,0.1,2.6,0.1c0,0,0.1,0,0.1,0c0.9,0,1.7,0,2.5,0c0,0,0.1,0,0.1,0c0.9,0,1.8-0.1,2.6-0.1c0.6,0,1.3-0.1,1.9-0.2
		c0.1,0,0.2,0,0.4,0c0,0.3,0.4,0.5,0.7,0.6c0.3,0.1,0.6,0.1,0.9,0.1c0,0,0,0,0,0c0,0,0,0,0.1,0c1.3-0.1,2.7-0.2,3.9-0.4
		c1.3-0.2,2.5-0.4,3.7-0.6c1.2-0.2,2.3-0.5,3.3-0.7c1-0.3,1.9-0.6,2.8-0.9C118.4,197.5,119.1,197.2,119.7,196.8z"/>
</g>
</svg>
