<?xml version="1.0" encoding="utf-8"?>
<!-- Generator: Adobe Illustrator 18.1.0, SVG Export Plug-In . SVG Version: 6.00 Build 0)  -->
<!DOCTYPE svg PUBLIC "-//W3C//DTD SVG 1.1//EN" "http://www.w3.org/Graphics/SVG/1.1/DTD/svg11.dtd">
<svg version="1.1" id="Layer_1" xmlns="http://www.w3.org/2000/svg" xmlns:xlink="http://www.w3.org/1999/xlink" x="0px" y="0px"
	 width="200px" height="200px" viewBox="0 0 200 200" enable-background="new 0 0 200 200" xml:space="preserve">
<path fill="#FFFFFF" d="M38.3,114.7c-4,4-9.6,6.3-15.3,6.3s-11.3-2.3-15.3-6.3c-4-4-6.3-9.6-6.3-15.3c0-5.7,2.3-11.3,6.3-15.3
	c4-4,9.6-6.3,15.3-6.3s11.3,2.3,15.3,6.3c4,4,6.3,9.6,6.3,15.3C44.7,105.1,42.3,110.7,38.3,114.7L38.3,114.7L38.3,114.7z M39,83.4
	c-4.2-4.2-10.1-6.6-16-6.6s-11.8,2.4-16,6.6c-4.2,4.2-6.6,10.1-6.6,16c0,5.9,2.4,11.8,6.6,16c4.2,4.2,10.1,6.6,16,6.6
	s11.8-2.4,16-6.6c4.2-4.2,6.6-10.1,6.6-16C45.6,93.5,43.2,87.6,39,83.4L39,83.4z"/>
<polygon fill="#FFFFFF" points="21.8,98.7 21.8,100.1 23,100.8 24.3,100.1 24.3,98.7 23,97.9 21.8,98.7 "/>
<path fill="#FFFFFF" d="M24.1,95.2v-3.1c0-0.3-0.1-0.6-0.3-0.8c-0.2-0.2-0.5-0.3-0.8-0.3c-0.3,0-0.6,0.1-0.8,0.3
	c-0.2,0.2-0.3,0.5-0.3,0.8v3.1l1.1,0.6L24.1,95.2L24.1,95.2z"/>
<path fill="#FFFFFF" d="M16.2,102c-0.2,0.1-0.4,0.4-0.5,0.7c-0.1,0.3,0,0.6,0.1,0.8c0.1,0.2,0.4,0.4,0.7,0.5c0.3,0.1,0.6,0,0.8-0.1
	l2.6-1.5v-1.2l-1.1-0.6L16.2,102L16.2,102z"/>
<path fill="#FFFFFF" d="M29.8,102L29.8,102l-2.6-1.5l-1.1,0.6v1.2l2.6,1.5c0.2,0.1,0.5,0.2,0.8,0.1c0.3-0.1,0.5-0.3,0.7-0.5
	c0.1-0.2,0.2-0.5,0.1-0.8C30.2,102.4,30,102.2,29.8,102L29.8,102z"/>
<path fill="#FFFFFF" d="M38.6,108.6c-0.1,0-0.1,0-0.2,0l-4.8-0.9c-0.1,0-0.2-0.1-0.3-0.2c-0.1-0.1-0.1-0.2-0.1-0.3
	c0-0.3-0.2-0.7-0.4-0.9c-0.2-0.3-0.5-0.5-0.8-0.5c-0.3-0.1-0.7-0.1-1,0c-0.6,0.2-1.2,0.3-1.8,0.2c-0.6-0.1-1.2-0.2-1.7-0.6l-1.4-0.8
	v9.2h-2v-10.4l-1.1-0.6l-1.1,0.6v10.4h-2v-9.2l-1.4,0.8c-0.5,0.3-1.1,0.5-1.7,0.6c-0.6,0.1-1.2,0-1.8-0.2c-0.3-0.1-0.7-0.1-1,0
	c-0.3,0.1-0.6,0.3-0.8,0.5c-0.2,0.3-0.3,0.6-0.4,0.9c0,0.1-0.1,0.2-0.1,0.3c-0.1,0.1-0.2,0.1-0.3,0.2l-4.8,0.9c-0.1,0-0.1,0-0.2,0
	c-0.1,0-0.1-0.1-0.1-0.1c0-0.1-0.1-0.1,0-0.2c0-0.1,0-0.1,0.1-0.2l3.1-3.7c0.1-0.1,0.2-0.2,0.3-0.2c0.1,0,0.2,0,0.3,0
	c0.3,0.1,0.7,0.2,1,0.1c0.3-0.1,0.7-0.2,0.9-0.5c0.2-0.2,0.4-0.6,0.5-0.9c0.1-0.6,0.4-1.2,0.7-1.7c0.4-0.5,0.8-0.9,1.3-1.2l1.4-0.8
	l-8-4.6l1-1.7l9,5.2l1.1-0.6v-1.2l-9-5.2l1-1.7l8,4.6v-1.6c0-0.6,0.1-1.2,0.4-1.8c0.3-0.6,0.6-1.1,1.1-1.5c0.3-0.2,0.4-0.5,0.5-0.9
	c0.1-0.3,0.1-0.7-0.1-1c-0.1-0.3-0.3-0.6-0.6-0.8c-0.1-0.1-0.2-0.2-0.2-0.3c0-0.1,0-0.2,0-0.3l1.6-4.6c0-0.1,0.1-0.1,0.1-0.2
	c0.1,0,0.1-0.1,0.2-0.1c0.1,0,0.1,0,0.2,0.1c0.1,0,0.1,0.1,0.1,0.2l1.6,4.6c0,0.1,0,0.2,0,0.3c0,0.1-0.1,0.2-0.2,0.3
	c-0.3,0.2-0.5,0.5-0.6,0.8c-0.1,0.3-0.1,0.7-0.1,1c0.1,0.3,0.3,0.6,0.5,0.9c0.5,0.4,0.8,0.9,1.1,1.5c0.3,0.6,0.4,1.2,0.4,1.8v1.6
	l8-4.6l1,1.7l-9,5.2v1.2l1.1,0.6l9-5.2l1,1.7l-8,4.6l1.4,0.8c0.5,0.3,1,0.7,1.3,1.2c0.4,0.5,0.6,1.1,0.7,1.7
	c0.1,0.3,0.2,0.6,0.5,0.9c0.2,0.2,0.6,0.4,0.9,0.5c0.3,0.1,0.7,0,1-0.1c0.1-0.1,0.2-0.1,0.3,0c0.1,0,0.2,0.1,0.3,0.2l3.1,3.7
	c0,0.1,0.1,0.1,0.1,0.2c0,0.1,0,0.1,0,0.2C38.8,108.6,38.7,108.6,38.6,108.6L38.6,108.6L38.6,108.6z M36.6,85.8
	C33,82.2,28,80.2,23,80.2s-10,2.1-13.6,5.6c-3.6,3.6-5.6,8.6-5.6,13.6c0,5,2.1,10,5.6,13.6c3.6,3.6,8.6,5.6,13.6,5.6
	s10-2.1,13.6-5.6c3.6-3.6,5.6-8.6,5.6-13.6C42.2,94.3,40.2,89.3,36.6,85.8L36.6,85.8z"/>
<polygon fill="#FFFFFF" points="153.4,118.2 153.4,80.5 160,80.5 160,95 167.3,95 167.3,80.5 174,80.5 174,118.2 167.3,118.2 
	167.3,101.7 160,101.7 160,118.2 153.4,118.2 "/>
<polygon fill="#FFFFFF" points="56.8,103.6 49.5,80.5 56.1,80.5 60.6,95.2 65.6,80.5 71.8,80.5 64.2,102.9 64.2,118.2 56.8,118.2 
	56.8,103.6 "/>
<polygon fill="#FFFFFF" points="96.1,118.2 102,118.2 102,89.8 107,114.5 112.5,114.5 117,89.4 117,118.2 124,118.2 124,80.5 
	113.2,80.5 110,98.5 106.4,80.5 96.1,80.5 96.1,118.2 "/>
<path fill="#FFFFFF" d="M185.7,103.2l2.8-16.9l2.7,16.9H185.7L185.7,103.2L185.7,103.2z M194.2,80.5h-10.2l-6.9,37.7h6.1l1.5-8.8
	h7.6l1.4,8.8h6.7L194.2,80.5L194.2,80.5z"/>
<path fill="#FFFFFF" d="M135.6,103.2l2.8-16.9l2.7,16.9H135.6L135.6,103.2L135.6,103.2z M144.1,80.5h-10.2l-6.9,37.7h6.1l1.5-8.8
	h7.6l1.4,8.8h6.7L144.1,80.5L144.1,80.5z"/>
<path fill="#FFFFFF" d="M78.2,103.2L81,86.3l2.7,16.9H78.2L78.2,103.2L78.2,103.2z M86.7,80.5H76.5l-6.9,37.7h6.1l1.5-8.8h7.6
	l1.4,8.8h6.7L86.7,80.5L86.7,80.5z"/>
<g>
</g>
</svg>
