<?xml version="1.0" encoding="utf-8"?>
<!-- Generator: Adobe Illustrator 18.1.0, SVG Export Plug-In . SVG Version: 6.00 Build 0)  -->
<!DOCTYPE svg PUBLIC "-//W3C//DTD SVG 1.1//EN" "http://www.w3.org/Graphics/SVG/1.1/DTD/svg11.dtd">
<svg version="1.1" id="Layer_1" xmlns="http://www.w3.org/2000/svg" xmlns:xlink="http://www.w3.org/1999/xlink" x="0px" y="0px"
	 width="200px" height="200px" viewBox="-299 201 200 200" enable-background="new -299 201 200 200" xml:space="preserve">
<g>
	<polygon fill-rule="evenodd" clip-rule="evenodd" fill="#FFFFFF" points="-202.4,281.6 -209.6,302.2 -198.4,313.3 -187.2,302.2 
		-194.4,281.6 	"/>
	<path fill-rule="evenodd" clip-rule="evenodd" fill="#FFFFFF" d="M-254.5,245.1v111.7h111.7V245.1H-254.5z M-155.8,261.5h-5.3v20.2
		h-11.5l-7.2,20.5l14.9,14.9v20.8h5.7v7.2h-13.2v-24.6l-11.2-11.2l-10.9,10.9v17.8h5.6v7.1l-18.7,0v-7.1h5.6v-17.8l-10.9-10.9
		l-11.2,11.2V345h-13.2v-7.2h5.7v-20.8l14.9-14.9l-7.2-20.5h-4.2v19.8h-12.6v-7.2h5.3v-20h17.2c2.4-0.8,2.7-5.6,2.7-5.6l0.1-0.5
		c-3-1-5.1-4-5.1-7.4c0-4.2,3.4-7.5,7.5-7.5l0,0c4.2,0,7.5,3.4,7.5,7.5c0,3.3-2.1,6.4-5.1,7.4l0.1,0.5c0,0,0.4,4.8,2.8,5.7l18.8,0
		c2.4-0.8,2.7-5.6,2.7-5.6l0.1-0.5c-3-1-5.1-4-5.1-7.4c0-4.2,3.4-7.5,7.5-7.5l0,0c4.2,0,7.5,3.4,7.5,7.5c0,3.3-2.1,6.4-5.1,7.4
		l0.1,0.5c0,0,0.3,4.8,2.7,5.6l0.2,0h9.9v-19.8h12.5V261.5z"/>
</g>
<path fill-rule="evenodd" clip-rule="evenodd" fill="#FFFFFF" d="M-138.4,250c0-2.3,1.7-4,4-4c2.2,0,3.9,1.7,3.9,4
	c0,2.3-1.7,4.1-3.9,4.1C-136.6,254-138.4,252.3-138.4,250L-138.4,250L-138.4,250z M-134.4,254.9c2.7,0,4.9-2.1,4.9-4.9
	c0-2.8-2.3-4.9-4.9-4.9c-2.7,0-4.9,2.1-4.9,4.9C-139.4,252.8-137.1,254.9-134.4,254.9L-134.4,254.9L-134.4,254.9z M-135.4,250.4h1
	l1.5,2.4h1l-1.6-2.5c0.8-0.1,1.5-0.5,1.5-1.5c0-1.1-0.7-1.6-2-1.6h-2.1v5.6h0.8V250.4L-135.4,250.4L-135.4,250.4z M-135.4,249.6
	v-1.7h1.2c0.6,0,1.2,0.1,1.2,0.8c0,0.9-0.6,0.9-1.4,0.9H-135.4L-135.4,249.6z"/>
</svg>
