<?xml version="1.0" encoding="utf-8"?>
<!-- Generator: Adobe Illustrator 18.1.0, SVG Export Plug-In . SVG Version: 6.00 Build 0)  -->
<!DOCTYPE svg PUBLIC "-//W3C//DTD SVG 1.1//EN" "http://www.w3.org/Graphics/SVG/1.1/DTD/svg11.dtd">
<svg version="1.1" id="Layer_1" xmlns="http://www.w3.org/2000/svg" xmlns:xlink="http://www.w3.org/1999/xlink" x="0px" y="0px"
	 width="200px" height="200px" viewBox="-299 201 200 200" enable-background="new -299 201 200 200" xml:space="preserve">
<g>
	<polygon fill-rule="evenodd" clip-rule="evenodd" fill="#FFFFFF" points="-295,205 -102.2,205 -102.2,397.8 -295,397.8 -295,205 	
		"/>
	<polygon fill-rule="evenodd" clip-rule="evenodd" fill="#DF4244" points="-259.8,213.5 -142.7,213.5 -142.7,330.7 -259.8,330.7 
		-259.8,213.5 	"/>
	<path fill-rule="evenodd" clip-rule="evenodd" fill="#FFFFFF" d="M-161.9,251.8v-21.1h5.5v-7.5h-13.2V244h-10.4l-0.2,0
		c-2.5-0.8-2.9-5.8-2.9-5.8l-0.1-0.5c3.2-1,5.3-4.2,5.3-7.7c0-4.4-3.5-7.9-7.9-7.9l0,0c-4.4,0-7.9,3.5-7.9,7.9
		c0,3.5,2.2,6.7,5.3,7.7l-0.1,0.5c0,0-0.3,5-2.9,5.8l-19.7,0c-2.5-0.8-3-5.9-3-5.9l-0.1-0.5c3.2-1,5.3-4.2,5.3-7.7
		c0-4.4-3.5-7.9-7.9-7.9l0,0c-4.4,0-7.9,3.5-7.9,7.9c0,3.5,2.2,6.7,5.3,7.7l-0.1,0.5c0,0-0.3,5-2.9,5.8h-18v21h-5.5v7.6h13.2v-20.8
		h4.5l7.5,21.5l-15.6,15.6v21.8h-5.9v7.5h13.8v-25.8l11.8-11.8l11.5,11.5v18.6h-5.8v7.5l19.6,0v-7.5h-5.8v-18.6l11.5-11.5l11.8,11.8
		v25.8h13.8v-7.5h-5.9V289l-15.6-15.6l7.5-21.5H-161.9L-161.9,251.8L-161.9,251.8z M-201,285l-11.7-11.7l7.5-21.5h8.4l7.5,21.5
		L-201,285L-201,285z"/>
	<polygon fill-rule="evenodd" clip-rule="evenodd" fill="#231F20" points="-239.8,370.2 -233.4,362.5 -239.3,362.5 -239.3,360.2 
		-229.9,360.2 -229.9,362.3 -236.3,370 -229.7,370 -229.7,372.2 -239.8,372.2 -239.8,370.2 	"/>
	<polygon fill-rule="evenodd" clip-rule="evenodd" fill="#231F20" points="-216.4,372.2 -219,372.2 -221,364.1 -221.1,364.1 
		-223.1,372.2 -225.7,372.2 -228.9,360.2 -226.3,360.2 -224.4,368.4 -224.3,368.4 -222.2,360.2 -219.8,360.2 -217.7,368.5 
		-217.7,368.5 -215.7,360.2 -213.1,360.2 -216.4,372.2 	"/>
	<polygon fill-rule="evenodd" clip-rule="evenodd" fill="#231F20" points="-212.4,360.2 -209.8,360.2 -209.8,372.2 -212.4,372.2 
		-212.4,360.2 	"/>
	<polygon fill-rule="evenodd" clip-rule="evenodd" fill="#231F20" points="-207.9,360.2 -205.3,360.2 -205.3,370 -199.4,370 
		-199.4,372.2 -207.9,372.2 -207.9,360.2 	"/>
	<polygon fill-rule="evenodd" clip-rule="evenodd" fill="#231F20" points="-198.4,360.2 -195.8,360.2 -195.8,370 -189.9,370 
		-189.9,372.2 -198.4,372.2 -198.4,360.2 	"/>
	<polygon fill-rule="evenodd" clip-rule="evenodd" fill="#231F20" points="-188.9,360.2 -186.3,360.2 -186.3,372.2 -188.9,372.2 
		-188.9,360.2 	"/>
	<polygon fill-rule="evenodd" clip-rule="evenodd" fill="#231F20" points="-184.4,360.2 -181.8,360.2 -176.8,368.3 -176.8,368.3 
		-176.8,360.2 -174.3,360.2 -174.3,372.2 -176.9,372.2 -181.9,364.2 -182,364.2 -182,372.2 -184.4,372.2 -184.4,360.2 	"/>
	<path fill-rule="evenodd" clip-rule="evenodd" fill="#231F20" d="M-163.8,370.9c-0.9,1.2-2.1,1.6-3.3,1.6c-3.7,0-5.9-2.8-5.9-6.2
		c0-3.6,2.2-6.3,5.9-6.3c2.5,0,4.8,1.5,5.1,4.2h-2.5c-0.3-1.3-1.3-2-2.5-2c-2.4,0-3.3,2-3.3,4.1c0,2,0.9,4,3.3,4
		c1.7,0,2.7-0.9,2.9-2.6h-2.7v-2h5v6.5h-1.7L-163.8,370.9L-163.8,370.9z"/>
	<path fill-rule="evenodd" clip-rule="evenodd" fill="#231F20" d="M-251.5,385.2c0,1.5-0.4,4.1-4,4.1c-2,0-3.9-1.1-3.9-3.7v-1h2.4
		v0.5c0,1.2,0.3,2,1.5,2c1.4,0,1.4-1.1,1.4-2V377h2.6V385.2L-251.5,385.2z"/>
	<polygon fill-rule="evenodd" clip-rule="evenodd" fill="#231F20" points="-250.8,386.4 -248.2,386.4 -248.2,389 -250.8,389 
		-250.8,386.4 	"/>
	<path fill-rule="evenodd" clip-rule="evenodd" fill="#231F20" d="M-239.4,377h-2.7l-4.6,12h2.7l0.9-2.7h4.5l0.9,2.7h2.7L-239.4,377
		L-239.4,377L-239.4,377z M-242.4,384.3l1.6-4.4h0l1.5,4.4H-242.4L-242.4,384.3z"/>
	<path fill-rule="evenodd" clip-rule="evenodd" fill="#231F20" d="M-239.4,377h-2.7l-4.6,12h2.7l0.9-2.7h4.5l0.9,2.7h2.7L-239.4,377
		L-239.4,377L-239.4,377z M-242.4,384.3l1.6-4.4h0l1.5,4.4H-242.4L-242.4,384.3z"/>
	<polygon fill-rule="evenodd" clip-rule="evenodd" fill="#231F20" points="-234.5,386.4 -231.9,386.4 -231.9,389 -234.5,389 
		-234.5,386.4 	"/>
	<polygon fill-rule="evenodd" clip-rule="evenodd" fill="#231F20" points="-230.2,377 -227.5,377 -227.5,381.6 -222.7,381.6 
		-222.7,377 -220,377 -220,389 -222.7,389 -222.7,383.8 -227.5,383.8 -227.5,389 -230.2,389 -230.2,377 	"/>
	<polygon fill-rule="evenodd" clip-rule="evenodd" fill="#231F20" points="-218.2,377 -209.2,377 -209.2,379.2 -215.5,379.2 
		-215.5,381.8 -209.7,381.8 -209.7,383.8 -215.5,383.8 -215.5,386.7 -209.1,386.7 -209.1,389 -218.2,389 -218.2,377 	"/>
	<polygon fill-rule="evenodd" clip-rule="evenodd" fill="#231F20" points="-207.8,377 -205.1,377 -200.1,385 -200.1,385 -200.1,377 
		-197.6,377 -197.6,389 -200.3,389 -205.3,380.9 -205.3,380.9 -205.3,389 -207.8,389 -207.8,377 	"/>
	<path fill-rule="evenodd" clip-rule="evenodd" fill="#231F20" d="M-187.8,381c-0.2-1.2-1.3-2.1-2.6-2.1c-2.4,0-3.3,2-3.3,4.1
		c0,2,0.9,4,3.3,4c1.6,0,2.5-1.1,2.7-2.7h2.6c-0.3,3-2.3,4.9-5.3,4.9c-3.7,0-5.9-2.8-5.9-6.2c0-3.6,2.2-6.3,5.9-6.3
		c2.6,0,4.9,1.5,5.2,4.3H-187.8L-187.8,381z"/>
	<polygon fill-rule="evenodd" clip-rule="evenodd" fill="#231F20" points="-183.8,377 -181.2,377 -181.2,381.9 -176.5,377 
		-173.2,377 -177.9,381.7 -172.7,389 -176,389 -179.6,383.6 -181.2,385.1 -181.2,389 -183.8,389 -183.8,377 	"/>
	<polygon fill-rule="evenodd" clip-rule="evenodd" fill="#231F20" points="-172.1,377 -163.2,377 -163.2,379.2 -169.5,379.2 
		-169.5,381.8 -163.7,381.8 -163.7,383.8 -169.5,383.8 -169.5,386.7 -163,386.7 -163,389 -172.1,389 -172.1,377 	"/>
	<polygon fill-rule="evenodd" clip-rule="evenodd" fill="#231F20" points="-161.7,377 -159.1,377 -159.1,386.7 -153.2,386.7 
		-153.2,389 -161.7,389 -161.7,377 	"/>
	<path fill-rule="evenodd" clip-rule="evenodd" fill="#231F20" d="M-150.4,385c0,1.6,1.2,2.2,2.7,2.2c0.9,0,2.3-0.3,2.3-1.5
		c0-1.3-1.8-1.5-3.6-2c-1.8-0.5-3.6-1.2-3.6-3.4c0-2.4,2.3-3.6,4.5-3.6c2.5,0,4.8,1.1,4.8,3.9h-2.6c-0.1-1.4-1.1-1.8-2.4-1.8
		c-0.8,0-1.8,0.4-1.8,1.4c0,0.9,0.6,1,3.6,1.8c0.9,0.2,3.6,0.8,3.6,3.5c0,2.2-1.7,3.8-5,3.8c-2.7,0-5.1-1.3-5.1-4.3H-150.4
		L-150.4,385z"/>
	<path fill-rule="evenodd" clip-rule="evenodd" fill="#231F20" d="M-138.1,218.6c0-2.4,1.8-4.2,4.2-4.2c2.3,0,4.1,1.8,4.1,4.2
		c0,2.5-1.8,4.3-4.1,4.3C-136.3,222.9-138.1,221-138.1,218.6L-138.1,218.6L-138.1,218.6z M-133.9,223.7c2.8,0,5.2-2.2,5.2-5.1
		c0-2.9-2.4-5.1-5.2-5.1c-2.8,0-5.2,2.2-5.2,5.1C-139.1,221.5-136.7,223.7-133.9,223.7L-133.9,223.7L-133.9,223.7z M-135,219h1
		l1.6,2.6h1l-1.7-2.6c0.9-0.1,1.5-0.6,1.5-1.6c0-1.2-0.7-1.7-2.1-1.7h-2.2v5.9h0.9V219L-135,219L-135,219z M-135,218.2v-1.8h1.2
		c0.6,0,1.3,0.1,1.3,0.9c0,0.9-0.7,1-1.4,1H-135L-135,218.2z"/>
</g>
</svg>
