<?xml version="1.0" encoding="utf-8"?>
<!-- Generator: Adobe Illustrator 18.1.0, SVG Export Plug-In . SVG Version: 6.00 Build 0)  -->
<!DOCTYPE svg PUBLIC "-//W3C//DTD SVG 1.1//EN" "http://www.w3.org/Graphics/SVG/1.1/DTD/svg11.dtd">
<svg version="1.1" id="Layer_1" xmlns="http://www.w3.org/2000/svg" xmlns:xlink="http://www.w3.org/1999/xlink" x="0px" y="0px"
	 width="1170px" height="400px" viewBox="0 0 1170 400" enable-background="new 0 0 1170 400" xml:space="preserve">
<g>
	<g>
		<path fill="#0387B6" d="M883.8,104.1c-15.4-17-34.2-30.9-54.6-40.3c-20.5-9.4-42.7-14.4-65-14.6c-22.3-0.3-44.6,4.1-65.3,13.1
			c-20.7,8.9-39.7,22.3-55.5,38.9l-14.9-16.1c17.9-18.7,39.2-33.7,62.5-43.7c23.3-10,48.4-14.9,73.5-14.6
			c25.1,0.3,50.1,5.9,73.1,16.5c23,10.6,44.1,26.1,61.5,45.2L883.8,104.1L883.8,104.1z"/>
		<path fill="#73808A" d="M853,135.3c-11.5-12.8-25.5-23.3-40.9-30.4c-15.3-7.1-32-10.8-48.6-11c-16.7-0.2-33.3,3.2-48.8,9.9
			c-15.4,6.7-29.7,16.9-41.4,29.4l-14.9-16.1c13.8-14.6,30.4-26.4,48.5-34.2c18.1-7.8,37.6-11.7,57-11.5
			c19.5,0.2,38.9,4.6,56.8,12.8c17.9,8.3,34.3,20.4,47.7,35.3L853,135.3L853,135.3z"/>
		<path fill="#76C044" d="M822.2,166.4c-7.6-8.6-16.9-15.7-27.1-20.4c-10.2-4.8-21.2-7.2-32.3-7.3c-11.1-0.1-22.1,2.2-32.4,6.8
			c-10.2,4.6-19.6,11.5-27.4,20l-14.9-16.1c9.8-10.6,21.6-19.1,34.4-24.7c12.8-5.7,26.7-8.5,40.6-8.3c13.9,0.1,27.7,3.2,40.5,9.1
			c12.8,5.9,24.4,14.7,34,25.4L822.2,166.4L822.2,166.4z"/>
	</g>
	<g>
		<path d="M278,287.2c2.1,3.4,4.9,6.1,8.3,8.1c3.4,2,7.3,3.5,11.6,4.3c4.3,0.9,8.7,1.3,13.3,1.3c3.5,0,7.2-0.3,11-0.8
			c3.8-0.5,7.4-1.5,10.6-2.9c3.2-1.4,5.9-3.5,8-6.2c2.1-2.7,3.2-6.2,3.2-10.4c0-5.8-2.2-10.2-6.6-13.1c-4.4-3-9.8-5.4-16.4-7.2
			c-6.6-1.8-13.7-3.5-21.4-5c-7.7-1.5-14.8-3.6-21.4-6.3c-6.6-2.7-12-6.5-16.4-11.4c-4.4-4.9-6.6-11.7-6.6-20.5
			c0-6.8,1.5-12.7,4.6-17.6c3.1-4.9,7-8.9,11.8-11.9c4.8-3.1,10.2-5.3,16.3-6.8c6-1.5,12-2.2,18-2.2c7.7,0,14.8,0.7,21.3,2
			c6.5,1.3,12.2,3.6,17.2,6.8c5,3.2,9,7.6,11.9,13.1c3,5.5,4.7,12.4,5.3,20.6h-22.3c-0.4-4.4-1.5-8-3.4-10.9c-1.9-2.9-4.4-5.2-7.4-7
			c-3-1.7-6.3-3-9.8-3.8c-3.6-0.8-7.2-1.2-10.9-1.2c-3.3,0-6.7,0.3-10.1,0.8c-3.4,0.5-6.5,1.4-9.3,2.8c-2.8,1.3-5.1,3.1-6.8,5.3
			c-1.8,2.2-2.6,5-2.6,8.5c0,3.9,1.4,7,4.1,9.6c2.7,2.5,6.2,4.6,10.4,6.3c4.2,1.7,8.9,3.1,14.2,4.2c5.3,1.1,10.5,2.3,15.8,3.5
			c5.6,1.2,11.1,2.7,16.4,4.5c5.3,1.8,10.1,4.1,14.2,7c4.1,2.9,7.4,6.5,10,10.9c2.5,4.4,3.8,9.8,3.8,16.3c0,8.2-1.7,15.1-5.1,20.5
			c-3.4,5.4-7.9,9.8-13.4,13.1c-5.5,3.3-11.7,5.6-18.6,7c-6.9,1.3-13.8,2-20.6,2c-7.5,0-14.7-0.8-21.5-2.4
			c-6.8-1.6-12.9-4.2-18.1-7.7c-5.3-3.6-9.5-8.3-12.6-14.2c-3.2-5.9-4.9-13-5.3-21.4h22.3C274.7,279.6,275.9,283.8,278,287.2z"/>
		<path d="M497.7,317.5v-18.4h-0.5c-3.7,7.5-9.5,13-17.3,16.3c-7.9,3.3-16.5,5-26,5c-10.5,0-19.7-1.9-27.4-5.8
			c-7.8-3.8-14.3-9-19.4-15.5c-5.2-6.5-9.1-14-11.7-22.6c-2.6-8.6-3.9-17.7-3.9-27.3c0-9.6,1.3-18.7,3.8-27.3
			c2.5-8.6,6.4-16.1,11.6-22.5c5.2-6.4,11.6-11.5,19.4-15.2c7.8-3.8,16.8-5.6,27.2-5.6c3.5,0,7.3,0.4,11.3,1.1
			c4,0.7,8.1,1.9,12.1,3.5c4,1.7,7.8,3.9,11.4,6.6c3.6,2.7,6.6,6.1,9.1,10.1h0.5V130H520v187.5H497.7z M417.5,269.3
			c1.7,6,4.2,11.4,7.6,16.2c3.4,4.7,7.8,8.5,13.1,11.3c5.3,2.8,11.6,4.2,18.8,4.2c7.5,0,13.9-1.5,19.2-4.5c5.3-3,9.5-6.9,12.9-11.7
			c3.3-4.8,5.7-10.3,7.2-16.4c1.5-6.1,2.2-12.3,2.2-18.6c0-6.7-0.8-13.1-2.4-19.3c-1.6-6.2-4.1-11.7-7.5-16.4
			c-3.4-4.7-7.8-8.5-13.3-11.4c-5.4-2.9-12-4.3-19.7-4.3c-7.5,0-13.9,1.5-19.2,4.5c-5.3,3-9.5,6.9-12.6,11.8
			c-3.2,4.9-5.4,10.5-6.8,16.8c-1.4,6.3-2.1,12.8-2.1,19.4C415,257.1,415.8,263.3,417.5,269.3z"/>
		<path d="M575.4,181.7v21.5h0.5c9.3-16.5,24-24.7,44.1-24.7c8.9,0,16.4,1.2,22.3,3.7c5.9,2.5,10.8,5.9,14.4,10.2
			c3.7,4.4,6.3,9.6,7.7,15.6c1.5,6,2.2,12.7,2.2,20.1v89.3h-22.3v-91.9c0-8.4-2.5-15.1-7.4-20c-4.9-4.9-11.6-7.4-20.2-7.4
			c-6.8,0-12.7,1.1-17.7,3.2c-5,2.1-9.1,5.1-12.5,8.9c-3.3,3.9-5.8,8.4-7.5,13.5c-1.7,5.2-2.5,10.8-2.5,16.9v76.7h-22.3V181.7H575.4
			z"/>
		<path d="M805.7,308.8c-10.2,7.7-22.9,11.6-38.3,11.6c-10.9,0-20.3-1.8-28.2-5.3c-8-3.5-14.7-8.4-20.1-14.7
			c-5.4-6.3-9.5-13.8-12.2-22.6c-2.7-8.8-4.2-18.3-4.6-28.6c0-10.3,1.6-19.8,4.7-28.4c3.2-8.6,7.6-16,13.3-22.3
			c5.7-6.3,12.4-11.2,20.2-14.7c7.8-3.5,16.3-5.3,25.6-5.3c12.1,0,22.1,2.5,30.1,7.5c8,5,14.4,11.3,19.2,19
			c4.8,7.7,8.1,16.1,10,25.2c1.8,9.1,2.6,17.8,2.2,26H725.9c-0.2,6,0.5,11.6,2.1,16.9c1.6,5.3,4.1,10.1,7.6,14.2
			c3.5,4.1,8,7.4,13.4,9.8c5.4,2.5,11.8,3.7,19.2,3.7c9.5,0,17.2-2.2,23.2-6.6c6-4.4,10-11,11.9-20h22.1
			C822.4,289.7,815.8,301.1,805.7,308.8z M800.3,221.7c-2-4.7-4.7-8.8-8.1-12.2c-3.4-3.4-7.4-6.1-12.1-8.1c-4.6-2-9.8-3-15.4-3
			c-5.8,0-11,1-15.6,3c-4.6,2-8.6,4.8-11.9,8.3c-3.3,3.5-6,7.6-7.9,12.2c-1.9,4.6-3.1,9.6-3.4,14.8h78
			C803.5,231.4,802.3,226.4,800.3,221.7z"/>
		<path d="M917.8,181.7v19.7h-27v84.3c0,2.6,0.2,4.7,0.7,6.3c0.4,1.6,1.3,2.8,2.5,3.7c1.2,0.9,2.9,1.4,5.1,1.7
			c2.2,0.3,5,0.4,8.5,0.4h10.2v19.7h-17.1c-5.8,0-10.7-0.4-14.8-1.2c-4.1-0.8-7.4-2.2-10-4.3c-2.5-2.1-4.4-5.1-5.6-8.9
			c-1.2-3.8-1.8-8.9-1.8-15.2v-86.4h-23.1v-19.7h23.1V141h22.3v40.7H917.8z"/>
	</g>
	<g>
		<path fill="#231F20" d="M265.8,351.4v3.3h0.1c0.6-1.3,1.4-2.2,2.3-2.8c0.9-0.6,2-0.9,3.4-0.8v2.7c-1,0-1.9,0.1-2.6,0.4
			c-0.7,0.3-1.3,0.7-1.7,1.2c-0.4,0.5-0.8,1.2-1,2c-0.2,0.8-0.3,1.7-0.3,2.7v6.9h-2.6v-15.5H265.8z"/>
		<path fill="#231F20" d="M290,367v-2.5h-0.1c-0.5,1-1.2,1.7-2.1,2.1c-0.8,0.5-1.8,0.7-3,0.7c-1,0-1.9-0.1-2.6-0.4
			c-0.7-0.3-1.2-0.7-1.7-1.2c-0.4-0.5-0.7-1.1-0.9-1.8c-0.2-0.7-0.3-1.5-0.3-2.3v-10.2h2.6v10.5c0,1,0.3,1.7,0.8,2.3
			c0.6,0.6,1.3,0.8,2.3,0.8c0.8,0,1.5-0.1,2-0.4c0.6-0.2,1-0.6,1.4-1c0.4-0.4,0.7-1,0.9-1.5c0.2-0.6,0.3-1.2,0.3-1.9v-8.8h2.6V367
			H290z"/>
		<path fill="#231F20" d="M304.5,351.4v3.3h0.1c0.6-1.3,1.4-2.2,2.3-2.8s2-0.9,3.4-0.8v2.7c-1,0-1.9,0.1-2.6,0.4
			c-0.7,0.3-1.3,0.7-1.7,1.2c-0.4,0.5-0.8,1.2-1,2c-0.2,0.8-0.3,1.7-0.3,2.7v6.9h-2.6v-15.5H304.5z"/>
		<path fill="#231F20" d="M330.2,367.3c-0.7,0-1.2-0.2-1.6-0.6c-0.4-0.4-0.6-1-0.6-1.8c-0.7,0.8-1.5,1.4-2.4,1.8
			c-0.9,0.4-1.9,0.6-3,0.6c-0.7,0-1.4-0.1-2-0.2c-0.6-0.1-1.2-0.4-1.6-0.7c-0.5-0.4-0.8-0.8-1.1-1.4c-0.3-0.6-0.4-1.2-0.4-2
			c0-0.9,0.1-1.6,0.5-2.2s0.7-1,1.2-1.4c0.5-0.3,1.1-0.6,1.7-0.8c0.6-0.2,1.3-0.3,1.9-0.5c0.7-0.1,1.4-0.2,2-0.3
			c0.6-0.1,1.2-0.2,1.7-0.3c0.5-0.1,0.9-0.3,1.1-0.6c0.3-0.3,0.4-0.6,0.4-1.1c0-0.6-0.1-1-0.3-1.4c-0.2-0.3-0.5-0.6-0.8-0.8
			c-0.3-0.2-0.7-0.3-1.1-0.4c-0.4-0.1-0.8-0.1-1.2-0.1c-1.1,0-2,0.2-2.7,0.6c-0.7,0.4-1.1,1.2-1.2,2.3H318c0-1,0.2-1.8,0.6-2.4
			s0.8-1.2,1.4-1.6c0.6-0.4,1.3-0.7,2.1-0.9s1.6-0.3,2.5-0.3c0.7,0,1.4,0,2.1,0.2c0.7,0.1,1.3,0.3,1.9,0.6c0.6,0.3,1,0.7,1.4,1.3
			c0.3,0.6,0.5,1.3,0.5,2.2v8c0,0.6,0,1,0.1,1.3c0.1,0.3,0.3,0.4,0.7,0.4c0.2,0,0.5,0,0.8-0.2v2
			C331.6,367.2,330.9,367.3,330.2,367.3z M326.6,359.5c-0.5,0.1-1.1,0.2-1.6,0.3c-0.6,0.1-1.1,0.2-1.7,0.2c-0.6,0.1-1.1,0.2-1.6,0.4
			c-0.5,0.2-0.8,0.5-1.1,0.9c-0.3,0.4-0.4,0.9-0.4,1.5c0,0.4,0.1,0.8,0.3,1.1c0.2,0.3,0.4,0.5,0.7,0.7c0.3,0.2,0.6,0.3,1,0.4
			c0.4,0.1,0.7,0.1,1.1,0.1c0.8,0,1.6-0.1,2.2-0.3c0.6-0.2,1.1-0.5,1.5-0.9c0.4-0.3,0.7-0.7,0.8-1.1c0.2-0.4,0.3-0.8,0.3-1.2v-2.6
			C327.5,359.2,327.1,359.4,326.6,359.5z"/>
		<path fill="#231F20" d="M343.1,345.5V367h-2.6v-21.4H343.1z"/>
		<path fill="#231F20" d="M369.9,345.5v8.2h0.1c0.2-0.5,0.5-0.9,0.8-1.2c0.4-0.3,0.8-0.6,1.2-0.8c0.5-0.2,0.9-0.4,1.4-0.5
			c0.5-0.1,1-0.2,1.4-0.2c1,0,1.9,0.1,2.6,0.4c0.7,0.3,1.2,0.7,1.7,1.2c0.4,0.5,0.7,1.1,0.9,1.8c0.2,0.7,0.3,1.5,0.3,2.3V367h-2.6
			v-10.5c0-1-0.3-1.7-0.8-2.3s-1.3-0.8-2.3-0.8c-0.8,0-1.5,0.1-2,0.4c-0.6,0.2-1,0.6-1.4,1c-0.4,0.4-0.7,1-0.9,1.5
			c-0.2,0.6-0.3,1.2-0.3,1.9v8.8h-2.6v-21.4H369.9z"/>
		<path fill="#231F20" d="M390.2,348.6v-3.1h2.6v3.1H390.2z M392.8,351.4V367h-2.6v-15.5H392.8z"/>
		<path fill="#231F20" d="M414.4,371.3c-1.2,1.3-3,1.9-5.5,1.9c-0.7,0-1.5-0.1-2.2-0.2c-0.8-0.2-1.4-0.4-2-0.8
			c-0.6-0.4-1.1-0.8-1.5-1.4c-0.4-0.6-0.6-1.3-0.7-2.1h2.6c0,0.5,0.2,0.9,0.4,1.2c0.3,0.3,0.6,0.6,1,0.8c0.4,0.2,0.8,0.3,1.3,0.4
			c0.5,0.1,0.9,0.1,1.3,0.1c0.8,0,1.6-0.1,2.1-0.4c0.6-0.3,1.1-0.7,1.4-1.2c0.4-0.5,0.7-1.1,0.8-1.8c0.2-0.7,0.3-1.5,0.3-2.4v-1
			h-0.1c-0.4,1-1.1,1.7-2,2.1c-0.9,0.5-1.8,0.7-2.8,0.7c-1.2,0-2.2-0.2-3-0.6s-1.6-1-2.2-1.7c-0.6-0.7-1-1.5-1.3-2.5
			c-0.3-1-0.4-2-0.4-3c0-0.9,0.1-1.9,0.4-2.8c0.2-1,0.6-1.9,1.2-2.6c0.6-0.8,1.3-1.4,2.2-2c0.9-0.5,2.1-0.8,3.4-0.8
			c1,0,1.9,0.2,2.7,0.6c0.8,0.4,1.5,1.1,1.9,1.9h0v-2.2h2.4v14.2C416.2,368.2,415.6,370.1,414.4,371.3z M411.2,364.4
			c0.6-0.4,1.1-0.8,1.4-1.4c0.4-0.6,0.6-1.2,0.8-1.9c0.2-0.7,0.3-1.4,0.3-2.2c0-0.7-0.1-1.4-0.2-2c-0.2-0.7-0.4-1.3-0.8-1.8
			c-0.3-0.5-0.8-1-1.4-1.3c-0.6-0.3-1.2-0.5-2-0.5c-0.8,0-1.5,0.2-2.1,0.5c-0.6,0.3-1.1,0.7-1.4,1.2s-0.6,1.1-0.8,1.8
			s-0.3,1.4-0.3,2.1c0,0.7,0.1,1.4,0.2,2.1c0.1,0.7,0.4,1.3,0.7,1.9c0.3,0.6,0.8,1,1.4,1.4c0.6,0.4,1.3,0.5,2.1,0.5
			C409.8,364.9,410.6,364.7,411.2,364.4z"/>
		<path fill="#231F20" d="M428.6,345.5v8.2h0.1c0.2-0.5,0.5-0.9,0.8-1.2c0.4-0.3,0.8-0.6,1.2-0.8c0.5-0.2,0.9-0.4,1.4-0.5
			c0.5-0.1,1-0.2,1.4-0.2c1,0,1.9,0.1,2.6,0.4c0.7,0.3,1.2,0.7,1.7,1.2c0.4,0.5,0.7,1.1,0.9,1.8c0.2,0.7,0.3,1.5,0.3,2.3V367h-2.6
			v-10.5c0-1-0.3-1.7-0.8-2.3s-1.3-0.8-2.3-0.8c-0.8,0-1.5,0.1-2,0.4c-0.6,0.2-1,0.6-1.4,1c-0.4,0.4-0.7,1-0.9,1.5
			c-0.2,0.6-0.3,1.2-0.3,1.9v8.8H426v-21.4H428.6z"/>
		<path fill="#231F20" d="M465,363.5c0.2,0.4,0.6,0.7,0.9,0.9c0.4,0.2,0.8,0.4,1.3,0.5c0.5,0.1,1,0.2,1.5,0.2c0.4,0,0.8,0,1.3-0.1
			c0.4-0.1,0.8-0.2,1.2-0.3c0.4-0.2,0.7-0.4,0.9-0.7c0.2-0.3,0.4-0.7,0.4-1.2c0-0.7-0.3-1.2-0.8-1.5c-0.5-0.3-1.1-0.6-1.9-0.8
			c-0.8-0.2-1.6-0.4-2.4-0.6c-0.9-0.2-1.7-0.4-2.4-0.7c-0.8-0.3-1.4-0.7-1.9-1.3c-0.5-0.6-0.8-1.3-0.8-2.3c0-0.8,0.2-1.5,0.5-2
			c0.3-0.6,0.8-1,1.4-1.4c0.6-0.4,1.2-0.6,1.9-0.8c0.7-0.2,1.4-0.3,2.1-0.3c0.9,0,1.7,0.1,2.4,0.2c0.7,0.1,1.4,0.4,2,0.8
			c0.6,0.4,1,0.9,1.4,1.5c0.3,0.6,0.5,1.4,0.6,2.4H472c0-0.5-0.2-0.9-0.4-1.2c-0.2-0.3-0.5-0.6-0.8-0.8c-0.3-0.2-0.7-0.3-1.1-0.4
			c-0.4-0.1-0.8-0.1-1.2-0.1c-0.4,0-0.8,0-1.2,0.1c-0.4,0.1-0.7,0.2-1.1,0.3c-0.3,0.2-0.6,0.4-0.8,0.6c-0.2,0.3-0.3,0.6-0.3,1
			c0,0.4,0.2,0.8,0.5,1.1c0.3,0.3,0.7,0.5,1.2,0.7c0.5,0.2,1,0.4,1.6,0.5s1.2,0.3,1.8,0.4c0.6,0.1,1.3,0.3,1.9,0.5s1.2,0.5,1.6,0.8
			c0.5,0.3,0.9,0.7,1.1,1.2c0.3,0.5,0.4,1.1,0.4,1.9c0,0.9-0.2,1.7-0.6,2.3c-0.4,0.6-0.9,1.1-1.5,1.5c-0.6,0.4-1.3,0.6-2.1,0.8
			c-0.8,0.2-1.6,0.2-2.4,0.2c-0.9,0-1.7-0.1-2.5-0.3c-0.8-0.2-1.5-0.5-2.1-0.9c-0.6-0.4-1.1-0.9-1.4-1.6c-0.4-0.7-0.6-1.5-0.6-2.4
			h2.6C464.6,362.6,464.8,363.1,465,363.5z"/>
		<path fill="#231F20" d="M486.7,351.4v2.1h0.1c0.4-0.9,1.1-1.5,2-1.9c0.9-0.4,1.9-0.6,3-0.6c1.2,0,2.2,0.2,3.1,0.7
			c0.9,0.4,1.6,1,2.2,1.8c0.6,0.8,1,1.6,1.3,2.6s0.5,2,0.5,3.1c0,1.1-0.1,2.1-0.4,3.1c-0.3,1-0.7,1.8-1.3,2.6
			c-0.6,0.7-1.3,1.3-2.2,1.7c-0.9,0.4-1.9,0.6-3.1,0.6c-0.4,0-0.8,0-1.3-0.1c-0.5-0.1-0.9-0.2-1.4-0.4c-0.5-0.2-0.9-0.4-1.3-0.7
			c-0.4-0.3-0.8-0.7-1-1.2h-0.1v8h-2.6v-21.4H486.7z M495.9,356.9c-0.2-0.7-0.5-1.3-0.9-1.8c-0.4-0.5-0.9-1-1.5-1.3
			c-0.6-0.3-1.3-0.5-2.1-0.5c-0.9,0-1.6,0.2-2.2,0.5s-1.1,0.8-1.5,1.3c-0.4,0.6-0.7,1.2-0.8,1.9c-0.2,0.7-0.3,1.4-0.3,2.1
			c0,0.8,0.1,1.5,0.3,2.2c0.2,0.7,0.5,1.3,0.9,1.9c0.4,0.5,0.9,1,1.5,1.3c0.6,0.3,1.4,0.5,2.3,0.5c0.9,0,1.6-0.2,2.2-0.5
			c0.6-0.3,1.1-0.8,1.4-1.4c0.4-0.6,0.6-1.2,0.8-1.9c0.2-0.7,0.2-1.5,0.2-2.2C496.2,358.3,496.1,357.6,495.9,356.9z"/>
		<path fill="#231F20" d="M518.9,366c-1.2,0.9-2.6,1.3-4.4,1.3c-1.2,0-2.3-0.2-3.2-0.6c-0.9-0.4-1.7-1-2.3-1.7
			c-0.6-0.7-1.1-1.6-1.4-2.6c-0.3-1-0.5-2.1-0.5-3.3c0-1.2,0.2-2.3,0.5-3.2c0.4-1,0.9-1.8,1.5-2.6s1.4-1.3,2.3-1.7
			c0.9-0.4,1.9-0.6,2.9-0.6c1.4,0,2.5,0.3,3.4,0.9c0.9,0.6,1.6,1.3,2.2,2.2c0.6,0.9,0.9,1.8,1.1,2.9c0.2,1,0.3,2,0.3,3h-11.6
			c0,0.7,0.1,1.3,0.2,1.9c0.2,0.6,0.5,1.2,0.9,1.6c0.4,0.5,0.9,0.8,1.5,1.1c0.6,0.3,1.4,0.4,2.2,0.4c1.1,0,2-0.2,2.7-0.8
			c0.7-0.5,1.1-1.3,1.4-2.3h2.5C520.8,363.8,520,365.1,518.9,366z M518.3,356c-0.2-0.5-0.5-1-0.9-1.4c-0.4-0.4-0.9-0.7-1.4-0.9
			c-0.5-0.2-1.1-0.3-1.8-0.3c-0.7,0-1.3,0.1-1.8,0.3c-0.5,0.2-1,0.5-1.4,0.9c-0.4,0.4-0.7,0.9-0.9,1.4c-0.2,0.5-0.3,1.1-0.4,1.7h8.9
			C518.6,357.1,518.5,356.5,518.3,356z"/>
		<path fill="#231F20" d="M541,366c-1.2,0.9-2.6,1.3-4.4,1.3c-1.2,0-2.3-0.2-3.2-0.6c-0.9-0.4-1.7-1-2.3-1.7
			c-0.6-0.7-1.1-1.6-1.4-2.6c-0.3-1-0.5-2.1-0.5-3.3c0-1.2,0.2-2.3,0.5-3.2c0.4-1,0.9-1.8,1.5-2.6c0.7-0.7,1.4-1.3,2.3-1.7
			s1.9-0.6,2.9-0.6c1.4,0,2.5,0.3,3.4,0.9c0.9,0.6,1.6,1.3,2.2,2.2c0.6,0.9,0.9,1.8,1.1,2.9c0.2,1,0.3,2,0.3,3h-11.6
			c0,0.7,0.1,1.3,0.2,1.9c0.2,0.6,0.5,1.2,0.9,1.6c0.4,0.5,0.9,0.8,1.5,1.1c0.6,0.3,1.4,0.4,2.2,0.4c1.1,0,2-0.2,2.7-0.8
			c0.7-0.5,1.1-1.3,1.4-2.3h2.5C542.9,363.8,542.2,365.1,541,366z M540.4,356c-0.2-0.5-0.5-1-0.9-1.4c-0.4-0.4-0.9-0.7-1.4-0.9
			c-0.5-0.2-1.1-0.3-1.8-0.3c-0.7,0-1.3,0.1-1.8,0.3c-0.5,0.2-1,0.5-1.4,0.9c-0.4,0.4-0.7,0.9-0.9,1.4c-0.2,0.5-0.3,1.1-0.4,1.7h8.9
			C540.7,357.1,540.6,356.5,540.4,356z"/>
		<path fill="#231F20" d="M563.5,367v-2.1h-0.1c-0.4,0.9-1.1,1.5-2,1.9s-1.9,0.6-3,0.6c-1.2,0-2.2-0.2-3.1-0.7
			c-0.9-0.4-1.6-1-2.2-1.8c-0.6-0.7-1-1.6-1.3-2.6s-0.5-2-0.5-3.1c0-1.1,0.1-2.1,0.4-3.1c0.3-1,0.7-1.8,1.3-2.6
			c0.6-0.7,1.3-1.3,2.2-1.7c0.9-0.4,1.9-0.6,3.1-0.6c0.4,0,0.8,0,1.3,0.1c0.5,0.1,0.9,0.2,1.4,0.4c0.5,0.2,0.9,0.4,1.3,0.8
			c0.4,0.3,0.8,0.7,1,1.2h0.1v-8h2.6V367H563.5z M554.3,361.4c0.2,0.7,0.5,1.3,0.9,1.8c0.4,0.5,0.9,1,1.5,1.3
			c0.6,0.3,1.3,0.5,2.1,0.5c0.9,0,1.6-0.2,2.2-0.5s1.1-0.8,1.5-1.3c0.4-0.6,0.7-1.2,0.8-1.9c0.2-0.7,0.3-1.4,0.3-2.1
			c0-0.8-0.1-1.5-0.3-2.2c-0.2-0.7-0.5-1.3-0.9-1.9c-0.4-0.5-0.9-1-1.5-1.3c-0.6-0.3-1.4-0.5-2.3-0.5c-0.9,0-1.6,0.2-2.2,0.5
			s-1.1,0.8-1.4,1.4c-0.4,0.6-0.6,1.2-0.8,1.9c-0.2,0.7-0.2,1.5-0.2,2.2C554,360.1,554.1,360.8,554.3,361.4z"/>
		<path fill="#231F20" d="M603,367l-3.2-12.3h-0.1l-3.1,12.3h-2.8l-5-15.5h2.8l3.5,12.7h0.1l3.1-12.7h2.8l3.2,12.7h0.1l3.5-12.7h2.6
			l-5,15.5H603z"/>
		<path fill="#231F20" d="M619.2,348.6v-3.1h2.6v3.1H619.2z M621.8,351.4V367h-2.6v-15.5H621.8z"/>
		<path fill="#231F20" d="M634,351.4v3.3h0.1c0.6-1.3,1.4-2.2,2.3-2.8c0.9-0.6,2-0.9,3.4-0.8v2.7c-1,0-1.9,0.1-2.6,0.4
			c-0.7,0.3-1.3,0.7-1.7,1.2c-0.4,0.5-0.8,1.2-1,2c-0.2,0.8-0.3,1.7-0.3,2.7v6.9h-2.6v-15.5H634z"/>
		<path fill="#231F20" d="M658.2,366c-1.2,0.9-2.6,1.3-4.4,1.3c-1.2,0-2.3-0.2-3.2-0.6c-0.9-0.4-1.7-1-2.3-1.7s-1.1-1.6-1.4-2.6
			c-0.3-1-0.5-2.1-0.5-3.3c0-1.2,0.2-2.3,0.5-3.2c0.4-1,0.9-1.8,1.5-2.6c0.7-0.7,1.4-1.3,2.3-1.7c0.9-0.4,1.9-0.6,2.9-0.6
			c1.4,0,2.5,0.3,3.4,0.9c0.9,0.6,1.6,1.3,2.2,2.2c0.6,0.9,0.9,1.8,1.1,2.9c0.2,1,0.3,2,0.3,3h-11.6c0,0.7,0.1,1.3,0.2,1.9
			c0.2,0.6,0.5,1.2,0.9,1.6c0.4,0.5,0.9,0.8,1.5,1.1c0.6,0.3,1.4,0.4,2.2,0.4c1.1,0,2-0.2,2.7-0.8c0.7-0.5,1.1-1.3,1.4-2.3h2.5
			C660.1,363.8,659.3,365.1,658.2,366z M657.6,356c-0.2-0.5-0.5-1-0.9-1.4c-0.4-0.4-0.9-0.7-1.4-0.9c-0.5-0.2-1.1-0.3-1.8-0.3
			c-0.7,0-1.3,0.1-1.8,0.3c-0.5,0.2-1,0.5-1.4,0.9c-0.4,0.4-0.7,0.9-0.9,1.4c-0.2,0.5-0.4,1.1-0.4,1.7h8.9
			C657.9,357.1,657.8,356.5,657.6,356z"/>
		<path fill="#231F20" d="M672,345.5V367h-2.6v-21.4H672z"/>
		<path fill="#231F20" d="M693,366c-1.2,0.9-2.6,1.3-4.4,1.3c-1.2,0-2.3-0.2-3.2-0.6c-0.9-0.4-1.7-1-2.3-1.7s-1.1-1.6-1.4-2.6
			c-0.3-1-0.5-2.1-0.5-3.3c0-1.2,0.2-2.3,0.5-3.2c0.4-1,0.9-1.8,1.5-2.6s1.4-1.3,2.3-1.7c0.9-0.4,1.9-0.6,2.9-0.6
			c1.4,0,2.5,0.3,3.4,0.9c0.9,0.6,1.6,1.3,2.2,2.2c0.6,0.9,0.9,1.8,1.1,2.9c0.2,1,0.3,2,0.3,3h-11.6c0,0.7,0.1,1.3,0.2,1.9
			c0.2,0.6,0.5,1.2,0.9,1.6c0.4,0.5,0.9,0.8,1.5,1.1c0.6,0.3,1.4,0.4,2.2,0.4c1.1,0,2-0.2,2.7-0.8c0.7-0.5,1.1-1.3,1.4-2.3h2.5
			C694.9,363.8,694.1,365.1,693,366z M692.4,356c-0.2-0.5-0.5-1-0.9-1.4c-0.4-0.4-0.9-0.7-1.4-0.9c-0.5-0.2-1.1-0.3-1.8-0.3
			c-0.7,0-1.3,0.1-1.8,0.3c-0.5,0.2-1,0.5-1.4,0.9c-0.4,0.4-0.7,0.9-0.9,1.4c-0.2,0.5-0.4,1.1-0.4,1.7h8.9
			C692.7,357.1,692.6,356.5,692.4,356z"/>
		<path fill="#231F20" d="M706.1,363.5c0.2,0.4,0.6,0.7,0.9,0.9c0.4,0.2,0.8,0.4,1.3,0.5c0.5,0.1,1,0.2,1.5,0.2c0.4,0,0.8,0,1.3-0.1
			c0.4-0.1,0.8-0.2,1.2-0.3c0.4-0.2,0.7-0.4,0.9-0.7c0.2-0.3,0.4-0.7,0.4-1.2c0-0.7-0.3-1.2-0.8-1.5c-0.5-0.3-1.1-0.6-1.9-0.8
			c-0.8-0.2-1.6-0.4-2.4-0.6c-0.9-0.2-1.7-0.4-2.4-0.7c-0.8-0.3-1.4-0.7-1.9-1.3c-0.5-0.6-0.8-1.3-0.8-2.3c0-0.8,0.2-1.5,0.5-2
			c0.4-0.6,0.8-1,1.4-1.4c0.6-0.4,1.2-0.6,1.9-0.8c0.7-0.2,1.4-0.3,2.1-0.3c0.9,0,1.7,0.1,2.4,0.2c0.7,0.1,1.4,0.4,2,0.8
			c0.6,0.4,1,0.9,1.4,1.5c0.3,0.6,0.5,1.4,0.6,2.4h-2.6c0-0.5-0.2-0.9-0.4-1.2c-0.2-0.3-0.5-0.6-0.8-0.8c-0.3-0.2-0.7-0.3-1.1-0.4
			c-0.4-0.1-0.8-0.1-1.2-0.1c-0.4,0-0.8,0-1.2,0.1c-0.4,0.1-0.7,0.2-1.1,0.3c-0.3,0.2-0.6,0.4-0.8,0.6c-0.2,0.3-0.3,0.6-0.3,1
			c0,0.4,0.2,0.8,0.5,1.1c0.3,0.3,0.7,0.5,1.2,0.7c0.5,0.2,1,0.4,1.6,0.5s1.2,0.3,1.8,0.4c0.6,0.1,1.3,0.3,1.9,0.5s1.2,0.5,1.6,0.8
			c0.5,0.3,0.9,0.7,1.1,1.2c0.3,0.5,0.4,1.1,0.4,1.9c0,0.9-0.2,1.7-0.6,2.3c-0.4,0.6-0.9,1.1-1.5,1.5c-0.6,0.4-1.3,0.6-2.1,0.8
			c-0.8,0.2-1.6,0.2-2.4,0.2c-0.9,0-1.7-0.1-2.5-0.3c-0.8-0.2-1.5-0.5-2.1-0.9c-0.6-0.4-1.1-0.9-1.4-1.6c-0.4-0.7-0.6-1.5-0.6-2.4
			h2.6C705.7,362.6,705.8,363.1,706.1,363.5z"/>
		<path fill="#231F20" d="M727.1,363.5c0.2,0.4,0.6,0.7,0.9,0.9c0.4,0.2,0.8,0.4,1.3,0.5c0.5,0.1,1,0.2,1.5,0.2c0.4,0,0.8,0,1.3-0.1
			c0.4-0.1,0.8-0.2,1.2-0.3c0.4-0.2,0.7-0.4,0.9-0.7c0.2-0.3,0.4-0.7,0.4-1.2c0-0.7-0.3-1.2-0.8-1.5c-0.5-0.3-1.1-0.6-1.9-0.8
			c-0.8-0.2-1.6-0.4-2.4-0.6c-0.9-0.2-1.7-0.4-2.4-0.7c-0.8-0.3-1.4-0.7-1.9-1.3c-0.5-0.6-0.8-1.3-0.8-2.3c0-0.8,0.2-1.5,0.5-2
			c0.4-0.6,0.8-1,1.4-1.4c0.6-0.4,1.2-0.6,1.9-0.8c0.7-0.2,1.4-0.3,2.1-0.3c0.9,0,1.7,0.1,2.4,0.2c0.7,0.1,1.4,0.4,2,0.8
			c0.6,0.4,1,0.9,1.4,1.5c0.3,0.6,0.5,1.4,0.6,2.4h-2.6c0-0.5-0.2-0.9-0.4-1.2c-0.2-0.3-0.5-0.6-0.8-0.8c-0.3-0.2-0.7-0.3-1.1-0.4
			c-0.4-0.1-0.8-0.1-1.2-0.1c-0.4,0-0.8,0-1.2,0.1c-0.4,0.1-0.7,0.2-1.1,0.3c-0.3,0.2-0.6,0.4-0.8,0.6c-0.2,0.3-0.3,0.6-0.3,1
			c0,0.4,0.2,0.8,0.5,1.1c0.3,0.3,0.7,0.5,1.2,0.7c0.5,0.2,1,0.4,1.6,0.5s1.2,0.3,1.8,0.4c0.6,0.1,1.3,0.3,1.9,0.5s1.2,0.5,1.6,0.8
			c0.5,0.3,0.9,0.7,1.1,1.2c0.3,0.5,0.4,1.1,0.4,1.9c0,0.9-0.2,1.7-0.6,2.3c-0.4,0.6-0.9,1.1-1.5,1.5c-0.6,0.4-1.3,0.6-2.1,0.8
			c-0.8,0.2-1.6,0.2-2.4,0.2c-0.9,0-1.7-0.1-2.5-0.3c-0.8-0.2-1.5-0.5-2.1-0.9c-0.6-0.4-1.1-0.9-1.4-1.6c-0.4-0.7-0.6-1.5-0.6-2.4
			h2.6C726.7,362.6,726.9,363.1,727.1,363.5z"/>
		<path fill="#231F20" d="M760.7,348.6v-3.1h2.6v3.1H760.7z M763.2,351.4V367h-2.6v-15.5H763.2z"/>
		<path fill="#231F20" d="M775.6,351.4v2.5h0.1c1.1-1.9,2.7-2.8,5-2.8c1,0,1.9,0.1,2.6,0.4c0.7,0.3,1.2,0.7,1.7,1.2
			c0.4,0.5,0.7,1.1,0.9,1.8c0.2,0.7,0.3,1.5,0.3,2.3V367h-2.6v-10.5c0-1-0.3-1.7-0.8-2.3c-0.6-0.6-1.3-0.8-2.3-0.8
			c-0.8,0-1.5,0.1-2,0.4c-0.6,0.2-1,0.6-1.4,1c-0.4,0.4-0.7,1-0.9,1.5c-0.2,0.6-0.3,1.2-0.3,1.9v8.8h-2.6v-15.5H775.6z"/>
		<path fill="#231F20" d="M802.5,351.4v2.3h-3.1v9.6c0,0.3,0,0.5,0.1,0.7c0,0.2,0.1,0.3,0.3,0.4c0.1,0.1,0.3,0.2,0.6,0.2
			c0.2,0,0.6,0,1,0h1.2v2.3h-2c-0.7,0-1.2,0-1.7-0.1c-0.5-0.1-0.9-0.3-1.1-0.5c-0.3-0.2-0.5-0.6-0.6-1c-0.1-0.4-0.2-1-0.2-1.7v-9.9
			h-2.6v-2.3h2.6v-4.7h2.6v4.7H802.5z"/>
		<path fill="#231F20" d="M822.3,366c-1.2,0.9-2.6,1.3-4.4,1.3c-1.2,0-2.3-0.2-3.2-0.6c-0.9-0.4-1.7-1-2.3-1.7s-1.1-1.6-1.4-2.6
			c-0.3-1-0.5-2.1-0.5-3.3c0-1.2,0.2-2.3,0.5-3.2c0.4-1,0.9-1.8,1.5-2.6c0.7-0.7,1.4-1.3,2.3-1.7c0.9-0.4,1.9-0.6,2.9-0.6
			c1.4,0,2.5,0.3,3.4,0.9c0.9,0.6,1.6,1.3,2.2,2.2c0.6,0.9,0.9,1.8,1.1,2.9c0.2,1,0.3,2,0.3,3h-11.6c0,0.7,0.1,1.3,0.2,1.9
			c0.2,0.6,0.5,1.2,0.9,1.6c0.4,0.5,0.9,0.8,1.5,1.1c0.6,0.3,1.4,0.4,2.2,0.4c1.1,0,2-0.2,2.7-0.8c0.7-0.5,1.1-1.3,1.4-2.3h2.5
			C824.2,363.8,823.5,365.1,822.3,366z M821.7,356c-0.2-0.5-0.5-1-0.9-1.4c-0.4-0.4-0.9-0.7-1.4-0.9c-0.5-0.2-1.1-0.3-1.8-0.3
			c-0.7,0-1.3,0.1-1.8,0.3c-0.5,0.2-1,0.5-1.4,0.9c-0.4,0.4-0.7,0.9-0.9,1.4c-0.2,0.5-0.4,1.1-0.4,1.7h8.9
			C822.1,357.1,821.9,356.5,821.7,356z"/>
		<path fill="#231F20" d="M835.8,351.4v3.3h0.1c0.6-1.3,1.4-2.2,2.3-2.8c0.9-0.6,2-0.9,3.4-0.8v2.7c-1,0-1.9,0.1-2.6,0.4
			c-0.7,0.3-1.3,0.7-1.7,1.2c-0.4,0.5-0.8,1.2-1,2c-0.2,0.8-0.3,1.7-0.3,2.7v6.9h-2.6v-15.5H835.8z"/>
		<path fill="#231F20" d="M852.4,351.4v2.5h0.1c1.1-1.9,2.7-2.8,5-2.8c1,0,1.9,0.1,2.6,0.4c0.7,0.3,1.2,0.7,1.7,1.2
			c0.4,0.5,0.7,1.1,0.9,1.8c0.2,0.7,0.3,1.5,0.3,2.3V367h-2.6v-10.5c0-1-0.3-1.7-0.8-2.3c-0.6-0.6-1.3-0.8-2.3-0.8
			c-0.8,0-1.5,0.1-2,0.4c-0.6,0.2-1,0.6-1.4,1c-0.4,0.4-0.7,1-0.9,1.5s-0.3,1.2-0.3,1.9v8.8H850v-15.5H852.4z"/>
		<path fill="#231F20" d="M883.7,366c-1.2,0.9-2.6,1.3-4.4,1.3c-1.2,0-2.3-0.2-3.2-0.6c-0.9-0.4-1.7-1-2.3-1.7s-1.1-1.6-1.4-2.6
			c-0.3-1-0.5-2.1-0.5-3.3c0-1.2,0.2-2.3,0.5-3.2c0.4-1,0.9-1.8,1.5-2.6s1.4-1.3,2.3-1.7c0.9-0.4,1.9-0.6,2.9-0.6
			c1.4,0,2.5,0.3,3.4,0.9c0.9,0.6,1.6,1.3,2.2,2.2c0.6,0.9,0.9,1.8,1.1,2.9c0.2,1,0.3,2,0.3,3h-11.6c0,0.7,0.1,1.3,0.2,1.9
			c0.2,0.6,0.5,1.2,0.9,1.6c0.4,0.5,0.9,0.8,1.5,1.1c0.6,0.3,1.4,0.4,2.2,0.4c1.1,0,2-0.2,2.7-0.8c0.7-0.5,1.1-1.3,1.4-2.3h2.5
			C885.6,363.8,884.9,365.1,883.7,366z M883.1,356c-0.2-0.5-0.5-1-0.9-1.4c-0.4-0.4-0.9-0.7-1.4-0.9c-0.5-0.2-1.1-0.3-1.8-0.3
			c-0.7,0-1.3,0.1-1.8,0.3c-0.5,0.2-1,0.5-1.4,0.9c-0.4,0.4-0.7,0.9-0.9,1.4c-0.2,0.5-0.4,1.1-0.4,1.7h8.9
			C883.5,357.1,883.3,356.5,883.1,356z"/>
		<path fill="#231F20" d="M901.5,351.4v2.3h-3.1v9.6c0,0.3,0,0.5,0.1,0.7c0,0.2,0.1,0.3,0.3,0.4c0.1,0.1,0.3,0.2,0.6,0.2
			c0.2,0,0.6,0,1,0h1.2v2.3h-2c-0.7,0-1.2,0-1.7-0.1c-0.5-0.1-0.9-0.3-1.1-0.5c-0.3-0.2-0.5-0.6-0.6-1c-0.1-0.4-0.2-1-0.2-1.7v-9.9
			h-2.6v-2.3h2.6v-4.7h2.6v4.7H901.5z"/>
	</g>
</g>
</svg>
