<svg xmlns="http://www.w3.org/2000/svg" width="801" height="192" viewBox="32 314.8 801 192" enable-background="new 32 314.8 801 192"><style type="text/css">.st0{fill:#007FB2;} .st1{fill-rule:evenodd;clip-rule:evenodd;fill:#FFFFFF;} .st2{fill:#FFFFFF;} .st3{fill-rule:evenodd;clip-rule:evenodd;fill:#84C346;} .st4{fill:#027FB3;} .st5{fill-rule:evenodd;clip-rule:evenodd;fill:#77838F;}</style><path class="st0" d="M356.3 392.2H62.8c-17 0-30.8 13.9-30.8 30.8v41.5c0 16.9 13.8 30.8 30.8 30.8h431.9v-103H356.3z"/><path class="st1" d="M194.3 434.2h17v16.6h-17v-16.6zm116.3 29.4h9.5c14.4 0 26.3-11.6 26.3-25.7s-11.9-25.7-26.4-25.7h-24.6V473h15.1v-9.4h.1zm.1-15.6v-20.2h9.5c5.7 0 10.3 4.5 10.3 10.1s-4.7 10.1-10.3 10.1h-9.5zM252 412.2c17.1 0 31.1 13.7 31.1 30.4S269.1 473 252 473s-31.1-13.7-31.1-30.4 14-30.4 31.1-30.4zm0 15.7c8.3 0 15.1 6.6 15.1 14.7s-6.8 14.7-15.1 14.7-15.1-6.6-15.1-14.7c.1-8.1 6.8-14.7 15.1-14.7zm-138 36.8c-5.7 5.2-13.6 8.2-21.4 8.2-17.1 0-31.1-13.7-31.1-30.4s14-30.4 31.1-30.4c7.5 0 15.3 2.9 21 7.9l-9.6 12.8c-2.8-3.1-7.1-5-11.3-5-8.3 0-15.1 6.6-15.1 14.7s6.8 14.7 15.1 14.7c4.4 0 8.7-1.9 11.5-5.2l9.8 12.7zm39.6-52.5c17.1 0 31.1 13.7 31.1 30.4s-14 30.4-31.1 30.4-31.1-13.7-31.1-30.4 14.1-30.4 31.1-30.4zm0 15.7c8.3 0 15.1 6.6 15.1 14.7s-6.8 14.7-15.1 14.7-15.1-6.6-15.1-14.7c.1-8.1 6.9-14.7 15.1-14.7z"/><path class="st2" d="M361.1 464.1c0 1.5-.4 2.9-1.1 4.1-.7 1.3-1.7 2.3-3 3-1.3.7-2.7 1.1-4.1 1.1-1.5 0-2.8-.4-4.1-1.1-1.3-.7-2.3-1.7-3-3-.7-1.3-1.1-2.7-1.1-4.1 0-1.5.4-2.9 1.1-4.1.7-1.3 1.7-2.3 3-3 1.3-.7 2.7-1.1 4.1-1.1 1.5 0 2.9.4 4.1 1.1 1.3.7 2.3 1.7 3 3 .7 1.2 1.1 2.6 1.1 4.1zm-1.6 0c0-1.8-.7-3.4-2-4.7-1.3-1.3-2.9-2-4.7-2-1.8 0-3.4.7-4.7 2-1.3 1.3-2 2.9-2 4.7s.7 3.4 2 4.7c1.3 1.3 2.9 2 4.7 2 1.8 0 3.4-.7 4.7-2 1.3-1.3 2-2.9 2-4.7zm-10.5-4.4h4c1.1 0 1.9.2 2.4.7.5.5.8 1.1.8 1.8 0 .6-.2 1.1-.6 1.5-.4.4-1 .7-1.8.9.3.1.6.3.7.4.2.2.5.5.7.9 0 0 .5.9 1.4 2.6H354c-.8-1.7-1.4-2.7-1.7-3-.3-.3-.6-.5-.9-.5h-.3v3.5H349v-8.8zm2.2 3.7h1c.6 0 1.1-.1 1.3-.3.3-.2.4-.5.4-.8s-.1-.6-.4-.8c-.3-.2-.7-.3-1.3-.3h-1v2.2z"/><path class="st3" d="M802.2 392.2H491v103h311.2c16.9 0 30.8-13.8 30.8-30.8V423c0-16.9-13.8-30.8-30.8-30.8z"/><path class="st2" d="M780.1 415c5.6 0 10.5 1 15 3 4.4 2 8.1 5.1 11 9.4 2.6 3.8 4.3 8.1 5.1 13.1.5 2.9.6 7.1.6 12.6h-46.3c.3 6.4 2.5 10.8 6.7 13.4 2.5 1.6 5.6 2.4 9.2 2.4 3.8 0 6.9-1 9.3-2.9 1.3-1.1 2.4-2.5 3.4-4.4h17c-.5 3.8-2.5 7.6-6.2 11.5-5.7 6.2-13.7 9.3-24 9.3-8.5 0-15.9-2.6-22.4-7.8-3.5-2.8-6.1-6.6-7.7-11.3l-.1 17.1h-17v-40.5c0-2.4-.4-4.4-1.2-5.9-1.5-3-4.2-4.4-8.1-4.4-4.6 0-7.8 1.9-9.5 5.7-.9 2-1.3 4.5-1.3 7.3v37.8h-16.7v-37.8c0-3.8-.4-6.5-1.2-8.2-1.4-3.1-4.1-4.6-8.2-4.6-4.8 0-7.9 1.5-9.6 4.6-.9 1.8-1.3 4.4-1.3 7.8v38.2h-16.9v-20.6c-1.3 4.7-3.5 9-6.6 12.8-5.4 6.6-13.5 9.9-24.4 9.9-10.9 0-19.1-3.3-24.4-9.9-4-4.9-6.5-10.6-7.5-17.1v24.8h-17v-38.6c0-3.4-.6-6.2-1.7-8.3-1.5-3-4.4-4.4-8.6-4.4-4.4 0-7.7 1.5-10 4.4-2.2 2.9-3.4 7.1-3.4 12.6v34.4h-16.6v-78H556V425c2.4-3.7 5.2-6.3 8.3-7.7 3.2-1.5 6.5-2.2 10-2.2 3.9 0 7.5.7 10.7 2.1 3.2 1.4 5.8 3.4 7.9 6.2 1.8 2.4 2.8 4.8 3.2 7.3.4 2.3.5 6.1.6 11.2 1-6.4 3.5-12.1 7.5-17.1 5.4-6.7 13.5-10.1 24.4-10.1 10.9 0 19.1 3.4 24.4 10.1 3.1 3.9 5.3 8.2 6.6 12.9v-20.8h16.2v9.3c2-3.3 4-5.7 5.8-7.1 3.2-2.5 7.4-3.7 12.5-3.7 4.9 0 8.8 1.1 11.8 3.2 2.4 2 4.2 4.5 5.5 7.6 2.2-3.7 4.9-6.5 8.1-8.2 3.4-1.8 7.2-2.6 11.4-2.6 2.8 0 5.6.5 8.3 1.6 2.7 1.1 5.2 3 7.4 5.7 1.8 2.2 3 4.9 3.6 8.2.2 1.2.4 2.6.5 4.3 1.5-4.5 3.7-8.3 6.8-11.3 5.7-5.9 13.3-8.9 22.6-8.9zm-151.6 53.6c4.9 0 8.6-1.7 11.2-5.2 2.6-3.5 3.9-8.4 3.9-14.7 0-6.4-1.3-11.3-3.9-14.7-2.6-3.4-6.3-5.2-11.2-5.2-4.9 0-8.6 1.7-11.2 5.2-2.6 3.4-3.9 8.4-3.9 14.7 0 6.4 1.3 11.3 3.9 14.7 2.6 3.4 6.3 5.2 11.2 5.2zm151.7-39.9c-4.3 0-7.6 1.2-9.9 3.6-2.3 2.4-3.8 5.7-4.4 9.8h28.7c-.3-4.4-1.8-7.7-4.4-10-2.8-2.2-6.1-3.4-10-3.4z"/><path class="st1" d="M496.1 418.7v67.7c0 8.6-7 15.6-15.6 15.6h-95.1c-8.6 0-15.6-7-15.6-15.6v-67.6c-4.9 0-9.8.1-14.7 0-7.6-.2-10.8-7.7-5.8-13.4l7.9-8.8 15.9-17.9v-30h26.7l18.7-21c9.7-10.9 20.1-10.5 29.6.2l30.7 34.4 30.7 34.6c1.8 2.1 3.6 4.1 5.5 6.2 2.6 2.9 5.1 6.5 3.4 10.6-1.9 4.6-6.8 5-11 5h-11.3z"/><path class="st4" d="M433.1 319.6c5.1 0 10.1 2.8 15 8.2l30.7 34.4 30.7 34.6c1.8 2.1 3.6 4.1 5.5 6.2 2.6 2.9 5.1 6.5 3.4 10.6-1.9 4.6-6.8 5-11 5l-11.2.2v67.7c0 8.6-7 15.6-15.6 15.6h-95.1c-8.6 0-15.6-7-15.6-15.6v-67.6h-9.1c-1.9 0-3.7 0-5.6-.1-7.6-.2-10.8-7.7-5.8-13.4l7.9-8.8 15.9-17.9v-30h26.7l18.7-21c4.6-5.4 9.5-8.1 14.5-8.1m0-3.1c-6 0-11.7 3-17 9l-17.7 19.9H370v32l-15.1 17-7.9 8.8c-3.2 3.5-4 8.2-2.3 12.1 1.7 3.9 5.7 6.4 10.4 6.5 1.7 0 3.5.1 5.7.1h5.9v64.4c0 10.4 8.4 18.8 18.8 18.8h95.1c10.4 0 18.8-8.4 18.8-18.8v-64.5l8.1-.1c3.6-.1 11-.2 13.9-7 2.7-6.6-2.1-11.9-3.9-13.9-1.2-1.3-2.4-2.7-3.6-4-.6-.7-1.2-1.4-1.9-2.1l-30.7-34.6-30.7-34.4c-5.7-6.1-11.5-9.2-17.5-9.2z"/><path class="st5" d="M489.6 413.5v74.1c0 5-4.1 9.2-9.2 9.2h-95.1c-5 0-9.2-4.1-9.2-9.2v-74.1h-20.9c-2.1-.1-2.3-1-1.1-2.6l7.9-8.8 30.5-34.3 30.7-34.6c6.9-8.6 13.6-7.5 20 .2l30.7 34.3 30.7 34.6c1.8 2.1 3.7 4.1 5.5 6.2 3.6 4 3.1 4.9-2.9 4.9l-12.9.2h-4.7v-.1zm-112.3-61h18.3v.5l-18.3 20.6v-21.1z"/><path class="st2" d="M467 456.7h9.7c-3 6.1-7.7 10.9-13.9 14.3-7.2 4-15.9 5.9-26.3 5.9-10 0-18.6-1.7-25.9-5-7.3-3.4-12.7-8.3-16.2-14.8s-5.3-13.6-5.3-21.3c0-8.4 2-16.3 6-23.6 4-7.3 9.6-12.7 16.5-16.4 7-3.6 15-5.5 24-5.5 7.6 0 14.4 1.5 20.3 4.4 5.9 2.9 10.5 7.1 13.6 12.5 3.1 5.4 4.7 11.3 4.7 17.8 0 7.7-2.4 14.6-7.1 20.8-6 7.8-13.6 11.7-23 11.7-2.5 0-4.4-.4-5.7-1.3-1.3-.9-2.1-2.2-2.5-3.8-3.6 3.4-7.7 5.1-12.4 5.1-5 0-9.2-1.7-12.5-5.2-3.3-3.4-5-8-5-13.7 0-7.1 2-13.5 6-19.3 4.9-7.1 11.1-10.6 18.6-10.6 5.4 0 9.4 2 12 6.1l1.1-5h12l-6.9 32.3c-.4 2-.6 3.4-.6 4 0 .8.2 1.3.5 1.7.3.4.8.6 1.2.6 1.5 0 3.3-.9 5.6-2.6 3.1-2.3 5.6-5.3 7.5-9.2 1.9-3.8 2.9-7.8 2.9-11.9 0-7.4-2.7-13.6-8.1-18.5-5.4-5-12.9-7.5-22.6-7.5-8.2 0-15.2 1.7-20.9 5-5.7 3.3-10 8-12.9 14-2.9 6-4.3 12.3-4.3 18.8 0 6.3 1.6 12.1 4.8 17.3 3.2 5.2 7.8 9 13.6 11.4 5.8 2.4 12.5 3.6 20 3.6 7.2 0 13.5-1 18.7-3 5.4-2.1 9.6-5.1 12.8-9.1zm-49.1-18.6c0 3.8.8 6.6 2.3 8.4 1.6 1.8 3.5 2.7 5.8 2.7 1.7 0 3.3-.4 4.9-1.3 1.1-.6 2.3-1.6 3.4-2.8 1.6-1.8 3-4.5 4.2-8 1.2-3.5 1.8-6.8 1.8-9.8 0-3.4-.8-6-2.4-7.8-1.6-1.8-3.6-2.7-6-2.7-2.6 0-5 1-7.2 3s-3.9 4.8-5 8.5c-1.3 3.7-1.8 7-1.8 9.8z"/></svg>