<?xml version="1.0" encoding="utf-8"?>
<!-- Generator: Adobe Illustrator 18.1.0, SVG Export Plug-In . SVG Version: 6.00 Build 0)  -->
<!DOCTYPE svg PUBLIC "-//W3C//DTD SVG 1.1//EN" "http://www.w3.org/Graphics/SVG/1.1/DTD/svg11.dtd">
<svg version="1.1" id="Layer_1" xmlns="http://www.w3.org/2000/svg" xmlns:xlink="http://www.w3.org/1999/xlink" x="0px" y="0px"
	 width="167px" height="44.7px" viewBox="-285 388.4 167 44.7" enable-background="new -285 388.4 167 44.7" xml:space="preserve">
<g>
	<path fill="#636567" d="M-232.2,430.3v0.1c-0.2,1.1-0.9,2.1-2.2,2.1c-1.5,0-1.7-0.9-1.3-3c0.4-2.1,1.1-3,2.6-3
		c1.7,0,1.5,1.2,1.4,1.8v0.1h-0.9v-0.1c0.1-0.5,0.1-1.2-0.6-1.1c-0.7,0-1.1,0.4-1.5,2.3s-0.2,2.3,0.5,2.3c0.8,0,1-0.9,1.2-1.4v-0.1
		C-233,430.3-232.2,430.3-232.2,430.3z"/>
	<path fill="#636567" d="M-227.4,429.5c0.4-2.1,1.2-3,2.6-3c1.3,0,1.7,0.9,1.3,3s-1.2,3-2.6,3S-227.8,431.6-227.4,429.5
		 M-224.5,429.5c0.4-2,0-2.3-0.5-2.3c-0.6,0-1.1,0.3-1.5,2.3s-0.1,2.4,0.5,2.4C-225.4,431.8-224.9,431.5-224.5,429.5"/>
	<polygon fill="#636567" points="-218,426.6 -216.6,426.6 -216.5,430.9 -216.5,430.9 -214.5,426.6 -213.1,426.6 -214.3,432.4 
		-215.2,432.4 -214.2,427.6 -214.2,427.6 -216.4,432.4 -217.2,432.4 -217.3,427.6 -217.4,427.6 -218.4,432.4 -219.3,432.4 	"/>
	<polygon fill="#636567" points="-208.1,426.6 -206.6,426.6 -206.5,430.9 -206.5,430.9 -204.6,426.6 -203.1,426.6 -204.4,432.4 
		-205.3,432.4 -204.2,427.6 -204.2,427.6 -206.5,432.4 -207.2,432.4 -207.4,427.6 -207.4,427.6 -208.4,432.4 -209.3,432.4 	"/>
	<path fill="#636567" d="M-197.2,426.6l-0.9,4.2c-0.2,0.7,0.1,1.1,0.6,1.1c0.6,0,0.9-0.3,1.1-1.1l0.9-4.2h0.9l-0.9,4.1
		c-0.3,1.3-1.1,1.8-2.2,1.8c-1.1,0-1.7-0.5-1.4-1.8l0.9-4.1H-197.2z"/>
	<polygon fill="#636567" points="-189.6,426.6 -188.5,426.6 -187.7,430.9 -187.7,430.9 -186.8,426.6 -185.9,426.6 -187.2,432.4 
		-188.3,432.4 -189,428 -189.1,428 -190,432.4 -190.9,432.4 	"/>
	<polygon fill="#636567" points="-180.9,426.6 -180,426.6 -181.2,432.4 -182.2,432.4 	"/>
	<path fill="#636567" d="M-172.2,430.3v0.1c-0.3,1.1-0.9,2.1-2.3,2.1c-1.5,0-1.7-0.9-1.3-3s1.1-3,2.6-3c1.7,0,1.5,1.2,1.4,1.8v0.1
		h-0.9v-0.1c0.1-0.5,0.1-1.2-0.6-1.1c-0.7,0-1.1,0.4-1.5,2.3s-0.2,2.3,0.5,2.3c0.8,0,1-0.9,1.2-1.4v-0.1H-172.2z"/>
	<path fill="#636567" d="M-165.6,426.6h1.2l0.3,5.8h-1l-0.1-1.4h-1.7l-0.7,1.4h-1L-165.6,426.6z M-165.1,430.2l-0.1-2.9l0,0
		l-1.3,2.9H-165.1z"/>
	<polygon fill="#636567" points="-158,427.4 -159.4,427.4 -159.3,426.6 -155.6,426.6 -155.7,427.4 -157.1,427.4 -158.2,432.4 
		-159.1,432.4 	"/>
	<polygon fill="#636567" points="-151,426.6 -150.1,426.6 -151.3,432.4 -152.3,432.4 	"/>
	<path fill="#636567" d="M-145.8,429.5c0.4-2.1,1.2-3,2.6-3c1.3,0,1.7,0.9,1.3,3s-1.2,3-2.6,3S-146.3,431.6-145.8,429.5
		 M-142.9,429.5c0.4-2,0-2.3-0.5-2.3c-0.6,0-1.1,0.3-1.5,2.3s-0.1,2.4,0.5,2.4C-143.9,431.8-143.3,431.5-142.9,429.5"/>
	<polygon fill="#636567" points="-136.5,426.6 -135.3,426.6 -134.6,430.9 -134.6,430.9 -133.6,426.6 -132.8,426.6 -134,432.4 
		-135.1,432.4 -135.9,428 -135.9,428 -136.8,432.4 -137.7,432.4 	"/>
	<path fill="#636567" d="M-127.8,430.6L-127.8,430.6c-0.2,0.8,0.1,1.2,0.7,1.2s1-0.4,1.1-0.8c0.1-0.6-0.1-0.9-0.6-1l-0.6-0.2
		c-0.8-0.3-1.1-0.8-0.9-1.6c0.2-1.1,1.1-1.6,2.2-1.6c1.5,0,1.5,0.9,1.3,1.5v0.1h-0.9v-0.1c0.1-0.5-0.1-0.8-0.6-0.8
		c-0.4,0-0.8,0.2-1,0.8c-0.1,0.5,0.1,0.8,0.7,1l0.6,0.2c0.8,0.3,1,0.7,0.9,1.5c-0.3,1.2-1.1,1.8-2.3,1.8c-1.4,0-1.6-1-1.4-1.8v-0.1
		L-127.8,430.6L-127.8,430.6z"/>
	<path fill="#005F88" d="M-224.3,394.8c0.7,1.2,1.5,2.5,2.4,3.9c0.8,1.3,1.7,2.7,2.6,4c0.9,1.3,1.7,2.6,2.5,3.8
		c0.8,1.2,1.5,2.3,2.2,3.2c0.7,0.9,1.2,1.7,1.6,2.2c0.2-0.7,0.4-1.6,0.7-2.7c0.3-1.1,0.5-2.3,0.8-3.5c0.3-1.3,0.5-2.6,0.8-3.9
		c0.3-1.3,0.5-2.7,0.8-3.9c0.2-1.2,0.4-2.4,0.6-3.4c0.2-1,0.3-1.9,0.4-2.5c0.5,0.1,1,0.2,1.6,0.2c0.5,0,1.1-0.1,1.7-0.2
		c-0.2,0.6-0.3,1.2-0.4,1.7c-0.1,0.5-0.3,1.2-0.5,2.2c-0.2,0.9-0.5,2.1-0.9,3.7c-0.3,1.5-0.8,3.6-1.4,6.2c-0.3,1.5-0.7,3.5-1.2,6
		s-1,5.4-1.6,8.5c-0.5-0.1-1.1-0.2-1.7-0.2c-0.3,0-0.6,0-0.9,0.1c-0.3,0-0.5,0.1-0.7,0.1c-2-3.5-4.2-7-6.4-10.4
		c-2.3-3.4-4.6-6.8-6.9-10.3c-0.4,1.7-0.8,3.5-1.2,5.5s-0.8,3.9-1.2,5.8s-0.7,3.6-1,5.2c-0.3,1.6-0.5,2.8-0.6,3.6
		c-0.3-0.1-0.6-0.1-0.8-0.1h-0.9c-0.7,0-1.2,0-1.7,0.1c0.2-0.5,0.4-1.3,0.7-2.4c0.3-1.2,0.6-2.5,1-4.1c0.4-1.6,0.7-3.3,1.1-5.2
		c0.4-1.9,0.8-3.7,1.2-5.7c0.4-1.9,0.8-3.8,1.1-5.7c0.3-1.9,0.6-3.6,0.9-5.2c0.5,0.1,1.1,0.2,1.8,0.2c0.6,0,1.2-0.1,1.8-0.2
		C-225.7,392.4-225,393.6-224.3,394.8"/>
	<path fill="#005F88" d="M-189.8,416.8c-0.1,0.4-0.3,0.9-0.5,1.7c-0.9,0.6-1.8,1-2.9,1.2c-1,0.2-2.1,0.3-3.2,0.3
		c-1.6,0-2.9-0.2-4.1-0.7c-1.2-0.5-2.1-1.1-2.8-2c-0.7-0.8-1.3-1.8-1.7-2.9s-0.5-2.2-0.5-3.4c0-1.3,0.2-2.7,0.7-4
		c0.4-1.3,1.1-2.5,2-3.6s2-1.9,3.3-2.6c1.3-0.7,2.8-1,4.6-1c2.5,0,4.4,0.7,5.7,2c1.3,1.3,1.9,3.1,1.9,5.3c0,0.5,0,1-0.1,1.6
		c-0.1,0.5-0.1,1.1-0.2,1.6c-1.7-0.1-3.1-0.1-4.3-0.1s-2.2,0-3.1,0h-1.9h-1.2c-0.5,0-1,0-1.6,0c-0.1,0.3-0.1,0.7-0.1,1.1
		s0,0.8,0,1.1c0,1.6,0.4,2.9,1.1,3.9c0.8,1,2,1.5,3.7,1.5c0.8,0,1.6-0.2,2.5-0.5c0.9-0.3,1.8-0.9,2.6-1.7l0.6,0.3
		C-189.5,416.1-189.6,416.4-189.8,416.8 M-192.8,402.6c-0.4-0.7-1-1-2-1c-0.7,0-1.3,0.2-1.8,0.6c-0.5,0.4-0.9,0.9-1.3,1.5
		c-0.4,0.6-0.7,1.3-0.9,2.1c-0.2,0.8-0.5,1.6-0.6,2.4c0.2,0,0.4,0,0.7,0.1c0.2,0,0.5,0,0.7,0h1.5h1.7c0.3,0,0.6,0,1,0s0.8,0,1.2-0.1
		c0.1-0.4,0.2-0.8,0.3-1.4s0.1-1.2,0.1-2C-192.3,404-192.4,403.2-192.8,402.6"/>
	<path fill="#005F88" d="M-177.6,420.1c-0.5,0.1-1.1,0.2-1.8,0.2s-1.3-0.1-1.9-0.3c-0.6-0.2-1.1-0.5-1.6-0.8
		c-0.5-0.4-0.8-0.8-1.1-1.4s-0.4-1.2-0.4-1.9c0-0.3,0-0.7,0-1s0.1-0.7,0.2-1.1c0.1-0.4,0.2-0.9,0.3-1.4s0.2-1.1,0.4-1.9
		c0.3-1.4,0.6-2.8,0.9-4.1c0.3-1.4,0.6-2.7,0.9-4.1c-0.4,0-0.8,0-1.2,0s-0.9,0-1.6,0.1c0.1-0.4,0.2-0.7,0.2-0.9
		c0.1-0.3,0.1-0.7,0.2-1.2c0.3,0,0.6,0,0.8,0.1c0.3,0,0.5,0,0.7,0h1.2c0.1-0.6,0.2-1.3,0.3-2.1c0.1-0.8,0.2-1.6,0.4-2.5
		c0.7-0.2,1.2-0.5,1.7-0.6c0.5-0.2,0.9-0.4,1.3-0.5c0.4-0.2,0.9-0.4,1.3-0.6c0.5-0.2,1-0.5,1.7-0.8l0.3,0.4
		c-0.2,0.7-0.4,1.2-0.5,1.8c-0.1,0.5-0.3,1.1-0.4,1.6c-0.1,0.5-0.3,1-0.4,1.6c-0.1,0.5-0.2,1.2-0.4,1.8h1.5c0.3,0,0.6,0,0.9,0
		c0.4,0,0.7,0,1.2-0.1c-0.2,0.4-0.3,0.8-0.3,1.1c-0.1,0.4-0.1,0.7-0.1,1c-0.4,0-0.7,0-1-0.1c-0.3,0-0.6,0-0.9,0h-1.6
		c-0.1,0.5-0.3,1.3-0.5,2.4c-0.3,1.1-0.5,2.3-0.8,3.5c-0.3,1.2-0.5,2.4-0.7,3.4s-0.3,1.7-0.4,2.1c-0.1,0.7-0.2,1.2-0.3,1.6
		s-0.1,0.8-0.1,1.1c0,0.7,0.2,1.2,0.6,1.5c0.4,0.3,0.9,0.4,1.6,0.4c0.4,0,0.8-0.1,1.3-0.2l-0.4,1.3
		C-176.6,419.8-177.1,419.9-177.6,420.1"/>
	<path fill="#005F88" d="M-156.3,395.2c-0.8-0.9-1.9-1.3-3.5-1.3c-0.7,0-1.3,0.1-1.8,0.3c-0.5,0.2-1,0.5-1.3,0.8
		c-0.3,0.3-0.6,0.7-0.8,1.2c-0.2,0.4-0.3,0.9-0.3,1.4s0.1,1,0.3,1.5s0.5,0.9,0.9,1.4s0.9,1,1.5,1.5s1.3,1.1,2.1,1.8
		c0.6,0.5,1.2,1,1.8,1.6c0.6,0.5,1.1,1.1,1.5,1.7c0.4,0.6,0.8,1.3,1,2c0.3,0.7,0.4,1.5,0.4,2.4c0,1.4-0.3,2.7-0.8,3.8
		s-1.2,2-2.1,2.7c-0.9,0.7-1.9,1.3-3.1,1.6c-1.2,0.4-2.4,0.5-3.7,0.5c-1.6,0-3.1-0.2-4.4-0.5c-1.3-0.4-2.7-1-4-1.8
		c0.4-0.8,0.8-1.7,1.1-2.6c0.3-0.9,0.5-1.7,0.6-2.4h0.8c0.1,1.5,0.7,2.8,1.7,3.7s2.3,1.4,3.9,1.4c0.6,0,1.2-0.1,1.7-0.3
		c0.6-0.2,1-0.4,1.5-0.8c0.4-0.4,0.8-0.8,1-1.3c0.3-0.5,0.4-1.1,0.4-1.7c0-0.5-0.1-1.1-0.3-1.6s-0.5-1-0.9-1.4
		c-0.4-0.5-0.8-0.9-1.4-1.4c-0.5-0.5-1.1-0.9-1.7-1.4c-0.7-0.6-1.3-1.1-2-1.7c-0.6-0.6-1.1-1.1-1.6-1.8c-0.5-0.6-0.8-1.3-1.1-2.1
		c-0.3-0.8-0.4-1.6-0.4-2.6c0-1.4,0.2-2.6,0.7-3.7s1.1-2,2-2.7c0.8-0.7,1.8-1.3,3-1.6c1.1-0.4,2.4-0.6,3.6-0.6c1.5,0,2.8,0.2,4,0.5
		c1.2,0.3,2.4,0.9,3.6,1.7c-0.5,1-0.9,1.9-1.1,2.6c-0.2,0.7-0.4,1.5-0.6,2.2h-0.9C-155.1,397.1-155.5,396-156.3,395.2"/>
	<path fill="#005F88" d="M-135.3,416.8c-0.1,0.4-0.3,0.9-0.5,1.7c-0.9,0.6-1.8,1-2.9,1.2c-1,0.2-2.1,0.3-3.2,0.3
		c-1.6,0-2.9-0.2-4.1-0.7c-1.2-0.5-2.1-1.1-2.8-2c-0.7-0.8-1.3-1.8-1.7-2.9s-0.5-2.2-0.5-3.4c0-1.3,0.2-2.7,0.7-4
		c0.4-1.3,1.1-2.5,2-3.6s2-1.9,3.3-2.6c1.3-0.7,2.8-1,4.6-1c2.5,0,4.4,0.7,5.7,2c1.3,1.3,1.9,3.1,1.9,5.3c0,0.5,0,1-0.1,1.6
		c-0.1,0.5-0.1,1.1-0.2,1.6c-1.7-0.1-3.1-0.1-4.3-0.1s-2.2,0-3.1,0h-1.9h-1.2c-0.5,0-1,0-1.6,0c-0.1,0.3-0.1,0.7-0.1,1.1
		s0,0.8,0,1.1c0,1.6,0.4,2.9,1.1,3.9c0.8,1,2,1.5,3.7,1.5c0.8,0,1.6-0.2,2.5-0.5c0.9-0.3,1.8-0.9,2.6-1.7l0.6,0.3
		C-135,416.1-135.1,416.4-135.3,416.8 M-138.3,402.6c-0.4-0.7-1-1-2-1c-0.7,0-1.3,0.2-1.8,0.6c-0.5,0.4-0.9,0.9-1.3,1.5
		c-0.4,0.6-0.7,1.3-0.9,2.1c-0.2,0.8-0.5,1.6-0.6,2.4c0.2,0,0.4,0,0.7,0.1c0.2,0,0.5,0,0.7,0h1.5h1.7c0.3,0,0.6,0,1,0s0.8,0,1.2-0.1
		c0.1-0.4,0.2-0.8,0.3-1.4s0.1-1.2,0.1-2C-137.8,404-137.9,403.2-138.3,402.6"/>
	<path fill="#005F88" d="M-123.1,420.1c-0.5,0.1-1.1,0.2-1.8,0.2c-0.7,0-1.3-0.1-1.9-0.3c-0.6-0.2-1.1-0.5-1.6-0.8
		c-0.5-0.4-0.8-0.8-1.1-1.4c-0.3-0.6-0.4-1.2-0.4-1.9c0-0.3,0-0.7,0-1s0.1-0.7,0.2-1.1c0.1-0.4,0.2-0.9,0.3-1.4s0.2-1.1,0.4-1.9
		c0.3-1.4,0.6-2.8,0.9-4.1c0.3-1.4,0.6-2.7,0.9-4.1c-0.4,0-0.8,0-1.2,0c-0.4,0-0.9,0-1.6,0.1c0.1-0.4,0.2-0.7,0.2-0.9
		c0.1-0.3,0.1-0.7,0.2-1.2c0.3,0,0.6,0,0.8,0.1c0.3,0,0.5,0,0.7,0h1.2c0.1-0.6,0.2-1.3,0.3-2.1c0.1-0.8,0.2-1.6,0.4-2.5
		c0.7-0.2,1.2-0.5,1.7-0.6c0.5-0.2,0.9-0.4,1.3-0.5c0.4-0.2,0.9-0.4,1.3-0.6c0.5-0.2,1-0.5,1.7-0.8l0.3,0.4
		c-0.2,0.7-0.4,1.2-0.5,1.8c-0.1,0.5-0.3,1.1-0.4,1.6s-0.3,1-0.4,1.6c-0.1,0.5-0.2,1.2-0.4,1.8h1.5c0.3,0,0.6,0,0.9,0
		c0.4,0,0.7,0,1.2-0.1c-0.2,0.4-0.3,0.8-0.3,1.1c-0.1,0.4-0.1,0.7-0.1,1c-0.4,0-0.7,0-1-0.1c-0.3,0-0.6,0-0.9,0h-1.6
		c-0.1,0.5-0.3,1.3-0.5,2.4c-0.3,1.1-0.5,2.3-0.8,3.5c-0.3,1.2-0.5,2.4-0.7,3.4s-0.4,1.7-0.4,2.1c-0.1,0.7-0.2,1.2-0.3,1.6
		c-0.1,0.4-0.1,0.8-0.1,1.1c0,0.7,0.2,1.2,0.6,1.5c0.4,0.3,0.9,0.4,1.6,0.4c0.4,0,0.8-0.1,1.2-0.2l-0.4,1.3
		C-122.1,419.8-122.6,419.9-123.1,420.1"/>
	<path fill="#929497" d="M-248.9,404.2c0,0.4-0.1,0.9-0.2,1.4c-0.1,0.6-0.3,1.2-0.5,2c-0.2,0.8-0.5,1.8-0.8,3.1
		c-0.3,1.1-0.6,2.1-0.8,3c-0.2,0.9-0.4,1.7-0.6,2.5c-0.2,0.8-0.3,1.5-0.5,2.2c-0.1,0.7-0.3,1.5-0.5,2.3c-0.6-0.1-1.2-0.1-1.8-0.1
		h-2.1h-2.1c-0.7,0-1.3,0-1.9,0.1c0.1-0.3,0.4-0.8,0.7-1.7s0.6-1.8,1-2.9c0.4-1.1,0.7-2.3,1.1-3.5c0.4-1.2,0.7-2.4,1-3.5
		c0.3-1.1,0.6-2.1,0.8-3c0.2-0.9,0.3-1.5,0.3-1.9c0-0.9-0.3-1.5-0.8-1.9s-1.3-0.6-2.2-0.6c-1.3,0-2.5,0.5-3.8,1.4
		c-1.2,1-2.2,2.5-3,4.5c-0.3,0.8-0.6,1.7-0.9,2.7c-0.3,1.1-0.6,2.2-0.9,3.4c-0.3,1.2-0.6,2.4-0.8,3.7c-0.3,1.3-0.5,2.4-0.7,3.5
		c-0.6-0.1-1.2-0.1-1.8-0.1h-1.8h-2c-0.7,0-1.3,0-1.9,0.1c0.5-1.4,0.9-2.9,1.4-4.5s0.9-3.3,1.4-5c0.5-1.8,0.9-3.7,1.4-5.8
		c0.5-2.1,1-4.4,1.5-6.9c0.5,0.1,1.1,0.1,1.8,0.2c0.7,0,1.3,0.1,2,0.1c0.6,0,1.2,0,1.7-0.1c0.6,0,1.1-0.1,1.6-0.2
		c-0.1,0.4-0.3,0.7-0.4,1c-0.1,0.3-0.2,0.6-0.3,0.9c-0.1,0.3-0.2,0.6-0.2,0.9c-0.1,0.3-0.2,0.7-0.3,1.1c1.3-1.4,2.6-2.5,4.1-3.2
		c1.5-0.8,3.3-1.1,5.4-1.1c2.2,0,3.8,0.5,4.9,1.4c1,0.9,1.5,2.1,1.5,3.5C-248.9,403.4-248.9,403.8-248.9,404.2"/>
	<path fill="#929497" d="M-259.3,421.6c0.5,0.3,1.4,0.6,2,0.7c0.6,0.2,1.2,0.1,1.7,0.1c1.5,0,4,0.2,7.3-1.2c2.4-1.1,3.3-2.2,4.5-3.6
		c1.2-1.4,2.1-3.1,2.8-5c0.7-1.9,1.1-4,1.1-6.3c0-2.7-0.5-5.2-1.6-7.4c-1-2.2-2.5-4.1-4.3-5.6c-1.8-1.6-4-2.8-6.5-3.6
		c-2.5-0.8-5.2-1.3-8.1-1.3c-3.5,0-6.7,0.6-9.7,1.8c-3,1.2-5.6,2.8-7.8,4.9c-2.2,2.1-3.9,4.5-5.2,7.3c-1.2,2.8-1.9,5.8-1.9,9.1
		c0,2.8,0.5,5.5,1.5,8.1c1,2.6,2.5,4.9,4.5,6.9s4.5,3.6,7.4,4.8c2.9,1.2,6.3,1.8,10.1,1.8c3.9,0,7.3-0.6,10.2-1.7s5.7-2.6,8.3-4.5
		l-1.6-2.1c-2.4,1.7-4.9,3.1-7.6,4.1c-2.6,1.1-5.7,1.6-9.2,1.6c-3.4,0-6.4-0.5-8.9-1.6c-2.6-1-4.7-2.5-6.5-4.2c-1.8-1.7-3-3.8-3.9-6
		c-0.9-2.3-1.3-4.6-1.3-7c0-2.7,0.5-5.3,1.5-7.7c1-2.5,2.4-4.6,4.3-6.5c1.9-1.9,4.1-3.4,6.8-4.5c2.6-1.1,5.6-1.7,8.9-1.7
		c2.5,0,4.9,0.4,7,1.1s4,1.7,5.5,3s2.7,2.9,3.6,4.7c0.9,1.8,1.3,3.9,1.3,6.1c0,1.7-0.2,3.3-0.7,4.9c-0.5,1.6-1.1,2.9-1.9,4.1
		c-0.8,1.2-1.7,2.1-2.7,2.8c-1,0.7-2,1-3,1c-0.2,0-0.4,0-0.7-0.1c-0.3,0-0.6-0.1-0.9-0.3c-0.3-0.2-0.5-0.4-0.7-0.8l-0.1-0.1
		l-7.1,3.1C-260.5,421-259.6,421.5-259.3,421.6"/>
</g>
</svg>
