<?xml version="1.0" encoding="utf-8"?>
<!-- Generator: Adobe Illustrator 18.1.0, SVG Export Plug-In . SVG Version: 6.00 Build 0)  -->
<!DOCTYPE svg PUBLIC "-//W3C//DTD SVG 1.1//EN" "http://www.w3.org/Graphics/SVG/1.1/DTD/svg11.dtd">
<svg version="1.1" id="Layer_1" xmlns="http://www.w3.org/2000/svg" xmlns:xlink="http://www.w3.org/1999/xlink" x="0px" y="0px"
	 width="277px" height="184px" viewBox="-361 409 277 184" enable-background="new -361 409 277 184" xml:space="preserve">
<g>
	<path fill="#0387B6" d="M-343.5,493.4c15.6,17.2,34.5,31.1,55.1,40.6c20.6,9.5,43.1,14.5,65.5,14.8c22.5,0.3,45-4.2,65.8-13.2
		c20.8-9,40-22.5,56-39.3l15,16.2c-18,18.8-39.6,34-63.1,44c-23.5,10.1-48.8,15.1-74.1,14.7c-25.3-0.3-50.5-6-73.8-16.6
		c-23.2-10.7-44.5-26.3-62-45.6L-343.5,493.4L-343.5,493.4z"/>
	<path fill="#73808A" d="M-312.4,462c11.6,13,25.8,23.5,41.2,30.6c15.5,7.1,32.2,10.9,49.1,11.1c16.8,0.2,33.6-3.2,49.2-10
		c15.6-6.8,29.9-17,41.8-29.7l15.1,16.2c-13.9,14.8-30.7,26.6-48.9,34.5c-18.2,7.9-37.9,11.8-57.5,11.6
		c-19.6-0.2-39.2-4.6-57.3-12.9c-18.1-8.3-34.6-20.6-48.2-35.6L-312.4,462L-312.4,462z"/>
	<path fill="#76C044" d="M-281.4,430.5c7.7,8.7,17.1,15.8,27.4,20.6c10.3,4.8,21.4,7.3,32.6,7.4c11.2,0.1,22.3-2.2,32.7-6.9
		c10.3-4.6,19.8-11.6,27.6-20.2l15.1,16.2c-9.9,10.7-21.8,19.2-34.7,25c-13,5.7-27,8.6-40.9,8.4c-14-0.1-28-3.2-40.8-9.2
		c-12.9-6-24.6-14.8-34.3-25.6L-281.4,430.5L-281.4,430.5z"/>
</g>
</svg>
