<?xml version="1.0" encoding="utf-8"?>
<!-- Generator: Adobe Illustrator 18.1.0, SVG Export Plug-In . SVG Version: 6.00 Build 0)  -->
<!DOCTYPE svg PUBLIC "-//W3C//DTD SVG 1.1//EN" "http://www.w3.org/Graphics/SVG/1.1/DTD/svg11.dtd">
<svg version="1.1" id="Layer_1" xmlns="http://www.w3.org/2000/svg" xmlns:xlink="http://www.w3.org/1999/xlink" x="0px" y="0px"
	 width="277px" height="238.1px" viewBox="-361 362.5 277 238.1" enable-background="new -361 362.5 277 238.1"
	 xml:space="preserve">
<g>
	<path fill="#0387B6" d="M-101.6,440.3c-15.6-17.2-34.5-31.1-55.1-40.6s-43.1-14.5-65.5-14.8c-22.5-0.3-45,4.2-65.8,13.2
		c-20.8,9-40,22.5-56,39.3l-15-16.2c18-18.8,39.6-34,63.1-44c23.5-10.1,48.8-15.1,74.1-14.7c25.3,0.3,50.5,6,73.8,16.6
		c23.2,10.7,44.5,26.3,62,45.6L-101.6,440.3L-101.6,440.3z"/>
	<path fill="#73808A" d="M-132.7,471.7c-11.6-13-25.8-23.5-41.2-30.6c-15.5-7.1-32.2-10.9-49.1-11.1c-16.8-0.2-33.6,3.2-49.2,10
		s-29.9,17-41.8,29.7l-15.1-16.2c13.9-14.8,30.7-26.6,48.9-34.5c18.2-7.9,37.9-11.8,57.5-11.6s39.2,4.6,57.3,12.9
		c18.1,8.3,34.6,20.6,48.2,35.6L-132.7,471.7L-132.7,471.7z"/>
	<path fill="#76C044" d="M-163.7,503.2c-7.7-8.7-17.1-15.8-27.4-20.6c-10.3-4.8-21.4-7.3-32.6-7.4c-11.2-0.1-22.3,2.2-32.7,6.9
		c-10.3,4.6-19.8,11.6-27.6,20.2l-15.1-16.2c9.9-10.7,21.8-19.2,34.7-25c13-5.7,27-8.6,40.9-8.4c14,0.1,28,3.2,40.8,9.2
		c12.9,6,24.6,14.8,34.3,25.6L-163.7,503.2L-163.7,503.2z"/>
</g>
<g>
	<path fill="#73808A" d="M-248,542.4v-11.2h17.5v-17.5h11.2v17.5h17.5v11.2h-17.5V560h-11.2v-17.6H-248z"/>
</g>
</svg>
