<?xml version="1.0" encoding="utf-8"?>
<!-- Generator: Adobe Illustrator 18.1.0, SVG Export Plug-In . SVG Version: 6.00 Build 0)  -->
<!DOCTYPE svg PUBLIC "-//W3C//DTD SVG 1.1//EN" "http://www.w3.org/Graphics/SVG/1.1/DTD/svg11.dtd">
<svg version="1.1" id="Layer_1" xmlns="http://www.w3.org/2000/svg" xmlns:xlink="http://www.w3.org/1999/xlink" x="0px" y="0px"
	 width="8px" height="11px" viewBox="-1 -1 8 11" enable-background="new -1 -1 8 11" xml:space="preserve">
<ellipse fill="#76C044" cx="3" cy="4.5" rx="4" ry="1.5"/>
<g>
	<path fill="#76C044" d="M3,7C0.8,7-1,6.3-1,5.5v1C-1,7.3,0.8,8,3,8s4-0.7,4-1.5v-1C7,6.3,5.2,7,3,7z"/>
</g>
<g>
	<path fill="#76C044" d="M3,9C0.8,9-1,8.3-1,7.5v1C-1,9.3,0.8,10,3,10s4-0.7,4-1.5v-1C7,8.3,5.2,9,3,9z"/>
</g>
</svg>
