<?xml version="1.0" encoding="utf-8"?>
<!-- Generator: Adobe Illustrator 18.1.1, SVG Export Plug-In . SVG Version: 6.00 Build 0)  -->
<!DOCTYPE svg PUBLIC "-//W3C//DTD SVG 1.1//EN" "http://www.w3.org/Graphics/SVG/1.1/DTD/svg11.dtd">
<svg version="1.1" id="Layer_1" xmlns="http://www.w3.org/2000/svg" xmlns:xlink="http://www.w3.org/1999/xlink" x="0px" y="0px"
	 width="355.5px" height="257.3px" viewBox="0 0 355.5 257.3" enable-background="new 0 0 355.5 257.3" xml:space="preserve">
<g>
	<g>
		<path fill="#FFFFFF" d="M111.8,51.5L95.5,53C76.3,59.3,58.8,67,44,75.8c-3.1,1.8-6.3,4.1-9.1,6l11.9-5.4
			C68,65.8,89.7,58,113.8,51.9C113.1,51.7,112.4,51.5,111.8,51.5z"/>
		<g>
			<path fill="#FFFFFF" d="M167.3,41.8l0.5-0.7c0.5-1.1,0.5-2.6-0.1-3.8c0,0,0,0,0-0.1c-0.6,0.1-1.2,0.2-1.8,0.2
				c0.2,0.3,0.4,0.6,0.4,0.8c0.2,0.8-1.1,1.1-1.1,1.1l-25.7,6.9c0,0,0,0-0.1,0c7.8-1.5,15.8-2.8,24.2-4
				C164.8,42.1,166,41.9,167.3,41.8z"/>
			<g>
				<path fill="#FFFFFF" d="M211.6,36.2c0.2-0.6,0.2-1.4,0-2.1c-0.9,0-1.8,0-2.7,0.1c0.7,0.6,1.3,1.3,1.3,1.7c0,0.7-1.1,0.7-1.1,0.7
					h-21.6c-1.2,0.1-2.5,0.9-3.2,2c-0.3,0.4-0.5,0.9-0.6,1.4c8.9-0.9,17.7-1.4,26.4-1.6L211.6,36.2z"/>
				<path fill="#FFFFFF" d="M316.1,50.5c-24.2-10.1-57-15.9-92.9-16.4c-0.2,0.7-0.2,1.4,0,2.1l0.9,1.9c32,0.4,61,5.1,82.8,13.6
					c14.9,5.8,33,15.8,37.2,31.1h11.4C350,70.1,336.6,59.1,316.1,50.5z"/>
				<path fill="#FFFFFF" d="M220,38c-0.6-0.7-1.5-1.1-2.5-1.1c-0.2,0-0.3,0-0.5,0c-0.8,0.1-1.6,0.5-2.1,1.1l-0.1,0.1
					C216.5,38.1,218.3,38.1,220,38L220,38z"/>
			</g>
		</g>
	</g>
	<path fill="#FFFFFF" d="M217.6,35.3c-0.6-0.7-1.5-1.1-2.5-1.1c-0.2,0-0.3,0-0.5,0c-0.8,0.1-1.6,0.5-2.1,1.1l-9.1,12.9
		c0,0-0.6,0.7-1,0.3c-0.4-0.3,0-0.9,0-0.9l6.9-14.2c0.3-0.9,0.2-1.9-0.3-2.8s-1.3-1.5-2.3-1.7l-16-1.5c0,0-0.7,0-0.7-0.5
		c0-0.4,1-0.6,1-0.6l15.8-1.2c0.9-0.2,1.8-0.8,2.3-1.6c0.5-0.8,0.6-1.9,0.3-2.8l-6.6-14.3c0,0-0.2-0.5,0.2-0.7
		c0.5-0.2,0.8,0.2,0.8,0.2l8.9,13.1c0.6,0.7,1.5,1.1,2.5,1.1c0.2,0,0.3,0,0.5,0c0.8-0.1,1.6-0.5,2.1-1.1l9-13c0,0,0.5-0.4,0.7-0.3
		c0.5,0.3,0.3,0.9,0.3,0.9l-6.9,14.2c-0.3,0.9-0.2,1.9,0.3,2.8s1.3,1.5,2.3,1.7l15.8,1.4c0,0,0.7,0.1,0.8,0.6c0,0.5-0.8,0.5-0.8,0.5
		L223.5,29c-0.9,0.2-1.8,0.8-2.3,1.6c-0.5,0.8-0.6,1.9-0.3,2.8l6.7,14.3c0,0,0.1,0.7-0.2,0.8c-0.3,0.2-0.9-0.2-0.9-0.2L217.6,35.3z"
		/>
	<g>
		<g>
			<g>
				<path fill="#FFFFFF" d="M44.9,112.1c0.6,0,1.9-0.6,2.8-1.2c1.7-1.2,2.3-2.2,3.9-3.7l0.4-0.3c0.8-0.7,1.7-0.9,2.6-0.5
					c1.1,0.5,1.7,1.8,1.4,2.9l-2.1,6.6c-0.1,0.3-0.4,0.5-0.7,0.6c-0.3,0.2-0.6,0.2-1,0.2H51H22.1c-1.3,0-2.6-0.9-2.6-2.2
					c0-0.6,0.2-1.2,0.7-1.5l0.4-0.3c0.5-0.3,1-0.4,1.4-0.8s0.8-0.9,0.8-1.4v-34c0-0.5-0.3-0.9-0.7-1.3c-0.4-0.4-0.8-0.5-1.3-0.7
					l-0.4-0.3c-0.5-0.3-0.8-0.7-0.8-1.4c-0.1-1.4,1.4-2.3,3-2.3h11.6c1.3,0,3.3,0.3,3.5,1.8c0.1,0.8-0.2,1.6-0.8,1.9l-0.7,0.3
					c-0.5,0.2-0.8,0.3-1.1,0.7c-0.4,0.4-0.8,1-0.8,1.3v33.7c0,0.5,0.2,0.8,0.5,1.1c0.5,0.5,2.2,0.6,3.1,0.6h7V112.1z"/>
				<path fill="#FFFFFF" d="M81.2,96.5v-0.9c-0.1-2.4-1.1-4.2-3.3-5.2c-1.1-0.5-2.6-0.5-3.1-0.4l-0.6,0.1c-0.8,0.2-1.2,0.5-1.9,1
					c-0.8,0.5-1.4,1.3-1.9,1.7L70.1,93c-0.8,0.6-1.9,1.1-3.2,1c-1.8-0.2-3.6-1.2-3.7-3c0-1.5,1.3-2.8,2.2-3.1l0.9-0.4
					c4.1-1.6,6.9-1.9,11.1-1.7c7.2,0.3,13.5,3.2,14.1,9.3l0.1,0.9v13.7c0,0.8,0.4,1.3,0.8,1.9c0.4,0.4,0.8,0.6,1.2,0.9l0.5,0.3
					c0.6,0.3,0.8,0.9,0.8,1.6c0,1.2-1.4,2.1-2.4,2.1h-7.7c-0.9,0-1.5-0.3-2.1-0.9c-0.6-0.7-0.7-1.8-0.7-2.2v-0.7l-0.8,0.8
					c-2.7,2.9-5.6,4-9.5,3.8c-5.6-0.4-10.7-4-10.8-9.5c-0.1-8.5,10.3-11.3,18.7-11.3L81.2,96.5L81.2,96.5z M81.5,100.5h-1
					c-4.4,0-8.9,2.7-8.9,7.2c0,2.3,1,4,2.9,4.5c3.2,0.8,7-3.3,7-5.5V100.5z"/>
				<path fill="#FFFFFF" d="M113.1,89c3-2.8,6.8-4,11.6-3c4.7,0.9,8.5,4.5,8.5,8.9v1v13.6v0.9c0,0.6-0.1,1.1,0.2,1.6s0.8,0.7,1.3,1
					l0.6,0.4c0.5,0.4,0.8,0.8,0.8,1.4c0,1-0.8,1.8-1.8,1.8h-11.9c-1,0-2-0.7-2-1.8c0-0.6,0.3-1.1,0.8-1.4l0.6-0.4
					c0.5-0.3,0.9-0.5,1.2-1c0.3-0.5,0.2-1,0.2-1.6v-0.9V96.2v-0.7c0-2.5-2.1-4.6-4.8-4.3c-3,0.3-5.3,2.6-5.3,5.6v0.6v12.2v0.9
					c0,0.3-0.1,1.1,0.2,1.6c0.3,0.5,0.8,0.7,1.3,1l0.6,0.4c0.5,0.4,0.8,0.8,0.8,1.4c0,1-0.8,1.8-1.8,1.8h-11.9c-1,0-2-0.7-2-1.8
					c0-0.6,0.3-1.1,0.8-1.4l0.6-0.4c0.5-0.3,0.9-0.5,1.2-1c0.3-0.5,0.2-1,0.2-1.6v-0.9V96.2v-0.8c0-0.8-0.1-1.4-0.5-2.1
					c-0.4-0.6-1.1-0.8-1.4-1.1c-0.6-0.4-1.2-0.7-1.3-1.4c-0.2-0.9,0.9-1.9,1.3-2.1l0.3-0.2c1.3-0.7,2.1-1,3.5-1.5
					c1.1-0.4,1.7-0.6,2.9-0.9l0.4-0.1c0.8-0.2,2.2-0.2,2.9,0.7c0.7,0.9,0.9,2.8,0.9,3l0.1,0.4L113.1,89z"/>
				<path fill="#FFFFFF" d="M162.7,89.1v-9.9v-0.8c0-0.8-0.1-1.4-0.5-2.1s-1.4-0.9-1.7-1.3c-0.6-0.5-1.4-0.8-1.4-1.5
					c0-0.9,0.6-1.6,1.4-1.8l0.7-0.2l7.4-2.3c0.8-0.3,2.6-0.3,3.6,0.7c0.8,0.9,0.8,1.8,0.8,3v0.8v36v0.9c0,0.5,0.3,0.8,0.6,1.2
					c0.4,0.5,0.8,0.7,1.4,1l0.6,0.4c0.5,0.3,0.7,0.5,0.8,1.2c0.1,1.2-1.1,2.1-2.4,2.1h-8.5c-1,0-1.7-0.6-2.2-1.5
					c-0.5-0.8-0.4-1.2-0.4-2.1v-0.8l-0.4,0.5c-1.7,2.3-2.9,4-5.6,4.5c-7.1,1.5-16.3-6.5-16.2-16.3c0-8.4,6.8-16,15.7-14.9
					c3.9,0.5,5.5,1.9,5.9,2.4L162.7,89.1z M162.7,100.9c-0.1-5-1.5-10.9-6.5-11.1c-5.2-0.2-6.9,6-7.1,11.4c-0.1,5.2,1.8,11.7,7,11.6
					C161.5,112.7,162.8,106.2,162.7,100.9"/>
				<path fill="#FFFFFF" d="M194.2,96.8v0.6v12.2v0.9c0,0.3-0.1,1.1,0.2,1.6s0.8,0.7,1.3,1l0.6,0.4c0.5,0.4,0.8,0.8,0.8,1.4
					c0,1-0.9,1.8-1.8,1.8h-11.9c-1,0-2-0.7-2-1.8c0-0.6,0.2-1.1,0.8-1.4l0.6-0.4c0.5-0.3,0.9-0.5,1.2-1s0.2-1,0.2-1.6v-0.9V96.2
					v-0.8c0-0.8-0.1-1.4-0.5-2.1c-0.4-0.6-1.1-0.8-1.4-1.1c-0.6-0.4-1.2-0.7-1.3-1.4c-0.2-0.9,0.9-1.9,1.3-2.1l0.3-0.2
					c1.3-0.7,2.1-1,3.5-1.5c1.1-0.4,1.7-0.6,2.9-0.9l0.4-0.1c0.8-0.2,2.2-0.2,2.9,0.7c0.7,0.9,0.9,2.8,0.9,3l0.1,0.4l1.3-1.2
					c3-2.8,6.7-3.8,11.5-2.9c2.5,0.5,5.3,3.6,5.4,3.8l0.6,0.8l0.9-1c2.8-3.1,7.3-4.5,12-3.6c4.7,0.8,8.5,4.5,8.5,8.9v1v13.6v0.9
					c0,0.6-0.1,1.1,0.2,1.6s0.8,0.7,1.3,1l0.6,0.4c0.5,0.4,0.8,0.8,0.8,1.4c0,1-0.9,1.8-1.8,1.8h-11.9c-1,0-2-0.7-2-1.8
					c0-0.6,0.3-1.1,0.8-1.4l0.6-0.4c0.5-0.3,0.9-0.5,1.2-1s0.2-1,0.2-1.6v-0.9V96.2v-0.7c0-1.5-2.1-4.1-4.8-4
					c-2.9,0.1-5.3,3.4-5.3,5.3v0.6v12.2v1c0,0.9,0,1,0.3,1.6c0.3,0.5,0.7,0.7,1.2,1l0.6,0.4c0.5,0.4,0.8,0.8,0.8,1.4
					c0,1-0.9,1.8-1.9,1.8h-11.9c-1,0-2-0.7-2-1.8c0-0.6,0.2-1.1,0.8-1.4l0.6-0.4c0.6-0.4,1.2-0.4,1.5-1c0.3-0.5,0.2-1,0.2-1.6v-0.9
					V96.2v-0.8c0-1.3-1.2-3.8-3.7-3.9C196.6,91.4,194.2,93.9,194.2,96.8"/>
				<path fill="#FFFFFF" d="M261,96.5v-0.9c-0.1-2.4-1.1-4.2-3.3-5.2c-1.1-0.5-2.6-0.5-3.1-0.4l-0.6,0.1c-0.8,0.2-1.2,0.5-1.9,1
					c-0.8,0.5-1.4,1.3-1.9,1.7l-0.3,0.2c-0.8,0.6-1.9,1.1-3.2,1c-1.8-0.2-3.6-1.2-3.7-3c0-1.5,1.3-2.8,2.2-3.1l0.9-0.4
					c4.1-1.6,6.9-1.9,11.1-1.7c7.2,0.3,13.5,3.2,14.1,9.3l0.1,0.9v13.7c0,0.8,0.4,1.3,0.8,1.9c0.4,0.4,0.8,0.6,1.2,0.9l0.5,0.3
					c0.6,0.3,0.8,0.9,0.8,1.6c0,1.2-1.4,2.1-2.4,2.1h-7.7c-0.8,0-1.5-0.3-2.1-0.9c-0.6-0.7-0.7-1.8-0.7-2.2v-0.7l-0.8,0.8
					c-2.7,2.9-5.5,4-9.5,3.8c-5.6-0.4-10.7-4-10.8-9.5c-0.1-8.5,10.3-11.3,18.7-11.3C259.4,96.5,261,96.5,261,96.5z M261.3,100.5h-1
					c-4.4,0-8.9,2.7-8.9,7.2c0,2.3,1,4,2.9,4.5c3.2,0.8,7-3.3,7-5.5V100.5z"/>
				<path fill="#FFFFFF" d="M293.9,101.4v8.2v0.9c0,0.3,0.4,1.1,0.8,1.6c0.4,0.4,0.8,0.6,1.3,0.9l0.5,0.3c0.5,0.3,0.7,0.9,0.7,1.6
					c0,0.9-0.8,1.8-1.7,1.8h-13c-1,0-1.9-0.7-2-1.8c0-0.7,0.1-1.4,0.8-1.7l0.5-0.2c0.5-0.2,0.9-0.4,1.3-0.8c0.5-0.4,0.7-1.1,0.7-1.6
					v-0.9V96.2v-0.8c0-1-0.8-1.5-1.6-2.1c-0.5-0.4-1.2-0.6-1.5-1c-0.6-0.4-1.1-0.8-1.2-1.5c-0.1-0.9,0.9-1.9,1.4-2.1l0.3-0.2
					c1.4-0.7,2.1-1,3.5-1.5c1.1-0.4,1.7-0.6,2.9-0.9L288,86c0.8-0.2,2.3-0.2,3,0.7c0.7,0.9,1.6,3.6,1.8,4.9l0.1,0.4l0.6-0.9
					c2.3-3.5,4.4-4.8,6.7-5.1c3.5-0.5,5.7,1.9,5.6,4.7c-0.1,2.1-1.2,3.9-3.3,4.3c-0.5,0.1-1.3,0-2.1-0.3l-0.6-0.3
					c-0.9-0.3-1.6-0.4-2.5,0c-2.2,0.8-3.2,5.6-3.2,6.3v0.7H293.9z"/>
				<path fill="#FFFFFF" d="M323.6,104v5.6v0.9c0,0.5,0,0.9,0.3,1.3c0.2,0.5,0.6,0.7,1,1l0.6,0.4c0.5,0.3,0.7,0.8,0.8,1.4
					c0,1-0.7,2-1.6,2h-11.9c-1,0-1.8-0.8-1.8-1.8c0-0.7,0.3-1.1,0.8-1.5l0.5-0.4c0.4-0.3,0.7-0.4,0.9-0.8c0.3-0.5,0.3-1,0.3-1.6
					v-0.9V79.1v-0.8c0-0.8-0.1-1.4-0.5-2.1c-0.5-0.7-1.4-0.9-1.7-1.3c-0.6-0.5-1.4-0.8-1.4-1.6c-0.1-0.9,0.6-1.5,1.4-1.8l0.7-0.2
					l7.4-2.3c0.8-0.2,2.6-0.3,3.6,0.7c0.8,0.8,0.8,1.8,0.8,3v0.8v25.7l0.7-0.3c1.9-0.8,2.9-1.7,4.4-2.8c1.4-1.1,2.9-2.7,3.5-3.3
					l0.3-0.3c0.5-0.5,0.7-1,0.6-1.7c-0.1-0.5-0.5-0.9-0.9-1.1l-0.4-0.2c-0.5-0.3-0.7-0.8-0.8-1.3c-0.2-1.3,1.8-1.9,2.9-1.9h7.3
					c1.1,0,2.7,0.4,2.8,1.7c0,1-0.7,1.6-1.5,2.1l-0.5,0.3c-0.6,0.3-0.9,0.6-1.4,1c-0.4,0.3-0.7,0.6-1.1,1l-0.5,0.5
					c-1,0.9-1.6,1.5-2.5,2.4c-0.9,0.8-1.3,1.3-2.2,2l-0.4,0.3l0.5,0.5c2.7,2.7,3.2,3.3,5,5.6c1.9,2.5,4,6.1,4.3,6.7l0.3,0.6
					c0.2,0.3,0.4,0.5,0.6,0.8c0.3,0.3,0.6,0.5,1,0.8l0.5,0.3c0.6,0.3,0.8,1,0.8,1.7c-0.1,1.2-0.9,1.9-2.4,1.9h-11.5
					c-1.2,0-2.6-0.7-2.4-1.9c0-0.5,0.2-1,0.7-1.2l0.3-0.2c0.5-0.3,0.8-0.6,0.9-1.2c0-0.3,0-0.6-0.1-0.9l-0.2-0.4
					c-0.2-0.6-1.5-2.5-2.5-4c-1.1-1.5-2.4-3.1-3.1-3.8l-0.3-0.3L323.6,104z"/>
			</g>
		</g>
	</g>
	<g>
		<g>
			<g>
				<path fill="#FFFFFF" d="M25,134.4c2.2-1.7,5.1-2.6,8.3-2.6c1.6,0,4,0.3,5.4,0.7c0.4,0.1,0.6,0.2,0.9,0.1c0,0.7,0.2,2.6,0.4,4.5
					c-0.2,0.2-0.6,0.3-0.8,0.1c-0.5-2.1-1.8-4.5-6.3-4.5c-4.7,0-8.7,3-8.7,9.3c0,6.4,4.1,10,9.1,10c4,0,5.7-2.6,6.4-4.4
					c0.2-0.2,0.7-0.1,0.8,0.1c-0.2,1.6-1,3.6-1.5,4.2c-0.4,0.1-0.7,0.2-1.1,0.3c-0.7,0.2-2.9,0.7-4.8,0.7c-2.8,0-5.4-0.6-7.6-2.1
					c-2.4-1.7-4.3-4.5-4.3-8.4C21.2,139.1,22.7,136.2,25,134.4"/>
				<path fill="#FFFFFF" d="M76.9,137c0-3.3-0.1-3.8-1.9-3.9l-0.8-0.1c-0.2-0.1-0.1-0.7,0.1-0.8c1.5,0.1,2.6,0.1,3.9,0.1
					c1.2,0,2.3,0,3.8-0.1c0.2,0.1,0.2,0.6,0.1,0.8l-0.8,0.1c-1.8,0.2-1.9,0.7-1.9,3.9v10.9c0,3.2,0.1,3.7,1.9,3.9l0.8,0.1
					c0.2,0.1,0.1,0.7-0.1,0.8c-1.5-0.1-2.6-0.1-3.8-0.1c-1.3,0-2.3,0-3.9,0.1c-0.2-0.1-0.2-0.6-0.1-0.8l0.8-0.1
					c1.8-0.2,1.9-0.6,1.9-3.9V137z"/>
				<path fill="#FFFFFF" d="M135.6,147.3c0,0.9,0,4.6,0.1,5.4c-0.1,0.2-0.2,0.3-0.6,0.3c-0.4-0.5-1.3-1.6-3.9-4.6l-7.1-8.1
					c-0.8-0.9-2.9-3.5-3.6-4.1h-0.1c-0.1,0.4-0.2,1.1-0.2,2v6.7c0,1.4,0.1,5.4,0.5,6.3c0.2,0.3,0.8,0.5,1.6,0.6l1,0.1
					c0.2,0.2,0.2,0.6-0.1,0.8c-1.4-0.1-2.5-0.1-3.6-0.1c-1.3,0-2.1,0-3.2,0.1c-0.2-0.2-0.2-0.6-0.1-0.8l0.8-0.1
					c0.7-0.1,1.2-0.3,1.4-0.6c0.4-1.1,0.4-4.8,0.4-6.3V136c0-0.9,0-1.5-0.7-2.2c-0.4-0.4-1.2-0.6-1.9-0.7L116,133
					c-0.2-0.2-0.2-0.6,0.1-0.8c1.3,0.1,2.9,0.1,3.5,0.1c0.5,0,1,0,1.4-0.1c0.6,1.6,4.3,5.6,5.2,6.7l3,3.3c2.1,2.4,3.6,4.1,5.1,5.5
					h0.1c0.1-0.1,0.1-0.6,0.1-1.3V140c0-1.4,0-5.4-0.6-6.3c-0.2-0.3-0.7-0.5-1.9-0.6l-0.5-0.1c-0.2-0.2-0.2-0.7,0.1-0.8
					c1.4,0.1,2.4,0.1,3.6,0.1c1.3,0,2.1,0,3.2-0.1c0.2,0.2,0.2,0.6,0.1,0.8l-0.4,0.1c-1,0.2-1.6,0.4-1.7,0.6
					c-0.5,1.1-0.5,4.9-0.5,6.3v7.3H135.6z"/>
				<path fill="#FFFFFF" d="M175,136.9c0-3.2-0.1-3.6-1.9-3.9l-0.5-0.1c-0.2-0.1-0.1-0.7,0.1-0.8c1.3,0.1,2.4,0.1,3.6,0.1h5.8
					c2,0,3.8,0,4.1-0.1c0.2,0.5,0.4,2.7,0.5,4.1c-0.1,0.2-0.6,0.2-0.8,0.1c-0.5-1.4-0.7-2.5-2.3-2.9c-0.6-0.2-1.6-0.2-3-0.2h-2.2
					c-0.9,0-0.9,0.1-0.9,1.2v6.1c0,0.9,0.1,0.9,1,0.9h1.8c1.3,0,2.2-0.1,2.6-0.2c0.4-0.1,0.6-0.3,0.7-1.1l0.2-1.3
					c0.2-0.2,0.7-0.2,0.8,0c0,0.7-0.1,1.9-0.1,3.1c0,1.1,0.1,2.3,0.1,2.9c-0.1,0.2-0.6,0.2-0.8,0l-0.3-1.2c-0.1-0.6-0.3-1-1-1.2
					c-0.4-0.1-1.2-0.2-2.4-0.2h-1.8c-0.9,0-1,0-1,0.8v4.3c0,1.6,0.1,2.7,0.6,3.2c0.4,0.4,1,0.7,3.7,0.7c2.4,0,3.2-0.1,3.9-0.5
					c0.6-0.3,1.4-1.4,2.2-3c0.2-0.2,0.6-0.1,0.8,0.2c-0.2,1.1-1,3.4-1.4,4.3c-2.8-0.1-5.5-0.1-8.2-0.1h-2.8c-1.3,0-2.4,0-4.2,0.1
					c-0.2-0.1-0.2-0.6-0.1-0.8l1-0.1c1.7-0.2,1.9-0.6,1.9-3.8v-10.6H175z"/>
				<path fill="#FFFFFF" d="M232.8,144.4c0.7,1.4,1.4,2.9,2.1,4.2h0.1c0.8-1.4,1.6-3,2.4-4.6l2.9-5.9c1.4-2.8,2.3-4.5,2.3-5.9
					c1,0.1,1.7,0.1,2.3,0.1c0.8,0,1.8,0,2.7-0.1c0.2,0.1,0.2,0.6,0,0.8l-0.6,0.1c-1.9,0.2-2.2,0.8-2.1,2.9c0.1,3.2,0.1,8.9,0.3,13.3
					c0.1,1.5,0.1,2.3,1.5,2.5l1,0.1c0.2,0.2,0.2,0.6-0.1,0.8c-1.3-0.1-2.5-0.1-3.6-0.1s-2.5,0-3.7,0.1c-0.2-0.2-0.2-0.6-0.1-0.8
					l0.9-0.1c1.5-0.2,1.5-0.6,1.5-2.6l-0.1-12.8h-0.1c-0.2,0.3-1.4,2.8-2,4l-2.7,5.4c-1.4,2.7-2.8,5.6-3.3,7
					c-0.1,0.1-0.2,0.1-0.3,0.1s-0.2,0-0.3-0.1c-0.5-1.6-2-4.6-2.7-6.1l-2.8-5.9c-0.6-1.4-1.3-3-2-4.4h-0.1c-0.1,1.9-0.2,3.7-0.3,5.5
					c-0.1,1.9-0.2,4.6-0.2,7.2c0,2.3,0.2,2.8,1.4,2.8l1.2,0.1c0.2,0.2,0.2,0.7,0,0.8c-1-0.1-2.2-0.1-3.4-0.1c-1,0-2.1,0-3.1,0.1
					c-0.2-0.2-0.2-0.6-0.1-0.8l0.7-0.1c1.3-0.2,1.7-0.4,1.9-2.5c0.2-2,0.3-3.7,0.5-6.7c0.1-2.5,0.3-5.1,0.3-6.8
					c0.1-1.9-0.2-2.3-2.1-2.6l-0.5-0.1c-0.1-0.2-0.1-0.6,0.1-0.8c0.9,0.1,1.7,0.1,2.4,0.1s1.5,0,2.5-0.1c-0.1,1.2,0.6,3.1,1.6,5.1
					L232.8,144.4z"/>
				<path fill="#FFFFFF" d="M293.1,145.4c-0.2-0.7-0.3-0.8-1.3-0.8h-4.6c-0.8,0-0.9,0.1-1.2,0.7l-1.1,3.2c-0.5,1.4-0.7,2.2-0.7,2.5
					c0,0.4,0.2,0.6,0.9,0.6l1,0.1c0.2,0.2,0.2,0.6-0.1,0.8c-0.8-0.1-1.7-0.1-3.2-0.1c-1,0-2.1,0.1-2.9,0.1c-0.2-0.1-0.2-0.6-0.1-0.8
					l1-0.1c0.7-0.1,1.4-0.4,1.8-1.5c0.6-1.4,1.4-3.4,2.7-6.8l3.1-8.3c0.4-1.1,0.6-1.7,0.5-2.2c0.7-0.2,1.3-0.8,1.6-1.2
					c0.2,0,0.4,0.1,0.5,0.3c0.4,1.3,0.9,2.8,1.4,4.1l4.2,12.3c0.9,2.6,1.3,3.1,2.6,3.2l0.8,0.1c0.2,0.2,0.2,0.6,0,0.8
					c-1.3-0.1-2.3-0.1-3.7-0.1c-1.5,0-2.6,0.1-3.5,0.1c-0.2-0.1-0.3-0.6-0.1-0.8l0.9-0.1c0.6-0.1,1.1-0.2,1.1-0.5s-0.2-0.9-0.4-1.6
					L293.1,145.4z M287,142.7c-0.2,0.7-0.2,0.7,0.6,0.7h3.8c0.9,0,1-0.1,0.7-1l-1.7-5c-0.2-0.7-0.5-1.6-0.7-1.9h-0.1
					c-0.1,0.2-0.4,0.9-0.7,1.8L287,142.7z"/>
				<path fill="#FFFFFF" d="M338.5,153c-2.6,0-4.2-0.8-4.8-1.1c-0.4-0.7-0.8-2.9-0.8-4.3c0.2-0.2,0.6-0.3,0.7-0.1
					c0.5,1.6,1.7,4.6,5.3,4.6c2.6,0,3.8-1.7,3.8-3.5c0-1.3-0.3-2.8-2.5-4.3l-2.9-1.9c-1.5-1-3.3-2.8-3.3-5.3c0-2.9,2.3-5.3,6.2-5.3
					c0.9,0,2.1,0.2,2.8,0.4c0.4,0.1,0.8,0.2,1.1,0.2c0.3,0.7,0.6,2.4,0.6,3.7c-0.1,0.2-0.6,0.3-0.8,0.1c-0.4-1.5-1.2-3.5-4.2-3.5
					s-3.6,2-3.6,3.4c0,1.8,1.5,3,2.6,3.8l2.4,1.5c1.9,1.2,3.8,3,3.8,5.9C345,150.7,342.4,153,338.5,153"/>
			</g>
		</g>
	</g>
	<path fill="#FFFFFF" d="M129.5,55.8c-1.2-1-2.9-1.4-4.5-1.1c-0.3,0-0.5,0.1-0.8,0.2c-1.3,0.4-2.5,1.4-3.1,2.5l-11,24.2
		c0,0-0.8,1.3-1.6,0.9c-0.8-0.4-0.3-1.6-0.3-1.6l6.9-25.6c0.2-1.5-0.2-3.2-1.3-4.5c-1.1-1.3-2.7-2-4.3-2l-27,2.5
		c0,0-1.2,0.3-1.4-0.6c-0.1-0.6,1.5-1.3,1.5-1.3l25.7-6.9c1.4-0.5,2.7-1.8,3.2-3.4c0.6-1.6,0.4-3.3-0.4-4.7L95.7,12.9
		c0,0-0.5-0.7,0.2-1.3c0.7-0.5,1.3,0,1.3,0L116,30.4c1.2,1,2.9,1.4,4.5,1.1c0.3,0,0.5-0.1,0.8-0.2c1.3-0.4,2.5-1.4,3.1-2.5l11-24.2
		c0,0,0.8-0.8,1.1-0.7c1,0.3,0.7,1.3,0.7,1.3l-6.9,25.7c-0.2,1.5,0.2,3.2,1.3,4.5s2.7,2,4.3,2l26.5-2.7c0,0,1.3,0,1.4,0.8
		c0.2,0.8-1.1,1.1-1.1,1.1L137,43.5c-1.4,0.5-2.7,1.8-3.2,3.4c-0.6,1.6-0.4,3.3,0.4,4.7l15.5,21.6c0,0,0.4,1.1,0,1.4
		c-0.4,0.4-1.5-0.1-1.5-0.1L129.5,55.8z"/>
	<path fill="#FFFFFF" d="M176.7,41.8c-0.7-1-2-1.7-3.3-1.8c-0.2,0-0.4,0-0.7,0c-1.1,0.1-2.2,0.5-3,1.3L156,57.9c0,0-0.9,0.8-1.4,0.4
		c-0.5-0.5,0.1-1.3,0.1-1.3l10.8-18.6c0.5-1.1,0.5-2.6-0.1-3.8s-1.7-2.1-3-2.5l-21.7-3.7c0,0-1,0-1-0.8c0-0.5,1.5-0.7,1.5-0.7h21.5
		c1.2-0.1,2.5-0.9,3.2-2c0.8-1.1,1-2.5,0.7-3.8L159,0.9c0,0-0.2-0.7,0.4-1c0.6-0.3,1.1,0.3,1.1,0.3L171.4,19c0.7,1,2,1.7,3.3,1.8
		c0.2,0,0.4,0,0.7,0c1.1-0.1,2.2-0.5,3-1.3l13.7-16.7c0,0,0.8-0.5,1-0.3c0.7,0.5,0.3,1.2,0.3,1.2l-10.8,18.6
		c-0.5,1.1-0.5,2.6,0.1,3.8c0.6,1.2,1.7,2.1,2.9,2.5l21.3,3.5c0,0,1,0.3,1,0.9c0,0.7-1.1,0.7-1.1,0.7h-21.6c-1.2,0.1-2.5,0.9-3.2,2
		c-0.8,1.1-1,2.5-0.7,3.8l7.6,20.1c0,0,0.1,0.9-0.3,1.1c-0.4,0.2-1.2-0.4-1.2-0.4L176.7,41.8z"/>
	<path id="SVGID_1_" fill="#FFFFFF" d="M185.2,179.5c-16.1,2.3-32.2,3.7-47.8,4.1c-36.9,0.9-70.8-3.9-95.5-13.5
		C26,163.9,7.2,152.8,4,135.8c-2.4-12.8-0.5-19.3-0.5-19.3c-2.9,6.5-4,13.1-3.2,19.5c2,16.7,16.6,31.2,42.1,41.9
		c25.4,10.6,60.3,16.5,98.2,16.5c15.9,0,32.4-1,48.8-3c43.1-5.2,83-16.7,114.1-32.7h-37.3C242,168.1,214.4,175.3,185.2,179.5"/>
</g>
<g>
	<path fill="#FFFFFF" d="M114.7,218.3l2.8,22c0.4,3.5,0.7,7.1,1,10.3c0.2-3.1,0.5-6.7,0.9-10.3l2.4-22h7l-5.7,39H114l-2.6-22.7
		c-0.4-3.3-0.6-6.5-0.8-9.6c-0.2,3.1-0.4,6.3-0.8,9.6l-2.6,22.7h-9.1l-5.7-39h7l2.4,22c0.4,3.5,0.7,7.1,0.9,10.3
		c0.2-3.1,0.5-6.7,1-10.3l2.8-22H114.7z"/>
	<path fill="#FFFFFF" d="M132.8,218.3h7v39h-7V218.3z"/>
	<path fill="#FFFFFF" d="M153.9,239c-1-3.4-1.9-7-2.6-10.1c0.2,3.6,0.4,8,0.4,10.3v18.1H145v-39h8.3l5.2,18.3c1,3.4,1.9,7,2.6,10.1
		c-0.2-3.6-0.4-8-0.4-10.3v-18.1h6.7v39H159L153.9,239z"/>
	<path fill="#FFFFFF" d="M184.7,237.1l9.4,20.2h-7.8l-4.7-10.9c-0.8-1.9-1.7-4.3-2.1-5.7v16.6h-6.8v-39h6.8v16
		c0.5-1.6,1.4-4.1,2.2-5.8l4.4-10.2h7.8L184.7,237.1z"/>
	<path fill="#FFFFFF" d="M197.7,218.3h7v32.6h9.1v6.4h-16.1V218.3z"/>
	<path fill="#FFFFFF" d="M217.8,218.3h18.8v6.4h-11.9v9.7H235v6.2h-10.3v10.3h11.9v6.4h-18.8V218.3z"/>
	<path fill="#FFFFFF" d="M241,218.3h10.5c7.5,0,11,2.2,11,12.7c0,6.3-1.7,9.8-5,11.5l5.6,14.9h-7.5l-4.7-13.9H248v13.9h-7V218.3z
		 M248,224.7v12.5h3.5c2.8,0,4-1.3,4-6.2c0-4.8-1.2-6.3-4-6.3H248z"/>
</g>
</svg>
