<?xml version="1.0" encoding="utf-8"?>
<!-- Generator: Adobe Illustrator 18.1.0, SVG Export Plug-In . SVG Version: 6.00 Build 0)  -->
<!DOCTYPE svg PUBLIC "-//W3C//DTD SVG 1.1//EN" "http://www.w3.org/Graphics/SVG/1.1/DTD/svg11.dtd">
<svg version="1.1" id="Layer_1" xmlns="http://www.w3.org/2000/svg" xmlns:xlink="http://www.w3.org/1999/xlink" x="0px" y="0px"
	 width="200px" height="200px" viewBox="-299 201 200 200" enable-background="new -299 201 200 200" xml:space="preserve">
<polygon fill-rule="evenodd" clip-rule="evenodd" fill="#231F20" points="-281.3,321.2 -266.5,321.2 -259.5,313.7 -252.3,321 
	-220.7,321 -259.1,281.4 -299,321.2 "/>
<polygon fill-rule="evenodd" clip-rule="evenodd" fill="#FFFFFF" points="-278.8,320.2 -264,320.2 -257.1,312.7 -249.8,320 
	-218.3,320 -256.6,280.4 -296.5,320.2 "/>
<path fill-rule="evenodd" clip-rule="evenodd" fill="#FFFFFF" d="M-101.8,284.1c-1,0-1.9,0.5-2.3,1.3c-0.3,0.4-0.4,0.9-0.4,1.4
	c0,0.7,0.3,1.4,0.8,1.9c0.5,0.5,1.2,0.8,2,0.8c0.7,0,1.4-0.3,1.9-0.8c0.5-0.5,0.8-1.2,0.8-1.9c0-0.7-0.3-1.4-0.8-1.9
	C-100.3,284.4-101,284.1-101.8,284.1L-101.8,284.1z M-101.8,284.5c0.6,0,1.2,0.3,1.6,0.7c0.4,0.4,0.7,1,0.7,1.6
	c0,0.6-0.3,1.2-0.7,1.6c-0.5,0.4-1,0.7-1.6,0.7c-0.6,0-1.2-0.3-1.6-0.7c-0.4-0.4-0.7-1-0.7-1.6c0-0.6,0.3-1.2,0.7-1.6
	C-103,284.7-102.4,284.5-101.8,284.5L-101.8,284.5z M-102.9,285.3v3h0.7V287h0.4l0.6,1.2h0.8l-0.7-1.3c0.4-0.1,0.7-0.4,0.7-0.8
	c0-0.6-0.4-0.9-1.3-0.9H-102.9L-102.9,285.3z M-102.2,285.7h0.3c0.4,0,0.7,0.1,0.7,0.4c0,0.3-0.2,0.4-0.6,0.4h-0.4V285.7z"/>
<path fill-rule="evenodd" clip-rule="evenodd" fill="#231F20" d="M-210.8,312.6c1,0.1,2.1,0.2,3.4,0.2c7.2,0,11.8-3.2,11.8-8.6
	c0-8.1-10.9-9.2-10.9-12.2c0-0.7,0.4-1.4,2.3-1.4c2.3,0,3.8,1.2,5,1.9l0,0v-7.8l0,0c-0.6,0.4-1.1,0.4-1.8,0.4
	c-1.4,0-2.6-0.4-4.7-0.4c-5.5,0-8.9,3.4-8.9,7.6c0,6.5,11,7.3,11,11.6c0,1.9-1.8,3.2-4.3,3.2c-1.6,0-2.9-0.4-4-1.2l0,0l-12.4-21.1
	c-0.1,0-0.3,0-0.3,0l-15.9,26.6l0,0c-0.2,0.4-0.6,0.9-1.1,1.2l0,0h10.8l0,0c-0.4-0.4-0.7-0.7-0.7-1.3c0-0.4,0.1-0.8,0.3-1.3l0,0
	l0.8-1.6h11.6l0.8,1.6l0,0c0.2,0.5,0.3,0.9,0.3,1.3c0,0.6-0.3,0.9-0.7,1.3l0,0H-210.8L-210.8,312.6L-210.8,312.6z M-227.4,302.8
	l2.8-4.5l2.8,4.5H-227.4L-227.4,302.8z"/>
<path fill-rule="evenodd" clip-rule="evenodd" fill="#231F20" d="M-152.8,312.4v-7.2l0,0c-0.9,0.9-2.1,1.3-3.5,1.3l0,0h-4.8v-18.3
	l0,0c0-1.5,0.3-2.4,1.2-2.8l0,0h-10.2l0,0c0.9,0.4,1.2,1.4,1.2,2.8l0,0v21.4l0,0c0,1.5-0.3,2.4-1.2,2.8l0,0H-152.8L-152.8,312.4z"/>
<path fill-rule="evenodd" clip-rule="evenodd" fill="#231F20" d="M-171.9,288.2c0-1.5,0.3-2.4,1.2-2.8l0,0h-10.1l0,0
	c0.9,0.4,1.2,1.4,1.2,2.8l0,0v7.5h-7.3v-7.5l0,0c0-1.5,0.3-2.4,1.2-2.8l0,0h-10.1l0,0c0.9,0.4,1.2,1.4,1.2,2.8l0,0v21.4l0,0
	c0,1.5-0.3,2.4-1.2,2.8l0,0h10.1l0,0c-0.9-0.4-1.2-1.4-1.2-2.8l0,0v-8h7.3v8l0,0c0,1.5-0.3,2.4-1.2,2.8l0,0h10.1l0,0
	c-0.9-0.4-1.2-1.4-1.2-2.8l0,0V288.2L-171.9,288.2z"/>
<path fill-rule="evenodd" clip-rule="evenodd" fill="#231F20" d="M-131.8,285.3h-5.8h-14.8l0,0c1.1,0.6,1.3,1.5,1.3,2.8l0,0v21.4
	l0,0c0,1.5-0.3,2.4-1.2,2.8l0,0h20.5v-7.2l0,0c-0.9,0.9-2,1.3-3.5,1.3l0,0h-8v-4.7h5.3l0,0c1.3,0,1.9,0.6,2.6,1.3l0,0v-8.5l0,0
	c-0.7,0.7-1.3,1.3-2.6,1.3l0,0h-5.3v-4.8h7.9l0,0c1.5,0,2.6,0.5,3.5,1.3l0,0v-0.2l6.1,7.8v9.4l0,0c0,1.5-0.3,2.4-1.2,2.8l0,0h10.2
	l0,0c-0.9-0.4-1.2-1.4-1.2-2.8l0,0v-9.4l10.4-13l0,0c0.6-0.8,1.3-1.4,1.9-1.8l0,0h-12l0,0c0.5,0.3,0.8,0.7,0.8,1.2
	c0,0.4-0.2,0.8-0.7,1.6l0,0l-3.9,6.1l-4.2-6l0,0c-0.6-0.9-0.9-1.3-0.9-1.7c0-0.5,0.3-0.9,0.8-1.2l0,0H-131.8L-131.8,285.3z"/>
<g>
	<path fill-rule="evenodd" clip-rule="evenodd" fill="#FFFFFF" d="M-209.6,312c1,0.1,2.1,0.2,3.4,0.2c7.2,0,11.8-3.2,11.8-8.6
		c0-8.2-10.9-9.2-10.9-12.2c0-0.7,0.4-1.4,2.3-1.4c2.3,0,3.8,1.2,5,2l0,0v-7.8l0,0c-0.6,0.4-1.1,0.5-1.8,0.5c-1.4,0-2.6-0.5-4.6-0.5
		c-5.6,0-8.9,3.4-8.9,7.6c0,6.5,11,7.3,11,11.7c0,1.9-1.8,3.1-4.3,3.1c-1.6,0-2.9-0.4-4-1.2l0,0l-12.4-21.1c0-0.1-0.3-0.1-0.3,0
		l-15.9,26.6l0,0c-0.2,0.4-0.6,0.9-1.1,1.2l0,0h10.8l0,0c-0.5-0.4-0.8-0.7-0.8-1.3c0-0.4,0.1-0.8,0.3-1.3l0,0l0.8-1.7h11.6l0.8,1.7
		l0,0c0.3,0.5,0.3,0.8,0.3,1.3c0,0.6-0.3,0.9-0.7,1.3l0,0H-209.6L-209.6,312L-209.6,312z M-226.1,302.2l2.8-4.6l2.9,4.6H-226.1
		L-226.1,302.2z"/>
	<path fill-rule="evenodd" clip-rule="evenodd" fill="#FFFFFF" d="M-151.6,311.8v-7.2l0,0c-0.9,0.9-2,1.3-3.5,1.3l0,0h-4.8v-18.3
		l0,0c0-1.5,0.3-2.4,1.2-2.8l0,0h-10.2l0,0c0.9,0.4,1.2,1.3,1.2,2.8l0,0v21.4l0,0c0,1.5-0.3,2.4-1.2,2.8l0,0H-151.6L-151.6,311.8z"
		/>
	<path fill-rule="evenodd" clip-rule="evenodd" fill="#FFFFFF" d="M-170.7,287.5c0-1.5,0.3-2.4,1.2-2.8l0,0h-10.2l0,0
		c0.9,0.4,1.2,1.3,1.2,2.8l0,0v7.5h-7.4v-7.5l0,0c0-1.5,0.3-2.4,1.2-2.8l0,0h-10.2l0,0c0.9,0.4,1.2,1.3,1.2,2.8l0,0v21.4l0,0
		c0,1.5-0.3,2.4-1.2,2.8l0,0h10.2l0,0c-0.9-0.4-1.2-1.4-1.2-2.8l0,0v-8h7.4v8l0,0c0,1.5-0.3,2.4-1.2,2.8l0,0h10.2l0,0
		c-0.9-0.4-1.2-1.4-1.2-2.8l0,0V287.5L-170.7,287.5z"/>
	<path fill-rule="evenodd" clip-rule="evenodd" fill="#FFFFFF" d="M-130.6,284.7h-5.8h-14.8l0,0c1.1,0.6,1.3,1.5,1.3,2.8l0,0v21.4
		l0,0c0,1.5-0.3,2.4-1.2,2.8l0,0h20.6v-7.2l0,0c-1,0.9-2.1,1.3-3.5,1.3l0,0h-8v-4.7h5.3l0,0c1.3,0,1.9,0.6,2.6,1.3l0,0V294l0,0
		c-0.7,0.7-1.3,1.3-2.6,1.3l0,0h-5.3v-4.8h7.9l0,0c1.5,0,2.6,0.5,3.5,1.4l0,0v-0.3l6.1,7.9v9.4l0,0c0,1.5-0.3,2.4-1.2,2.8l0,0h10.2
		l0,0c-0.9-0.4-1.2-1.4-1.2-2.8l0,0v-9.4l10.4-13l0,0c0.7-0.8,1.3-1.3,1.9-1.8l0,0h-12.1l0,0c0.5,0.3,0.8,0.7,0.8,1.2
		c0,0.4-0.2,0.8-0.7,1.6l0,0l-4,6.1l-4.2-6l0,0c-0.6-0.9-0.9-1.3-0.9-1.7c0-0.5,0.3-0.9,0.8-1.2l0,0H-130.6L-130.6,284.7z"/>
</g>
</svg>
