<?xml version="1.0" encoding="utf-8"?>
<!-- Generator: Adobe Illustrator 18.1.0, SVG Export Plug-In . SVG Version: 6.00 Build 0)  -->
<!DOCTYPE svg PUBLIC "-//W3C//DTD SVG 1.1//EN" "http://www.w3.org/Graphics/SVG/1.1/DTD/svg11.dtd">
<svg version="1.1" id="Layer_1" xmlns="http://www.w3.org/2000/svg" xmlns:xlink="http://www.w3.org/1999/xlink" x="0px" y="0px"
	 width="200px" height="200px" viewBox="-299 201 200 200" enable-background="new -299 201 200 200" xml:space="preserve">
<path fill-rule="evenodd" clip-rule="evenodd" fill="#FFFFFF" d="M-249.9,291.1l-16.6,9.8l8.8-14.2c-2.5-1.6-5.3-2.4-8.8-2.4
	c-9.2,0-16.7,7.3-16.7,16.6c0,9.3,7.5,16.7,16.7,16.7c6,0,11.3-3.2,14.3-7.9l0.8,2.4c-4.1,5.4-11.7,9.6-21.9,9.6
	c-16.7,0-25.7-10.1-25.7-20.8c0-10.7,9.5-20.8,25.7-20.8C-261.9,280.2-254.7,284.4-249.9,291.1L-249.9,291.1z"/>
<path fill-rule="evenodd" clip-rule="evenodd" fill="#FFFFFF" d="M-175.1,320.7h-12.2v-24.3c0-1.7-1.4-3-3-3c-1.7,0-3.1,1.4-3.1,3
	l0,24.3h-12.2v-27.4h-8.1l11.7-5.6c0.8-0.3,1.6-0.5,2.5-0.5c3,0,5.6,2.2,6,5.1l9.7-4.6c0.8-0.3,1.6-0.6,2.5-0.6
	c3.4,0,6.1,2.7,6.1,6.1V320.7L-175.1,320.7z"/>
<path fill-rule="evenodd" clip-rule="evenodd" fill="#FFFFFF" d="M-216.7,294.8l7.2,26h-12.2l-1.6-5.7c-2.5,3.6-7.6,6.5-13.8,6.5
	c-5.6,0-12.6-4.4-12.6-10.9c0-6.6,7-10.9,12.7-10.9c4,0,7.5,1,10.4,3.3l-2.7-9.7h-15.8l14.3-5.3
	C-223.6,285.4-217.9,290.4-216.7,294.8L-216.7,294.8z M-231,316.8c3.4,0,6.2-2.8,6.2-6.2c0-3.4-2.8-6.2-6.2-6.2
	c-3.4,0-6.3,2.8-6.3,6.2C-237.3,314.1-234.5,316.8-231,316.8L-231,316.8z"/>
<path fill-rule="evenodd" clip-rule="evenodd" fill="#FFFFFF" d="M-171.1,304.5c0-9.5,7.7-17.2,17.2-17.2c9.5,0,17.3,7.7,17.3,17.2
	c0,9.5-7.7,17.2-17.3,17.2C-163.4,321.8-171.1,314.1-171.1,304.5L-171.1,304.5z M-149.8,319.2c2-0.6,3.1-2.5,2.6-4.6l-6.1-22.2
	c-0.5-2-2.5-3.1-4.6-2.6c-2,0.5-3.1,2.5-2.5,4.6l6.1,22.2C-153.8,318.6-151.8,319.7-149.8,319.2L-149.8,319.2z"/>
<path fill-rule="evenodd" clip-rule="evenodd" fill="#FFFFFF" d="M-99,320.8h-12.2l0-24.3c0-1.7-1.4-3-3-3c-1.7,0-3.1,1.4-3.1,3
	l0,24.3h-12.2v-27.4h-8.1l11.7-5.6c0.8-0.3,1.6-0.5,2.5-0.5c3,0,5.6,2.2,6,5.1l9.7-4.6c0.8-0.3,1.6-0.5,2.5-0.5
	c3.4,0,6.1,2.7,6.1,6.1V320.8L-99,320.8z"/>
</svg>
