<?xml version="1.0" encoding="utf-8"?>
<!-- Generator: Adobe Illustrator 18.1.1, SVG Export Plug-In . SVG Version: 6.00 Build 0)  -->
<!DOCTYPE svg PUBLIC "-//W3C//DTD SVG 1.1//EN" "http://www.w3.org/Graphics/SVG/1.1/DTD/svg11.dtd">
<svg version="1.1" id="Layer_1" xmlns="http://www.w3.org/2000/svg" xmlns:xlink="http://www.w3.org/1999/xlink" x="0px" y="0px"
	 width="200px" height="200px" viewBox="64 126 200 200" enable-background="new 64 126 200 200" xml:space="preserve">
<g>
	<path fill="#CCCED3" d="M113.2,216.2c-4.8-6.7-12-10.9-23.4-11C73.5,205.2,64,215.3,64,226c0,10.7,9,20.8,25.7,20.8
		c10.2,0,17.8-4.2,21.9-9.6l-0.8-2.4c-3,4.7-8.3,7.9-14.3,7.9c-9.2,0-16.7-7.4-16.7-16.7s7.5-16.6,16.7-16.6c3.5,0,6.3,0.8,8.8,2.4
		L96.5,226L113.2,216.2z"/>
	<path fill="#CCCED3" d="M181.8,212.2c-0.9,0-1.7,0.3-2.5,0.6l-9.7,4.6c-0.4-2.9-3-5.1-6-5.1c-0.9,0-1.7,0.2-2.5,0.5l-11.7,5.6h8.1
		v27.4h12.2v-24.3c0-1.6,1.4-3,3.1-3c1.6,0,3,1.3,3,3v24.3h12.1v-27.5C187.8,214.9,185.1,212.2,181.8,212.2z"/>
	<path fill="#CCCED3" d="M132.2,213.2l-14.3,5.3h15.8l2.7,9.7c-2.9-2.3-6.4-3.3-10.4-3.3c-5.7,0-12.7,4.3-12.7,10.9
		c0,6.5,7,10.9,12.6,10.9c6.2,0,11.3-2.9,13.8-6.5l1.6,5.7h12.2l-7.2-26C145.2,215.5,139.5,210.5,132.2,213.2z M132,241.9
		c-3.5,0-6.3-2.7-6.3-6.2c0-3.4,2.9-6.2,6.3-6.2c3.4,0,6.2,2.8,6.2,6.2S135.5,241.9,132,241.9z"/>
	<path fill="#CCCED3" d="M209.1,212.4c-9.5,0-17.2,7.7-17.2,17.2c0,9.6,7.7,17.3,17.2,17.2c9.6,0,17.3-7.7,17.3-17.2
		S218.6,212.4,209.1,212.4z M213.2,244.3c-2,0.5-4-0.6-4.5-2.6l-6.1-22.2c-0.6-2.1,0.5-4.1,2.5-4.6c2.1-0.5,4.1,0.6,4.6,2.6
		l6.1,22.2C216.3,241.8,215.2,243.7,213.2,244.3z"/>
	<path fill="#CCCED3" d="M257.8,212.4c-0.9,0-1.7,0.2-2.5,0.5l-9.7,4.6c-0.4-2.9-3-5.1-6-5.1c-0.9,0-1.7,0.2-2.5,0.5l-11.7,5.6h8.1
		v27.4h12.2v-24.3c0-1.6,1.4-3,3.1-3c1.6,0,3,1.3,3,3v24.3H264v-27.4C264,215.1,261.2,212.4,257.8,212.4z"/>
</g>
</svg>
