<?xml version="1.0" encoding="utf-8"?>
<!-- Generator: Adobe Illustrator 18.1.1, SVG Export Plug-In . SVG Version: 6.00 Build 0)  -->
<!DOCTYPE svg PUBLIC "-//W3C//DTD SVG 1.1//EN" "http://www.w3.org/Graphics/SVG/1.1/DTD/svg11.dtd">
<svg version="1.1" id="Layer_1" xmlns="http://www.w3.org/2000/svg" xmlns:xlink="http://www.w3.org/1999/xlink" x="0px" y="0px"
	 width="200px" height="200px" viewBox="64 126 200 200" enable-background="new 64 126 200 200" xml:space="preserve">
<g>
	<polygon fill="#CCCED3" points="99.8,234.2 99.8,224.3 91.7,224.3 91.7,234.2 99.8,234.2 	"/>
	<path fill="#CCCED3" d="M95.6,223.3c2.2,0,4.1-1,4.1-2.3s-1.8-2.3-4.1-2.3c-2.2,0-4.1,1-4.1,2.3C91.6,222.3,93.4,223.3,95.6,223.3
		L95.6,223.3L95.6,223.3L95.6,223.3z"/>
	<polygon fill="#CCCED3" points="236.8,234.2 236.8,224.3 228.8,224.3 228.8,234.2 236.8,234.2 	"/>
	<path fill="#CCCED3" d="M232.7,223.3c2.2,0,4.1-1,4.1-2.3s-1.8-2.3-4.1-2.3c-2.2,0-4.1,1-4.1,2.3
		C228.7,222.3,230.5,223.3,232.7,223.3L232.7,223.3L232.7,223.3L232.7,223.3z"/>
	<path fill="#CCCED3" d="M138,219v15.2h8.2v-5l0,0c0-1.2,1-1.6,1.8-1.6c0.9,0,1.7-0.3,1.7,1.8l0,0v4.8h7.7v-6.3l0,0
		c0-1.6-0.7-4-4.8-4c-3,0-5.4,0.8-6.4,1.3l0,0V219H138L138,219L138,219z"/>
	<path fill="#CCCED3" d="M102.9,224.3v3.3h2.7v3.2l0,0c0,1.4,1.2,3.5,4.8,3.5c3.6,0,5-0.8,6.2-1.2l0,0v-2.4l0,0
		c-0.6,0.2-3.4,1.3-3.4-1l0,0v-2h3.4v-3.3h-3.4v-3.2h-7.7v3.2h-2.6V224.3L102.9,224.3z"/>
	<path fill="#CCCED3" d="M135.3,225.2c-1.8-1.1-4-1.5-7.2-1.5s-9,1.4-9,5.4s5.1,5.5,8.3,5.5c3.3,0,7.1-0.7,7.9-1.2l0,0v-2.8l0,0
		c-1,0.6-7.9,1.9-7.9-1.3c0-1.7,2.8-2.1,3.6-2.1s3.5,0.4,4.3,0.9l0,0L135.3,225.2L135.3,225.2L135.3,225.2z"/>
	<path fill="#CCCED3" d="M180.4,224.3v9.9h8.2v-5l0,0c0-1.2,1-1.8,1.8-1.8c1.6,0,1.7,0.1,1.7,2l0,0v4.8h7.7v-6.3l0,0
		c0-1.9-0.9-4.2-5-4.1c-2.8,0-5.4,1-6.2,1.4l0,0v-0.9H180.4L180.4,224.3L180.4,224.3z"/>
	<path fill="#CCCED3" d="M218.8,217.5h-10.5l0,0c0.5,0.1,1.3,1.4,1.1,1.9l0,0l-8.1,14.8h4.5l1.9-3.7h7l1.8,3.7h10.4L218.8,217.5
		L218.8,217.5L218.8,217.5z M209.2,227.4l2.2-4.4l1.8,4.4H209.2L209.2,227.4L209.2,227.4z"/>
	<path fill="#CCCED3" d="M251.8,219v5.5l0,0c-1-0.5-3.4-0.9-4.8-0.9c-2.4,0-7.4,0.8-7.4,5.2c0,4.7,5,5.4,7,5.4s4.2-0.3,5.3-0.9l0,0
		v0.9h7.7V219H251.8L251.8,219L251.8,219z M251.8,229.3c0,0.4-0.8,1-1.7,1c-0.8,0-2.7,0.2-2.7-1.6c0-1.3,2-1.9,2.6-1.9
		c0.6,0,1.8,0.1,1.8,1.1l0,0L251.8,229.3L251.8,229.3L251.8,229.3z"/>
	<path fill="#CCCED3" d="M170.9,231.6c-1.2,0-2.8-0.2-3.4-2.1l0,0h11l0,0c0-2.3-1-6.4-9.1-6.5c-4.9,0-9.8,1.6-9.8,5.7
		c0,4,5.3,5.5,10.2,5.5s7.1-0.8,7.8-1.2l0,0l0.4-2.3l0,0C177,231.1,174.5,231.7,170.9,231.6L170.9,231.6L170.9,231.6L170.9,231.6z
		 M169.3,225.7c1.1,0,1.5,0.5,1.5,1.5l0,0h-3.4l0,0C167.5,226.5,168.2,225.7,169.3,225.7L169.3,225.7L169.3,225.7L169.3,225.7z"/>
	<path fill="#CCCED3" d="M64,217.5v16.7h8.7v-5.1l0,0c0.7,0,2-0.4,3,1.2l0,0l2.4,3.9h10.7l-4.8-7.6l0,0c-0.7-1-0.9-1.9-3.4-2.2l0,0
		l6.1-7h-6.2l-4.7,5.9l0,0c-0.5,0.6-0.3,1.2-3.3,1.2l0,0v-7.1H64V217.5L64,217.5z"/>
	<path fill="#CCCED3" d="M263.5,219.8c-0.3-0.3-0.7-0.5-1.1-0.5s-0.8,0.2-1.1,0.5c-0.3,0.3-0.5,0.7-0.5,1.1s0.2,0.8,0.5,1.1
		c0.3,0.3,0.7,0.5,1.1,0.5s0.8-0.2,1.1-0.5s0.5-0.7,0.5-1.1S263.8,220.1,263.5,219.8L263.5,219.8L263.5,219.8L263.5,219.8z
		 M263.4,221.9c-0.3,0.3-0.6,0.4-1,0.4s-0.7-0.1-1-0.4c-0.3-0.3-0.4-0.6-0.4-1s0.1-0.7,0.4-1c0.3-0.3,0.6-0.4,1-0.4s0.7,0.1,1,0.4
		c0.3,0.3,0.4,0.6,0.4,1S263.6,221.6,263.4,221.9L263.4,221.9L263.4,221.9L263.4,221.9z"/>
	<path fill="#CCCED3" d="M263.1,221.8C263.1,221.8,263.1,221.7,263.1,221.8c0-0.1,0-0.2,0-0.2l0,0v-0.1l0,0c0-0.1,0-0.2-0.1-0.3
		c-0.1-0.1-0.2-0.2-0.3-0.2c0.1,0,0.2,0,0.3-0.1s0.2-0.2,0.2-0.4c0-0.2-0.1-0.4-0.3-0.4c-0.1,0-0.3-0.1-0.5-0.1l0,0h-0.6v1.8h0.3
		v-0.7h0.2l0,0c0.2,0,0.3,0,0.3,0.1c0.1,0.1,0.2,0.2,0.2,0.4l0,0v0.1v0.1l0,0l0,0l0,0l0,0L263.1,221.8L263.1,221.8L263.1,221.8
		L263.1,221.8z M262.6,220.9c-0.1,0-0.2,0-0.3,0l0,0H262v-0.6h0.3l0,0c0.2,0,0.3,0,0.4,0.1c0.1,0,0.1,0.1,0.1,0.3
		C262.8,220.7,262.7,220.8,262.6,220.9L262.6,220.9L262.6,220.9L262.6,220.9z"/>
</g>
</svg>
