<?xml version="1.0" encoding="utf-8"?>
<!-- Generator: Adobe Illustrator 18.1.0, SVG Export Plug-In . SVG Version: 6.00 Build 0)  -->
<!DOCTYPE svg PUBLIC "-//W3C//DTD SVG 1.1//EN" "http://www.w3.org/Graphics/SVG/1.1/DTD/svg11.dtd">
<svg version="1.1" id="Layer_1" xmlns="http://www.w3.org/2000/svg" xmlns:xlink="http://www.w3.org/1999/xlink" x="0px" y="0px"
	 width="200px" height="200px" viewBox="-299 201 200 200" enable-background="new -299 201 200 200" xml:space="preserve">
<g>
	<polygon fill-rule="evenodd" clip-rule="evenodd" fill="#FFFFFF" points="-263.2,309.2 -263.2,299.3 -271.3,299.3 -271.3,309.2 
		-263.2,309.2 -263.2,309.2 	"/>
	<path fill-rule="evenodd" clip-rule="evenodd" fill="#FFFFFF" d="M-267.4,298.3c2.2,0,4.1-1,4.1-2.3c0-1.3-1.8-2.3-4.1-2.3
		c-2.2,0-4.1,1-4.1,2.3C-271.4,297.3-269.6,298.3-267.4,298.3L-267.4,298.3L-267.4,298.3L-267.4,298.3z"/>
	<polygon fill-rule="evenodd" clip-rule="evenodd" fill="#FFFFFF" points="-126.2,309.2 -126.2,299.3 -134.2,299.3 -134.2,309.2 
		-126.2,309.2 -126.2,309.2 	"/>
	<path fill-rule="evenodd" clip-rule="evenodd" fill="#FFFFFF" d="M-130.3,298.3c2.2,0,4.1-1,4.1-2.3c0-1.3-1.8-2.3-4.1-2.3
		c-2.2,0-4.1,1-4.1,2.3C-134.3,297.3-132.5,298.3-130.3,298.3L-130.3,298.3L-130.3,298.3L-130.3,298.3z"/>
	<path fill-rule="evenodd" clip-rule="evenodd" fill="#FFFFFF" d="M-225,294v15.2h8.2v-5l0,0c0-1.2,1-1.6,1.8-1.6
		c0.9,0,1.7-0.3,1.7,1.8l0,0v4.8h7.7v-6.3l0,0c0-1.6-0.7-4-4.8-4c-3,0-5.4,0.8-6.4,1.3l0,0V294H-225L-225,294L-225,294z"/>
	<path fill-rule="evenodd" clip-rule="evenodd" fill="#FFFFFF" d="M-260.1,299.3v3.3h2.7v3.2l0,0c0,1.4,1.2,3.5,4.8,3.5
		c3.6,0,5-0.8,6.2-1.2l0,0v-2.4l0,0c-0.6,0.2-3.4,1.3-3.4-1l0,0v-2h3.4v-3.3h-3.4v-3.2h-7.7v3.2H-260.1L-260.1,299.3L-260.1,299.3z"
		/>
	<path fill-rule="evenodd" clip-rule="evenodd" fill="#FFFFFF" d="M-227.7,300.2c-1.8-1.1-4-1.5-7.2-1.5c-3.2,0-9,1.4-9,5.4
		c0,4,5.1,5.5,8.3,5.5c3.3,0,7.1-0.7,7.9-1.2l0,0v-2.8l0,0c-1,0.6-7.9,1.9-7.9-1.3c0-1.7,2.8-2.1,3.6-2.1c0.8,0,3.5,0.4,4.3,0.9l0,0
		V300.2L-227.7,300.2L-227.7,300.2z"/>
	<path fill-rule="evenodd" clip-rule="evenodd" fill="#FFFFFF" d="M-182.6,299.3v9.9h8.2v-5l0,0c0-1.2,1-1.8,1.8-1.8
		c1.6,0,1.7,0.1,1.7,2l0,0v4.8h7.7v-6.3l0,0c0-1.9-0.9-4.2-5-4.1c-2.8,0-5.4,1-6.2,1.4l0,0v-0.9H-182.6L-182.6,299.3L-182.6,299.3z"
		/>
	<path fill-rule="evenodd" clip-rule="evenodd" fill="#FFFFFF" d="M-144.2,292.5h-10.5l0,0c0.5,0.1,1.3,1.4,1.1,1.9l0,0l-8.1,14.8
		h4.5l1.9-3.7h7l1.8,3.7h10.4L-144.2,292.5L-144.2,292.5L-144.2,292.5z M-153.8,302.4l2.2-4.4l1.8,4.4H-153.8L-153.8,302.4
		L-153.8,302.4z"/>
	<path fill-rule="evenodd" clip-rule="evenodd" fill="#FFFFFF" d="M-111.2,294v5.5l0,0c-1-0.5-3.4-0.9-4.8-0.9
		c-2.4,0-7.4,0.8-7.4,5.2c0,4.7,5,5.4,7,5.4c2,0,4.2-0.3,5.3-0.9l0,0v0.9h7.7V294H-111.2L-111.2,294L-111.2,294z M-111.2,304.3
		c0,0.4-0.8,1-1.7,1c-0.8,0-2.7,0.2-2.7-1.6c0-1.3,2-1.9,2.6-1.9s1.8,0.1,1.8,1.1l0,0V304.3L-111.2,304.3L-111.2,304.3z"/>
	<path fill-rule="evenodd" clip-rule="evenodd" fill="#FFFFFF" d="M-192.1,306.6c-1.2,0-2.8-0.2-3.4-2.1l0,0h11l0,0
		c0-2.3-1-6.4-9.1-6.5c-4.9,0-9.8,1.6-9.8,5.7c0,4,5.3,5.5,10.2,5.5c4.9,0,7.1-0.8,7.8-1.2l0,0l0.4-2.3l0,0
		C-186,306.1-188.5,306.7-192.1,306.6L-192.1,306.6L-192.1,306.6L-192.1,306.6z M-193.7,300.7c1.1,0,1.5,0.5,1.5,1.5l0,0h-3.4l0,0
		C-195.5,301.5-194.8,300.7-193.7,300.7L-193.7,300.7L-193.7,300.7L-193.7,300.7z"/>
	<path fill-rule="evenodd" clip-rule="evenodd" fill="#FFFFFF" d="M-299,292.5v16.7h8.7v-5.1l0,0c0.7,0,2-0.4,3,1.2l0,0l2.4,3.9
		h10.7l-4.8-7.6l0,0c-0.7-1-0.9-1.9-3.4-2.2l0,0l6.1-7h-6.2l-4.7,5.9l0,0c-0.5,0.6-0.3,1.2-3.3,1.2l0,0v-7.1H-299L-299,292.5
		L-299,292.5z"/>
	<path fill-rule="evenodd" clip-rule="evenodd" fill="#FFFFFF" d="M-99.5,294.8c-0.3-0.3-0.7-0.5-1.1-0.5c-0.4,0-0.8,0.2-1.1,0.5
		c-0.3,0.3-0.5,0.7-0.5,1.1c0,0.4,0.2,0.8,0.5,1.1c0.3,0.3,0.7,0.5,1.1,0.5c0.4,0,0.8-0.2,1.1-0.5c0.3-0.3,0.5-0.7,0.5-1.1
		C-99,295.5-99.2,295.1-99.5,294.8L-99.5,294.8L-99.5,294.8L-99.5,294.8z M-99.6,296.9c-0.3,0.3-0.6,0.4-1,0.4c-0.4,0-0.7-0.1-1-0.4
		c-0.3-0.3-0.4-0.6-0.4-1c0-0.4,0.1-0.7,0.4-1c0.3-0.3,0.6-0.4,1-0.4c0.4,0,0.7,0.1,1,0.4c0.3,0.3,0.4,0.6,0.4,1
		C-99.2,296.3-99.4,296.6-99.6,296.9L-99.6,296.9L-99.6,296.9L-99.6,296.9z"/>
	<path fill-rule="evenodd" clip-rule="evenodd" fill="#FFFFFF" d="M-99.9,296.8C-99.9,296.8-99.9,296.7-99.9,296.8
		c0-0.1,0-0.2,0-0.2l0,0v-0.1l0,0c0-0.1,0-0.2-0.1-0.3c-0.1-0.1-0.2-0.2-0.3-0.2c0.1,0,0.2,0,0.3-0.1c0.1-0.1,0.2-0.2,0.2-0.4
		c0-0.2-0.1-0.4-0.3-0.4c-0.1,0-0.3-0.1-0.5-0.1l0,0h-0.6v1.8h0.3v-0.7h0.2l0,0c0.2,0,0.3,0,0.3,0.1c0.1,0.1,0.2,0.2,0.2,0.4l0,0
		v0.1l0,0.1l0,0c0,0,0,0,0,0c0,0,0,0,0,0l0,0L-99.9,296.8L-99.9,296.8L-99.9,296.8L-99.9,296.8z M-100.4,295.9c-0.1,0-0.2,0-0.3,0
		l0,0h-0.3v-0.6h0.3l0,0c0.2,0,0.3,0,0.4,0.1c0.1,0,0.1,0.1,0.1,0.3C-100.2,295.7-100.3,295.8-100.4,295.9L-100.4,295.9
		L-100.4,295.9L-100.4,295.9z"/>
</g>
</svg>
