<?xml version="1.0" encoding="utf-8"?>
<!-- Generator: Adobe Illustrator 18.1.0, SVG Export Plug-In . SVG Version: 6.00 Build 0)  -->
<!DOCTYPE svg PUBLIC "-//W3C//DTD SVG 1.1//EN" "http://www.w3.org/Graphics/SVG/1.1/DTD/svg11.dtd">
<svg version="1.1" id="Layer_1" xmlns="http://www.w3.org/2000/svg" xmlns:xlink="http://www.w3.org/1999/xlink" x="0px" y="0px"
	 width="200px" height="200px" viewBox="-299 201 200 200" enable-background="new -299 201 200 200" xml:space="preserve">
<path fill-rule="evenodd" clip-rule="evenodd" fill="#FFFFFF" d="M-244,260c-22.6,0-41,18.3-41,40.9c0,22.6,18.3,41,41,41
	s40.9-18.3,40.9-41C-203.1,278.4-221.4,260-244,260z M-234.1,315.4v3.1h-8.5v0h-3.1v-35.2h3.1v32H-234.1z M-244,335.3
	c-18.9,0-34.3-15.3-34.3-34.3c0-18.9,15.3-34.3,34.3-34.3c0.5,0,1,0,1.5,0l0,3.1c-0.5,0-1,0-1.5,0c-17.2,0-31.2,14-31.2,31.2
	c0,17.2,14,31.2,31.2,31.2c16.7,0,30.4-13.2,31.1-29.8l0-0.1H-234v-3.1h24.2c0,0.6,0,1.2,0,1.8C-209.8,319.9-225.1,335.3-244,335.3z
	 M-252,288c0,2.7-2.2,4.8-4.8,4.8c-2.7,0-4.8-2.2-4.8-4.8c0-2.7,2.2-4.8,4.8-4.8C-254.2,283.2-252,285.4-252,288z"/>
<polygon fill-rule="evenodd" clip-rule="evenodd" fill="#FFFFFF" points="-182.7,321.1 -153.5,321.1 -153.5,312.3 -171.1,312.3 
	-172,312.3 -172,311.4 -172,280.6 -182.7,280.6 -182.7,321.1 "/>
<path fill-rule="evenodd" clip-rule="evenodd" fill="#FFFFFF" d="M-118.1,283.5c-3.4-2.6-7.7-3.9-12.8-3.9c-6.1,0-11.2,1.9-14.8,5.4
	c-3.7,3.7-5.7,9.2-5.7,15.8c0,7.1,2.1,13.1,5.8,16.8c3,3,6.9,4.5,11.4,4.5c9.9,0,12.2-5.9,12.2-5.9v2.7v2.1h8.9v-22.9h-17.8v7.2h7.2
	h1c0,0,0.1,9-8.4,9c-2.1,0-4.1-0.8-5.5-2.3c-2.3-2.3-3.5-6.2-3.5-11.2c0-8.3,3.3-13.3,8.8-13.3c3.5,0,6,2.1,6.7,5.3h11.4
	C-113.7,288.4-115,285.9-118.1,283.5L-118.1,283.5z"/>
</svg>
