<?xml version="1.0" encoding="utf-8"?>
<!-- Generator: Adobe Illustrator 18.1.0, SVG Export Plug-In . SVG Version: 6.00 Build 0)  -->
<!DOCTYPE svg PUBLIC "-//W3C//DTD SVG 1.1//EN" "http://www.w3.org/Graphics/SVG/1.1/DTD/svg11.dtd">
<svg version="1.1" id="Layer_1" xmlns="http://www.w3.org/2000/svg" xmlns:xlink="http://www.w3.org/1999/xlink" x="0px" y="0px"
	 width="200px" height="200px" viewBox="-299 201 200 200" enable-background="new -299 201 200 200" xml:space="preserve">
<g>
	<path fill="#FFFFFF" d="M-120,305.8h1.6c2.4,0,2.6,0.9,2.7,4.2v2.1c0,1.5-0.1,2.1-0.8,2.7c-0.6,0.4-2,1.1-4,1.1
		c-2.4,0-4.8-1.1-6.4-3.2c-2.1-2.8-2.8-6.4-2.8-11c0-7.4,1.8-11.6,3.9-13.7c1.6-1.7,3.8-2.4,6-2.4c2,0,4,0.6,5.6,2
		c2.3,2.1,2.9,4.6,3.5,7.4h3v-12h-2.6c-0.3,1.1-0.4,1.4-0.8,2.2c-1.6-1.1-4.7-3.3-10.2-3.3c-8.3,0-17,5.8-17,19.2
		c0,6.7,2.1,10.2,2.9,11.6c3.3,5.3,8.2,7.3,13.5,7.3c1.9,0,3.9-0.3,5.8-0.8c3.7-1,4-1.1,8.7-1.3v-8.4c0-1.1,0-7.2,0-7.2H-120V305.8z
		"/>
	<path fill="#FFFFFF" d="M-141.5,310.5l-8.7-27.4h-6.3l-9.7,27.6c-1.6,4.3-2.4,4.6-5,4.8v3.6h11.6v-3.6c-1.7,0-2,0-2.5-0.2
		c-0.7-0.3-0.9-0.9-0.9-1.7c0-0.6,0.1-1.1,0.3-1.6l1.6-4.8h10l1.3,4.7c0.2,0.6,0.3,1.2,0.3,1.8c0,1.7-1.3,1.8-2.1,1.8h-1.3v3.6h16.9
		v-3.6C-138.9,315.5-139.9,314.7-141.5,310.5z M-159.8,303.6l3.6-10.4c0.3-1.2,0.3-1.5,0.4-2.6h0.3c0.1,1.2,0.1,1.5,0.4,2.6l3,10.4
		H-159.8z"/>
	<path fill="#FFFFFF" d="M-226.1,310.4l-8.7-27.4h-6.3l-9.7,27.6c-1.6,4.3-1.4,4.6-4,4.8v3.6h10.6v-3.6c-1.7,0-2,0-2.5-0.2
		c-0.7-0.3-0.9-0.9-0.9-1.7c0-0.6,0.1-1.1,0.3-1.6l1.6-4.8h10l1.3,4.7c0.2,0.6,0.3,1.2,0.3,1.8c0,1.7-1.3,1.8-2.1,1.8h-1.3v3.6h16.9
		v-3.6C-223.5,315.4-224.6,314.7-226.1,310.4z M-244.5,303.5l3.6-10.4c0.3-1.2,0.3-1.5,0.4-2.6h0.3c0.1,1.2,0.1,1.5,0.4,2.6l3,10.4
		H-244.5z"/>
	<path fill="#FFFFFF" d="M-276.3,303.6c-0.5,1.5-0.6,1.9-0.7,3.8c-0.1-1.6-0.1-2-0.7-3.7l-6.8-20.7h-14.4v3.6c2.2,0,3,0,3.7,0.7
		c0.9,0.9,0.9,2.3,0.9,3.5v19.8c0,1.1,0,2.5-0.7,3.5c-0.7,1.2-1.8,1.2-2.8,1.3h-1.3v3.6h13.3v-3.6c-2,0-2.2,0-2.6-0.1
		c-1.7-0.5-1.8-2.3-1.9-4.1l-0.3-18.3c0-0.7,0-1-0.1-1.6l0.3,0c0.2,1,0.2,1.2,0.5,2.1l8.7,25.6h3.5l8.2-24.1c0.5-1.5,0.7-2,0.9-3.7
		h0.3c-0.1,0.8-0.2,1.1-0.2,2.2l-0.2,17.6c0,1.4,0,3.8-2.8,4.2c-0.7,0.2-1.3,0.1-1.9,0.1v3.6h16.9v-3.6h-0.4c-2.5-0.1-3.2-1.1-3.3-4
		v-21.1c0-3.6,1.2-3.7,4.6-3.7V283h-13.8L-276.3,303.6z"/>
	<path fill="#FFFFFF" d="M-102.8,282c-2.1,0-3.8,1.7-3.8,3.8c0,2.1,1.7,3.8,3.8,3.8c2.1,0,3.8-1.7,3.8-3.8
		C-99,283.7-100.7,282-102.8,282z M-102.8,289c-1.7,0-3.2-1.4-3.2-3.2c0-1.7,1.4-3.2,3.2-3.2c1.7,0,3.2,1.4,3.2,3.2
		C-99.7,287.6-101.1,289-102.8,289z"/>
	<path fill="#FFFFFF" d="M-101.1,284.9c0-0.8-0.5-1.3-1.6-1.3h-1.7v4.4h0.8v-1.8h0.6l1.1,1.8h0.8l-1.1-1.9
		C-101.5,286.1-101.1,285.7-101.1,284.9z M-103.5,285.5v-1.2h0.6c0.5,0,1,0,1,0.6s-0.5,0.6-1,0.6H-103.5z"/>
	<path fill="#FFFFFF" d="M-177.6,311.3v-24.6h3.5c1.1,0,2.3,0,3.3,0.9c1.4,1.4,1.5,4,1.7,6.3h2.9l-0.5-10.8h-26h-2.8h-8.9v3.6h0.4
		c0.5,0,1.6,0,1.6,1.4c0,0.5-0.2,1-0.4,1.5l-4.9,8.3c-0.2,0.7-0.3,0.8-0.3,1.5h-0.3c0-0.9-0.1-1.1-0.5-1.9l-4.3-8.1
		c-0.2-0.5-0.4-1-0.4-1.5c0-1.2,0.9-1.2,1.3-1.2h1.7V283h-16.6v3.6c2.6-0.1,3.5,0.3,4.8,2.9l7.6,14.1v8.4c0,1.1,0,2.6-1.5,3.2
		c-0.6,0.2-1.2,0.3-2.8,0.2v3.6h16.8v-3.6c-2.1,0-2.1,0-2.5-0.1c-1.9-0.5-1.9-2.7-1.9-4.3v-7.3l8-13.4c1.8-3,2.7-3.6,5.9-3.7v0l7,0
		v24.8c0,1.3,0,3.2-1.6,3.8c-0.6,0.2-0.9,0.2-2.9,0.2v3.6h17.2v-3.6c-1.8,0-2.1,0-2.6-0.2C-177.6,314.7-177.6,312.6-177.6,311.3z"/>
</g>
</svg>
