<?xml version="1.0" encoding="utf-8"?>
<!-- Generator: Adobe Illustrator 18.1.1, SVG Export Plug-In . SVG Version: 6.00 Build 0)  -->
<!DOCTYPE svg PUBLIC "-//W3C//DTD SVG 1.1//EN" "http://www.w3.org/Graphics/SVG/1.1/DTD/svg11.dtd">
<svg version="1.1" id="Layer_1" xmlns="http://www.w3.org/2000/svg" xmlns:xlink="http://www.w3.org/1999/xlink" x="0px" y="0px"
	 width="200px" height="200px" viewBox="64 126 200 200" enable-background="new 64 126 200 200" xml:space="preserve">
<g>
	<path fill="#0066B0" d="M126.2,218.8c-2.3,0-6,1.4-6.6,3.3l-0.3-2.4h-7.4V240h7.8V229c0-1.5,1.1-3.7,3.1-3.7c2.2,0,2.6,1.6,2.6,3.8
		v11h8.2v-12.3C133.6,222.1,131.5,218.8,126.2,218.8z"/>
	<path fill="#0066B0" d="M77.7,211.3H64v28.8h9.1v-8.6h4.6c8.5,0,12-4.2,12-10.4C89.7,215.3,86,211.3,77.7,211.3z M76.8,224.5h-3.7
		v-6.2h3.7c2,0,4.6,0.6,4.6,3.2C81.3,224,79,224.5,76.8,224.5z"/>
	<path fill="#0066B0" d="M216.7,218.8c-2.3,0-6,1.4-6.7,3.3l-0.2-2.4h-7.5v20.4h7.9V229c0-1.5,1.1-3.7,3-3.7c2.2,0,2.7,1.6,2.7,3.8
		v11.1h8.2v-12.4C224.1,222.1,221.9,218.8,216.7,218.8z"/>
	<path fill="#0066B0" d="M165.1,224.7c0-1.1,1.3-1.3,2.7-1.2c1.1,0.1,1.6,0.3,2.1,0.9c0.3,0.5,0.6,0.9,0.6,1.5h6.9
		c0.2-6.2-6-7.1-10.6-7.1c-4.6,0-8.9,1.3-8.9,7c0,8.1,12.4,5.1,12.4,8.5c0,1.4-1.1,1.8-2.6,1.8c-0.9,0-1.6-0.4-2.2-0.8
		c-0.5-0.4-0.9-1.6-0.9-2.4h-7.4c0,5.6,5.6,7.9,10.1,8c7.1,0,10.7-2.4,10.7-7.6C178,225.7,165.2,227.8,165.1,224.7z"/>
	<path fill="#0066B0" d="M245.7,235c-2.4,0-3.7-2.4-3.7-5.2c0-2.4,0.8-5.4,3.9-5.4c1.1,0,1.9,0.9,2.2,1.3c0.7,0.8,0.7,1.5,0.7,2h7.2
		c0.1-4.6-3.8-8.8-10.7-8.8c-5,0-10.9,3-10.9,10.9c0,6.5,4.6,11,11,11c7.9,0,10.8-5,10.7-9.3h-7.2C248.9,233,247.8,235,245.7,235z"
		/>
	<path fill="#0066B0" d="M110,227.9c0-4.5-0.9-9-9.6-9c-8.9,0-10.2,3.6-10.2,7.8H97c0.2-2.4,1.3-2.8,2.9-2.8c0.9,0,2.5-0.1,2.5,1.4
		c0,4.4-13.3,0.3-13.3,9.3c0,5.4,5,5.8,7.5,5.9c2.6,0,4.2-0.7,5.8-2l0.8,1.7l7.7-0.1v-0.2c-0.8-0.9-0.9-1.5-0.9-2.7V227.9z
		 M98.6,236c-1.6,0-2.4-0.7-2.4-2c0.1-2,3.6-2,6.3-3.3C102.7,233.2,101.2,236,98.6,236z"/>
	<path fill="#0066B0" d="M155.8,227.9c0-4.5-0.9-9-9.5-9c-9,0-10.2,3.6-10.2,7.8h6.8c0.2-2.4,1.2-2.8,2.9-2.8c0.8,0,2.5-0.1,2.5,1.4
		c-0.1,4.4-13.4,0.3-13.4,9.3c0,5.4,5,5.8,7.6,5.9c2.5,0,4.2-0.7,5.8-2l0.8,1.7l7.6-0.1v-0.2c-0.8-0.9-0.9-1.5-0.9-2.7V227.9z
		 M144.4,236c-1.7,0-2.4-0.7-2.4-2c0-2,3.6-2,6.3-3.3C148.6,233.2,147,236,144.4,236z"/>
	<rect x="225.5" y="211.2" fill="#0066B0" width="7.6" height="5.9"/>
	<rect x="225.5" y="219.7" fill="#0066B0" width="7.6" height="20.4"/>
	<path fill="#0066B0" d="M190.1,219c-6.7,0-11,4.7-11,10.9c0,6.3,4.2,10.9,11,10.9c6.7,0,10.9-4.6,10.9-10.9
		C201,223.7,196.8,219,190.1,219z M190.1,235.6c-2.8-0.1-3.6-3.2-3.6-5.7c0.1-2.4,0.8-5.6,3.6-5.6c2.8,0,3.5,3.2,3.5,5.6
		C193.6,232.4,192.9,235.6,190.1,235.6z"/>
	<path fill="#0066B0" d="M260.9,233.3c-1.7,0-3.1,1.4-3.1,3.1c0,1.7,1.4,3.1,3.1,3.1c1.7,0,3.1-1.4,3.1-3.1
		C264,234.7,262.6,233.3,260.9,233.3z M261,239.1c-1.5,0-2.8-1.2-2.8-2.7c0-1.5,1.2-2.8,2.8-2.8c1.5,0,2.7,1.2,2.7,2.8
		C263.6,237.9,262.4,239.1,261,239.1z"/>
	<path fill="#0066B0" d="M262.5,235.6c0-0.8-0.6-1-1.2-1h-1.5v3.5h0.4v-1.6h0.8l1,1.6h0.5l-1.1-1.6
		C262,236.4,262.5,236.2,262.5,235.6z M260.8,236.1h-0.7v-1.2h1c0.4,0,0.9,0.1,0.9,0.7C262,236.2,261.3,236.1,260.8,236.1z"/>
</g>
</svg>
