<?xml version="1.0" encoding="utf-8"?>
<!-- Generator: Adobe Illustrator 18.1.1, SVG Export Plug-In . SVG Version: 6.00 Build 0)  -->
<!DOCTYPE svg PUBLIC "-//W3C//DTD SVG 1.1//EN" "http://www.w3.org/Graphics/SVG/1.1/DTD/svg11.dtd">
<svg version="1.1" id="Layer_1" xmlns="http://www.w3.org/2000/svg" xmlns:xlink="http://www.w3.org/1999/xlink" x="0px" y="0px"
	 width="200px" height="200px" viewBox="64 126 200 200" enable-background="new 64 126 200 200" xml:space="preserve">
<path fill="#CCCED3" d="M263.9,209.1c-1.4-8.8-17-14.4-40.4-15.7c-29.4-1.7-88.4,5.6-126.8,21.8c0.8-0.2,1.7-0.3,2.7-0.3
	c2.9,0,7,0.7,7,5.3v1.5h-5.2c0,0,0-0.9,0-1.3c0-1.1-0.7-1.9-1.9-1.9c-1.3,0-1.8,0.7-1.9,1.4c-0.1,0.2-0.1,0.7,0,1.1
	c0.6,2.4,8.5,3.7,9.4,8.1c0.1,0.4,0.3,1.6,0,3.4c-0.5,3.5-3.6,4.8-7.4,4.8c-3.9,0-7.6-1.4-7.6-6.1v-1.6h5.6v2c0,1.1,0.8,1.9,2.1,1.9
	c1.4,0,1.9-0.7,2-1.4c0.1-0.4,0.2-1,0-1.5c-1.1-2.7-8.5-3.9-9.4-8.2c-0.2-1.1-0.2-1.9,0-2.8c0.2-1.4,0.9-2.4,1.8-3.2
	c-9.6,4.3-17.8,9.1-23.6,14.6c-4.5,4.2-6.8,8.2-6.2,12c1.1,6.8,8.9,10.7,20.3,13.2c18.6,4.1,50,3.5,81.6-1.5
	c24.1-3.8,48.3-10.1,66.7-18.1c-0.8,0.1-1.6,0.2-2.4,0.2c-3.7,0-7-1.3-7.3-5.1c-0.1-0.7-0.1-1-0.1-1.4v-8.8c0-0.4,0.1-1,0.1-1.4
	c0.5-3.9,3.6-5.1,7.3-5.1s6.9,1.2,7.3,5.1c0.1,0.7,0,1.4,0,1.4v0.7h-5.2V221c0,0,0-0.5-0.1-0.8c-0.1-0.5-0.5-1.5-2.1-1.5
	c-1.5,0-2,1-2.1,1.5c-0.1,0.3-0.1,0.6-0.1,1v9.5c0,0.3,0,0.6,0.1,0.8c0.1,0.6,0.6,1.5,2.1,1.5s2-1,2.1-1.5c0-0.2,0.1-0.5,0.1-0.8v-3
	h-2.1v-3h7.4v5.6c0,0.4,0,0.7-0.1,1.4c-0.1,1.5-0.8,2.7-1.7,3.5c7.8-3.6,14.5-7.6,19.4-11.8C260.6,218.9,264.6,213.8,263.9,209.1z
	 M121.6,236.5l-2.8-19.3l-2.9,19.3h-5.6l3.9-20.8h9.2l3.8,20.8H121.6z M149.5,236.5l-0.1-19.3l-3.6,19.3h-5.3l-3.6-19.3l-0.1,19.3
	h-5.2l0.4-20.8h8.5l2.6,16.3l2.6-16.3h8.5l0.5,20.8H149.5z M174.5,232.5c-0.5,3.4-3.6,4.7-7.3,4.7c-3.9,0-7.5-1.4-7.5-6v-1.6h5.5v2
	c0,1.2,0.8,1.9,2.1,1.9c1.4,0,1.8-0.7,2-1.4c0.1-0.4,0.2-1,0-1.5c-1.1-2.7-8.4-3.9-9.3-8.1c-0.2-1.1-0.1-1.9,0-2.8
	c0.5-3.4,3.5-4.6,7.2-4.6c2.9,0,6.9,0.7,6.9,5.2v1.5H169c0,0,0-0.9,0-1.3c0-1.2-0.7-1.9-1.9-1.9c-1.3,0-1.8,0.7-1.9,1.4
	c-0.1,0.3-0.1,0.7,0,1.1c0.6,2.4,8.4,3.7,9.3,8C174.6,229.6,174.7,230.7,174.5,232.5z M194,232c-0.4,3.9-3.5,5.2-7.3,5.2
	c-3.9,0-6.9-1.3-7.3-5.2c0-0.2,0-1,0-1.4v-14.9h5.3v15.4c0,0.3,0,0.6,0.1,0.8c0.1,0.5,0.6,1.5,2,1.5c1.4,0,1.9-1,2-1.5
	c0-0.2,0-0.5,0-0.8v-15.4h5.2v14.9C194.1,231,194,231.8,194,232z M217.4,236.2H210l-5.3-17.3l0.3,17.3h-5.1v-20.6h7.7l4.9,16.8
	l-0.2-16.8h5.1V236.2z"/>
</svg>
