<?xml version="1.0" encoding="utf-8"?>
<!-- Generator: Adobe Illustrator 18.1.0, SVG Export Plug-In . SVG Version: 6.00 Build 0)  -->
<!DOCTYPE svg PUBLIC "-//W3C//DTD SVG 1.1//EN" "http://www.w3.org/Graphics/SVG/1.1/DTD/svg11.dtd">
<svg version="1.1" id="Layer_1" xmlns="http://www.w3.org/2000/svg" xmlns:xlink="http://www.w3.org/1999/xlink" x="0px" y="0px"
	 width="200px" height="200px" viewBox="-299 201 200 200" enable-background="new -299 201 200 200" xml:space="preserve">
<path fill-rule="evenodd" clip-rule="evenodd" fill="#FFFFFF" d="M-99.1,284c-1.4-8.8-17-14.4-40.4-15.7
	c-29.4-1.7-88.4,5.6-126.8,21.8c0.8-0.2,1.7-0.3,2.7-0.3c2.9,0,7,0.7,7,5.3v1.5h-5.2c0,0,0-0.9,0-1.3c0-1.1-0.7-1.9-1.9-1.9
	c-1.3,0-1.8,0.7-1.9,1.4c-0.1,0.2-0.1,0.7,0,1.1c0.6,2.4,8.5,3.7,9.4,8.1c0.1,0.4,0.3,1.6,0,3.4c-0.5,3.5-3.6,4.8-7.4,4.8
	c-3.9,0-7.6-1.4-7.6-6.1v-1.6h5.6l0,2c0,1.1,0.8,1.9,2.1,1.9c1.4,0,1.9-0.7,2-1.4c0.1-0.4,0.2-1,0-1.5c-1.1-2.7-8.5-3.9-9.4-8.2
	c-0.2-1.1-0.2-1.9,0-2.8c0.2-1.4,0.9-2.4,1.8-3.2c-9.6,4.3-17.8,9.1-23.6,14.6c-4.5,4.2-6.8,8.2-6.2,12c1.1,6.8,8.9,10.7,20.3,13.2
	c18.6,4.1,50,3.5,81.6-1.5c24.1-3.8,48.3-10.1,66.7-18.1c-0.8,0.1-1.6,0.2-2.4,0.2c-3.7,0-7-1.3-7.3-5.1c-0.1-0.7-0.1-1-0.1-1.4
	v-8.8c0-0.4,0.1-1,0.1-1.4c0.5-3.9,3.6-5.1,7.3-5.1c3.7,0,6.9,1.2,7.3,5.1c0.1,0.7,0,1.4,0,1.4v0.7h-5.2v-1.2c0,0,0-0.5-0.1-0.8
	c-0.1-0.5-0.5-1.5-2.1-1.5c-1.5,0-2,1-2.1,1.5c-0.1,0.3-0.1,0.6-0.1,1v9.5c0,0.3,0,0.6,0.1,0.8c0.1,0.6,0.6,1.5,2.1,1.5
	c1.5,0,2-1,2.1-1.5c0-0.2,0.1-0.5,0.1-0.8v-3h-2.1v-3h7.4v5.6c0,0.4,0,0.7-0.1,1.4c-0.1,1.5-0.8,2.7-1.7,3.5
	c7.8-3.6,14.5-7.6,19.4-11.8C-102.4,293.8-98.4,288.7-99.1,284L-99.1,284z M-168.9,290.6h-5.3V306c0,0.3,0,0.6,0,0.8
	c-0.1,0.5-0.6,1.5-2,1.5c-1.4,0-1.9-1-2-1.5c-0.1-0.2-0.1-0.5-0.1-0.8v-15.4h-5.3v14.9c0,0.4,0,1.2,0,1.4c0.4,3.9,3.4,5.2,7.3,5.2
	c3.8,0,6.9-1.3,7.3-5.2c0-0.2,0.1-1,0-1.4V290.6L-168.9,290.6z M-217.3,290.6l-2.6,16.3l-2.6-16.3h-8.5l-0.4,20.8h5.2l0.1-19.3
	l3.6,19.3h5.3l3.6-19.3l0.1,19.3h5.2l-0.5-20.8H-217.3L-217.3,290.6z M-248.8,290.6l-3.9,20.8h5.6l2.9-19.3l2.8,19.3h5.6l-3.8-20.8
	H-248.8L-248.8,290.6z M-150.5,307.3l-4.9-16.8h-7.7v20.6h5.1l-0.3-17.3l5.3,17.3h7.4v-20.6h-5.1L-150.5,307.3L-150.5,307.3z
	 M-197.8,296c-0.1-0.4-0.1-0.8,0-1.1c0.1-0.7,0.6-1.4,1.9-1.4c1.2,0,1.9,0.7,1.9,1.9c0,0.4,0,1.3,0,1.3h5.1v-1.5
	c0-4.5-4-5.2-6.9-5.2c-3.7,0-6.7,1.2-7.2,4.6c-0.1,0.9-0.2,1.7,0,2.8c0.9,4.2,8.2,5.4,9.3,8.1c0.2,0.5,0.1,1.1,0,1.5
	c-0.2,0.7-0.6,1.4-2,1.4c-1.3,0-2.1-0.7-2.1-1.9l0-2h-5.5v1.6c0,4.6,3.6,6,7.5,6c3.7,0,6.8-1.3,7.3-4.7c0.2-1.8,0.1-2.9,0-3.4
	C-189.4,299.7-197.2,298.4-197.8,296L-197.8,296z"/>
</svg>
