<?xml version="1.0" encoding="utf-8"?>
<!-- Generator: Adobe Illustrator 18.1.0, SVG Export Plug-In . SVG Version: 6.00 Build 0)  -->
<!DOCTYPE svg PUBLIC "-//W3C//DTD SVG 1.1//EN" "http://www.w3.org/Graphics/SVG/1.1/DTD/svg11.dtd">
<svg version="1.1" id="Layer_1" xmlns="http://www.w3.org/2000/svg" xmlns:xlink="http://www.w3.org/1999/xlink" x="0px" y="0px"
	 width="200px" height="200px" viewBox="-299 201 200 200" enable-background="new -299 201 200 200" xml:space="preserve">
<g>
	<path fill-rule="evenodd" clip-rule="evenodd" fill="#FFFFFF" d="M-126.7,248.2c-1.4-6.3-5.2-8.8-8.7-10.5
		c-5.6-2.5-9.6-2.3-20.4,1.3c0,0-40.8,13-43.1,13.8l-43.2-13.8c-10.9-3.6-14.9-3.9-20.4-1.3c-3.5,1.7-7.3,4.2-8.7,10.5
		c-1.4,6.2-2.7,44.9-2.7,52c0,24.2,0.4,50.7,5.8,59.3c2.8,4.5,7.9,6.7,15.1,6.4c5.2-0.2,9.9-1.6,11.8-2.2c0,0,40.1-12.4,42.4-13.2
		l42.4,13.2c1.8,0.6,6.6,2,11.7,2.2c7.2,0.3,12.3-1.9,15.1-6.4c5.3-8.6,5.8-35.1,5.8-59.3C-124,293.1-125.3,254.4-126.7,248.2z
		 M-153,330.9c-4.5,2.3-42.1,18.5-46,19c-3.9-0.5-41.5-16.7-46-19c-4.1-1.9-20.6-8.7-20.6-30.4c0-19,15.7-26.6,26.4-31.2
		c4.6-2,38.9-15.6,40.2-15.6c1.3,0,35.5,13.5,40.1,15.6c10.7,4.7,26.4,12.2,26.4,31.2C-132.5,322.1-149,328.9-153,330.9z"/>
	<path fill-rule="evenodd" clip-rule="evenodd" fill="#FFFFFF" d="M-153,310.6c-2,0-3.6,1.6-3.6,3.6c0,2,1.6,3.6,3.6,3.6
		c2,0,3.6-1.6,3.6-3.6C-149.4,312.2-151,310.6-153,310.6z M-153,317.2c-1.6,0-3-1.3-3-3c0-1.7,1.4-3,3-3c1.6,0,3,1.3,3,3
		C-150,315.8-151.4,317.2-153,317.2z"/>
	<path fill-rule="evenodd" clip-rule="evenodd" fill="#FFFFFF" d="M-232.2,279.6c2.7-3.3,5.9-2.3,7.2-0.9c1.9,2.1,4.2,5.7,6.3,4.1
		c2.1-1.6,0.8-4.6-0.2-5.7c-1-1.2-3.2-3.3-8.1-2.8c-3.7,0.4-5.8,2.9-7,4.2c-1.2,1.3-4.8,5.5-4.3,13.8c0.4,6,2.2,12.1,2.2,15
		c0,2.9-0.3,5.5-2.7,6.8c-2.4,1.3-6.8-0.1-9.9-5.3c-0.7-1.2-2.7-1.9-4.1-0.8c-1.4,1.2-1.1,4.2,0.4,5.8c1.5,1.6,5.5,5.5,11.9,3.2
		c6.4-2.3,10.4-10.9,9.6-16.8C-231.6,294.2-234.9,282.9-232.2,279.6z"/>
	<path fill-rule="evenodd" clip-rule="evenodd" fill="#FFFFFF" d="M-156.9,288l-5.5,12.8c-1.3,2.9-6.8,13.9-8.8,13.9
		c-2,0,0.5-6.1,1.4-8.2l8-18.4h-6l-5.1,11.9c-1.7,4.2-7.7,14.7-9.8,14.7c-2.1,0,0.6-6.7,1.9-10l13.1-30.2h-6.1l-10.8,25.2
		c-2.6,6-8.4,15-9.9,15c-1.6,0,0-5.1,1.5-8.6l7.8-18h-5.6l-1.7,4.2c0.1-1.3,0.3-4.8-2.3-4.8c-4.5,0-9.9,7.1-12.3,11.2
		c-2.7,4.7-10.9,17-15.1,17.5c-2.7-0.2-1.4-8.4-0.7-10.3c1.6,0.6,4.7-0.4,6.3-1.3c1.1-0.6,8.2-6.3,8.2-12.3c0-5.8-3.6-5.5-5.5-5
		c-9.5,3.1-16,15.5-15.4,25c0.2,2.5,1.7,5.8,4.9,5.8c5.6,0,11.7-9.7,13.1-11.3c-0.3,1.1-2.8,11.3,1.9,11.3c4.3,0,8.6-7,9.4-8.2
		c-0.1,0.9-1.6,8.2,1.8,8.2c4.1,0,8.1-7.1,9.7-9.2c-0.3,1-2,9.2,2,9.2c4.1,0,8-6.6,9.5-8.6c-0.3,2.1-1.9,8.6,2.3,8.6
		c3.9,0,6.9-5.8,8.3-7.6l-4.4,10c-2.2,5-4.1,4.9-5.5,4.8c-1.5-0.1-4.7-2.2-6.1-3.1c-1.5-0.9-3.3-1.2-4.1-0.5c-0.8,0.7-1,3.2,1.2,4.5
		c2.1,1.3,5.8,2.6,12.6-0.6c6.8-3.2,10.6-11.2,12-14.6l9.9-23H-156.9z M-212.7,288.5c2.3,0.2-3.2,12.2-6.6,14.8
		c-0.9,0.7-2.1,1.9-3.4,1.2C-222.6,301.9-216.3,288.1-212.7,288.5z M-206.1,314.7c-2.3,0,1.3-10.3,2.5-13c1.3-2.7,7-12.7,9-12.3
		c1.3,0.4-0.1,6.5-2.7,12.3C-199.4,306.5-203.8,314.7-206.1,314.7z"/>
	<path fill-rule="evenodd" clip-rule="evenodd" fill="#FFFFFF" d="M-151.3,313.2c0-0.8-0.7-1.1-1.4-1.1h-1.7v4h0.6v-1.9h0.7l1,1.9
		h0.7l-1-1.9C-151.8,314.3-151.3,314-151.3,313.2z M-153.2,313.8h-0.6v-1h1c0.5,0,0.9,0,0.9,0.5
		C-151.9,313.9-152.6,313.8-153.2,313.8z"/>
</g>
</svg>
