<?xml version="1.0" encoding="utf-8"?>
<!-- Generator: Adobe Illustrator 18.1.1, SVG Export Plug-In . SVG Version: 6.00 Build 0)  -->
<!DOCTYPE svg PUBLIC "-//W3C//DTD SVG 1.1//EN" "http://www.w3.org/Graphics/SVG/1.1/DTD/svg11.dtd">
<svg version="1.1" id="Layer_1" xmlns="http://www.w3.org/2000/svg" xmlns:xlink="http://www.w3.org/1999/xlink" x="0px" y="0px"
	 width="200px" height="200px" viewBox="64 126 200 200" enable-background="new 64 126 200 200" xml:space="preserve">
<g>
	<polygon fill="#CCCED3" points="105.4,212.3 105.4,239.7 114.8,239.7 114.8,228.8 132.8,228.8 132.8,239.7 142.1,239.7 
		142.1,212.3 132.8,212.3 132.8,222.8 114.8,222.8 114.8,212.3 	"/>
	<path fill="#CCCED3" d="M163.3,218.2l5.9,9.8h-11.9L163.3,218.2z M172.7,233.7l3.6,6h10.9l-16.5-27.4h-3.7h-7.1l-16.5,27.4h7.1
		l3.6-6H172.7z"/>
	<path fill="#CCCED3" d="M227.6,212.3v27.4h9v-9.9c3,0.6,6.4,0.9,9.9,0.9c11.9,0,17.3-4.3,17.4-9.6c0.1-6.3-7-9.9-18.9-9.9
		c-3.1,0-4.2,0.1-8.4,0.4C232.4,211.8,227.6,212.3,227.6,212.3z M236.6,216.6c0,0,2.2-0.3,4.2-0.4c2-0.1,2.5-0.1,3.9-0.1
		c5.5,0,8.8,1.8,8.8,5c0,2.7-2.6,4.9-8.1,4.9c-1.7,0-4.2-0.2-5.9-0.5c-1.7-0.2-2.9-0.8-2.9-0.8V216.6z"/>
	<path fill="#CCCED3" d="M188.3,212.3v27.4h9v-23c0,0,2.2-0.3,4.2-0.4c2-0.1,2.5-0.1,3.9-0.1c5.5,0,9.2,1.8,9.1,5
		c0,2.7-2.9,4.2-8.5,4.2c-1.7,0-3.7-0.2-5.4-0.5c-0.1,0-1.9,2.9-1.9,2.9l13.5,11.9h13.5l-11.9-10.3c7.5-1.2,11.2-4.6,11.2-8.3
		c0-7.1-7.1-10.1-19.3-9.9c-3.1,0-4.2,0.1-8.4,0.4C193,211.8,188.3,212.3,188.3,212.3z"/>
	<path fill="#CCCED3" d="M99.4,220.6c0,0,3.1-5.8,3-6c-0.1-0.2-6.3-3.5-18.7-3.4c-19.2,0.2-19.1,8.2-19.1,8.2s-1.9,7.5,13,9
		c9.2,0.9,15.7,2.5,15.7,4.7c0,2.2-3.9,2.1-5.6,2c-15-1.2-20.4-5.4-20.4-5.4l-3.3,6.7c0,0,7.2,4.5,22.3,4.4
		c15.1-0.1,17.1-3.7,17.4-8.5c0.3-6-8-8.3-8-8.3s-4.6-1-9.4-1.7c-5.5-0.8-11.2-1.7-10.5-3.8c0-0.1,1.6-3.2,13.1-1
		C94.5,218.4,99.4,220.6,99.4,220.6z"/>
</g>
</svg>
