<?xml version="1.0" encoding="utf-8"?>
<!-- Generator: Adobe Illustrator 18.1.0, SVG Export Plug-In . SVG Version: 6.00 Build 0)  -->
<!DOCTYPE svg PUBLIC "-//W3C//DTD SVG 1.1//EN" "http://www.w3.org/Graphics/SVG/1.1/DTD/svg11.dtd">
<svg version="1.1" id="Layer_1" xmlns="http://www.w3.org/2000/svg" xmlns:xlink="http://www.w3.org/1999/xlink" x="0px" y="0px"
	 width="200px" height="200px" viewBox="-299 201 200 200" enable-background="new -299 201 200 200" xml:space="preserve">
<g>
	<path fill="#FFFFFF" d="M-117,303.7l2.9-10.2h0l2.9,10.2H-117z M-107.6,315.7h8.6l-8.9-29.4h-12.3l-8.9,29.4h8.6l1.6-5.4h9.7
		L-107.6,315.7z"/>
	<path fill="#FFFFFF" d="M-261.5,301c0-1.6,0-2.6,0.1-3.3c0.2-4.5,2-5.1,5.5-5.1c3.5,0,5.3,0.5,5.5,5.1c0,0.7,0.1,1.7,0.1,3.3
		c0,1.6,0,2.6-0.1,3.3c-0.2,4.5-2,5.1-5.5,5.1c-3.5,0-5.3-0.5-5.5-5.1C-261.4,303.6-261.5,302.6-261.5,301 M-255.9,316.2
		c8.9,0,13.2-1.6,13.8-9.6c0.1-1.9,0.2-3.9,0.2-5.7c0-1.8,0-3.8-0.2-5.7c-0.6-8-4.9-9.6-13.8-9.6c-8.9,0-13.2,1.6-13.8,9.6
		c-0.1,1.9-0.2,3.9-0.2,5.7c0,1.8,0,3.8,0.2,5.7C-269,314.7-264.7,316.2-255.9,316.2"/>
	<polygon fill-rule="evenodd" clip-rule="evenodd" fill="#FFFFFF" points="-299,286.3 -299,293.6 -290.2,293.6 -290.2,315.7 
		-281.4,315.7 -281.4,293.6 -272.6,293.6 -272.6,286.3 	"/>
	<rect x="-172.4" y="286.3" fill-rule="evenodd" clip-rule="evenodd" fill="#FFFFFF" width="8.3" height="29.4"/>
	<polygon fill-rule="evenodd" clip-rule="evenodd" fill="#FFFFFF" points="-197.6,297 -197.6,286.3 -205.9,286.3 -205.9,315.7 
		-197.6,315.7 -197.6,304.4 -188,304.4 -188,315.7 -179.7,315.7 -179.7,286.3 -188,286.3 -188,297 	"/>
	<path fill="#FFFFFF" d="M-148.3,293h5.8c1.5,0,2.4,0.7,2.4,2.4c0,1.5-0.9,2.4-2.4,2.4h-5.8V293z M-148.3,303.6h5.8
		c2.3,0,2.8,1,2.8,2.7c0,1.6-0.9,2.7-2.8,2.7h-5.8V303.6z M-136.6,300.3c3.7-0.9,4.8-3.2,4.8-6.4c0-6.5-4.1-7.7-9.9-7.7h-15v29.4
		h15.7c7.2,0,9.7-3.1,9.7-7.9C-131.2,304.4-132,301.5-136.6,300.3"/>
	<path fill="#FFFFFF" d="M-237.1,306.1h7.9c0,1.4,0.2,2.4,0.9,2.9c0.8,0.6,1.5,0.8,3.8,0.8c2.3,0,4.7,0,4.7-2.8
		c0-2.2-1.4-2.7-3.9-2.8c-6.3-0.3-8.6-0.5-10.9-2.3c-1.6-1.2-2.4-3.5-2.4-6.6c0-5.3,1.9-7.2,4.5-8.5c2.8-1.3,13.6-1.3,16.5,0
		c3.7,1.7,3.8,5.4,3.8,8.8h-7.9c0-1.7-0.4-2.2-0.7-2.5c-0.8-0.7-2-0.9-3.7-0.9c-2,0-4.4,0.1-4.4,2.6c0,1.9,0.8,2.7,3,2.8
		c2.9,0.2,8.8,0.4,10.8,1.6c2.9,1.7,3.7,4,3.7,7.8c0,5.5-2,7.1-4.7,8.3c-3.1,1.4-13.7,1.4-17.1-0.1
		C-237,313.4-237.1,310.1-237.1,306.1"/>
</g>
</svg>
