<?xml version="1.0" encoding="utf-8"?>
<!-- Generator: Adobe Illustrator 18.1.0, SVG Export Plug-In . SVG Version: 6.00 Build 0)  -->
<!DOCTYPE svg PUBLIC "-//W3C//DTD SVG 1.1//EN" "http://www.w3.org/Graphics/SVG/1.1/DTD/svg11.dtd">
<svg version="1.1" id="Layer_1" xmlns="http://www.w3.org/2000/svg" xmlns:xlink="http://www.w3.org/1999/xlink" x="0px" y="0px"
	 width="200px" height="200px" viewBox="-299 201 200 200" enable-background="new -299 201 200 200" xml:space="preserve">
<path fill="#FFFFFF" d="M-100.8,281.7c0-0.8-0.5-1.1-1.4-1.1h-1.4v3.7h0.6v-1.6h0.6l1,1.6h0.7l-1.1-1.6
	C-101.2,282.7-100.8,282.4-100.8,281.7z M-103,282.3v-1.1h0.7c0.4,0,0.8,0.1,0.8,0.5c0,0.5-0.4,0.6-0.9,0.6H-103z"/>
<path fill="#FFFFFF" d="M-102.3,279.1c-1.8,0-3.3,1.3-3.3,3.4c0,1.9,1.4,3.4,3.3,3.4c1.8,0,3.3-1.3,3.3-3.4
	C-99,280.4-100.5,279.1-102.3,279.1z M-102.3,285.3c-1.6,0-2.6-1.3-2.6-2.8c0-1.6,1.1-2.8,2.6-2.8c1.5,0,2.6,1.2,2.6,2.8
	C-99.7,284.1-100.9,285.3-102.3,285.3z"/>
<polygon fill="#FFFFFF" points="-261.4,304.7 -268.2,279.6 -273.6,279.6 -280.4,304.7 -287.1,279.6 -292.6,279.6 -283.1,314.2 
	-277.6,314.2 -270.8,289.1 -264.1,314.2 -258.6,314.2 -249.1,279.6 -254.6,279.6 "/>
<path fill="#FFFFFF" d="M-232.1,314.2h5.5v-15.1c0-7.6-3-9.6-7.4-9.6c-2.5,0-4.5,0.4-7,1.4h-0.2l0.1-3.2v-8.5l-5.5,0.4v34.5h5.5
	v-19.1c1.4-0.4,2.7-0.7,4.3-0.7c2.5,0,4.8,0.6,4.8,5.2V314.2z"/>
<rect x="-221.9" y="289.9" fill="#FFFFFF" width="5.5" height="24.4"/>
<path fill="#FFFFFF" d="M-219.1,287c2.7,0,3.3-1.7,3.3-3.5c0-1.8-0.4-3.5-3.3-3.5c-2.7,0-3.2,1.6-3.2,3.5
	C-222.4,285.3-221.8,287-219.1,287z"/>
<path fill="#FFFFFF" d="M-206.3,295.6c1.4-0.6,2.6-1,4.1-1c1,0,2.1,0.1,3.1,0.3v-5.4c-0.4-0.1-0.8-0.1-1.1-0.1c-3,0-5.3,1.1-6.7,2.3
	h-0.3l-0.7-2h-3.7v24.4h5.5V295.6z"/>
<polygon fill="#FFFFFF" points="-191.4,279.2 -196.8,279.7 -196.8,314.2 -191.4,314.2 "/>
<path fill="#FFFFFF" d="M-128.1,289.5c-7.7,0-11,4.6-11,12.7c0,7.6,2.8,12.6,10.9,12.6c8,0,10.8-5,10.8-12.6
	C-117.4,294.1-120.4,289.5-128.1,289.5z M-128.3,310.4c-4.4,0-5.3-3.8-5.3-8.2c0-4.8,1.1-8.4,5.5-8.4c4.4,0,5.1,3.8,5.1,8.4
	C-123,306.8-124,310.4-128.3,310.4z"/>
<polygon fill="#FFFFFF" points="-113.8,314.2 -108.3,314.2 -108.3,279.2 -113.8,279.7 "/>
<path fill="#FFFFFF" d="M-151.3,263.3c-4.6-4.8-21.6,4.3-38.9,18.7v1.9c17-14.2,33-22.5,36.7-18.6c1.9,2,0.2,8.2-4,15.4
	c-0.6,0.3-1.3,0.9-1.9,1.8c-2.4,3.5-5.4,7.3-8.6,11.2c-1.5-2.8-4-4.1-6.9-4.1c-2.7,0-5.5,1.2-7.1,2.1h-0.2l-0.4-1.8h-4.1v22.9
	c-20,17.7-38.3,28-42.3,23.8c-2.5-2.6,1.6-11.1,9-21.1h-2c-7.8,10.7-12.1,19.9-8.9,23.2c4.8,5.1,24.6-5.3,44.4-22.1
	c0,0-0.1,0.1-0.1,0.1v9.1l5.5-0.6v-11.2h0.2c1.5,0.3,3.2,0.5,4.8,0.5c6.4,0,10.2-4.2,10.2-12.8c0-1.6-0.1-3.1-0.4-4.4
	c-0.3,0.4-0.7,0.8-1.1,1.1c4.7-4.9,8.5-9.4,11.2-13.6c1.4-2.1,1.4-3.5,0.8-4.1C-150.5,272.6-148.6,266.2-151.3,263.3z M-181.7,308
	c0.2-5.2,0.2-7.7,0.2-12.6c1.3-0.4,2.7-0.7,4.1-0.7c2.8,0,4.6,0.8,5.3,3.5c-2.9,3.2-6,6.4-9.2,9.4
	C-181.4,307.8-181.6,307.9-181.7,308z M-177.5,309.8c-0.6,0-1.2,0-1.7,0c0.1-0.1,0.2-0.2,0.3-0.3c2.5-2.3,4.8-4.6,6.9-6.7
	C-172.3,308.3-174.4,309.8-177.5,309.8z"/>
<path fill="#FFFFFF" d="M-243.5,271.6c0.6-0.4,1.1-0.7,1.4-1.1c0.4-0.4,0.6-0.8,0.7-1.2c0.1-0.4,0.1-0.8-0.1-1.2
	c-0.2-0.4-0.5-0.8-0.9-1.2c-0.4-0.4-1-0.8-1.7-1.1c-0.7-0.4-1.5-0.7-2.5-1c-0.9-0.3-2-0.6-3.2-0.9c-1.2-0.3-2.4-0.5-3.8-0.8
	c-1.4-0.2-2.8-0.4-4.3-0.6c-1.5-0.2-3.1-0.3-4.7-0.4c-1.6-0.1-3.3-0.2-5-0.2c-1.7,0-3.4,0-5.1,0c-1.7,0.1-3.4,0.1-5,0.3
	c-1.6,0.1-3.2,0.3-4.8,0.5c-1.5,0.2-3,0.4-4.4,0.7c-1.4,0.3-2.7,0.6-3.9,0.9c-1.2,0.3-2.3,0.7-3.3,1.1c-1,0.4-1.8,0.8-2.5,1.2
	c-0.7,0.4-1.3,0.9-1.7,1.3c-0.4,0.4-0.7,0.9-0.8,1.4c-0.1,0.5,0,0.9,0.2,1.4c0.2,0.5,0.6,0.9,1.2,1.4c0.5,0.5,1.3,0.9,2.1,1.3
	c0.9,0.4,1.9,0.8,3,1.2c1.1,0.4,2.4,0.8,3.8,1.1c1.4,0.3,2.9,0.6,4.5,0.9c1.6,0.3,3.3,0.5,5.1,0.7c1.8,0.2,3.7,0.3,5.6,0.5
	c0.3,0,0.6,0,0.8,0c0.3,0,0.5,0,0.7-0.1c0.2-0.1,0.4-0.3,0.5-0.5c0-0.3-0.2-0.4-0.4-0.6c-0.2-0.1-0.5-0.2-0.7-0.2
	c-1-0.1-1.9-0.1-2.9-0.2c-1.2-0.1-2.4-0.2-3.6-0.4c-1.1-0.2-2.2-0.3-3.3-0.5c-1-0.2-2-0.4-2.9-0.6c-0.8-0.2-1.5-0.4-2.1-0.6
	c-1.8-0.6-3.2-1.2-4.2-1.9c-0.4-0.3-0.8-0.6-1.1-0.9c-0.3-0.3-0.5-0.6-0.6-0.9c-0.1-0.3-0.1-0.6,0-0.9c0.1-0.3,0.2-0.6,0.5-0.9
	c0.2-0.3,0.6-0.6,1-0.9c0.4-0.3,0.9-0.6,1.4-0.8c0.5-0.3,1.2-0.5,1.9-0.8c0.4-0.1,0.8-0.3,1.2-0.4c0.8-0.2,1.6-0.4,2.4-0.6
	c0.5-0.1,0.9-0.2,1.4-0.3c0.9-0.2,1.9-0.3,2.8-0.5c1-0.1,2-0.3,3.1-0.4c1-0.1,2.1-0.2,3.2-0.3c1.1-0.1,2.2-0.1,3.3-0.1
	c1.1,0,2.2,0,3.3,0c1.1,0,2.2,0.1,3.2,0.1c1,0.1,2.1,0.1,3.1,0.2c1,0.1,2,0.2,2.9,0.3c0.9,0.1,1.8,0.3,2.7,0.4
	c1.7,0.3,3.2,0.7,4.4,1.1c1.2,0.4,2.2,0.9,3,1.4c0.7,0.5,1.2,1,1.4,1.5c0.2,0.5,0.1,1-0.3,1.5c-0.4,0.5-1,1-1.9,1.4
	c-0.8,0.4-1.9,0.8-3.2,1.2c-0.8,0.2-1.7,0.4-2.7,0.6c0.2-0.2,0.4-0.4,0.5-0.8c0-0.3-0.2-0.6-0.5-0.7c-0.6-0.2-1.4,0-1.9,0.2
	c-0.3,0.1-0.6,0.2-0.9,0.3c-0.6,0.2-1.3,0.3-2,0.5c-0.7,0.1-1.4,0.3-2.2,0.4c-0.8,0.1-1.5,0.2-2.3,0.2c-0.8,0.1-1.6,0.1-2.4,0.1
	c-0.2,0-0.5,0-0.7,0c-0.7,0-1.4,0-2.1,0c-1,0-2-0.1-2.9-0.1c-0.9-0.1-1.8-0.2-2.7-0.3c-0.8-0.1-1.6-0.2-2.4-0.4
	c-0.7-0.1-1.4-0.3-2-0.4c-0.6-0.1-1.1-0.3-1.5-0.5c-0.2-0.1-0.5-0.1-0.7-0.1c-0.2,0-0.5,0.1-0.6,0.3c-0.1,0.2,0,0.5,0.2,0.6
	c0.2,0.2,0.4,0.3,0.6,0.4c0.1,0,0.2,0.1,0.3,0.1c0.5,0.2,1.1,0.4,1.6,0.5c0.6,0.2,1.2,0.3,1.9,0.5c0.7,0.1,1.4,0.3,2.1,0.4
	c0.7,0.1,1.5,0.2,2.3,0.3c0.8,0.1,1.6,0.1,2.5,0.2c0.9,0,1.7,0.1,2.6,0.1c0.9,0,1.8,0,2.6,0c0.9,0,1.8-0.1,2.6-0.1
	c0.6,0,1.3-0.1,1.9-0.2c0.2,0,0.3,0,0.5,0c0,0.3,0.4,0.5,0.7,0.6c0.3,0.1,0.6,0.1,0.9,0.1c1.3-0.1,2.7-0.2,3.9-0.4
	c1.3-0.2,2.5-0.4,3.7-0.6c1.2-0.2,2.3-0.5,3.3-0.7c1-0.3,1.9-0.6,2.8-0.9C-244.8,272.3-244.1,272-243.5,271.6z"/>
<path fill="#FFFFFF" d="M-267,269.5c-0.1-0.1-0.3-0.3-0.5-0.4c-0.2-0.1-0.5-0.2-0.9-0.3c-0.3-0.1-0.7-0.2-1-0.2
	c-0.3-0.1-0.7-0.1-1.1-0.1c-0.3,0-0.5,0-0.8,0c-0.3,0-0.5,0-0.8,0c-0.4,0-0.8,0.1-1.1,0.1c-0.4,0.1-0.7,0.1-1,0.2
	c-0.3,0.1-0.6,0.2-0.9,0.3c-0.2,0.1-0.4,0.3-0.5,0.4c-0.1,0.2-0.1,0.3-0.1,0.5c0.1,0.2,0.2,0.3,0.5,0.5c0.3,0.2,0.6,0.3,1.1,0.5
	c0.5,0.2,1,0.3,1.6,0.4c0.7,0.1,1.4,0.2,2.1,0.3c0.4,0,0.8,0.1,1.2,0.1c0.4,0,0.8,0,1.3,0c0.1,0,0.2,0,0.3,0c0.4,0,0.8,0,1.1,0
	c0.5,0,1,0,1.4-0.1c1-0.1,1.9-0.2,2.8-0.3c0.9-0.1,1.7-0.3,2.4-0.5c0.8-0.2,1.4-0.4,1.9-0.7c0.5-0.3,0.9-0.5,1.1-0.8
	c0.1-0.2,0.2-0.4,0.2-0.5c0-0.1,0-0.3-0.1-0.4c-0.1-0.3-0.5-0.6-0.9-0.9c-0.5-0.3-1.2-0.6-2-0.9c-0.8-0.3-1.8-0.5-2.9-0.7
	c-1.1-0.2-2.4-0.4-3.7-0.5c-1.3-0.1-2.8-0.2-4.2-0.2c-0.1,0-0.3,0-0.4,0c-3.9,0-8.8,0.6-12.3,2.2c-0.3,0.1-0.5,0.3-0.7,0.5
	c-0.2,0.2-0.4,0.5-0.3,0.7c0.1,0.2,0.5,0.3,0.8,0.3c0.3,0,0.6-0.1,0.8-0.2c3.5-1.4,8-2,11.7-2c0.1,0,0.1,0,0.2,0c0.5,0,1,0,1.5,0
	c0.5,0,0.9,0.1,1.4,0.1c0.4,0.1,0.8,0.1,1.2,0.2c0.4,0.1,0.7,0.2,1,0.2c0.3,0.1,0.6,0.2,0.8,0.3c0.2,0.1,0.5,0.2,0.6,0.3
	c0.2,0.1,0.3,0.2,0.4,0.3c0.1,0.1,0.2,0.2,0.2,0.3c0,0.1,0,0.2,0,0.3c0,0.1-0.1,0.2-0.2,0.3c-0.1,0.1-0.2,0.2-0.4,0.3
	c-0.1,0.1-0.3,0.2-0.5,0.2c-0.2,0.1-0.4,0.1-0.6,0.2c-0.2,0.1-0.4,0.1-0.7,0.1c-0.2,0-0.5,0.1-0.7,0.1c0,0-0.1,0-0.1,0
	c-0.1,0-0.2,0-0.3,0c0.1-0.1,0.2-0.2,0.2-0.3C-266.9,269.9-266.9,269.7-267,269.5z"/>
<path fill="#FFFFFF" d="M-152.6,289.5c7.7,0,10.7,4.6,10.7,12.7c0,7.6-2.8,12.6-10.8,12.6c-8,0-10.9-5-10.9-12.6
	C-163.5,294.1-160.3,289.5-152.6,289.5z M-147.4,302.2c0-4.6-0.7-8.4-5.1-8.4c-4.4,0-5.5,3.6-5.5,8.4c0,4.4,0.9,8.2,5.3,8.2
	C-148.4,310.4-147.4,306.8-147.4,302.2z"/>
<path fill="#FFFFFF" d="M-102.3,285.9c-1.9,0-3.3-1.5-3.3-3.4c0-2,1.5-3.4,3.3-3.4c1.8,0,3.3,1.3,3.3,3.4
	C-99,284.5-100.5,285.9-102.3,285.9z M-102.3,279.7c-1.5,0-2.6,1.2-2.6,2.8c0,1.5,1,2.8,2.6,2.8c1.4,0,2.6-1.1,2.6-2.8
	C-99.7,280.8-100.9,279.7-102.3,279.7z M-103,284.4h-0.6v-3.7h1.4c0.9,0,1.4,0.3,1.4,1.1c0,0.7-0.4,1-1,1l1.1,1.6h-0.7l-1-1.6h-0.6
	V284.4z M-102.3,282.3c0.5,0,0.9,0,0.9-0.6c0-0.5-0.4-0.5-0.8-0.5h-0.7v1.1H-102.3z"/>
<path fill="#FFFFFF" d="M-249.2,279.6l-9.5,34.6h-5.5l-6.7-25.2l-6.8,25.2h-5.5l-9.5-34.6h5.5l6.7,25.2l6.8-25.2h5.4l6.8,25.2
	l6.7-25.2H-249.2z"/>
<path fill="#FFFFFF" d="M-246.6,279.7l5.5-0.4v8.5l-0.1,3.2h0.2c2.5-0.9,4.6-1.4,7-1.4c4.4,0,7.4,2,7.4,9.6v15.1h-5.5v-14.7
	c0-4.6-2.2-5.2-4.8-5.2c-1.6,0-2.9,0.3-4.3,0.7v19.1h-5.5V279.7z"/>
<path fill="#FFFFFF" d="M-219.1,280c2.8,0,3.3,1.6,3.3,3.5c0,1.8-0.6,3.5-3.3,3.5c-2.7,0-3.2-1.7-3.2-3.5
	C-222.4,281.7-221.9,280-219.1,280z M-221.9,289.9h5.5v24.4h-5.5V289.9z"/>
<path fill="#FFFFFF" d="M-211.8,289.9h3.7l0.7,2h0.3c1.4-1.2,3.7-2.3,6.7-2.3c0.3,0,0.7,0,1.1,0.1v5.4c-1-0.2-2-0.3-3.1-0.3
	c-1.5,0-2.7,0.3-4.1,1v18.6h-5.5V289.9z"/>
<path fill="#FFFFFF" d="M-196.8,314.2v-34.5l5.5-0.4v35H-196.8z"/>
<path fill="#FFFFFF" d="M-128.1,289.5c7.7,0,10.7,4.6,10.7,12.7c0,7.6-2.8,12.6-10.8,12.6c-8,0-10.9-5-10.9-12.6
	C-139.1,294.1-135.9,289.5-128.1,289.5z M-123,302.2c0-4.6-0.7-8.4-5.1-8.4c-4.4,0-5.5,3.6-5.5,8.4c0,4.4,0.9,8.2,5.3,8.2
	C-124,310.4-123,306.8-123,302.2z"/>
<path fill="#FFFFFF" d="M-113.8,314.2v-34.5l5.5-0.4v35H-113.8z"/>
<path fill="#FFFFFF" d="M-255.2,273.2c0.2-0.2,0.4-0.4,0.5-0.8c0-0.3-0.2-0.6-0.5-0.7c-0.6-0.2-1.4,0-1.9,0.2
	c-0.3,0.1-0.6,0.2-0.9,0.3c-0.6,0.2-1.3,0.3-2,0.5c-0.7,0.1-1.4,0.3-2.2,0.4c-0.8,0.1-1.5,0.2-2.3,0.2c-0.8,0.1-1.6,0.1-2.4,0.1
	c-0.2,0-0.5,0-0.7,0c-0.7,0-1.4,0-2.1,0c-1,0-2-0.1-2.9-0.1c-0.9-0.1-1.8-0.2-2.7-0.3c-0.8-0.1-1.6-0.2-2.4-0.4
	c-0.7-0.1-1.4-0.3-2-0.4c-0.6-0.1-1.1-0.3-1.5-0.5c-0.2-0.1-0.5-0.1-0.7-0.1c-0.2,0-0.5,0.1-0.6,0.3c-0.1,0.2,0,0.5,0.2,0.6
	c0.2,0.2,0.4,0.3,0.6,0.4c0.1,0,0.2,0.1,0.3,0.1c0.5,0.2,1.1,0.4,1.6,0.5c0.6,0.2,1.2,0.3,1.9,0.5c0.7,0.1,1.4,0.3,2.1,0.4
	c0.7,0.1,1.5,0.2,2.3,0.3c0.8,0.1,1.6,0.1,2.5,0.2c0.9,0,1.7,0.1,2.6,0.1c0.9,0,1.8,0,2.6,0c0.9,0,1.8-0.1,2.6-0.1
	c0.6,0,1.3-0.1,1.9-0.2c0.2,0,0.3,0,0.5,0c0,0.3,0.4,0.5,0.7,0.6c0.3,0.1,0.6,0.1,0.9,0.1c1.3-0.1,2.7-0.2,3.9-0.4
	c1.3-0.2,2.5-0.4,3.7-0.6c1.2-0.2,2.3-0.5,3.3-0.7c1-0.3,1.9-0.6,2.8-0.9c0.8-0.3,1.5-0.6,2.1-1c0.6-0.4,1.1-0.7,1.4-1.1
	c0.4-0.4,0.6-0.8,0.7-1.2c0.1-0.4,0.1-0.8-0.1-1.2c-0.2-0.4-0.5-0.8-0.9-1.2c-0.4-0.4-1-0.8-1.7-1.1c-0.7-0.4-1.5-0.7-2.5-1
	c-1-0.3-2-0.6-3.2-0.9c-1.2-0.3-2.4-0.5-3.8-0.8c-1.4-0.2-2.8-0.4-4.3-0.6c-1.5-0.2-3.1-0.3-4.7-0.4c-1.6-0.1-3.3-0.2-5-0.2
	c-1.7,0-3.4,0-5.1,0c-1.7,0.1-3.4,0.1-5,0.3c-1.6,0.1-3.2,0.3-4.8,0.5c-1.5,0.2-3,0.4-4.4,0.7c-1.4,0.3-2.7,0.6-3.9,0.9
	c-1.2,0.3-2.3,0.7-3.3,1.1c-1,0.4-1.8,0.8-2.5,1.2c-0.7,0.4-1.3,0.9-1.7,1.3c-0.4,0.4-0.7,0.9-0.8,1.4c-0.1,0.5,0,0.9,0.2,1.4
	c0.2,0.5,0.6,0.9,1.2,1.4c0.5,0.5,1.3,0.9,2.1,1.3c0.9,0.4,1.9,0.8,3,1.2c1.1,0.4,2.4,0.8,3.8,1.1c1.4,0.3,2.9,0.6,4.5,0.9
	c1.6,0.3,3.3,0.5,5.1,0.7c1.8,0.2,3.7,0.3,5.6,0.5c0.3,0,0.6,0,0.8,0c0.3,0,0.5,0,0.7-0.1c0.2-0.1,0.4-0.3,0.5-0.5
	c0-0.3-0.2-0.4-0.4-0.6c-0.2-0.1-0.5-0.2-0.7-0.2c-1-0.1-1.9-0.1-2.9-0.2c-1.2-0.1-2.4-0.2-3.6-0.4c-1.1-0.2-2.2-0.3-3.3-0.5
	c-1-0.2-2-0.4-2.9-0.6c-0.8-0.2-1.5-0.4-2.1-0.6c-1.8-0.6-3.2-1.2-4.2-1.9c-0.4-0.3-0.8-0.6-1.1-0.9c-0.3-0.3-0.5-0.6-0.6-0.9
	c-0.1-0.3-0.1-0.6,0-0.9c0.1-0.3,0.2-0.6,0.5-0.9c0.2-0.3,0.6-0.6,1-0.9c0.4-0.3,0.9-0.6,1.4-0.8c0.5-0.3,1.2-0.5,1.9-0.8
	c0.4-0.1,0.8-0.3,1.2-0.4c0.8-0.2,1.6-0.4,2.4-0.6c0.5-0.1,0.9-0.2,1.4-0.3c0.9-0.2,1.9-0.3,2.8-0.5c1-0.1,2-0.3,3.1-0.4
	c1-0.1,2.1-0.2,3.2-0.3c1.1-0.1,2.2-0.1,3.3-0.1c1.1,0,2.2,0,3.3,0c1.1,0,2.2,0.1,3.2,0.1c1,0.1,2.1,0.1,3.1,0.2
	c1,0.1,2,0.2,2.9,0.3c0.9,0.1,1.8,0.3,2.7,0.4c1.7,0.3,3.2,0.7,4.4,1.1c1.2,0.4,2.2,0.9,3,1.4c0.7,0.5,1.2,1,1.4,1.5
	c0.2,0.5,0.1,1-0.3,1.5c-0.4,0.5-1,1-1.9,1.4c-0.8,0.4-1.9,0.8-3.2,1.2C-253.3,272.8-254.2,273-255.2,273.2z"/>
<path fill="#FFFFFF" d="M-282.6,268.8c-0.3,0.1-0.5,0.2-0.8,0.2c-0.2,0-0.6,0-0.8-0.3c-0.1-0.3,0.1-0.5,0.3-0.7
	c0.2-0.2,0.4-0.3,0.7-0.5c3.6-1.7,8.5-2.2,12.3-2.2c0.1,0,0.3,0,0.4,0c1.4,0,2.8,0.1,4.2,0.2c1.3,0.1,2.5,0.3,3.7,0.5
	c1.1,0.2,2.1,0.4,2.9,0.7c0.8,0.3,1.5,0.5,2,0.9c0.5,0.3,0.8,0.6,0.9,0.9c0.1,0.1,0.1,0.3,0.1,0.4c0,0.2-0.1,0.4-0.2,0.5
	c-0.2,0.3-0.6,0.6-1.1,0.8c-0.5,0.3-1.1,0.5-1.9,0.7c-0.7,0.2-1.5,0.4-2.4,0.5c-0.9,0.1-1.8,0.2-2.8,0.3c-0.5,0-0.9,0.1-1.4,0.1
	c-0.4,0-0.8,0-1.1,0c-0.1,0-0.2,0-0.3,0c-0.4,0-0.9,0-1.3,0c-0.4,0-0.8,0-1.2-0.1c-0.8-0.1-1.5-0.2-2.1-0.3
	c-0.6-0.1-1.2-0.2-1.6-0.4c-0.4-0.1-0.8-0.3-1.1-0.5c-0.2-0.2-0.4-0.3-0.5-0.5c-0.1-0.2,0-0.3,0.1-0.5c0.1-0.1,0.3-0.3,0.5-0.4
	c0.2-0.1,0.5-0.2,0.9-0.3c0.3-0.1,0.7-0.2,1-0.2c0.3-0.1,0.7-0.1,1.1-0.1c0.3,0,0.5,0,0.8,0c0.3,0,0.5,0,0.8,0
	c0.4,0,0.8,0.1,1.1,0.1c0.4,0.1,0.7,0.1,1,0.2c0.3,0.1,0.6,0.2,0.9,0.3c0.2,0.1,0.4,0.3,0.5,0.4c0.1,0.2,0.1,0.3,0.1,0.5
	c0,0.1-0.1,0.2-0.2,0.3c0.1,0,0.2,0,0.3,0c0,0,0.1,0,0.1,0c0.2,0,0.5-0.1,0.7-0.1c0.2,0,0.5-0.1,0.7-0.1c0.2-0.1,0.4-0.1,0.6-0.2
	c0.2-0.1,0.4-0.1,0.5-0.2c0.1-0.1,0.3-0.2,0.4-0.3c0.1-0.1,0.2-0.2,0.2-0.3c0-0.1,0-0.2,0-0.3c0-0.1-0.1-0.2-0.2-0.3
	c-0.1-0.1-0.2-0.2-0.4-0.3c-0.2-0.1-0.4-0.2-0.6-0.3c-0.2-0.1-0.5-0.2-0.8-0.3c-0.3-0.1-0.7-0.2-1-0.2c-0.4-0.1-0.8-0.1-1.2-0.2
	c-0.4-0.1-0.9-0.1-1.4-0.1c-0.5,0-1,0-1.5,0c-0.1,0-0.1,0-0.2,0C-274.6,266.8-279.1,267.4-282.6,268.8z"/>
</svg>
