<?xml version="1.0" encoding="utf-8"?>
<!-- Generator: Adobe Illustrator 18.1.1, SVG Export Plug-In . SVG Version: 6.00 Build 0)  -->
<!DOCTYPE svg PUBLIC "-//W3C//DTD SVG 1.1//EN" "http://www.w3.org/Graphics/SVG/1.1/DTD/svg11.dtd">
<svg version="1.1" id="Layer_1" xmlns="http://www.w3.org/2000/svg" xmlns:xlink="http://www.w3.org/1999/xlink" x="0px" y="0px"
	 width="200px" height="200px" viewBox="64 126 200 200" enable-background="new 64 126 200 200" xml:space="preserve">
<path fill="#CCCED3" d="M102.3,240.7c-4,4-9.6,6.3-15.3,6.3s-11.3-2.3-15.3-6.3s-6.3-9.6-6.3-15.3c0-5.7,2.3-11.3,6.3-15.3
	s9.6-6.3,15.3-6.3s11.3,2.3,15.3,6.3s6.3,9.6,6.3,15.3C108.7,231.1,106.3,236.7,102.3,240.7L102.3,240.7L102.3,240.7z M103,209.4
	c-4.2-4.2-10.1-6.6-16-6.6s-11.8,2.4-16,6.6c-4.2,4.2-6.6,10.1-6.6,16c0,5.9,2.4,11.8,6.6,16c4.2,4.2,10.1,6.6,16,6.6
	s11.8-2.4,16-6.6c4.2-4.2,6.6-10.1,6.6-16C109.6,219.5,107.2,213.6,103,209.4L103,209.4z"/>
<polygon fill="#CCCED3" points="85.8,224.7 85.8,226.1 87,226.8 88.3,226.1 88.3,224.7 87,223.9 "/>
<path fill="#CCCED3" d="M88.1,221.2v-3.1c0-0.3-0.1-0.6-0.3-0.8c-0.2-0.2-0.5-0.3-0.8-0.3c-0.3,0-0.6,0.1-0.8,0.3
	c-0.2,0.2-0.3,0.5-0.3,0.8v3.1l1.1,0.6L88.1,221.2L88.1,221.2z"/>
<path fill="#CCCED3" d="M80.2,228c-0.2,0.1-0.4,0.4-0.5,0.7c-0.1,0.3,0,0.6,0.1,0.8c0.1,0.2,0.4,0.4,0.7,0.5s0.6,0,0.8-0.1l2.6-1.5
	v-1.2l-1.1-0.6L80.2,228L80.2,228z"/>
<path fill="#CCCED3" d="M93.8,228L93.8,228l-2.6-1.5l-1.1,0.6v1.2l2.6,1.5c0.2,0.1,0.5,0.2,0.8,0.1c0.3-0.1,0.5-0.3,0.7-0.5
	c0.1-0.2,0.2-0.5,0.1-0.8C94.2,228.4,94,228.2,93.8,228L93.8,228z"/>
<path fill="#CCCED3" d="M102.6,234.6c-0.1,0-0.1,0-0.2,0l-4.8-0.9c-0.1,0-0.2-0.1-0.3-0.2c-0.1-0.1-0.1-0.2-0.1-0.3
	c0-0.3-0.2-0.7-0.4-0.9c-0.2-0.3-0.5-0.5-0.8-0.5c-0.3-0.1-0.7-0.1-1,0c-0.6,0.2-1.2,0.3-1.8,0.2c-0.6-0.1-1.2-0.2-1.7-0.6l-1.4-0.8
	v9.2h-2v-10.4l-1.1-0.6l-1.1,0.6v10.4h-2v-9.2l-1.4,0.8c-0.5,0.3-1.1,0.5-1.7,0.6c-0.6,0.1-1.2,0-1.8-0.2c-0.3-0.1-0.7-0.1-1,0
	c-0.3,0.1-0.6,0.3-0.8,0.5c-0.2,0.3-0.3,0.6-0.4,0.9c0,0.1-0.1,0.2-0.1,0.3c-0.1,0.1-0.2,0.1-0.3,0.2l-4.8,0.9c-0.1,0-0.1,0-0.2,0
	c-0.1,0-0.1-0.1-0.1-0.1c0-0.1-0.1-0.1,0-0.2c0-0.1,0-0.1,0.1-0.2l3.1-3.7c0.1-0.1,0.2-0.2,0.3-0.2c0.1,0,0.2,0,0.3,0
	c0.3,0.1,0.7,0.2,1,0.1c0.3-0.1,0.7-0.2,0.9-0.5c0.2-0.2,0.4-0.6,0.5-0.9c0.1-0.6,0.4-1.2,0.7-1.7c0.4-0.5,0.8-0.9,1.3-1.2l1.4-0.8
	l-8-4.6l1-1.7l9,5.2l1.1-0.6v-1.2l-9-5.2l1-1.7l8,4.6v-1.6c0-0.6,0.1-1.2,0.4-1.8c0.3-0.6,0.6-1.1,1.1-1.5c0.3-0.2,0.4-0.5,0.5-0.9
	c0.1-0.3,0.1-0.7-0.1-1c-0.1-0.3-0.3-0.6-0.6-0.8c-0.1-0.1-0.2-0.2-0.2-0.3c0-0.1,0-0.2,0-0.3l1.6-4.6c0-0.1,0.1-0.1,0.1-0.2
	c0.1,0,0.1-0.1,0.2-0.1c0.1,0,0.1,0,0.2,0.1c0.1,0,0.1,0.1,0.1,0.2l1.6,4.6c0,0.1,0,0.2,0,0.3s-0.1,0.2-0.2,0.3
	c-0.3,0.2-0.5,0.5-0.6,0.8c-0.1,0.3-0.1,0.7-0.1,1c0.1,0.3,0.3,0.6,0.5,0.9c0.5,0.4,0.8,0.9,1.1,1.5c0.3,0.6,0.4,1.2,0.4,1.8v1.6
	l8-4.6l1,1.7l-9,5.2v1.2l1.1,0.6l9-5.2l1,1.7l-8,4.6l1.4,0.8c0.5,0.3,1,0.7,1.3,1.2c0.4,0.5,0.6,1.1,0.7,1.7
	c0.1,0.3,0.2,0.6,0.5,0.9c0.2,0.2,0.6,0.4,0.9,0.5c0.3,0.1,0.7,0,1-0.1c0.1-0.1,0.2-0.1,0.3,0c0.1,0,0.2,0.1,0.3,0.2l3.1,3.7
	c0,0.1,0.1,0.1,0.1,0.2s0,0.1,0,0.2C102.8,234.6,102.7,234.6,102.6,234.6L102.6,234.6L102.6,234.6z M100.6,211.8
	c-3.6-3.6-8.6-5.6-13.6-5.6s-10,2.1-13.6,5.6c-3.6,3.6-5.6,8.6-5.6,13.6s2.1,10,5.6,13.6c3.6,3.6,8.6,5.6,13.6,5.6s10-2.1,13.6-5.6
	c3.6-3.6,5.6-8.6,5.6-13.6C106.2,220.3,104.2,215.3,100.6,211.8L100.6,211.8z"/>
<polygon fill="#CCCED3" points="217.4,244.2 217.4,206.5 224,206.5 224,221 231.3,221 231.3,206.5 238,206.5 238,244.2 231.3,244.2 
	231.3,227.7 224,227.7 224,244.2 "/>
<polygon fill="#CCCED3" points="120.8,229.6 113.5,206.5 120.1,206.5 124.6,221.2 129.6,206.5 135.8,206.5 128.2,228.9 128.2,244.2 
	120.8,244.2 "/>
<polygon fill="#CCCED3" points="160.1,244.2 166,244.2 166,215.8 171,240.5 176.5,240.5 181,215.4 181,244.2 188,244.2 188,206.5 
	177.2,206.5 174,224.5 170.4,206.5 160.1,206.5 "/>
<path fill="#CCCED3" d="M249.7,229.2l2.8-16.9l2.7,16.9H249.7L249.7,229.2L249.7,229.2z M258.2,206.5H248l-6.9,37.7h6.1l1.5-8.8h7.6
	l1.4,8.8h6.7L258.2,206.5L258.2,206.5z"/>
<path fill="#CCCED3" d="M199.6,229.2l2.8-16.9l2.7,16.9H199.6L199.6,229.2L199.6,229.2z M208.1,206.5h-10.2l-6.9,37.7h6.1l1.5-8.8
	h7.6l1.4,8.8h6.7L208.1,206.5L208.1,206.5z"/>
<path fill="#CCCED3" d="M142.2,229.2l2.8-16.9l2.7,16.9L142.2,229.2L142.2,229.2L142.2,229.2z M150.7,206.5h-10.2l-6.9,37.7h6.1
	l1.5-8.8h7.6l1.4,8.8h6.7L150.7,206.5L150.7,206.5z"/>
</svg>
