<?xml version="1.0" encoding="utf-8"?>
<!-- Generator: Adobe Illustrator 18.1.1, SVG Export Plug-In . SVG Version: 6.00 Build 0)  -->
<!DOCTYPE svg PUBLIC "-//W3C//DTD SVG 1.1//EN" "http://www.w3.org/Graphics/SVG/1.1/DTD/svg11.dtd">
<svg version="1.1" id="Layer_1" xmlns="http://www.w3.org/2000/svg" xmlns:xlink="http://www.w3.org/1999/xlink" x="0px" y="0px"
	 width="207px" height="179px" viewBox="-74 8.4 207 179" enable-background="new -74 8.4 207 179" xml:space="preserve">
<g>
	<g>
		<path fill="#FFFFFF" d="M30.7,12.3c4.8,0,9.6,2.6,14.2,7.8l29.2,32.6l29.1,32.7c1.7,1.9,3.4,3.9,5.2,5.8c2.5,2.8,4.8,6.2,3.2,10.1
			c-1.8,4.4-6.4,4.7-10.4,4.8l-10.6,0.2v64.2c0,8.2-6.7,14.8-14.8,14.8h-90.3c-8.2,0-14.8-6.7-14.8-14.8v-64.2c-2.9,0-5.7,0-8.6,0
			c-1.8,0-3.5,0-5.3,0c-7.2-0.2-10.3-7.3-5.5-12.7l7.5-8.4l15.1-17V39.8h25.3l17.7-19.9C21.3,14.8,26,12.3,30.7,12.3 M30.7,9.3
			L30.7,9.3c-5.7,0-11.1,2.9-16.1,8.6L-2.2,36.8h-24h-3v3v27.3l-14.3,16.1l-7.5,8.4c-3,3.4-3.8,7.8-2.2,11.5
			c1.6,3.7,5.4,6.1,9.9,6.2c1.6,0,3.4,0,5.4,0c1.8,0,3.5,0,5.3,0c0.1,0,0.2,0,0.3,0v61.2c0,9.8,8,17.8,17.8,17.8h90.2
			c9.8,0,17.8-8,17.8-17.8v-61.2l7.7-0.1c3.4-0.1,10.5-0.2,13.2-6.6c2.6-6.2-2-11.3-3.7-13.2c-1.1-1.3-2.3-2.5-3.4-3.8
			c-0.6-0.7-1.2-1.3-1.8-2L76.4,50.8L47.2,18C42,12.2,36.4,9.3,30.7,9.3L30.7,9.3z"/>
	</g>
	<g>
		<path fill="#FFFFFF" d="M103.9,96.6c-1.7-2-3.5-3.9-5.2-5.9L69.6,57.9L40.5,25.3c-6.1-7.3-12.4-8.4-19-0.2L-7.7,57.9l-29,32.6
			l-7.5,8.4c-1.1,1.5-0.9,2.4,1.1,2.5c5.2,0,10.5,0,15.7,0h4.2v70.3c0,4.8,3.9,8.7,8.7,8.7h90.2c4.8,0,8.7-3.9,8.7-8.7v-70.3h4.4
			l12.3-0.2C106.9,101.2,107.3,100.3,103.9,96.6z M58.9,155.9c-6.8,3.8-15.1,5.6-24.9,5.6c-9.5,0-17.7-1.6-24.6-4.8
			c-6.9-3.2-12-7.9-15.4-14.1c-3.4-6.2-5-12.9-5-20.2c0-8,1.9-15.5,5.7-22.4c3.8-6.9,9.1-12.1,15.7-15.6s14.2-5.2,22.8-5.2
			c7.2,0,13.7,1.4,19.3,4.2c5.6,2.8,9.9,6.8,12.9,11.9s4.5,10.8,4.5,16.9c0,7.3-2.3,13.8-6.8,19.7c-5.7,7.4-12.9,11.1-21.8,11.1
			c-2.4,0-4.2-0.4-5.4-1.2c-1.2-0.8-2-2-2.4-3.6c-3.4,3.3-7.3,4.9-11.7,4.9c-4.8,0-8.7-1.6-11.9-4.9c-3.2-3.3-4.7-7.6-4.7-13
			c0-6.7,1.9-12.8,5.7-18.3c4.6-6.7,10.5-10.1,17.7-10.1c5.1,0,8.9,1.9,11.3,5.8l1.1-4.8h11.4l-6.5,30.7c-0.4,1.9-0.6,3.2-0.6,3.8
			c0,0.7,0.2,1.2,0.5,1.6c0.3,0.3,0.7,0.5,1.2,0.5c1.4,0,3.2-0.8,5.4-2.5c2.9-2.2,5.3-5.1,7.1-8.7s2.7-7.4,2.7-11.3
			c0-7-2.5-12.9-7.7-17.6c-5.1-4.7-12.3-7.1-21.4-7.1c-7.8,0-14.4,1.6-19.8,4.7c-5.4,3.2-9.5,7.6-12.2,13.3
			C-1.7,110.9-3,116.9-3,123c0,6,1.5,11.5,4.6,16.4s7.4,8.5,12.9,10.8s11.9,3.4,19,3.4c6.9,0,12.8-0.9,17.7-2.8
			c4.9-1.9,8.9-4.7,11.9-8.5h9.2C69.2,148.1,64.8,152.6,58.9,155.9z"/>
		<path fill="#FFFFFF" d="M29.5,104.5c-2.5,0-4.8,0.9-6.9,2.8s-3.7,4.6-4.8,8.1c-1.1,3.5-1.6,6.6-1.6,9.3c0,3.6,0.7,6.3,2.2,8
			s3.3,2.6,5.5,2.6c1.6,0,3.2-0.4,4.6-1.2c1.1-0.6,2.2-1.5,3.2-2.7c1.5-1.7,2.8-4.3,3.9-7.6c1.1-3.3,1.7-6.4,1.7-9.3
			c0-3.2-0.8-5.7-2.3-7.4C33.7,105.3,31.8,104.5,29.5,104.5z"/>
	</g>
	<polygon fill="#FFFFFF" points="-22.2,43.5 -4.8,43.5 -4.8,43.9 -22.2,63.5 	"/>
</g>
</svg>
