<?xml version="1.0" encoding="utf-8"?>
<!-- Generator: Adobe Illustrator 18.1.1, SVG Export Plug-In . SVG Version: 6.00 Build 0)  -->
<!DOCTYPE svg PUBLIC "-//W3C//DTD SVG 1.1//EN" "http://www.w3.org/Graphics/SVG/1.1/DTD/svg11.dtd">
<svg version="1.1" id="Layer_1" xmlns="http://www.w3.org/2000/svg" xmlns:xlink="http://www.w3.org/1999/xlink" x="0px" y="0px"
	 width="359.9px" height="257.3px" viewBox="0 0 359.9 257.3" enable-background="new 0 0 359.9 257.3" xml:space="preserve">
<g>
	<g>
		<g opacity="0.5">
			<g>
				<defs>
					<rect id="SVGID_1_" x="37.1" y="35.3" width="322.3" height="51.8"/>
				</defs>
				<clipPath id="SVGID_2_">
					<use xlink:href="#SVGID_1_"  overflow="visible"/>
				</clipPath>
				<path clip-path="url(#SVGID_2_)" d="M318.6,51.7c-25.3-10.6-60.1-16.4-97.9-16.4c-15.9,0-32.3,1-48.7,3
					C123.7,44.1,71.2,64.2,37.7,81c-2,1,1.6,1.4,0.4,2l11.9-5.4c34.6-17.3,65-24.8,110.9-31.5c16.1-2.3,36.8-4.8,52.4-5.1
					c36.8-0.9,75.1,6.2,95.2,13.9c14.9,5.7,34.2,17,38.5,32.2l12.4-0.4C353.8,74,339,60.3,318.6,51.7"/>
			</g>
		</g>
		<g>
			<defs>
				<path id="SVGID_3_" d="M316.6,50.7c-25.3-10.6-60.1-16.4-97.9-16.4c-15.9,0-32.3,1-48.7,3C121.8,43.2,77.4,56.9,45.2,76
					c-3.1,1.8-6.3,4.1-9.1,6L48,76.5c34.6-17.3,70.7-27.3,116.6-34c16.1-2.3,32.1-3.7,47.7-4.1c36.8-0.9,70.6,3.9,95.2,13.5
					c14.9,5.8,32.9,15.8,37.1,31h11.3C350.4,70.3,337,59.3,316.6,50.7"/>
			</defs>
			<clipPath id="SVGID_4_">
				<use xlink:href="#SVGID_3_"  overflow="visible"/>
			</clipPath>
			
				<linearGradient id="SVGID_5_" gradientUnits="userSpaceOnUse" x1="-124.9916" y1="527.2996" x2="-122.7634" y2="527.2996" gradientTransform="matrix(143.5488 0 0 -143.5488 17978.4688 75751.8594)">
				<stop  offset="0" style="stop-color:#F05C27"/>
				<stop  offset="5.618000e-03" style="stop-color:#F05C27"/>
				<stop  offset="0.2086" style="stop-color:#F89C1C"/>
				<stop  offset="0.5276" style="stop-color:#F69221"/>
				<stop  offset="0.7055" style="stop-color:#F89C1C"/>
				<stop  offset="1" style="stop-color:#F05C27"/>
			</linearGradient>
			<rect x="36.1" y="34.3" clip-path="url(#SVGID_4_)" fill="url(#SVGID_5_)" width="319.9" height="48.7"/>
		</g>
		<path fill="#F05C27" d="M355.7,82.5H345l-0.2-0.5c-4.7-15.1-22.7-24.9-37.1-30.5c-22.5-8.8-53.3-13.6-86.7-13.6
			c-2.9,0-5.8,0-8.6,0.1c-15.6,0.4-31.7,1.8-47.7,4.1c-46.7,6.8-82.1,17-114.9,33.2L49.1,74C81,56,124,43,170.3,37.4
			c16.4-2,32.8-3,48.6-3c37.8,0,72.5,5.8,97.8,16.4c19.4,8.1,32.7,18.7,38.5,30.7L355.7,82.5z M346.1,81.1h7.3
			c-5.9-11.2-18.8-21.2-37.2-28.9c-25.1-10.5-59.6-16.3-97.2-16.3c-15.8,0-32.1,1-48.5,3c-30.1,3.7-58.8,10.4-83.9,19.7
			c22.9-7.8,48.2-13.5,78-17.9c16.1-2.3,32.2-3.7,47.9-4.1c2.8-0.1,5.7-0.1,8.7-0.1c33.6,0,64.6,4.9,87.3,13.7
			C322.8,55.8,341,65.7,346.1,81.1"/>
		<path fill="#FAAF3B" d="M355.2,82.2h-9.9l-0.1-0.3c-4.7-15.2-22.9-25.1-37.3-30.7c-22.6-8.8-53.4-13.6-86.8-13.6
			c-2.9,0-5.8,0-8.6,0.1c-15.6,0.4-31.7,1.8-47.8,4.1c-46.7,6.8-82.2,17-115,33.2l-0.3-0.6c31.8-17.9,74.7-30.9,121-36.5
			c16.4-2,32.7-3,48.6-3c37.8,0,72.4,5.8,97.7,16.4c19.3,8.1,32.5,18.6,38.3,30.5L355.2,82.2z M345.8,81.4h8.2
			c-5.9-11.5-18.9-21.7-37.7-29.6c-25.1-10.5-59.7-16.3-97.4-16.3c-15.8,0-32.1,1-48.5,3c-39.6,4.8-76.7,15-106.5,29.1
			C92.8,55.2,124.6,46.8,164.6,41c16.1-2.3,32.2-3.7,47.8-4.1c2.8-0.1,5.7-0.1,8.7-0.1c33.5,0,64.5,4.9,87.1,13.7
			C322.6,56.1,340.9,66.1,345.8,81.4"/>
		<path fill="#E6BC15" d="M355,82.1h-9.7l-0.1-0.2c-4.7-15.3-22.9-25.2-37.3-30.8c-22.6-8.8-53.4-13.6-86.9-13.6
			c-2.8,0-5.7,0-8.6,0.1c-15.6,0.4-31.7,1.7-47.8,4.1c-46.7,6.8-82.2,17-115,33.2l-0.3-0.5c31.8-17.9,74.7-30.9,121-36.5
			c16.4-2,32.7-3,48.6-3c37.7,0,72.4,5.8,97.6,16.4c19.3,8.1,32.5,18.6,38.3,30.5L355,82.1z M345.7,81.5h8.4
			c-5.8-11.6-18.9-21.9-37.8-29.8c-25.2-10.5-59.8-16.3-97.4-16.3c-15.8,0-32.2,1-48.5,3c-41.5,5-80.3,16-110.7,31.1
			c30.1-13.4,63-22.3,104.9-28.4c16.1-2.3,32.2-3.7,47.8-4.1c2.9-0.1,5.8-0.1,8.7-0.1c33.5,0,64.4,4.9,87.1,13.7
			C322.6,56.2,340.9,66.2,345.7,81.5"/>
		<path fill="#FFD54F" d="M354.7,81.9h-9.2l0-0.1c-4.8-15.3-23-25.3-37.5-30.9c-22.6-8.8-53.5-13.7-87-13.7c-2.9,0-5.8,0-8.6,0.1
			c-15.6,0.4-31.7,1.8-47.8,4.1c-46.7,6.8-82.2,17.1-115.1,33.2l-0.1-0.2C81.2,56.6,124.1,43.6,170.3,38c16.3-2,32.7-3,48.6-3
			c37.7,0,72.4,5.8,97.6,16.4c19.2,8,32.4,18.5,38.2,30.4L354.7,81.9z M345.6,81.7h8.8c-5.8-11.7-18.9-22.2-38-30.1
			c-25.2-10.5-59.8-16.3-97.5-16.3c-15.9,0-32.2,1-48.5,3C125.6,43.6,83.9,56,52.5,73c32-15.3,66.8-25.1,112.1-31.7
			c16.1-2.3,32.2-3.7,47.8-4.1c2.8-0.1,5.7-0.1,8.6-0.1c33.5,0,64.4,4.9,87,13.7C322.6,56.4,340.8,66.3,345.6,81.7"/>
		<g opacity="0.5">
			<g>
				<defs>
					<rect id="SVGID_6_" x="3.2" y="117.6" width="303.2" height="79.1"/>
				</defs>
				<clipPath id="SVGID_7_">
					<use xlink:href="#SVGID_6_"  overflow="visible"/>
				</clipPath>
				<path clip-path="url(#SVGID_7_)" d="M188.5,181.8c-16.1,2.3-32.1,3.7-47.7,4.1c-36.8,0.9-70.6-3.9-95.2-13.5
					c-15.9-6.2-34.6-17.2-37.8-34.2c-2.4-12.7-0.5-19.2-0.5-19.2c-5.7-7.1-4,13-3.2,19.4c2,16.7,16.5,31.1,42,41.8
					c25.3,10.6,60.1,16.4,97.9,16.4c15.9,0,32.3-1,48.7-3c43-5.2,82.8-16.7,113.8-32.6l-3.1-2.2
					C279.2,168.2,217.6,177.6,188.5,181.8"/>
			</g>
		</g>
		<g>
			<defs>
				<path id="SVGID_8_" d="M186,179.4c-16.1,2.3-32.1,3.7-47.7,4.1c-36.8,0.9-70.6-3.9-95.2-13.5c-15.9-6.2-34.6-17.2-37.8-34.2
					c-2.4-12.7-0.5-19.2-0.5-19.2c-2.9,6.5-4,13-3.2,19.4c2,16.7,16.5,31.1,42,41.8c25.3,10.6,60.1,16.4,97.9,16.4
					c15.9,0,32.3-1,48.7-3c43-5.2,82.8-16.7,113.7-32.6h-37.2C242.7,168,215.2,175.1,186,179.4"/>
			</defs>
			<clipPath id="SVGID_9_">
				<use xlink:href="#SVGID_8_"  overflow="visible"/>
			</clipPath>
			
				<linearGradient id="SVGID_10_" gradientUnits="userSpaceOnUse" x1="-125.1482" y1="527.0098" x2="-122.9204" y2="527.0098" gradientTransform="matrix(135.7686 0 0 -135.7686 16992.0801 71706.8203)">
				<stop  offset="0" style="stop-color:#F05C27"/>
				<stop  offset="5.618000e-03" style="stop-color:#F05C27"/>
				<stop  offset="0.2086" style="stop-color:#F89C1C"/>
				<stop  offset="0.5276" style="stop-color:#F69221"/>
				<stop  offset="0.7055" style="stop-color:#F89C1C"/>
				<stop  offset="1" style="stop-color:#F05C27"/>
			</linearGradient>
			<rect x="0.9" y="116.6" clip-path="url(#SVGID_9_)" fill="url(#SVGID_10_)" width="303" height="77.6"/>
		</g>
		<path fill="#F05C27" d="M140.4,194.3c-37.8,0-72.5-5.8-97.8-16.4c-25.3-10.6-39.8-25-41.8-41.6c-0.4-3.6-0.3-7.3,0.5-10.9l1.4,0.1
			c0.1,3.3,0.5,6.9,1.2,10.7c3.5,18.4,25.3,29.4,38,34.4c22.5,8.8,53.3,13.6,86.7,13.6c2.8,0,5.7,0,8.6-0.1
			c15.6-0.4,31.6-1.7,47.7-4.1c28.7-4.2,56.5-11.3,80.6-20.7l0.1-0.1h32.9l0.3,1.4c-30.3,14.9-69.3,25.7-109.9,30.7
			C172.6,193.3,156.3,194.3,140.4,194.3 M2,134c0,0.7,0.1,1.4,0.2,2.1c1.9,16,16.1,30,40.9,40.4c25.1,10.5,59.6,16.3,97.2,16.3
			c15.8,0,32.1-1,48.5-3c39.2-4.8,76.8-15.1,106.5-29.1h-29.4c-24.2,9.4-52.1,16.5-80.8,20.7c-16.2,2.3-32.3,3.7-47.9,4.1
			c-3,0.1-5.9,0.1-8.7,0.1c-33.6,0-64.6-4.9-87.3-13.7c-13-5-35.2-16.4-38.9-35.5C2.3,135.6,2.2,134.8,2,134"/>
		<path fill="#FAAF3B" d="M140.4,193.9c-37.7,0-72.4-5.8-97.7-16.4C17.5,167,3.1,152.7,1.1,136.3c-0.4-3.5-0.3-7.2,0.5-10.8l0.7,0.1
			c0.1,3.3,0.5,6.9,1.2,10.7c3.5,18.6,25.4,29.7,38.2,34.6c22.6,8.8,53.4,13.6,86.9,13.6c2.8,0,5.7,0,8.6-0.1
			c15.6-0.4,31.6-1.8,47.8-4.1c28.7-4.2,56.6-11.3,80.7-20.7l0.1,0h32.8l0.2,0.7c-30.2,14.8-69.2,25.7-109.8,30.6
			C172.6,192.9,156.2,193.9,140.4,193.9 M1.8,129c-0.2,2.4-0.2,4.8,0.1,7.1c2,16.2,16.2,30.3,41.1,40.7
			c25.1,10.5,59.7,16.3,97.4,16.3c15.9,0,32.2-1,48.5-3c39.8-4.8,78.2-15.4,108.1-29.9h-31.1c-24.1,9.4-52.1,16.5-80.8,20.7
			c-16.1,2.3-32.2,3.7-47.8,4.1c-3,0.1-5.9,0.1-8.6,0.1c-33.5,0-64.5-4.9-87.1-13.7c-12.9-5-35-16.3-38.6-35.2
			C2.3,133.8,2,131.4,1.8,129"/>
		<path fill="#E6BC15" d="M140.4,193.8c-37.7,0-72.4-5.8-97.6-16.4c-25.2-10.5-39.5-24.8-41.5-41.2c-0.4-3.5-0.3-7.2,0.5-10.8l0.5,0
			c0.1,3.3,0.5,7,1.2,10.8C7,154.9,28.9,166,41.7,171c22.6,8.8,53.4,13.6,86.9,13.6c2.8,0,5.7,0,8.6-0.1c15.6-0.4,31.6-1.8,47.8-4.1
			c28.7-4.2,56.6-11.3,80.7-20.7l0.1,0h32.8l0.1,0.5c-30.2,14.8-69.2,25.7-109.7,30.6C172.6,192.8,156.2,193.8,140.4,193.8
			 M1.8,128.1c-0.3,2.7-0.4,5.4,0,8.1c2,16.2,16.2,30.3,41.2,40.8c25.2,10.5,59.8,16.3,97.4,16.3c15.8,0,32.2-1,48.5-3
			c40-4.9,78.5-15.5,108.5-30.1h-31.5c-24.1,9.4-52.1,16.5-80.8,20.7c-16.1,2.3-32.2,3.7-47.8,4.1c-2.9,0.1-5.9,0.1-8.6,0.1
			c-33.5,0-64.4-4.9-87.1-13.7c-12.9-5-35-16.2-38.6-35.1C2.4,133.5,2,130.7,1.8,128.1"/>
		<path fill="#FFD54F" d="M140.4,193.7c-37.7,0-72.4-5.8-97.6-16.4c-25.1-10.5-39.4-24.7-41.4-41.1c-0.4-3.5-0.3-7.1,0.5-10.7l0.2,0
			c0.1,3.3,0.5,7,1.2,10.8c3.6,18.7,25.6,29.9,38.4,34.8c22.6,8.8,53.5,13.7,87,13.7c2.8,0,5.7,0,8.6-0.1
			c15.6-0.4,31.7-1.8,47.8-4.1c28.7-4.2,56.6-11.3,80.8-20.7l32.8,0l0,0.2c-30.2,14.8-69.2,25.7-109.7,30.6
			C172.6,192.6,156.2,193.7,140.4,193.7 M1.9,126.3c-0.6,3.3-0.7,6.6-0.3,9.9c2,16.3,16.3,30.4,41.3,40.9
			c25.2,10.5,59.8,16.3,97.5,16.3c15.9,0,32.2-1,48.5-3c40.4-4.9,79.1-15.7,109.3-30.4h-32.4c-24.1,9.4-52.1,16.5-80.8,20.7
			c-16.1,2.3-32.2,3.7-47.8,4.1c-3,0.1-5.9,0.1-8.6,0.1c-33.5,0-64.4-4.9-87-13.7c-12.8-5-34.9-16.2-38.5-35
			C2.4,132.8,2,129.5,1.9,126.3"/>
		<path fill="#A24C24" d="M179.9,44.7c-0.7-1-2-1.7-3.3-1.8c-0.2,0-0.4,0-0.6,0c-1.1,0.1-2.2,0.5-3,1.3l-13.6,16.6
			c0,0-0.9,0.8-1.4,0.4c-0.5-0.5-2.1-2.9-2.1-2.9l12.9-17c0.5-1.1,0.5-2.6-0.1-3.8c-0.6-1.2-1.7-2.1-2.9-2.5l-21.6-3.7
			c0,0-1,0-0.9-0.8c0-0.5-2-2.7-2-2.7l25,2c1.2-0.1,2.5-0.9,3.2-2c0.8-1.1,1-2.5,0.7-3.8l-7.5-20.1c0,0-0.2-0.7,0.4-1
			c0.6-0.3,1.1,0.3,1.1,0.3L174.6,22c0.7,1,2,1.7,3.3,1.8c0.2,0,0.4,0,0.7,0c1.1-0.1,2.2-0.5,3-1.3l12.7-19.1c0,0,1.8,2,2,2.2
			c0.7,0.4,0.3,1.2,0.3,1.2l-10.8,18.6c-0.5,1.1-0.5,2.6,0.1,3.8c0.6,1.2,1.7,2.1,2.9,2.5l19.6,1.6c0,0,2.7,2.2,2.6,2.8
			c0,0.7-1.1,0.7-1.1,0.7l-21.5,0c-1.2,0.1-2.5,0.9-3.2,2c-0.8,1.1-1,2.5-0.7,3.8l7.6,20.1c0,0,0.1,0.9-0.3,1.1
			c-0.4,0.2-1.2-0.4-1.2-0.4L179.9,44.7z"/>
		<path fill="#A24C24" d="M220.7,38.3c-0.6-0.7-1.5-1.1-2.5-1.1c-0.2,0-0.3,0-0.5,0c-0.8,0.1-1.6,0.5-2.1,1.1l-9.1,12.9
			c0,0-0.6,0.6-1,0.3c-0.4-0.3-2.1-2.9-2.1-2.9l8.9-12.2c0.3-0.9,0.2-1.9-0.3-2.8c-0.5-0.9-1.3-1.5-2.3-1.7l-16-1.5
			c0,0-0.7,0-0.7-0.5c0-0.4-2-2.3-2-2.3l18.8,0.6c0.9-0.2,1.8-0.8,2.3-1.6c0.5-0.8,0.6-1.9,0.3-2.8l-6.6-14.3c0,0-1.5-2.8-1.1-3
			c0.5-0.2,2.1,2.4,2.1,2.4l8.8,13c0.6,0.7,1.5,1.1,2.5,1.1c0.2,0,0.3,0,0.5,0c0.8-0.1,1.6-0.5,2.1-1.1l7.8-15.6c0,0,1.8,2.4,2,2.5
			c0.5,0.3,0.3,0.9,0.3,0.9L224,23.9c-0.3,0.8-0.2,1.9,0.3,2.8c0.5,0.8,1.3,1.5,2.3,1.7l13.9-1c0,0,2.6,2.6,2.6,3
			c0,0.5-0.8,0.5-0.8,0.5L226.6,32c-0.9,0.2-1.8,0.8-2.3,1.6c-0.5,0.8-0.6,1.9-0.3,2.8l6.6,14.3c0,0,0.1,0.7-0.2,0.8
			c-0.3,0.2-0.9-0.2-0.9-0.2L220.7,38.3z"/>
		<path fill="#A24C24" d="M132.8,58.7c-1.2-1-2.9-1.4-4.5-1.1c-0.3,0-0.5,0.1-0.8,0.2c-1.3,0.4-2.5,1.3-3.1,2.5l-10.9,24.1
			c0,0-0.8,1.3-1.6,0.9c-0.8-0.4-2.3-3-2.3-3l8.9-24.1c0.2-1.5-0.2-3.2-1.3-4.5c-1.1-1.3-2.7-2-4.3-2L86,54.3c0,0-1.2,0.3-1.4-0.6
			c-0.1-0.6-1.7-2.9-1.7-2.9l28.8-5.2c1.4-0.5,2.7-1.8,3.2-3.4c0.6-1.6,0.4-3.3-0.4-4.7L99.1,15.9c0,0-0.5-0.7,0.2-1.3
			c0.7-0.5,1.3,0,1.3,0l18.7,18.7c1.2,1,2.9,1.4,4.5,1.1c0.3,0,0.5-0.1,0.8-0.2c1.3-0.4,2.4-1.3,3.1-2.5L138,4.9c0,0,1.6,1.8,1.9,2
			c1,0.3,0.7,1.3,0.7,1.3l-6.9,25.6c-0.2,1.5,0.2,3.2,1.3,4.5c1.1,1.3,2.7,2,4.3,2l25.5-4.7c0,0,2.2,2.1,2.4,2.8
			c0.2,0.8-1.1,1.1-1.1,1.1l-25.6,6.9c-1.4,0.5-2.7,1.8-3.2,3.4c-0.6,1.6-0.4,3.3,0.4,4.7l15.5,21.5c0,0,0.4,1,0,1.4
			c-0.4,0.4-1.5-0.1-1.5-0.1L132.8,58.7z"/>
		<path fill="#F89C1C" d="M177.6,42c-0.7-1-2-1.7-3.3-1.8c-0.2,0-0.4,0-0.7,0c-1.1,0.1-2.2,0.5-3,1.3L157,58.1c0,0-0.9,0.8-1.4,0.4
			c-0.5-0.5,0.1-1.3,0.1-1.3l10.7-18.6c0.5-1.1,0.5-2.6-0.1-3.8c-0.6-1.2-1.7-2.1-2.9-2.5l-21.6-3.7c0,0-1,0-0.9-0.8
			c0-0.5,1.5-0.7,1.5-0.7l21.5,0c1.2-0.1,2.5-0.9,3.2-2c0.8-1.1,1-2.5,0.7-3.8l-7.5-20.1c0,0-0.2-0.7,0.4-1c0.6-0.3,1,0.3,1,0.3
			l10.7,18.6c0.7,1,2,1.7,3.3,1.8c0.2,0,0.4,0,0.7,0c1.1-0.1,2.2-0.5,3-1.3l13.7-16.6c0,0,0.8-0.5,1-0.3c0.7,0.5,0.3,1.2,0.3,1.2
			l-10.8,18.6c-0.5,1.1-0.5,2.6,0.1,3.8c0.6,1.2,1.7,2.1,2.9,2.5l21.3,3.5c0,0,1,0.3,1,0.9c0,0.7-1.1,0.7-1.1,0.7l-21.5,0
			c-1.2,0.1-2.5,0.9-3.2,2c-0.8,1.1-1,2.5-0.7,3.8l7.6,20.1c0,0,0.1,0.9-0.3,1.1c-0.4,0.2-1.2-0.4-1.2-0.4L177.6,42z"/>
		<path fill="#F89C1C" d="M167.7,25.8c-0.9,1.3-2.4,2.2-3.9,2.3l-21.5,0l21.3,3.5c1.5,0.4,2.8,1.4,3.5,2.9c0.7,1.5,0.7,3.1,0.1,4.5
			l-10.7,18.6L170.1,41c1.1-1.1,2.6-1.7,4.3-1.5c1.6,0.1,3.1,1,3.9,2.2l10.8,18.6L181.4,40c-0.4-1.5-0.1-3.1,0.8-4.4
			c0.9-1.3,2.4-2.2,3.9-2.3l21.5,0l-21.3-3.5c-1.5-0.4-2.8-1.4-3.5-2.9c-0.7-1.5-0.7-3.1-0.1-4.5l10.8-18.6l-13.7,16.7
			c-1.1,1.1-2.6,1.7-4.3,1.5c-1.6-0.1-3.1-1-3.9-2.2L160.9,1.1l7.6,20.2C168.9,22.8,168.6,24.4,167.7,25.8"/>
		<path fill="#FFD54F" d="M162.3,4.1l7.1,18.5c0.3,1.3,0.1,2.7-0.7,3.8c-0.8,1.2-2,1.9-3.3,2l-19.8-0.1l19.6,3.2
			c1.2,0.3,2.4,1.2,3,2.5c0.6,1.3,0.6,2.7,0,3.9l-10,17l12.5-15.3c0.9-0.9,2.3-1.4,3.7-1.3c1.4,0.1,2.6,0.8,3.4,1.9l9.8,17.1
			l-7.1-18.4c-0.3-1.3-0.1-2.7,0.7-3.8c0.8-1.2,2-1.9,3.3-2l19.7,0l-19.6-3.1c-1.3-0.3-2.4-1.2-3-2.5c-0.6-1.3-0.6-2.7-0.1-3.9
			l9.9-17.1l-12.5,15.4c-0.9,0.9-2.3,1.4-3.7,1.3c-1.4-0.1-2.6-0.8-3.4-1.9L162.3,4.1z"/>
		<path fill="#FFF100" d="M163.7,7.1l6.6,16.9c0.3,1,0.1,2.2-0.6,3.2c-0.7,1-1.7,1.6-2.8,1.7l-18.1-0.3l18,2.8c1,0.3,2,1,2.5,2.1
			c0.5,1.1,0.5,2.3,0,3.3l-9.3,15.4l11.4-14c0.8-0.8,1.9-1.2,3.1-1.1c1.2,0.1,2.2,0.7,2.8,1.6l8.8,15.6l-6.5-16.7
			c-0.3-1-0.1-2.2,0.6-3.2c0.7-1,1.7-1.6,2.8-1.7l17.9,0.1L183.2,30c-1-0.3-2-1-2.5-2.1c-0.5-1.1-0.5-2.3,0-3.2l9.1-15.6l-11.2,14.2
			c-0.8,0.8-1.9,1.2-3.1,1.1c-1.2-0.1-2.2-0.7-2.8-1.6L163.7,7.1z"/>
		<path fill="#FFFFFF" d="M152.2,28.8l16.3,2.4c0.8,0.2,1.6,0.8,2,1.7c0.4,0.8,0.4,1.8,0,2.6L162,49.4l10.2-12.7
			c0.6-0.6,1.5-1,2.5-0.9c0.9,0.1,1.8,0.6,2.3,1.3l7.7,14.1l-5.9-15c-0.2-0.8-0.1-1.8,0.5-2.6c0.5-0.8,1.4-1.2,2.2-1.3l16.2,0.2
			l-16-2.2c-0.8-0.2-1.6-0.8-2-1.7c-0.4-0.9-0.4-1.8,0-2.6l8.3-14l-10,12.9c-0.6,0.6-1.5,1-2.5,0.9c-0.9-0.1-1.8-0.6-2.3-1.3
			l-8-14.3l6.2,15.3c0.2,0.8,0.1,1.8-0.5,2.6c-0.5,0.8-1.4,1.2-2.3,1.3L152.2,28.8z"/>
		<path fill="#FFF100" d="M100.4,17.4l13.8,19.4c0.7,1.2,0.8,2.8,0.3,4.2c-0.5,1.4-1.7,2.5-3,3l-23.1,5.4l23.7-2.1
			c1.4,0,2.9,0.7,3.8,1.9c1,1.2,1.3,2.7,1.1,4.1l-6.9,22.5l10-21.4c0.7-1.2,2-2.1,3.5-2.4c1.5-0.3,3,0.2,4.1,1.1l16.1,17.1
			l-13.6-19.2c-0.7-1.2-0.8-2.8-0.3-4.3c0.5-1.4,1.7-2.5,3-3l22.9-5.5l-23.5,2.3c-1.4,0-2.9-0.7-3.8-1.9c-1-1.2-1.3-2.7-1.1-4.1
			l6.7-22.7l-9.8,21.6c-0.7,1.2-2,2.1-3.5,2.4c-1.5,0.3-3-0.2-4.1-1.1L100.4,17.4z"/>
		<path fill="#FFFFFF" d="M92.6,48.6l21.5-2.1c1.1,0,2.3,0.6,3.1,1.5c0.8,1,1.1,2.2,0.9,3.3l-6.5,20.3l9-19.4c0.6-1,1.6-1.7,2.9-1.9
			c1.2-0.2,2.4,0.2,3.3,0.9l14.3,15.5l-12.3-17.2c-0.6-1-0.7-2.3-0.2-3.4c0.4-1.2,1.4-2,2.4-2.4l20.6-4.9l-21.1,2.3
			c-1.1,0-2.3-0.6-3.1-1.5c-0.8-1-1.1-2.2-0.9-3.3l6.1-20.5L124,35.4c-0.6,1-1.6,1.7-2.8,1.9c-1.2,0.2-2.4-0.2-3.3-0.9l-14.7-15.7
			l12.7,17.4c0.5,1,0.7,2.3,0.2,3.4c-0.4,1.2-1.4,2-2.4,2.4L92.6,48.6z"/>
		<path fill="#F89C1C" d="M218.4,35.6c-0.6-0.7-1.5-1.1-2.5-1.1c-0.2,0-0.3,0-0.5,0c-0.8,0.1-1.6,0.5-2.1,1.1l-9.1,12.9
			c0,0-0.6,0.6-1,0.3c-0.4-0.3,0-0.9,0-0.9l6.9-14.2c0.3-0.8,0.2-1.9-0.3-2.8c-0.5-0.9-1.3-1.5-2.3-1.7l-16-1.5c0,0-0.7,0-0.7-0.5
			c0-0.4,1-0.6,1-0.6l15.7-1.2c0.9-0.2,1.8-0.8,2.3-1.6c0.5-0.8,0.6-1.9,0.3-2.8l-6.6-14.3c0,0-0.2-0.5,0.2-0.7
			c0.5-0.2,0.8,0.2,0.8,0.2l8.8,13c0.6,0.7,1.5,1.1,2.5,1.1c0.2,0,0.3,0,0.5,0c0.8-0.1,1.6-0.5,2.1-1.1l9.1-12.9
			c0,0,0.5-0.4,0.7-0.3c0.5,0.3,0.3,0.9,0.3,0.9l-6.9,14.2c-0.3,0.9-0.2,1.9,0.3,2.8c0.5,0.9,1.3,1.5,2.3,1.7L240,27
			c0,0,0.7,0.1,0.7,0.6c0,0.5-0.8,0.5-0.8,0.5l-15.8,1.2c-0.9,0.2-1.8,0.8-2.3,1.6c-0.5,0.8-0.6,1.9-0.3,2.8l6.6,14.3
			c0,0,0.1,0.7-0.2,0.8c-0.3,0.2-0.9-0.2-0.9-0.2L218.4,35.6z"/>
		<path fill="#F89C1C" d="M210.3,24.2c-0.6,1-1.6,1.7-2.7,1.9l-15.7,1.2l15.8,1.4c1.1,0.2,2.1,0.9,2.7,1.9c0.6,1,0.7,2.3,0.3,3.3
			l-6.9,14.2l9.1-12.9c0.7-0.8,1.8-1.4,3-1.4c1.2,0,2.3,0.5,3,1.4l8.9,13l-6.7-14.3c-0.4-1-0.3-2.3,0.3-3.3c0.6-1,1.6-1.7,2.7-1.9
			l15.8-1.2l-15.8-1.4c-1.1-0.2-2.1-0.9-2.7-1.9c-0.6-1-0.7-2.3-0.3-3.3l6.9-14.2l-9.2,12.9c-0.7,0.8-1.8,1.4-3,1.4
			c-1.2,0-2.3-0.6-3-1.4l-8.8-13l6.6,14.4C211,22,210.9,23.2,210.3,24.2"/>
		<path fill="#FFD54F" d="M205.2,8.7l6.2,13.2c0.3,0.9,0.2,2-0.3,2.8c-0.5,0.9-1.4,1.5-2.3,1.6l-14.5,1l14.5,1.3
			c0.9,0.2,1.8,0.8,2.3,1.7c0.5,0.9,0.6,1.9,0.2,2.8L205,46l8.4-11.9c0.6-0.7,1.6-1.2,2.6-1.2c1,0,2,0.5,2.6,1.2l8.1,12L220.4,33
			c-0.3-0.9-0.2-1.9,0.3-2.8c0.5-0.9,1.4-1.5,2.3-1.6l14.5-1L223,26.3c-0.9-0.2-1.8-0.8-2.3-1.7c-0.5-0.9-0.6-1.9-0.2-2.8l6.4-13
			l-8.3,12c-0.6,0.7-1.6,1.2-2.6,1.2c-1,0-2-0.5-2.6-1.2L205.2,8.7z"/>
		<path fill="#FFF100" d="M206.4,10.8l5.8,12c0.3,0.7,0.2,1.6-0.2,2.4c-0.4,0.7-1.2,1.2-2,1.4l-13.3,0.8l13.3,1.1
			c0.8,0.1,1.5,0.6,1.9,1.4c0.4,0.8,0.5,1.6,0.2,2.4l-6,11.8l7.6-10.9c0.5-0.6,1.3-1,2.2-1c0.9,0,1.7,0.4,2.2,1l7.2,10.9l-5.6-11.9
			c-0.3-0.8-0.2-1.6,0.3-2.4c0.4-0.7,1.2-1.2,2-1.4l13.1-0.9l-13.2-1c-0.8-0.2-1.5-0.7-1.9-1.4c-0.4-0.7-0.5-1.6-0.2-2.4l5.8-11.9
			l-7.5,11c-0.5,0.6-1.3,1-2.2,1c-0.9,0-1.6-0.4-2.2-1L206.4,10.8z"/>
		<path fill="#FFFFFF" d="M199.1,27.3l12.1,0.9c0.6,0.1,1.2,0.5,1.6,1.1c0.3,0.6,0.4,1.3,0.2,1.9l-5.5,10.6l6.8-9.8
			c0.4-0.5,1.1-0.8,1.8-0.8c0.7,0,1.3,0.3,1.7,0.8l6.4,9.9L219,31.2c-0.2-0.6-0.2-1.3,0.2-1.9c0.4-0.6,0.9-1,1.6-1.1l11.8-0.7
			l-11.9-0.8c-0.6-0.1-1.2-0.5-1.6-1.1c-0.3-0.6-0.4-1.3-0.2-1.9l5.3-10.7l-6.6,10c-0.4,0.5-1.1,0.8-1.7,0.8c-0.7,0-1.3-0.3-1.7-0.8
			l-6.6-10.1l5.4,10.8c0.2,0.6,0.1,1.3-0.2,1.9c-0.3,0.6-0.9,1-1.6,1.1L199.1,27.3z"/>
		<path fill="#F89C1C" d="M130.5,56c-1.2-1-2.9-1.4-4.5-1.1c-0.3,0-0.5,0.1-0.8,0.2c-1.3,0.4-2.5,1.3-3.1,2.5l-10.9,24.1
			c0,0-0.8,1.3-1.6,0.9c-0.8-0.4-0.3-1.6-0.3-1.6l6.8-25.5c0.2-1.5-0.2-3.2-1.3-4.5c-1.1-1.3-2.7-2-4.3-2l-26.9,2.5
			c0,0-1.2,0.3-1.4-0.6c-0.1-0.6,1.5-1.2,1.5-1.2l25.6-6.9c1.4-0.5,2.7-1.8,3.2-3.4c0.6-1.6,0.4-3.3-0.4-4.7L96.8,13.2
			c0,0-0.5-0.7,0.2-1.3c0.7-0.5,1.3,0,1.3,0L117,30.7c1.2,1,2.9,1.4,4.5,1.1c0.3,0,0.5-0.1,0.8-0.2c1.3-0.4,2.4-1.3,3.1-2.5l11-24.2
			c0,0,0.8-0.8,1.1-0.7c1,0.3,0.7,1.3,0.7,1.3l-6.9,25.6c-0.2,1.5,0.2,3.2,1.3,4.5c1.1,1.3,2.7,2,4.3,2l26.4-2.6c0,0,1.3,0,1.4,0.8
			c0.2,0.8-1.1,1.1-1.1,1.1l-25.6,6.9c-1.4,0.5-2.7,1.8-3.2,3.4c-0.6,1.6-0.4,3.3,0.4,4.7l15.5,21.5c0,0,0.4,1,0,1.4
			c-0.4,0.4-1.5-0.1-1.5-0.1L130.5,56z"/>
		<path fill="#F89C1C" d="M113.5,39.8c-0.7,1.9-2.1,3.3-3.9,4l-25.6,6.9l26.5-2.6c1.9,0,3.8,0.8,5.1,2.4c1.3,1.5,1.8,3.5,1.5,5.4
			l-6.8,25.5l11-24.2c0.9-1.6,2.6-2.8,4.6-3.2c2-0.4,4,0.2,5.4,1.4L150,74l-15.5-21.6c-0.9-1.6-1.2-3.7-0.5-5.6
			c0.7-1.9,2.2-3.3,3.9-4l25.6-6.9L137,38.6c-1.9,0-3.8-0.8-5.1-2.4c-1.3-1.5-1.8-3.5-1.5-5.4l6.9-25.6l-11,24.2
			c-0.9,1.6-2.6,2.8-4.6,3.2c-2,0.4-4-0.2-5.4-1.4L97.6,12.7l15.5,21.6C114,35.9,114.2,37.9,113.5,39.8"/>
		<path fill="#FFD54F" d="M100.2,15.7l14.4,19.8c0.8,1.4,1,3.1,0.4,4.8c-0.6,1.6-1.8,2.9-3.3,3.4l-23.6,6.2l24.4-2.5
			c1.6,0,3.2,0.7,4.3,2c1.1,1.3,1.6,3,1.3,4.6l-6.5,23.4l10-22.3c0.8-1.4,2.2-2.4,3.9-2.8c1.7-0.3,3.4,0.2,4.7,1.2l17.1,17.2
			L133,51.1c-0.8-1.4-1-3.1-0.4-4.8c0.6-1.6,1.8-2.9,3.3-3.4l23.5-6.2l-24.3,2.6c-1.6,0-3.2-0.7-4.3-2c-1.1-1.3-1.6-3-1.3-4.6
			l6.4-23.5l-10,22.4c-0.8,1.4-2.2,2.4-3.9,2.7c-1.7,0.3-3.4-0.2-4.6-1.2L100.2,15.7z"/>
		<path fill="#FFF100" d="M102.9,18.8l13.3,18c0.7,1.2,0.8,2.6,0.3,4c-0.5,1.4-1.5,2.4-2.8,2.9l-21.6,5.5l22.3-2.4
			c1.3,0,2.7,0.6,3.6,1.7c0.9,1.1,1.3,2.5,1.1,3.9l-6.1,21.3l9.1-20.3c0.7-1.2,1.9-2,3.3-2.3c1.4-0.3,2.8,0.1,3.9,1l15.4,15.8
			l-13.1-17.9c-0.7-1.2-0.8-2.6-0.3-4c0.5-1.4,1.5-2.4,2.8-2.9l21.4-5.6l-22.1,2.5c-1.3,0-2.7-0.6-3.6-1.7c-0.9-1.1-1.3-2.5-1.1-3.9
			l5.9-21.4l-8.9,20.5c-0.7,1.2-1.9,2-3.3,2.3c-1.4,0.3-2.9-0.1-3.9-1L102.9,18.8z"/>
		<path fill="#FFFFFF" d="M96.1,48.4l20.2-2.3c1.1,0,2.2,0.5,2.9,1.4c0.7,0.9,1,2,0.9,3.1l-5.8,19.2l8.2-18.4
			c0.5-0.9,1.5-1.6,2.6-1.8c1.1-0.2,2.3,0.1,3.1,0.8l13.7,14.3l-11.9-16c-0.5-0.9-0.7-2.1-0.3-3.2c0.4-1.1,1.3-1.9,2.3-2.3l19.3-4.9
			l-19.8,2.5c-1.1,0-2.2-0.5-2.9-1.4c-0.7-0.9-1-2-0.9-3.1l5.4-19.4l-7.8,18.6c-0.5,0.9-1.5,1.6-2.6,1.9c-1.1,0.2-2.3-0.1-3.1-0.8
			l-14.1-14.5l12.2,16.2c0.5,0.9,0.7,2.1,0.3,3.2c-0.4,1.1-1.2,1.9-2.3,2.3L96.1,48.4z"/>
		<g>
			
				<image overflow="visible" opacity="0.6" width="1399" height="236" xlink:href="A54139890FC8F40C.png"  transform="matrix(0.2393 0 0 0.2393 18.1062 67.2114)">
			</image>
			<g>
				<g>
					<path fill="#FFFFFF" d="M46.1,112.1c0.6,0,1.9-0.6,2.8-1.2c1.7-1.2,2.3-2.2,3.9-3.7l0.4-0.3c0.8-0.7,1.7-0.9,2.6-0.5
						c1.1,0.5,1.7,1.7,1.3,2.9l-2.1,6.5c-0.1,0.3-0.4,0.5-0.7,0.6c-0.3,0.2-0.6,0.2-1,0.2h-1.2H23.5c-1.3,0-2.6-0.9-2.6-2.2
						c0-0.6,0.2-1.2,0.7-1.5l0.4-0.3c0.5-0.3,1-0.4,1.4-0.8c0.4-0.4,0.8-0.9,0.8-1.4V76.7c0-0.5-0.3-0.9-0.7-1.3
						c-0.4-0.4-0.8-0.5-1.3-0.7l-0.4-0.3C21.3,74.1,21,73.7,21,73c-0.1-1.4,1.3-2.3,2.9-2.3h11.6c1.3,0,3.3,0.3,3.5,1.8
						c0.1,0.8-0.2,1.6-0.8,1.9l-0.7,0.3c-0.5,0.2-0.8,0.3-1.1,0.7c-0.4,0.4-0.8,1-0.8,1.3v33.6c0,0.5,0.2,0.8,0.5,1.1
						c0.5,0.5,2.2,0.6,3.1,0.6H46.1z"/>
					<path fill="#FFFFFF" d="M82.4,96.6l0-0.9c-0.1-2.4-1.1-4.2-3.3-5.2C78,90,76.5,90,76,90.1l-0.6,0.1c-0.8,0.2-1.2,0.5-1.9,1
						c-0.8,0.5-1.4,1.3-1.9,1.7l-0.3,0.2c-0.8,0.6-1.9,1.1-3.2,1c-1.8-0.2-3.6-1.2-3.7-3c0-1.5,1.3-2.8,2.2-3.1l0.9-0.4
						c4.1-1.6,6.9-1.9,11.1-1.7c7.1,0.3,13.5,3.2,14.1,9.3l0.1,0.9v13.7c0,0.8,0.4,1.3,0.8,1.9c0.4,0.4,0.7,0.6,1.2,0.9l0.5,0.3
						c0.6,0.3,0.7,0.9,0.7,1.6c0,1.2-1.4,2.1-2.4,2.1H86c-0.9,0-1.5-0.3-2.1-0.9c-0.6-0.7-0.7-1.8-0.7-2.2v-0.7l-0.8,0.8
						c-2.7,2.9-5.5,4-9.5,3.8c-5.5-0.4-10.7-4-10.8-9.5c-0.1-8.5,10.2-11.3,18.7-11.3H82.4z M82.7,100.5h-1c-4.4,0-8.8,2.7-8.8,7.1
						c0,2.2,1,4,2.9,4.5c3.2,0.8,6.9-3.3,6.9-5.4V100.5z"/>
					<path fill="#FFFFFF" d="M114.2,89.1c3-2.8,6.8-3.9,11.6-3c4.7,0.9,8.5,4.5,8.5,8.9v1v13.5v0.9c0,0.6-0.1,1.1,0.2,1.6
						c0.3,0.5,0.8,0.7,1.3,1l0.6,0.4c0.5,0.3,0.7,0.8,0.7,1.4c0,1-0.8,1.7-1.8,1.7h-11.8c-1,0-2-0.7-2-1.7c0-0.6,0.3-1.1,0.8-1.4
						l0.6-0.4c0.5-0.3,0.9-0.5,1.2-1c0.3-0.5,0.2-1,0.2-1.6v-0.9V96.3v-0.7c0-2.5-2.1-4.6-4.8-4.3c-3,0.3-5.3,2.6-5.3,5.6v0.6v12.2
						v0.9c0,0.3-0.1,1.1,0.2,1.6c0.3,0.5,0.7,0.7,1.3,1l0.6,0.4c0.5,0.3,0.7,0.8,0.7,1.4c0,1-0.8,1.7-1.8,1.7H103c-1,0-2-0.7-2-1.7
						c0-0.6,0.3-1.1,0.8-1.4l0.6-0.4c0.5-0.3,0.9-0.5,1.2-1c0.3-0.5,0.2-1,0.2-1.6v-0.9V96.3v-0.8c0-0.8-0.1-1.4-0.5-2.1
						c-0.4-0.6-1.1-0.8-1.4-1.1c-0.6-0.4-1.2-0.7-1.3-1.4c-0.2-0.9,0.9-1.9,1.3-2.1l0.3-0.2c1.3-0.7,2.1-1,3.5-1.5
						c1.1-0.4,1.7-0.6,2.8-0.9l0.4-0.1c0.8-0.2,2.2-0.2,2.9,0.7c0.7,0.9,0.9,2.8,0.9,3l0.1,0.4L114.2,89.1z"/>
					<path fill="#FFFFFF" d="M163.7,89.2v-9.9v-0.7c0-0.8-0.1-1.4-0.5-2.1c-0.4-0.7-1.4-0.9-1.7-1.3c-0.6-0.5-1.3-0.7-1.4-1.5
						c0-0.9,0.6-1.6,1.4-1.8l0.7-0.2l7.4-2.3c0.8-0.3,2.6-0.3,3.6,0.7c0.8,0.8,0.8,1.8,0.8,3v0.8v35.9v0.9c0,0.5,0.3,0.8,0.6,1.2
						c0.4,0.5,0.8,0.7,1.4,1l0.6,0.4c0.5,0.3,0.7,0.5,0.8,1.2c0.1,1.2-1.1,2.1-2.4,2.1h-8.5c-1,0-1.7-0.6-2.2-1.5
						c-0.5-0.8-0.4-1.2-0.4-2.1l0-0.7l-0.4,0.5c-1.7,2.3-2.9,3.9-5.6,4.5c-7.1,1.5-16.2-6.5-16.2-16.2c0-8.4,6.8-16,15.7-14.9
						c3.9,0.5,5.4,1.9,5.9,2.4L163.7,89.2z M163.7,101c-0.1-4.9-1.5-10.9-6.4-11.1c-5.2-0.2-6.9,6-7,11.4c-0.1,5.2,1.8,11.7,7,11.5
						C162.4,112.7,163.8,106.2,163.7,101"/>
					<path fill="#FFFFFF" d="M195,96.9v0.6v12.2v0.9c0,0.3-0.1,1.1,0.2,1.6c0.3,0.5,0.8,0.7,1.2,1l0.6,0.4c0.5,0.3,0.8,0.8,0.8,1.4
						c0,1-0.8,1.7-1.8,1.7h-11.8c-1,0-2-0.7-2-1.7c0-0.6,0.2-1.1,0.8-1.4l0.6-0.4c0.5-0.3,0.9-0.5,1.2-1c0.3-0.5,0.2-1,0.2-1.6v-0.9
						V96.3v-0.8c0-0.8-0.1-1.4-0.5-2.1c-0.4-0.6-1.1-0.8-1.4-1.1c-0.6-0.4-1.2-0.7-1.3-1.4c-0.2-0.9,0.9-1.9,1.3-2.1l0.3-0.2
						c1.3-0.7,2.1-1,3.5-1.5c1.1-0.4,1.7-0.6,2.9-0.9l0.4-0.1c0.8-0.2,2.2-0.2,2.9,0.7c0.7,0.9,0.9,2.8,0.9,3l0.1,0.4l1.3-1.2
						c3-2.8,6.7-3.8,11.5-2.9c2.5,0.5,5.3,3.6,5.4,3.7l0.6,0.8l0.9-1c2.8-3.1,7.3-4.4,12-3.6c4.7,0.8,8.4,4.5,8.4,8.9v1v13.5v0.9
						c0,0.6-0.1,1.1,0.2,1.6c0.3,0.5,0.8,0.7,1.3,1l0.6,0.4c0.5,0.3,0.7,0.8,0.7,1.4c0,1-0.9,1.7-1.8,1.7h-11.8c-1,0-2-0.7-2-1.7
						c0-0.6,0.3-1.1,0.8-1.4l0.6-0.4c0.5-0.3,0.9-0.5,1.2-1c0.3-0.5,0.2-1,0.2-1.6v-0.9V96.3v-0.7c0-1.5-2.1-4.1-4.8-3.9
						c-2.9,0.1-5.3,3.3-5.3,5.3v0.6v12.2v1c0,0.9,0,1,0.3,1.6c0.3,0.5,0.7,0.7,1.2,1l0.6,0.4c0.5,0.3,0.8,0.8,0.8,1.4
						c0,1-0.9,1.7-1.8,1.7h-11.8c-1,0-2-0.7-2-1.7c0-0.6,0.2-1.1,0.7-1.4l0.6-0.4c0.6-0.4,1.2-0.4,1.5-1c0.3-0.5,0.2-1,0.2-1.6v-0.9
						V96.3v-0.8c0-1.3-1.2-3.8-3.7-3.9C197.4,91.5,195,94,195,96.9"/>
					<path fill="#FFFFFF" d="M261.6,96.6l0-0.9c-0.1-2.4-1.1-4.2-3.3-5.2c-1.1-0.5-2.6-0.5-3.1-0.4l-0.6,0.1c-0.8,0.2-1.2,0.5-1.9,1
						c-0.8,0.5-1.4,1.3-1.9,1.7l-0.3,0.2c-0.8,0.6-1.9,1.1-3.2,1c-1.8-0.2-3.6-1.2-3.7-3c0-1.5,1.3-2.8,2.2-3.1l0.9-0.4
						c4.1-1.6,6.9-1.9,11.1-1.7c7.1,0.3,13.5,3.2,14.1,9.3l0.1,0.9v13.7c0,0.8,0.4,1.3,0.8,1.9c0.4,0.4,0.8,0.6,1.2,0.9l0.5,0.3
						c0.6,0.3,0.8,0.9,0.8,1.6c0,1.2-1.4,2.1-2.4,2.1h-7.7c-0.8,0-1.5-0.3-2.1-0.9c-0.6-0.7-0.7-1.8-0.7-2.2v-0.7l-0.8,0.8
						c-2.7,2.9-5.5,4-9.5,3.8c-5.5-0.4-10.7-4-10.8-9.5c-0.1-8.5,10.2-11.3,18.7-11.3H261.6z M261.9,100.5h-1
						c-4.4,0-8.8,2.7-8.8,7.1c0,2.2,1,4,2.9,4.5c3.2,0.8,7-3.3,7-5.4V100.5z"/>
					<path fill="#FFFFFF" d="M294.4,101.5v8.2v0.9c0,0.3,0.4,1.1,0.8,1.6c0.4,0.4,0.8,0.6,1.3,0.9l0.5,0.3c0.5,0.3,0.7,0.9,0.7,1.6
						c0,0.9-0.8,1.8-1.7,1.8h-12.9c-1,0-1.9-0.7-2-1.7c0-0.7,0.1-1.4,0.7-1.7l0.5-0.2c0.5-0.2,0.9-0.4,1.3-0.8
						c0.5-0.4,0.7-1.1,0.7-1.6v-0.9V96.3v-0.8c0-1-0.8-1.5-1.6-2.1c-0.5-0.4-1.2-0.6-1.5-1c-0.6-0.4-1.1-0.8-1.2-1.5
						c-0.1-0.9,0.9-1.9,1.3-2.1l0.3-0.2c1.3-0.7,2.1-1,3.5-1.5c1.1-0.4,1.7-0.6,2.8-0.9l0.4-0.1c0.8-0.2,2.3-0.2,3,0.7
						c0.7,0.9,1.6,3.5,1.8,4.9l0.1,0.4l0.6-0.9c2.3-3.5,4.4-4.8,6.6-5.1c3.4-0.5,5.7,1.9,5.6,4.7c-0.1,2.1-1.2,3.9-3.3,4.3
						c-0.5,0.1-1.3,0-2.1-0.3l-0.6-0.3c-0.9-0.3-1.6-0.4-2.5,0c-2.2,0.8-3.2,5.6-3.2,6.3V101.5z"/>
					<path fill="#FFFFFF" d="M324.1,104.1v5.6v0.9c0,0.5,0,0.9,0.3,1.3c0.2,0.5,0.6,0.7,1,1l0.6,0.4c0.5,0.3,0.7,0.8,0.8,1.4
						c0,1-0.7,2-1.6,2h-11.9c-1,0-1.7-0.8-1.7-1.8c0-0.7,0.3-1.1,0.8-1.5l0.5-0.4c0.3-0.3,0.7-0.4,0.9-0.8c0.3-0.5,0.3-1,0.3-1.6
						v-0.9V79.3v-0.7c0-0.8-0.1-1.4-0.5-2.1c-0.5-0.7-1.4-0.9-1.7-1.2c-0.6-0.5-1.4-0.8-1.4-1.6c-0.1-0.9,0.6-1.5,1.4-1.8l0.7-0.2
						l7.4-2.3c0.8-0.2,2.6-0.3,3.6,0.7c0.8,0.8,0.7,1.8,0.7,3v0.8v25.6l0.7-0.3c1.9-0.8,2.9-1.7,4.4-2.8c1.4-1.1,2.9-2.7,3.5-3.3
						l0.3-0.3c0.5-0.5,0.7-1,0.6-1.7c-0.1-0.5-0.5-0.8-0.9-1.1l-0.4-0.2c-0.5-0.3-0.7-0.8-0.8-1.3c-0.2-1.3,1.8-1.8,2.9-1.8h7.3
						c1.1,0,2.7,0.4,2.8,1.7c0,1-0.7,1.6-1.5,2.1l-0.5,0.3c-0.6,0.3-0.9,0.6-1.4,1c-0.4,0.3-0.7,0.6-1.1,1l-0.5,0.5
						c-1,0.9-1.6,1.5-2.5,2.4c-0.9,0.8-1.3,1.3-2.2,2l-0.4,0.3l0.5,0.5c2.7,2.7,3.2,3.3,5,5.6c1.9,2.4,3.9,6,4.3,6.7l0.3,0.6
						c0.2,0.3,0.4,0.5,0.6,0.8c0.3,0.3,0.6,0.5,1,0.8l0.5,0.3c0.6,0.3,0.8,1,0.8,1.7c-0.1,1.2-0.9,1.9-2.4,1.9h-11.5
						c-1.2,0-2.6-0.7-2.4-1.9c0-0.5,0.2-1,0.7-1.2l0.3-0.2c0.5-0.3,0.8-0.6,0.9-1.2c0-0.3,0-0.6-0.1-0.9l-0.2-0.4
						c-0.2-0.6-1.5-2.5-2.5-4c-1.1-1.5-2.4-3.1-3.1-3.8l-0.3-0.3L324.1,104.1z"/>
				</g>
			</g>
		</g>
		<g>
			
				<image overflow="visible" opacity="0.6" width="1375" height="114" xlink:href="A54139890FC8F40F.png"  transform="matrix(0.2393 0 0 0.2393 20.1335 130.1205)">
			</image>
			<g>
				<g>
					<path fill="#FFFFFF" d="M26.4,134.4c2.2-1.7,5.1-2.6,8.3-2.6c1.6,0,4,0.3,5.4,0.7c0.4,0.1,0.6,0.2,0.9,0.1
						c0,0.7,0.2,2.6,0.4,4.5c-0.2,0.2-0.6,0.3-0.8,0.1c-0.5-2.1-1.8-4.5-6.3-4.5c-4.7,0-8.6,3-8.6,9.3c0,6.4,4.1,10,9.1,10
						c3.9,0,5.7-2.6,6.4-4.4c0.2-0.2,0.7-0.1,0.8,0.1c-0.2,1.6-1,3.6-1.5,4.2c-0.4,0.1-0.7,0.2-1.1,0.3c-0.7,0.2-2.9,0.7-4.8,0.7
						c-2.8,0-5.4-0.6-7.6-2c-2.4-1.7-4.3-4.5-4.3-8.4C22.5,139.1,24,136.2,26.4,134.4"/>
					<path fill="#FFFFFF" d="M78.1,137c0-3.2-0.1-3.8-1.9-3.9l-0.8-0.1c-0.2-0.1-0.1-0.7,0.1-0.8c1.5,0.1,2.6,0.1,3.8,0.1
						c1.2,0,2.3,0,3.8-0.1c0.2,0.1,0.2,0.6,0.1,0.8l-0.8,0.1c-1.8,0.2-1.9,0.7-1.9,3.9v10.9c0,3.2,0.1,3.7,1.9,3.9l0.8,0.1
						c0.2,0.1,0.1,0.7-0.1,0.8c-1.5-0.1-2.6-0.1-3.8-0.1c-1.3,0-2.3,0-3.8,0.1c-0.2-0.1-0.2-0.6-0.1-0.8l0.8-0.1
						c1.8-0.2,1.9-0.6,1.9-3.9V137z"/>
					<path fill="#FFFFFF" d="M136.6,147.3c0,0.9,0,4.6,0.1,5.3c-0.1,0.2-0.2,0.3-0.6,0.3c-0.4-0.5-1.2-1.6-3.9-4.6l-7.1-8.1
						c-0.8-0.9-2.9-3.5-3.5-4.1h-0.1c-0.1,0.4-0.2,1.1-0.2,2v6.7c0,1.4,0.1,5.4,0.5,6.3c0.2,0.3,0.8,0.5,1.6,0.6l0.9,0.1
						c0.2,0.2,0.2,0.6-0.1,0.8c-1.4-0.1-2.4-0.1-3.6-0.1c-1.3,0-2.1,0-3.2,0.1c-0.2-0.2-0.2-0.6-0.1-0.8l0.8-0.1
						c0.7-0.1,1.2-0.3,1.3-0.6c0.4-1.1,0.4-4.8,0.4-6.3V136c0-0.9,0-1.5-0.7-2.2c-0.4-0.4-1.2-0.6-1.9-0.7l-0.5-0.1
						c-0.2-0.2-0.2-0.6,0.1-0.8c1.3,0.1,2.9,0.1,3.5,0.1c0.5,0,1,0,1.4-0.1c0.6,1.6,4.2,5.6,5.2,6.7l3,3.3c2.1,2.4,3.6,4.1,5,5.5
						h0.1c0.1-0.1,0.1-0.6,0.1-1.3V140c0-1.4,0-5.4-0.6-6.3c-0.2-0.3-0.7-0.5-1.9-0.6l-0.5-0.1c-0.2-0.2-0.2-0.7,0.1-0.8
						c1.4,0.1,2.4,0.1,3.6,0.1c1.3,0,2.1,0,3.1-0.1c0.2,0.2,0.2,0.6,0.1,0.8l-0.4,0.1c-1,0.2-1.6,0.4-1.7,0.6
						c-0.5,1.1-0.5,4.9-0.5,6.3V147.3z"/>
					<path fill="#FFFFFF" d="M175.9,136.9c0-3.2-0.1-3.6-1.9-3.9l-0.5-0.1c-0.2-0.1-0.1-0.7,0.1-0.8c1.3,0.1,2.4,0.1,3.6,0.1h5.7
						c2,0,3.8,0,4.1-0.1c0.2,0.5,0.4,2.7,0.5,4.1c-0.1,0.2-0.6,0.2-0.8,0.1c-0.5-1.4-0.7-2.5-2.3-2.9c-0.6-0.2-1.6-0.2-3-0.2h-2.2
						c-0.9,0-0.9,0.1-0.9,1.2v6.1c0,0.9,0.1,0.9,1,0.9h1.8c1.3,0,2.2-0.1,2.6-0.2c0.4-0.1,0.6-0.3,0.7-1.1l0.2-1.3
						c0.2-0.2,0.7-0.2,0.8,0c0,0.7-0.1,1.9-0.1,3.1c0,1.1,0.1,2.3,0.1,2.9c-0.1,0.2-0.6,0.2-0.8,0l-0.3-1.2c-0.1-0.6-0.3-1-0.9-1.2
						c-0.4-0.1-1.2-0.2-2.4-0.2h-1.8c-0.9,0-1,0-1,0.8v4.3c0,1.6,0.1,2.6,0.6,3.2c0.4,0.4,1,0.7,3.7,0.7c2.4,0,3.2-0.1,3.9-0.5
						c0.6-0.3,1.4-1.4,2.2-3c0.2-0.2,0.6-0.1,0.8,0.2c-0.2,1.1-1,3.4-1.4,4.3c-2.7-0.1-5.5-0.1-8.2-0.1h-2.7c-1.3,0-2.4,0-4.2,0.1
						c-0.2-0.1-0.2-0.6-0.1-0.8l1-0.1c1.7-0.2,1.9-0.6,1.9-3.8V136.9z"/>
					<path fill="#FFFFFF" d="M233.5,144.3c0.7,1.4,1.4,2.8,2.1,4.2h0.1c0.8-1.4,1.6-3,2.4-4.6l2.9-5.8c1.4-2.8,2.3-4.5,2.3-5.9
						c1,0.1,1.7,0.1,2.3,0.1c0.8,0,1.8,0,2.7-0.1c0.2,0.1,0.2,0.6,0,0.8l-0.6,0.1c-1.9,0.2-2.2,0.8-2.1,2.9
						c0.1,3.2,0.1,8.9,0.3,13.3c0.1,1.5,0.1,2.3,1.5,2.5l1,0.1c0.2,0.2,0.2,0.6-0.1,0.8c-1.3-0.1-2.5-0.1-3.6-0.1
						c-1.1,0-2.4,0-3.7,0.1c-0.2-0.2-0.2-0.6-0.1-0.8l0.9-0.1c1.5-0.2,1.5-0.6,1.5-2.6l-0.1-12.7h-0.1c-0.2,0.3-1.4,2.8-2,4
						l-2.7,5.3c-1.4,2.7-2.8,5.6-3.3,7c-0.1,0.1-0.2,0.1-0.3,0.1c-0.1,0-0.2,0-0.3-0.1c-0.5-1.6-2-4.6-2.7-6.1l-2.7-5.9
						c-0.6-1.4-1.3-3-2-4.4H227c-0.1,1.9-0.2,3.7-0.3,5.4c-0.1,1.9-0.2,4.6-0.2,7.2c0,2.3,0.2,2.7,1.4,2.8l1.2,0.1
						c0.2,0.2,0.2,0.7,0,0.8c-1-0.1-2.2-0.1-3.4-0.1c-1,0-2.1,0-3.1,0.1c-0.2-0.2-0.2-0.6-0.1-0.8l0.7-0.1c1.3-0.2,1.7-0.4,1.9-2.5
						c0.2-2,0.3-3.7,0.5-6.7c0.1-2.5,0.3-5.1,0.3-6.8c0.1-1.9-0.2-2.3-2-2.6l-0.5-0.1c-0.1-0.2-0.1-0.6,0.1-0.8
						c0.9,0.1,1.7,0.1,2.4,0.1c0.7,0,1.5,0,2.5-0.1c-0.1,1.2,0.6,3.1,1.6,5L233.5,144.3z"/>
					<path fill="#FFFFFF" d="M293.7,145.4c-0.2-0.7-0.3-0.8-1.3-0.8h-4.6c-0.8,0-0.9,0.1-1.2,0.7l-1.1,3.2c-0.5,1.4-0.7,2.2-0.7,2.5
						c0,0.4,0.2,0.5,0.9,0.6l1,0.1c0.2,0.2,0.2,0.6-0.1,0.8c-0.8-0.1-1.7-0.1-3.2-0.1c-1,0-2.1,0.1-2.9,0.1
						c-0.2-0.1-0.2-0.6-0.1-0.8l1-0.1c0.7-0.1,1.4-0.4,1.8-1.5c0.6-1.4,1.4-3.4,2.7-6.8l3.1-8.2c0.4-1.1,0.6-1.7,0.5-2.2
						c0.7-0.2,1.3-0.8,1.6-1.2c0.2,0,0.4,0.1,0.4,0.3c0.4,1.3,0.9,2.7,1.3,4.1l4.2,12.3c0.9,2.6,1.3,3.1,2.6,3.2l0.8,0.1
						c0.2,0.2,0.2,0.6,0,0.8c-1.3-0.1-2.3-0.1-3.7-0.1c-1.5,0-2.6,0.1-3.5,0.1c-0.2-0.1-0.3-0.6-0.1-0.8l0.9-0.1
						c0.6-0.1,1.1-0.2,1.1-0.5c0-0.3-0.2-0.9-0.4-1.6L293.7,145.4z M287.6,142.7c-0.2,0.7-0.2,0.7,0.6,0.7h3.8
						c0.9,0,0.9-0.1,0.7-0.9l-1.7-5c-0.2-0.7-0.5-1.6-0.7-1.9h-0.1c-0.1,0.2-0.4,0.9-0.7,1.8L287.6,142.7z"/>
					<path fill="#FFFFFF" d="M338.9,153c-2.6,0-4.2-0.8-4.8-1.1c-0.4-0.7-0.8-2.8-0.8-4.3c0.2-0.2,0.6-0.3,0.7-0.1
						c0.5,1.6,1.7,4.5,5.3,4.5c2.6,0,3.8-1.7,3.8-3.5c0-1.3-0.3-2.8-2.5-4.3l-2.9-1.9c-1.5-1-3.3-2.8-3.3-5.3c0-2.9,2.3-5.3,6.2-5.3
						c0.9,0,2,0.2,2.8,0.4c0.4,0.1,0.8,0.2,1.1,0.2c0.3,0.7,0.6,2.4,0.6,3.7c-0.1,0.2-0.6,0.3-0.8,0.1c-0.4-1.5-1.2-3.5-4.2-3.5
						c-3,0-3.6,2-3.6,3.4c0,1.8,1.5,3,2.6,3.8l2.4,1.5c1.9,1.2,3.8,3,3.8,5.9C345.4,150.7,342.9,153,338.9,153"/>
				</g>
			</g>
		</g>
	</g>
	<g>
		<path fill="#FAAC1F" d="M117.1,218l2.8,22c0.4,3.5,0.7,7.1,1,10.2c0.2-3.1,0.5-6.7,0.9-10.2l2.4-22h6.9l-5.7,38.9h-9l-2.6-22.7
			c-0.4-3.3-0.6-6.5-0.8-9.6c-0.2,3.1-0.4,6.3-0.8,9.6l-2.6,22.7h-9L94.8,218h6.9l2.4,22c0.4,3.5,0.7,7.1,0.9,10.2
			c0.2-3.1,0.5-6.7,1-10.2l2.8-22H117.1z"/>
		<path fill="#FAAC1F" d="M135.1,218h6.9v38.9h-6.9V218z"/>
		<path fill="#FAAC1F" d="M156.1,238.6c-1-3.4-1.9-6.9-2.6-10.1c0.2,3.6,0.4,8,0.4,10.3v18.1h-6.7V218h8.3l5.1,18.2
			c1,3.4,1.9,6.9,2.6,10.1c-0.2-3.6-0.4-8-0.4-10.3V218h6.7v38.9h-8.3L156.1,238.6z"/>
		<path fill="#FAAC1F" d="M186.9,236.8l9.3,20.1h-7.8l-4.7-10.8c-0.8-1.9-1.7-4.3-2.1-5.7v16.5h-6.8V218h6.8v15.9
			c0.5-1.6,1.4-4.1,2.2-5.7l4.4-10.2h7.8L186.9,236.8z"/>
		<path fill="#FAAC1F" d="M199.8,218h6.9v32.5h9.1v6.3h-16V218z"/>
		<path fill="#FAAC1F" d="M219.8,218h18.8v6.3h-11.8v9.7H237v6.2h-10.3v10.3h11.8v6.3h-18.8V218z"/>
		<path fill="#FAAC1F" d="M243,218h10.5c7.5,0,11,2.2,11,12.6c0,6.3-1.7,9.8-5,11.4l5.6,14.8h-7.5l-4.7-13.8h-2.9v13.8H243V218z
			 M249.9,224.3v12.5h3.5c2.8,0,4-1.3,4-6.2c0-4.8-1.2-6.3-3.9-6.3H249.9z"/>
	</g>
</g>
</svg>
