<?xml version="1.0" encoding="utf-8"?>
<!-- Generator: Adobe Illustrator 18.1.1, SVG Export Plug-In . SVG Version: 6.00 Build 0)  -->
<!DOCTYPE svg PUBLIC "-//W3C//DTD SVG 1.1//EN" "http://www.w3.org/Graphics/SVG/1.1/DTD/svg11.dtd">
<svg version="1.1" id="Layer_1" xmlns="http://www.w3.org/2000/svg" xmlns:xlink="http://www.w3.org/1999/xlink" x="0px" y="0px"
	 width="306px" height="396px" viewBox="0 0 306 396" enable-background="new 0 0 306 396" xml:space="preserve">
<rect x="7.5" y="-0.4" fill="#962888" width="291.1" height="396"/>
<polygon fill="none" stroke="#D46B28" stroke-width="0.962" points="20.3,16.5 20.3,378.7 20.3,382 23.5,382 282.6,382 285.9,382 
	285.9,378.7 285.9,16.5 285.9,13.2 282.6,13.2 23.5,13.2 20.3,13.2 "/>
<rect x="25.5" y="18.4" fill="none" stroke="#D46B28" stroke-width="2.879" width="255.2" height="358.4"/>
<g>
	<path fill="#D46B28" d="M77.1,345.5c-0.8,0.3-1.6,0.5-2.4,0.5c-1,0-2-0.2-2.8-0.6c-0.8-0.4-1.5-0.9-2.1-1.6c-0.6-0.7-1-1.4-1.3-2.3
		c-0.3-0.8-0.5-1.7-0.5-2.6c0-1,0.1-2,0.4-2.9c0.3-0.9,0.7-1.7,1.3-2.4s1.2-1.2,2.1-1.7c0.8-0.4,1.8-0.6,2.9-0.6
		c0.8,0,1.5,0.1,2.1,0.3c0.7,0.2,1.3,0.5,1.8,0.8c0.5,0.4,1,0.9,1.3,1.4c0.4,0.6,0.6,1.3,0.7,2.1h-1.9c-0.1-0.5-0.3-1-0.5-1.4
		c-0.2-0.4-0.6-0.7-0.9-1c-0.4-0.2-0.8-0.4-1.2-0.6c-0.5-0.1-1-0.2-1.5-0.2c-0.9,0-1.6,0.2-2.2,0.5c-0.6,0.3-1.1,0.8-1.5,1.3
		c-0.4,0.6-0.7,1.2-0.9,1.9c-0.2,0.7-0.3,1.4-0.3,2.2c0,0.7,0.1,1.4,0.3,2.1c0.2,0.7,0.5,1.3,0.9,1.8c0.4,0.5,0.9,0.9,1.5,1.2
		c0.6,0.3,1.3,0.5,2.1,0.5c0.7,0,1.4-0.1,1.9-0.4c0.6-0.2,1-0.6,1.4-1c0.4-0.4,0.7-0.9,0.9-1.5c0.2-0.6,0.3-1.2,0.3-1.8h-4.5v-1.6
		h6.1v7.4h-1.2l-0.5-1.7C78.6,344.7,77.9,345.2,77.1,345.5z"/>
	<path fill="#D46B28" d="M83.2,335.9c0.3-0.9,0.7-1.7,1.3-2.3c0.6-0.7,1.3-1.2,2.1-1.6c0.8-0.4,1.8-0.6,2.9-0.6
		c1.1,0,2.1,0.2,2.9,0.6c0.8,0.4,1.5,0.9,2.1,1.6c0.6,0.7,1,1.5,1.3,2.3c0.3,0.9,0.4,1.8,0.4,2.8s-0.1,1.9-0.4,2.8
		c-0.3,0.9-0.7,1.7-1.3,2.3c-0.6,0.7-1.3,1.2-2.1,1.6c-0.8,0.4-1.8,0.6-2.9,0.6c-1.1,0-2.1-0.2-2.9-0.6c-0.8-0.4-1.5-0.9-2.1-1.6
		c-0.6-0.7-1-1.5-1.3-2.3c-0.3-0.9-0.4-1.8-0.4-2.8S82.9,336.8,83.2,335.9z M84.9,340.8c0.2,0.7,0.5,1.3,0.9,1.9
		c0.4,0.5,0.9,1,1.5,1.3c0.6,0.3,1.3,0.5,2.2,0.5c0.8,0,1.6-0.2,2.2-0.5c0.6-0.3,1.1-0.8,1.5-1.3c0.4-0.5,0.7-1.2,0.9-1.9
		s0.3-1.4,0.3-2.1s-0.1-1.4-0.3-2.1s-0.5-1.3-0.9-1.9c-0.4-0.5-0.9-1-1.5-1.3c-0.6-0.3-1.3-0.5-2.2-0.5c-0.8,0-1.6,0.2-2.2,0.5
		c-0.6,0.3-1.1,0.8-1.5,1.3c-0.4,0.5-0.7,1.2-0.9,1.9s-0.3,1.4-0.3,2.1S84.7,340.1,84.9,340.8z"/>
	<path fill="#D46B28" d="M98.1,335.9c0.3-0.9,0.7-1.7,1.3-2.3c0.6-0.7,1.3-1.2,2.1-1.6c0.8-0.4,1.8-0.6,2.9-0.6
		c1.1,0,2.1,0.2,2.9,0.6c0.8,0.4,1.5,0.9,2.1,1.6c0.6,0.7,1,1.5,1.3,2.3c0.3,0.9,0.4,1.8,0.4,2.8s-0.1,1.9-0.4,2.8
		c-0.3,0.9-0.7,1.7-1.3,2.3c-0.6,0.7-1.3,1.2-2.1,1.6c-0.8,0.4-1.8,0.6-2.9,0.6c-1.1,0-2.1-0.2-2.9-0.6c-0.8-0.4-1.5-0.9-2.1-1.6
		c-0.6-0.7-1-1.5-1.3-2.3c-0.3-0.9-0.4-1.8-0.4-2.8S97.8,336.8,98.1,335.9z M99.8,340.8c0.2,0.7,0.5,1.3,0.9,1.9
		c0.4,0.5,0.9,1,1.5,1.3c0.6,0.3,1.3,0.5,2.2,0.5s1.6-0.2,2.2-0.5c0.6-0.3,1.1-0.8,1.5-1.3c0.4-0.5,0.7-1.2,0.9-1.9s0.3-1.4,0.3-2.1
		s-0.1-1.4-0.3-2.1s-0.5-1.3-0.9-1.9c-0.4-0.5-0.9-1-1.5-1.3c-0.6-0.3-1.3-0.5-2.2-0.5s-1.6,0.2-2.2,0.5c-0.6,0.3-1.1,0.8-1.5,1.3
		c-0.4,0.5-0.7,1.2-0.9,1.9s-0.3,1.4-0.3,2.1S99.6,340.1,99.8,340.8z"/>
	<path fill="#D46B28" d="M118.1,331.7c2.2,0,3.8,0.5,5,1.6c1.2,1.1,1.7,2.8,1.7,5c0,1.2-0.1,2.2-0.4,3.1c-0.3,0.9-0.7,1.7-1.2,2.3
		c-0.5,0.6-1.2,1.1-2.1,1.4c-0.8,0.3-1.9,0.5-3,0.5h-4.8v-14H118.1z M118.3,344.1c0.2,0,0.5,0,0.8,0c0.3,0,0.6-0.1,1-0.2
		c0.4-0.1,0.7-0.3,1-0.5c0.3-0.2,0.7-0.6,0.9-1c0.3-0.4,0.5-0.9,0.7-1.5c0.2-0.6,0.3-1.3,0.3-2.2c0-0.8-0.1-1.6-0.2-2.2
		c-0.2-0.7-0.4-1.2-0.8-1.7c-0.4-0.5-0.9-0.8-1.4-1.1c-0.6-0.2-1.3-0.4-2.2-0.4h-3.1v10.9H118.3z"/>
	<path fill="#D46B28" d="M132.2,331.7c0.3,0,0.6,0,1,0c0.3,0,0.7,0,1,0.1c0.3,0,0.7,0.1,1,0.1c0.3,0.1,0.5,0.2,0.8,0.3
		c0.5,0.3,0.8,0.7,1.2,1.1c0.3,0.5,0.5,1.1,0.5,1.8c0,0.7-0.2,1.4-0.5,1.9c-0.4,0.5-0.9,0.9-1.5,1.2v0c0.9,0.2,1.5,0.6,2,1.2
		c0.5,0.6,0.7,1.3,0.7,2.2c0,0.5-0.1,1-0.3,1.5c-0.2,0.5-0.5,0.9-0.8,1.3c-0.4,0.4-0.8,0.7-1.3,0.9c-0.5,0.2-1.1,0.3-1.8,0.3h-6.8
		v-14H132.2z M132.7,337.7c1.1,0,1.8-0.2,2.3-0.6c0.5-0.4,0.7-0.9,0.7-1.7c0-0.5-0.1-0.9-0.2-1.2c-0.2-0.3-0.4-0.5-0.6-0.7
		c-0.3-0.2-0.6-0.3-1-0.3c-0.4,0-0.7-0.1-1.1-0.1H129v4.4H132.7z M133.6,344.1c0.8,0,1.5-0.2,1.9-0.7c0.5-0.4,0.7-1.1,0.7-1.8
		c0-0.5-0.1-0.8-0.3-1.1c-0.2-0.3-0.4-0.5-0.7-0.7c-0.3-0.2-0.6-0.3-1-0.4c-0.4-0.1-0.7-0.1-1.1-0.1H129v4.8H133.6z"/>
	<path fill="#D46B28" d="M146.3,345.7h-1.9V340l-5.4-8.3h2.2l4.2,6.7l4.1-6.7h2.1l-5.3,8.3V345.7z"/>
	<path fill="#D46B28" d="M162.9,331.7v1.6h-7.8v4.4h7.3v1.6h-7.3v4.8h7.9v1.6h-9.7v-14H162.9z"/>
	<path fill="#D46B28" d="M181.4,345.7l-3.2-11.8h0l-3.2,11.8H173l-3.6-14h1.9l2.7,11.6h0l3.1-11.6h2l3.1,11.6h0l2.8-11.6h1.9
		l-3.7,14H181.4z"/>
	<path fill="#D46B28" d="M190.7,331.7v14h-1.9v-14H190.7z"/>
	<path fill="#D46B28" d="M195.8,331.7l7.4,11.3h0v-11.3h1.8v14h-2l-7.3-11.2h0v11.2h-1.8v-14H195.8z"/>
	<path fill="#D46B28" d="M206.5,333.3v-1.6h11.2v1.6h-4.7v12.4h-1.9v-12.4H206.5z"/>
	<path fill="#D46B28" d="M228.9,331.7v1.6h-7.8v4.4h7.3v1.6h-7.3v4.8h7.9v1.6h-9.7v-14H228.9z"/>
	<path fill="#D46B28" d="M237.8,331.7c1.3,0,2.4,0.3,3.1,1c0.8,0.7,1.1,1.5,1.1,2.7c0,0.8-0.2,1.6-0.6,2.2c-0.4,0.6-1,1.1-1.9,1.3v0
		c0.4,0.1,0.7,0.2,1,0.4c0.3,0.2,0.5,0.4,0.6,0.7c0.2,0.3,0.3,0.5,0.3,0.9c0.1,0.3,0.1,0.6,0.2,1c0,0.3,0,0.7,0.1,1
		c0,0.4,0,0.7,0.1,1c0.1,0.3,0.1,0.7,0.2,1c0.1,0.3,0.2,0.6,0.4,0.8h-2.1c-0.1-0.1-0.2-0.3-0.3-0.6c0-0.2-0.1-0.5-0.1-0.8
		c0-0.3,0-0.6,0-1c0-0.4-0.1-0.7-0.1-1c-0.1-0.3-0.1-0.7-0.2-1c-0.1-0.3-0.2-0.6-0.4-0.8c-0.2-0.2-0.4-0.4-0.7-0.5
		c-0.3-0.1-0.6-0.2-1.1-0.2h-4.5v6h-1.9v-14H237.8z M238.2,338c0.4-0.1,0.7-0.2,1-0.4c0.3-0.2,0.5-0.4,0.7-0.8
		c0.2-0.3,0.3-0.7,0.3-1.2c0-0.7-0.2-1.3-0.6-1.7c-0.4-0.4-1-0.7-1.9-0.7h-4.6v4.9h3.9C237.4,338.1,237.8,338.1,238.2,338z"/>
</g>
<g>
	<path fill="#FFFFFF" d="M69,351.5v5h6.2v-5h1.6v11.7h-1.6v-5.4H69v5.4h-1.6v-11.7H69z"/>
	<path fill="#FFFFFF" d="M87.3,351.5v1.3h-6.5v3.7h6.1v1.3h-6.1v4h6.6v1.3h-8.1v-11.7H87.3z"/>
	<path fill="#FFFFFF" d="M90.8,351.5v10.4H97v1.3h-7.7v-11.7H90.8z"/>
	<path fill="#FFFFFF" d="M99.9,351.5v10.4h6.2v1.3h-7.7v-11.7H99.9z"/>
	<path fill="#FFFFFF" d="M107.1,355.1c0.2-0.7,0.6-1.4,1.1-2c0.5-0.6,1.1-1,1.8-1.4s1.5-0.5,2.4-0.5c0.9,0,1.7,0.2,2.4,0.5
		c0.7,0.3,1.3,0.8,1.8,1.4c0.5,0.6,0.8,1.2,1.1,2c0.2,0.7,0.4,1.5,0.4,2.3c0,0.8-0.1,1.6-0.4,2.3c-0.2,0.7-0.6,1.4-1.1,2
		c-0.5,0.6-1.1,1-1.8,1.4c-0.7,0.3-1.5,0.5-2.4,0.5c-0.9,0-1.7-0.2-2.4-0.5c-0.7-0.3-1.3-0.8-1.8-1.4c-0.5-0.6-0.8-1.2-1.1-2
		c-0.2-0.7-0.4-1.5-0.4-2.3C106.8,356.6,106.9,355.8,107.1,355.1z M108.6,359.1c0.2,0.6,0.4,1.1,0.7,1.5c0.3,0.5,0.7,0.8,1.3,1.1
		c0.5,0.3,1.1,0.4,1.8,0.4c0.7,0,1.3-0.1,1.8-0.4c0.5-0.3,0.9-0.6,1.3-1.1c0.3-0.5,0.6-1,0.7-1.5c0.2-0.6,0.2-1.2,0.2-1.7
		c0-0.6-0.1-1.2-0.2-1.7c-0.2-0.6-0.4-1.1-0.7-1.5c-0.3-0.5-0.7-0.8-1.3-1.1c-0.5-0.3-1.1-0.4-1.8-0.4c-0.7,0-1.3,0.1-1.8,0.4
		c-0.5,0.3-0.9,0.6-1.3,1.1c-0.3,0.5-0.6,1-0.7,1.5c-0.2,0.6-0.2,1.2-0.2,1.7C108.3,358,108.4,358.5,108.6,359.1z"/>
	<path fill="#FFFFFF" d="M130.3,353.1c-0.5-0.4-1.2-0.6-2-0.6c-0.3,0-0.7,0-1,0.1c-0.3,0.1-0.6,0.2-0.8,0.3
		c-0.2,0.2-0.4,0.4-0.6,0.6c-0.1,0.3-0.2,0.6-0.2,1c0,0.4,0.1,0.7,0.3,0.9c0.2,0.2,0.5,0.4,0.9,0.5c0.4,0.1,0.8,0.3,1.2,0.4
		c0.4,0.1,0.9,0.2,1.4,0.3c0.5,0.1,0.9,0.2,1.4,0.4s0.8,0.3,1.2,0.6c0.4,0.3,0.6,0.6,0.9,0.9c0.2,0.4,0.3,0.9,0.3,1.4
		c0,0.6-0.1,1.2-0.4,1.6c-0.3,0.4-0.6,0.8-1.1,1.1c-0.4,0.3-0.9,0.5-1.5,0.6c-0.5,0.1-1.1,0.2-1.6,0.2c-0.7,0-1.3-0.1-1.9-0.2
		c-0.6-0.2-1.1-0.4-1.5-0.7c-0.4-0.3-0.8-0.8-1-1.3c-0.3-0.5-0.4-1.1-0.4-1.8h1.5c0,0.5,0.1,0.9,0.3,1.3s0.4,0.6,0.8,0.9
		c0.3,0.2,0.7,0.4,1.1,0.5c0.4,0.1,0.8,0.2,1.3,0.2c0.3,0,0.7,0,1.1-0.1c0.4-0.1,0.7-0.2,1-0.3c0.3-0.2,0.5-0.4,0.7-0.6
		c0.2-0.3,0.3-0.6,0.3-1c0-0.4-0.1-0.7-0.3-1c-0.2-0.3-0.5-0.5-0.9-0.6c-0.4-0.2-0.8-0.3-1.2-0.4c-0.4-0.1-0.9-0.2-1.4-0.3
		c-0.5-0.1-0.9-0.2-1.4-0.4c-0.4-0.1-0.8-0.3-1.2-0.5c-0.4-0.2-0.6-0.5-0.9-0.9c-0.2-0.4-0.3-0.8-0.3-1.3c0-0.6,0.1-1.1,0.4-1.5
		c0.2-0.4,0.6-0.8,1-1.1c0.4-0.3,0.9-0.5,1.4-0.6c0.5-0.1,1-0.2,1.6-0.2c0.6,0,1.2,0.1,1.7,0.2c0.5,0.1,1,0.4,1.4,0.7
		s0.7,0.7,0.9,1.2c0.2,0.5,0.3,1,0.4,1.7h-1.5C131.1,354.1,130.8,353.5,130.3,353.1z"/>
	<path fill="#FFFFFF" d="M140.2,351.5c1.2,0,2.1,0.3,2.7,0.9c0.6,0.6,0.9,1.5,0.9,2.5c0,1.1-0.3,1.9-0.9,2.6s-1.5,0.9-2.7,0.9h-3.6
		v4.8H135v-11.7H140.2z M139.6,357.1c0.9,0,1.5-0.2,1.9-0.5c0.4-0.4,0.6-0.9,0.6-1.6c0-0.7-0.2-1.2-0.6-1.6
		c-0.4-0.4-1.1-0.5-1.9-0.5h-3v4.3H139.6z"/>
	<path fill="#FFFFFF" d="M151.1,351.5c1.1,0,2,0.3,2.6,0.8c0.6,0.5,0.9,1.3,0.9,2.2c0,0.7-0.2,1.3-0.5,1.9c-0.3,0.5-0.8,0.9-1.5,1.1
		v0c0.3,0.1,0.6,0.2,0.8,0.3c0.2,0.2,0.4,0.3,0.5,0.5c0.1,0.2,0.2,0.5,0.3,0.7c0.1,0.3,0.1,0.5,0.1,0.8c0,0.3,0,0.6,0,0.9
		s0,0.6,0.1,0.9c0,0.3,0.1,0.6,0.2,0.8c0.1,0.3,0.2,0.5,0.4,0.7h-1.7c-0.1-0.1-0.2-0.3-0.2-0.5c0-0.2-0.1-0.4-0.1-0.7
		c0-0.3,0-0.5,0-0.8c0-0.3,0-0.6-0.1-0.9c0-0.3-0.1-0.6-0.2-0.8c-0.1-0.3-0.2-0.5-0.3-0.7c-0.1-0.2-0.3-0.3-0.6-0.5
		c-0.2-0.1-0.5-0.2-0.9-0.2h-3.8v5h-1.6v-11.7H151.1z M151.5,356.8c0.3-0.1,0.6-0.2,0.9-0.3c0.2-0.2,0.4-0.4,0.6-0.6
		c0.1-0.3,0.2-0.6,0.2-1c0-0.6-0.2-1.1-0.5-1.4c-0.3-0.4-0.9-0.6-1.6-0.6h-3.9v4.1h3.2C150.8,356.9,151.1,356.9,151.5,356.8z"/>
	<path fill="#FFFFFF" d="M158.5,351.5v11.7h-1.6v-11.7H158.5z"/>
	<path fill="#FFFFFF" d="M162.7,351.5l6.2,9.5h0v-9.5h1.5v11.7h-1.7l-6.1-9.4h0v9.4h-1.5v-11.7H162.7z"/>
	<path fill="#FFFFFF" d="M180,363.1c-0.7,0.3-1.4,0.4-2,0.4c-0.9,0-1.7-0.2-2.3-0.5c-0.7-0.3-1.3-0.8-1.8-1.3
		c-0.5-0.5-0.8-1.2-1.1-1.9c-0.3-0.7-0.4-1.4-0.4-2.2c0-0.9,0.1-1.7,0.4-2.4c0.2-0.8,0.6-1.4,1-2c0.5-0.6,1-1,1.7-1.4
		c0.7-0.3,1.5-0.5,2.4-0.5c0.6,0,1.2,0.1,1.8,0.2c0.6,0.1,1.1,0.4,1.5,0.7c0.4,0.3,0.8,0.7,1.1,1.2c0.3,0.5,0.5,1.1,0.6,1.8h-1.6
		c-0.1-0.4-0.2-0.8-0.4-1.2c-0.2-0.3-0.5-0.6-0.8-0.8c-0.3-0.2-0.7-0.4-1-0.5c-0.4-0.1-0.8-0.2-1.2-0.2c-0.7,0-1.3,0.1-1.8,0.4
		c-0.5,0.3-0.9,0.7-1.2,1.1c-0.3,0.5-0.6,1-0.7,1.6c-0.2,0.6-0.2,1.2-0.2,1.8c0,0.6,0.1,1.2,0.3,1.8c0.2,0.6,0.4,1.1,0.8,1.5
		c0.3,0.4,0.8,0.8,1.3,1c0.5,0.3,1.1,0.4,1.7,0.4c0.6,0,1.2-0.1,1.6-0.3c0.5-0.2,0.9-0.5,1.2-0.8c0.3-0.3,0.6-0.7,0.7-1.2
		c0.2-0.5,0.2-1,0.2-1.5h-3.7v-1.3h5.1v6.2h-1l-0.4-1.5C181.2,362.4,180.6,362.8,180,363.1z"/>
	<path fill="#FFFFFF" d="M198,351.5v1.3h-6.5v3.7h6.1v1.3h-6.1v4h6.6v1.3h-8.1v-11.7H198z"/>
	<path fill="#FFFFFF" d="M202.7,363.2l-4.1-11.7h1.7l3.3,10.1h0l3.4-10.1h1.6l-4.2,11.7H202.7z"/>
	<path fill="#FFFFFF" d="M218,351.5v1.3h-6.5v3.7h6.1v1.3h-6.1v4h6.6v1.3h-8.1v-11.7H218z"/>
	<path fill="#FFFFFF" d="M221.5,351.5l6.2,9.5h0v-9.5h1.5v11.7h-1.7l-6.1-9.4h0v9.4h-1.5v-11.7H221.5z"/>
	<path fill="#FFFFFF" d="M230.5,352.8v-1.3h9.3v1.3h-3.9v10.4h-1.6v-10.4H230.5z"/>
	<path fill="#FFFFFF" d="M242.9,361.4v1.8h-1.8v-1.8H242.9z M242.3,360.2h-0.7l-0.4-5.1v-3.6h1.6v3.6L242.3,360.2z"/>
</g>
<g>
	<path fill="#FFFFFF" d="M124.1,60.7c-3.5-11-9.5-23.7-24-23.7c-11,0-17.9,8.1-17.9,17.9c0,10.9,7.2,16.7,22.1,24
		c16.7,8.4,30.7,17.5,30.7,35.8c0,19.5-16.5,34.7-41.4,34.7c-6.7,0-12.6-1.1-17.4-2.6c-4.7-1.4-7.9-2.6-10-3.7
		c-1.6-4.2-3.9-18.9-5.1-28.8l6-1.8c3.2,11,12.6,30,29.8,30c11.7,0,18.9-7.7,18.9-19.5c0-11.2-8.4-17.7-21.6-24.5
		c-15.6-8.1-30-17.4-30-35.2c0-18.2,14.6-33.1,38.6-33.1c10.2,0,19.1,3,23.7,4.4c0.7,6.5,1.8,13.9,3.2,24.9L124.1,60.7z"/>
	<path fill="#FFFFFF" d="M202.6,146.8v-5.6c10.5-1.6,11.6-3.5,9.1-10.9c-1.9-5.8-4.9-14-8.1-22.4h-34.9c-2.3,6.5-4.7,13.1-6.8,20.2
		c-3,9.5-2.1,11.6,10.7,13.1v5.6h-38.7v-5.6c11.4-1.6,13.7-3.2,19.6-18.2l35.9-90.6l7.7-2.1c11.2,30.5,22.3,62.1,33.7,92.2
		c5.8,15.4,8.1,17.4,19.3,18.8v5.6H202.6z M186.8,58.9h-0.5c-5.1,13.5-9.8,27.2-14.7,40.3h29.1L186.8,58.9z"/>
</g>
<g>
	<path fill="#FFFFFF" d="M150,244.4c-1.4,6.8-4.9,24-6.5,28.9H60.4v-5.6c14.9-1.2,16.7-2.5,16.7-17.4v-68.2c0-14.9-1.6-16-15.3-17
		v-5.8h50.7v5.8c-13.5,1.1-15.1,2.1-15.1,17v68.9c0,8.6,0.7,11.9,4.2,13.5c3.2,1.4,8.2,1.8,14.4,1.8c8.4,0,14.6-1.1,18.6-5.8
		c3.3-3.5,6.5-9.1,9.5-17.5L150,244.4z"/>
	<path fill="#FFFFFF" d="M249.6,244.8c-1.1,7-4.6,23.3-6.1,28.6h-87.7v-5.6c15.3-1.2,16.8-2.5,16.8-17.2v-68.2
		c0-15.4-1.6-16.1-14.4-17.2v-5.8h80.8c0.2,3.5,1.1,15.8,1.8,25.9l-6,0.9c-1.6-6.7-3.7-11.7-6.5-15.1c-2.8-3.3-7.5-4.6-18.4-4.6
		h-10.2c-6.1,0-6.7,0.4-6.7,6v38h13.5c15.1,0,16.8-1.1,19.1-13.1h6v34.7h-6c-2.3-12.6-4-13.3-19.1-13.3h-13.5V250
		c0,8.4,0.9,12.4,4.2,14.4c3.2,1.8,9.3,1.9,16.5,1.9c10.7,0,16.5-1.2,20.5-5.8c3.3-3.7,6.5-9.5,9.5-16.8L249.6,244.8z"/>
</g>
<g>
	<path fill="#D385B8" d="M154.4,305.6c-1.3-1.8-3.4-3.2-5.8-3.9c1.9-1.2,3.5-2.7,4.5-4.5c0.9,1.8,3.5,3.2,5.8,4.1
		C156.9,302.3,155.4,303.8,154.4,305.6 M161.1,300.7c-3.6-1.1-6.1-2.3-6.5-5.7c0-0.4-0.9-1-1.3-0.6c0,0-0.1,0.1-0.1,0.1
		c-1.3,3-3.8,5.3-7.2,6.8c-0.8,0.4,0.3,1.1,0.8,1.2c3.3,0.4,5.9,2.3,6.9,4.9c0.2,0.4,1.5,1.3,1.8,0.5c0.9-2.8,3-4.8,6.2-5.9
		C162.6,301.8,161.5,300.9,161.1,300.7"/>
	<path fill="#D385B8" d="M137,297.1c-1.3,0.9-2.7,1.6-4.1,2.3c0.8-1.6,1.5-3.4,2.2-5c0.4-0.9,0.7-1.9,1.3-2.8
		c0.6-0.9,1.8-2.5,3.5-1.3c0.3,0.3,0.6,0.7,0.7,1.1C141.2,293.6,138.8,295.8,137,297.1 M132.7,307.2
		C132.7,307.2,132.7,307.2,132.7,307.2c2.4-0.7,4.8-0.6,7.1,0.4c1.5,0.7,4.7,2.8,4.3,4.6c-0.6,2.7-7.1-0.9-8.1-1.6
		C134.7,309.6,133.3,308.5,132.7,307.2 M121.6,301.8c-0.9-1.7-1.8-3.4-2.4-5.3c-0.3-0.9-0.8-2.1-0.7-3.1c0.2-1.1,0.7-2,2.3-1.6
		c0.5,0.1,1,0.4,1.5,0.7C125.7,295.2,124.8,299.5,121.6,301.8 M78,307.5c13.3,4.9,28.8,4.8,41.9-0.1c1.7-0.2,3.4-0.4,5.1-0.4
		c2,0,4,0.3,6,0.5c0,2.5,3.6,4.7,5.9,5.7c2.5,1.1,6.7,2.6,8.7,0c1.8-2.4-1.4-5.4-3.7-6.6c-3-1.5-6.7-1.6-9.8-0.2c0,0,0,0-0.1,0
		c-2.5-0.7-5.3-0.9-8.1-0.6c2.9-1.3,5.6-2.9,8.1-4.7c3.2-0.7,6.3-2.8,8.3-4.8c1.7-1.7,3.5-4.8,1.7-6.9c-1.9-2.2-5.1-0.9-6.6,0.9
		c-1.1,1.3-1.6,2.9-2.2,4.5c-0.7,1.8-1.6,3.7-2,5.5c-0.1,0.1-0.1,0.2-0.2,0.3c-3.2,2.1-6.6,3.8-10.3,5.2c0.5-0.9,0.8-1.9,0.8-2.8
		c0.1-0.1,0.2-0.2,0.3-0.2c5.2-2.4,6.5-9.9,0.5-12.2c-3-1.2-5.7,0.9-5.8,3.5c-0.1,1.6,0.6,3.3,1.2,4.9c0.6,1.5,1.2,2.8,2.4,4
		c-0.1,0.7-0.3,1.5-0.5,2.2c-0.2,0.5-0.5,1-0.8,1.5c-3.2,1.1-6.6,1.9-10,2.4c-7.1,1-14.5,0.7-21.5-0.7c-6.6-1.3-14-2.2-18.5-6.6
		c-2.3-2.2-4.4-5.4-3.6-8.4c0.8-3.3,4.5-5.2,8.2-5.7c3.6-0.5,8.2,0.1,11.3,1.7c1.8,1,3.4,2.8,2.8,4.7c-0.8,2.4-4.6,1.8-4.7-0.6
		c0-1.2-2-0.3-2.1,0.5c-0.4,3.9,5.6,4.2,7.9,1.6c2.9-3.2,0.1-7-3.6-8.5c-7.3-2.8-19.2-1.8-21.7,5.8C60.6,300.5,70.9,304.9,78,307.5"
		/>
	<path fill="#D385B8" d="M121.7,301.8c0,0,1.7,0.7,2.4-2.5c0.6-3.2-0.2-7.3-0.6-7.5c-0.5-0.2-2.1-1.5-2.4-0.9
		c-0.3,0.6-0.9,4-0.8,5.4C120.5,297.7,121.7,301.8,121.7,301.8"/>
	<path fill="#D385B8" d="M134.9,299.3c0,0,1.3,0.2,2.7-1c1.3-1.2,4.6-4.5,4.6-5.5c0-0.9-1.2-3.3-2.1-3c-0.9,0.4-3.4,4.5-3.6,5.2
		C136.2,295.8,134.9,299.3,134.9,299.3"/>
	<path fill="#D385B8" d="M135.9,307.7c0.5,0.4,2.5,4,3.8,4.7c1.3,0.6,2.6,2.8,3.6,1.5c1-1.3,1.5-3.3,0.8-4.3c-0.7-1-3-3.2-3.9-3.2
		C139.3,306.4,135.9,307.7,135.9,307.7"/>
	<path fill="#D385B8" d="M171.1,297.1c1.3,0.9,2.7,1.6,4.1,2.3c-0.8-1.6-1.5-3.4-2.2-5c-0.4-0.9-0.7-1.9-1.3-2.8
		c-0.6-0.9-1.8-2.5-3.5-1.3c-0.3,0.3-0.6,0.7-0.7,1.1C166.9,293.6,169.3,295.8,171.1,297.1 M175.4,307.2
		C175.4,307.2,175.4,307.2,175.4,307.2c-2.4-0.7-4.8-0.6-7.1,0.4c-1.5,0.7-4.7,2.8-4.3,4.6c0.6,2.7,7.1-0.9,8.1-1.6
		C173.4,309.6,174.8,308.5,175.4,307.2 M186.5,301.8c0.9-1.7,1.8-3.4,2.4-5.3c0.3-0.9,0.8-2.1,0.7-3.1c-0.2-1.1-0.7-2-2.3-1.6
		c-0.5,0.1-1,0.4-1.5,0.7C182.4,295.2,183.3,299.5,186.5,301.8 M230.1,307.5c-13.3,4.9-28.8,4.8-41.9-0.1c-1.7-0.2-3.4-0.4-5.1-0.4
		c-2,0-4,0.3-6,0.5c0,2.5-3.6,4.7-5.9,5.7c-2.5,1.1-6.7,2.6-8.7,0c-1.8-2.4,1.4-5.4,3.7-6.6c3-1.5,6.7-1.6,9.8-0.2c0,0,0,0,0.1,0
		c2.5-0.7,5.3-0.9,8.1-0.6c-2.9-1.3-5.6-2.9-8.1-4.7c-3.2-0.7-6.3-2.8-8.3-4.8c-1.7-1.7-3.5-4.8-1.7-6.9c1.9-2.2,5.1-0.9,6.6,0.9
		c1.1,1.3,1.6,2.9,2.2,4.5c0.7,1.8,1.6,3.7,2,5.5c0.1,0.1,0.1,0.2,0.2,0.3c3.2,2.1,6.6,3.8,10.3,5.2c-0.5-0.9-0.8-1.9-0.8-2.8
		c-0.1-0.1-0.2-0.2-0.3-0.2c-5.2-2.4-6.5-9.9-0.5-12.2c3-1.2,5.7,0.9,5.8,3.5c0.1,1.6-0.6,3.3-1.2,4.9c-0.6,1.5-1.2,2.8-2.4,4
		c0.1,0.7,0.3,1.5,0.5,2.2c0.2,0.5,0.5,1,0.8,1.5c3.2,1.1,6.6,1.9,10,2.4c7.1,1,14.5,0.7,21.5-0.7c6.6-1.3,14-2.2,18.5-6.6
		c2.3-2.2,4.4-5.4,3.6-8.4c-0.8-3.3-4.5-5.2-8.2-5.7c-3.6-0.5-8.2,0.1-11.3,1.7c-1.8,1-3.4,2.8-2.8,4.7c0.8,2.4,4.6,1.8,4.7-0.6
		c0-1.2,2-0.3,2.1,0.5c0.4,3.9-5.6,4.2-7.9,1.6c-2.9-3.2-0.1-7,3.6-8.5c7.3-2.8,19.2-1.8,21.7,5.8
		C247.5,300.5,237.2,304.9,230.1,307.5"/>
	<path fill="#D385B8" d="M186.4,301.8c0,0-1.7,0.7-2.4-2.5c-0.6-3.2,0.2-7.3,0.6-7.5c0.5-0.2,2.1-1.5,2.4-0.9c0.3,0.6,0.9,4,0.8,5.4
		C187.7,297.7,186.4,301.8,186.4,301.8"/>
	<path fill="#D385B8" d="M173.2,299.3c0,0-1.3,0.2-2.7-1c-1.3-1.2-4.6-4.5-4.6-5.5c0-0.9,1.2-3.3,2.1-3c0.9,0.4,3.4,4.5,3.6,5.2
		C171.9,295.8,173.2,299.3,173.2,299.3"/>
	<path fill="#D385B8" d="M172.2,307.7c-0.5,0.4-2.5,4-3.8,4.7c-1.3,0.6-2.6,2.8-3.6,1.5c-1-1.3-1.5-3.3-0.8-4.3c0.7-1,3-3.2,3.9-3.2
		C168.8,306.4,172.2,307.7,172.2,307.7"/>
</g>
</svg>
