<?xml version="1.0" encoding="utf-8"?>
<!-- Generator: Adobe Illustrator 18.1.0, SVG Export Plug-In . SVG Version: 6.00 Build 0)  -->
<!DOCTYPE svg PUBLIC "-//W3C//DTD SVG 1.1//EN" "http://www.w3.org/Graphics/SVG/1.1/DTD/svg11.dtd">
<svg version="1.1" id="Layer_1" xmlns="http://www.w3.org/2000/svg" xmlns:xlink="http://www.w3.org/1999/xlink" x="0px" y="0px"
	 width="801px" height="192px" viewBox="151 155 801 192" enable-background="new 151 155 801 192" xml:space="preserve">
<g>
	<path fill="#FFFFFF" d="M-4.4,1401.4c-16.2,0-29.5,13-29.5,28.8c0,15.8,13.3,28.8,29.5,28.8s29.5-13,29.5-28.8
		C25.1,1414.4,11.8,1401.4-4.4,1401.4z M-4.4,1444.2c-7.8,0-14.3-6.3-14.3-14c0-7.7,6.4-14,14.3-14s14.3,6.3,14.3,14
		C9.9,1437.9,3.5,1444.2-4.4,1444.2z"/>
	<path fill="#FFFFFF" d="M60.2,1401.3H36.9v57.7h14.4v-8.9h9c13.7,0,25-11,25-24.4C85.2,1412.3,74,1401.3,60.2,1401.3z M60.2,1435.3
		h-8.9l0-19.2l9,0c5.4,0,9.8,4.3,9.8,9.6C70,1431,65.6,1435.3,60.2,1435.3z"/>
	<path fill="#FFFFFF" d="M-155.6,1444.2c-7.8,0-14.3-6.3-14.3-14c0-7.7,6.4-14,14.3-14c4,0,8.1,1.8,10.8,4.8l9.1-12.1
		c-5.3-4.8-12.7-7.5-19.9-7.5c-16.2,0-29.5,13-29.5,28.8c0,15.8,13.3,28.8,29.5,28.8c7.4,0,14.8-2.8,20.3-7.8l-9.4-12
		C-147.4,1442.4-151.5,1444.2-155.6,1444.2z"/>
	<rect x="-59.1" y="1422.3" fill="#FFFFFF" width="16.2" height="15.8"/>
	<path fill="#FFFFFF" d="M-97.8,1401.4c-16.2,0-29.5,13-29.5,28.8c0,15.8,13.3,28.8,29.5,28.8c16.2,0,29.5-13,29.5-28.8
		C-68.2,1414.4-81.6,1401.4-97.8,1401.4z M-97.8,1444.2c-7.8,0-14.3-6.3-14.3-14c0-7.7,6.4-14,14.3-14s14.3,6.3,14.3,14
		C-83.5,1437.9-89.9,1444.2-97.8,1444.2z"/>
	<path fill="#FFFFFF" d="M95.2,1443.8c-1.2-0.7-2.5-1-3.9-1c-1.4,0-2.7,0.3-3.9,1c-1.2,0.7-2.2,1.7-2.9,2.9
		c-0.7,1.2-1.1,2.5-1.1,3.9c0,1.4,0.4,2.7,1.1,3.9c0.7,1.2,1.7,2.2,2.9,2.9c1.2,0.7,2.5,1,3.9,1c1.4,0,2.7-0.4,3.9-1
		c1.2-0.7,2.2-1.7,2.9-2.9c0.7-1.2,1.1-2.5,1.1-3.9c0-1.4-0.4-2.7-1.1-3.9C97.4,1445.5,96.4,1444.5,95.2,1443.8z M95.7,1455.1
		c-1.2,1.2-2.7,1.9-4.5,1.9s-3.2-0.6-4.5-1.9c-1.2-1.2-1.9-2.7-1.9-4.5c0-1.7,0.6-3.2,1.9-4.5c1.2-1.2,2.7-1.9,4.5-1.9
		s3.2,0.6,4.5,1.9c1.2,1.2,1.9,2.7,1.9,4.5C97.6,1452.4,97,1453.9,95.7,1455.1z"/>
	<path fill="#FFFFFF" d="M92.9,1451.6c-0.2-0.1-0.4-0.3-0.7-0.4c0.8-0.2,1.4-0.5,1.7-0.9c0.4-0.4,0.5-0.9,0.5-1.5
		c0-0.7-0.2-1.3-0.7-1.7c-0.5-0.4-1.2-0.6-2.3-0.6h-3.8v8.4h2.1v-3.3c0.1,0,0.2,0,0.3,0c0.3,0,0.5,0.2,0.8,0.5
		c0.3,0.3,0.8,1.3,1.6,2.9h2.5c-0.9-1.6-1.3-2.4-1.4-2.4C93.4,1452,93.1,1451.7,92.9,1451.6z M90.7,1450h-0.9v-2.1h1
		c0.6,0,1,0.1,1.2,0.3c0.2,0.2,0.4,0.4,0.4,0.8s-0.1,0.6-0.4,0.8C91.7,1449.9,91.3,1450,90.7,1450z"/>
	<path fill="#FFFFFF" d="M521.5,1415.8c-2.8-4.1-6.2-7-10.4-8.9c-4.2-1.9-8.9-2.8-14.2-2.8c-8.8,0-16,2.8-21.6,8.3
		c-2.9,2.9-5,6.5-6.4,10.8c-0.1-1.6-0.2-3-0.4-4.1c-0.6-3.1-1.7-5.6-3.4-7.7c-2.1-2.6-4.4-4.4-7-5.4c-2.6-1-5.2-1.5-7.9-1.5
		c-4,0-7.6,0.8-10.8,2.5c-3.1,1.7-5.6,4.2-7.7,7.8c-1.2-2.9-2.9-5.4-5.2-7.3c-2.8-2-6.6-3-11.2-3c-4.9,0-8.8,1.2-11.9,3.5
		c-1.7,1.3-3.6,3.6-5.5,6.7v-8.8h-15.3v19.8c-1.2-4.5-3.3-8.5-6.3-12.2c-5.1-6.4-12.8-9.6-23.2-9.6s-18.1,3.2-23.2,9.6
		c-3.8,4.8-6.2,10.2-7.1,16.2c0-4.8-0.2-8.4-0.5-10.6c-0.4-2.4-1.4-4.7-3-6.9c-1.9-2.7-4.4-4.6-7.5-5.9c-3-1.3-6.4-1.9-10.1-1.9
		c-3.3,0-6.5,0.7-9.5,2.1c-3,1.4-5.6,3.8-7.9,7.3V1392h-15.7v74h15.7v-32.6c0-5.2,1.1-9.1,3.2-11.9c2.2-2.8,5.3-4.2,9.4-4.2
		c4,0,6.7,1.4,8.2,4.2c1.1,2,1.6,4.6,1.6,7.9v36.7h16.1v-23.5c1,6.1,3.3,11.5,7.1,16.2c5.1,6.3,12.8,9.4,23.2,9.4s18.1-3.1,23.2-9.4
		c2.9-3.6,5-7.7,6.3-12.2v19.5h16v-36.3c0-3.3,0.4-5.8,1.3-7.4c1.5-2.9,4.6-4.4,9.1-4.4c3.9,0,6.5,1.5,7.8,4.4
		c0.7,1.6,1.1,4.2,1.1,7.8v35.9h15.9v-35.9c0-2.7,0.4-5,1.3-6.9c1.7-3.6,4.7-5.4,9-5.4c3.8,0,6.3,1.4,7.7,4.2
		c0.7,1.5,1.1,3.3,1.1,5.6v38.4h16.1l0-16.2c1.5,4.5,4,8.1,7.3,10.8c6.2,4.9,13.2,7.4,21.3,7.4c9.7,0,17.3-2.9,22.7-8.8
		c3.5-3.7,5.4-7.3,5.9-10.9h-16.1c-0.9,1.8-2,3.2-3.2,4.2c-2.3,1.8-5.2,2.8-8.8,2.8c-3.4,0-6.3-0.8-8.7-2.3c-4-2.4-6.1-6.7-6.3-12.7
		h44c0.1-5.2-0.1-9.2-0.5-12C525.5,1423.6,523.9,1419.4,521.5,1415.8z M363.5,1450c-2.5,3.3-6,4.9-10.6,4.9s-8.2-1.6-10.7-4.9
		c-2.5-3.3-3.7-8-3.7-14c0-6,1.2-10.7,3.7-14c2.5-3.3,6-4.9,10.7-4.9s8.2,1.6,10.6,4.9c2.5,3.3,3.7,7.9,3.7,14
		C367.2,1442,366,1446.7,363.5,1450z M483.2,1429.8c0.6-3.9,2-7,4.2-9.3c2.2-2.3,5.4-3.4,9.4-3.4c3.7,0,6.9,1.1,9.4,3.2
		c2.5,2.2,3.9,5.3,4.2,9.5H483.2z"/>
	<path fill="#FFFFFF" d="M187.7,1452.1c-4.9,1.9-10.9,2.8-17.7,2.8c-7.1,0-13.5-1.1-19-3.4c-5.5-2.3-9.8-5.9-12.9-10.8
		c-3.1-4.9-4.6-10.4-4.6-16.4c0-6.2,1.4-12.1,4.1-17.8c2.7-5.7,6.8-10.1,12.2-13.3c5.4-3.2,12-4.7,19.8-4.7c9.2,0,16.3,2.4,21.4,7.1
		c5.1,4.7,7.7,10.6,7.7,17.6c0,3.9-0.9,7.7-2.7,11.3c-1.8,3.6-4.2,6.6-7.1,8.7c-2.2,1.7-4,2.5-5.4,2.5c-0.5,0-0.9-0.2-1.2-0.5
		c-0.3-0.4-0.5-0.9-0.5-1.6c0-0.6,0.2-1.8,0.6-3.8l6.5-30.7h-11.4l-1.1,4.8c-2.4-3.9-6.2-5.8-11.3-5.8c-7.2,0-13.1,3.4-17.7,10.1
		c-3.8,5.5-5.7,11.6-5.7,18.3c0,5.4,1.6,9.8,4.7,13c3.2,3.3,7.1,4.9,11.9,4.9c4.4,0,8.3-1.6,11.7-4.9c0.4,1.6,1.2,2.8,2.4,3.6
		c1.2,0.8,3,1.2,5.4,1.2c8.9,0,16.1-3.7,21.8-11.1c4.5-5.9,6.8-12.4,6.8-19.7c0-6.1-1.5-11.7-4.5-16.9c-3-5.2-7.3-9.1-12.9-11.9
		c-5.6-2.8-12.1-4.2-19.3-4.2c-8.5,0-16.1,1.7-22.8,5.2c-6.6,3.5-11.9,8.7-15.7,15.6c-3.8,6.9-5.7,14.4-5.7,22.4
		c0,7.3,1.7,14,5,20.2c3.4,6.2,8.5,10.9,15.4,14.1c6.9,3.2,15.1,4.8,24.6,4.8c9.8,0,18.1-1.9,24.9-5.6c5.9-3.3,10.4-7.8,13.2-13.6
		h-9.2C196.6,1447.4,192.6,1450.2,187.7,1452.1z M172.5,1425.1c-1.1,3.3-2.4,5.9-3.9,7.6c-1.1,1.2-2.1,2.1-3.2,2.7
		c-1.4,0.8-3,1.2-4.6,1.2c-2.2,0-4-0.9-5.5-2.6c-1.5-1.7-2.2-4.4-2.2-8c0-2.7,0.5-5.8,1.6-9.3c1.1-3.5,2.6-6.2,4.8-8.1
		c2.1-1.9,4.4-2.8,6.9-2.8c2.3,0,4.2,0.9,5.7,2.6c1.5,1.7,2.3,4.2,2.3,7.4C174.2,1418.6,173.6,1421.8,172.5,1425.1z"/>
	<path fill="#FFFFFF" d="M517.8,1381h-279l-25.8-29l-29.2-32.6c-5.2-5.8-10.7-8.8-16.5-8.8c-5.7,0-11.1,2.9-16.1,8.6l-16.8,18.9h-24
		h-3v3v27.3L96.4,1381H-184c-16.9,0-30.7,13.8-30.7,30.7v39.4c0,16.9,13.8,30.7,30.7,30.7h291.4c3.2,4.7,8.6,7.9,14.8,7.9h90.2
		c6.1,0,11.6-3.1,14.8-7.9h0.3h290.3c16.9,0,30.7-13.8,30.7-30.7v-39.4C548.5,1394.7,534.7,1381,517.8,1381z M-184,1478.7
		c-15.3,0-27.7-12.4-27.7-27.7v-39.4c0-15.3,12.4-27.7,27.7-27.7H93.7l-0.5,0.6l-7.5,8.4c-3,3.4-3.8,7.8-2.2,11.5
		c1.6,3.7,5.4,6.1,9.9,6.2c1.6,0,3.4,0.1,5.4,0.1c1.8,0,3.5,0,5.3,0c0.1,0,0.2,0,0.3,0v61.2c0,2.5,0.5,4.8,1.4,7H-184z
		 M227.5,1407.6l-0.2,0v64.2c0,0.5,0,1-0.1,1.5c0,0.2-0.1,0.4-0.1,0.6c0,0.3-0.1,0.5-0.1,0.8c-0.1,0.3-0.1,0.5-0.2,0.8
		c0,0.2-0.1,0.4-0.1,0.5c-0.1,0.3-0.2,0.6-0.3,0.9c0,0.1-0.1,0.2-0.1,0.3c-0.1,0.3-0.3,0.7-0.5,1c0,0.1-0.1,0.1-0.1,0.2
		c-0.1,0.2-0.2,0.4-0.4,0.6c-0.2,0.3-0.3,0.6-0.5,0.9c-0.1,0.2-0.2,0.4-0.4,0.5c-0.3,0.4-0.6,0.8-1,1.2c-2.7,3-6.6,4.9-10.9,4.9
		h-90.2c-4.3,0-8.2-1.9-10.9-4.9c-0.4-0.4-0.8-0.9-1.1-1.4c0,0,0,0,0,0c-0.4-0.5-0.7-1-1-1.6c-1.1-2.1-1.7-4.4-1.7-7v-64.2
		c-2.9,0-5.7,0-8.6,0c-1.8,0-3.5,0-5.3,0c-7.2-0.2-10.3-7.3-5.5-12.7l7.5-8.4l3.6-4.1l1.3-1.5l10.2-11.4v-28.5h25.3l17.7-19.9
		c4.5-5.1,9.2-7.6,13.9-7.6c4.8,0,9.6,2.6,14.2,7.8l29.2,32.6l29.1,32.8c1.7,1.9,3.4,3.9,5.2,5.8c2.5,2.8,4.8,6.2,3.2,10.1
		c-1.8,4.4-6.4,4.7-10.4,4.8L227.5,1407.6z M545.5,1451c0,15.3-12.4,27.7-27.7,27.7h-289c0.9-2.1,1.4-4.5,1.4-7v-61.2l7.7-0.1
		c3.4-0.1,10.5-0.2,13.2-6.6c2.6-6.2-2-11.3-3.7-13.2c-1.1-1.3-2.3-2.5-3.4-3.8c-0.6-0.7-1.2-1.3-1.8-2l-0.7-0.8h276.3
		c15.3,0,27.7,12.4,27.7,27.7V1451z"/>
</g>
<g>
	<path fill="#FFFFFF" d="M380.2,252.4c-16.2,0-29.5,13-29.5,28.8c0,15.8,13.3,28.8,29.5,28.8s29.5-13,29.5-28.8
		C409.7,265.3,396.4,252.4,380.2,252.4z M380.2,295.1c-7.8,0-14.3-6.3-14.3-14c0-7.7,6.4-14,14.3-14s14.3,6.3,14.3,14
		C394.5,288.9,388.1,295.1,380.2,295.1z"/>
	<path fill="#FFFFFF" d="M444.8,252.3h-23.4V310h14.4v-8.9h9c13.7,0,25-11,25-24.4C469.8,263.2,458.6,252.3,444.8,252.3z
		 M444.8,286.3h-8.9l0-19.2l9,0c5.4,0,9.8,4.3,9.8,9.6C454.6,282,450.2,286.3,444.8,286.3z"/>
	<path fill="#FFFFFF" d="M229,295.1c-7.8,0-14.3-6.3-14.3-14c0-7.7,6.4-14,14.3-14c4,0,8.1,1.8,10.8,4.8l9.1-12.1
		c-5.3-4.8-12.7-7.5-19.9-7.5c-16.2,0-29.5,13-29.5,28.8c0,15.8,13.3,28.8,29.5,28.8c7.4,0,14.8-2.8,20.3-7.8l-9.4-12
		C237.2,293.3,233.1,295.1,229,295.1z"/>
	<rect x="325.4" y="273.2" fill="#FFFFFF" width="16.2" height="15.8"/>
	<path fill="#FFFFFF" d="M286.8,252.4c-16.2,0-29.5,13-29.5,28.8c0,15.8,13.3,28.8,29.5,28.8c16.2,0,29.5-13,29.5-28.8
		C316.4,265.3,303,252.4,286.8,252.4z M286.8,295.1c-7.8,0-14.3-6.3-14.3-14c0-7.7,6.4-14,14.3-14s14.3,6.3,14.3,14
		C301.1,288.9,294.7,295.1,286.8,295.1z"/>
	<path fill="#FFFFFF" d="M479.8,294.8c-1.2-0.7-2.5-1-3.9-1c-1.4,0-2.7,0.3-3.9,1c-1.2,0.7-2.2,1.7-2.9,2.9
		c-0.7,1.2-1.1,2.5-1.1,3.9c0,1.4,0.4,2.7,1.1,3.9c0.7,1.2,1.7,2.2,2.9,2.9c1.2,0.7,2.5,1,3.9,1c1.4,0,2.7-0.4,3.9-1
		c1.2-0.7,2.2-1.7,2.9-2.9c0.7-1.2,1.1-2.5,1.1-3.9c0-1.4-0.4-2.7-1.1-3.9C481.9,296.4,481,295.5,479.8,294.8z M480.3,306
		c-1.2,1.2-2.7,1.9-4.5,1.9s-3.2-0.6-4.5-1.9c-1.2-1.2-1.9-2.7-1.9-4.5c0-1.7,0.6-3.2,1.9-4.5c1.2-1.2,2.7-1.9,4.5-1.9
		s3.2,0.6,4.5,1.9c1.2,1.2,1.9,2.7,1.9,4.5C482.2,303.3,481.6,304.8,480.3,306z"/>
	<path fill="#FFFFFF" d="M477.5,302.5c-0.2-0.1-0.4-0.3-0.7-0.4c0.8-0.2,1.4-0.5,1.7-0.9c0.4-0.4,0.5-0.9,0.5-1.5
		c0-0.7-0.2-1.3-0.7-1.7c-0.5-0.4-1.2-0.6-2.3-0.6h-3.8v8.4h2.1v-3.3c0.1,0,0.2,0,0.3,0c0.3,0,0.5,0.2,0.8,0.5
		c0.3,0.3,0.8,1.3,1.6,2.9h2.5c-0.9-1.6-1.3-2.4-1.4-2.4C477.9,303,477.7,302.7,477.5,302.5z M475.3,300.9h-0.9v-2.1h1
		c0.6,0,1,0.1,1.2,0.3c0.2,0.2,0.4,0.4,0.4,0.8s-0.1,0.6-0.4,0.8C476.3,300.8,475.9,300.9,475.3,300.9z"/>
	<path fill="#FFFFFF" d="M906.1,266.8c-2.8-4.1-6.2-7-10.4-8.9c-4.2-1.9-8.9-2.8-14.2-2.8c-8.8,0-16,2.8-21.6,8.3
		c-2.9,2.9-5,6.5-6.4,10.8c-0.1-1.6-0.2-3-0.4-4.1c-0.6-3.1-1.7-5.6-3.4-7.7c-2.1-2.6-4.4-4.4-7-5.4c-2.6-1-5.2-1.5-7.9-1.5
		c-4,0-7.6,0.8-10.8,2.5c-3.1,1.7-5.6,4.2-7.7,7.8c-1.2-2.9-2.9-5.4-5.2-7.3c-2.8-2-6.6-3-11.2-3c-4.9,0-8.8,1.2-11.9,3.5
		c-1.7,1.3-3.6,3.6-5.5,6.7v-8.8H767v19.8c-1.2-4.5-3.3-8.5-6.3-12.2c-5.1-6.4-12.8-9.6-23.2-9.6s-18.1,3.2-23.2,9.6
		c-3.8,4.8-6.2,10.2-7.1,16.2c0-4.8-0.2-8.4-0.5-10.6c-0.4-2.4-1.4-4.7-3-6.9c-1.9-2.7-4.4-4.6-7.5-5.9c-3-1.3-6.4-1.9-10.1-1.9
		c-3.3,0-6.5,0.7-9.5,2.1c-3,1.4-5.6,3.8-7.9,7.3v-21.6H653v74h15.7v-32.6c0-5.2,1.1-9.1,3.2-11.9c2.2-2.8,5.3-4.2,9.4-4.2
		c4,0,6.7,1.4,8.2,4.2c1.1,2,1.6,4.6,1.6,7.9v36.7h16.1v-23.5c1,6.1,3.3,11.5,7.1,16.2c5.1,6.3,12.8,9.4,23.2,9.4s18.1-3.1,23.2-9.4
		c2.9-3.6,5-7.7,6.3-12.2v19.5h16v-36.3c0-3.3,0.4-5.8,1.3-7.4c1.5-2.9,4.6-4.4,9.1-4.4c3.9,0,6.5,1.5,7.8,4.4
		c0.7,1.6,1.1,4.2,1.1,7.8v35.9h15.9V281c0-2.7,0.4-5,1.3-6.9c1.7-3.6,4.7-5.4,9-5.4c3.8,0,6.3,1.4,7.7,4.2c0.7,1.5,1.1,3.3,1.1,5.6
		v38.4h16.1l0-16.2c1.5,4.5,4,8.1,7.3,10.8c6.2,4.9,13.2,7.4,21.3,7.4c9.7,0,17.3-2.9,22.7-8.8c3.5-3.7,5.4-7.3,5.9-10.9h-16.1
		c-0.9,1.8-2,3.2-3.2,4.2c-2.3,1.8-5.2,2.8-8.8,2.8c-3.4,0-6.3-0.8-8.7-2.3c-4-2.4-6.1-6.7-6.3-12.7h44c0.1-5.2-0.1-9.2-0.5-12
		C910.1,274.5,908.5,270.3,906.1,266.8z M748.1,300.9c-2.5,3.3-6,4.9-10.6,4.9s-8.2-1.6-10.7-4.9c-2.5-3.3-3.7-8-3.7-14
		c0-6,1.2-10.7,3.7-14c2.5-3.3,6-4.9,10.7-4.9s8.2,1.6,10.6,4.9c2.5,3.3,3.7,7.9,3.7,14C751.8,292.9,750.6,297.6,748.1,300.9z
		 M867.8,280.7c0.6-3.9,2-7,4.2-9.3c2.2-2.3,5.4-3.4,9.4-3.4c3.7,0,6.9,1.1,9.4,3.2c2.5,2.2,3.9,5.3,4.2,9.5H867.8z"/>
	<path fill="#FFFFFF" d="M572.3,303.1c-4.9,1.9-10.9,2.8-17.7,2.8c-7.1,0-13.5-1.1-19-3.4c-5.5-2.3-9.8-5.9-12.9-10.8
		c-3.1-4.9-4.6-10.4-4.6-16.4c0-6.2,1.4-12.1,4.1-17.8c2.7-5.7,6.8-10.1,12.2-13.3c5.4-3.2,12-4.7,19.8-4.7c9.2,0,16.3,2.4,21.4,7.1
		c5.1,4.7,7.7,10.6,7.7,17.6c0,3.9-0.9,7.7-2.7,11.3c-1.8,3.6-4.2,6.6-7.1,8.7c-2.2,1.7-4,2.5-5.4,2.5c-0.5,0-0.9-0.2-1.2-0.5
		c-0.3-0.4-0.5-0.9-0.5-1.6c0-0.6,0.2-1.8,0.6-3.8l6.5-30.7h-11.4l-1.1,4.8c-2.4-3.9-6.2-5.8-11.3-5.8c-7.2,0-13.1,3.4-17.7,10.1
		c-3.8,5.5-5.7,11.6-5.7,18.3c0,5.4,1.6,9.8,4.7,13c3.2,3.3,7.1,4.9,11.9,4.9c4.4,0,8.3-1.6,11.7-4.9c0.4,1.6,1.2,2.8,2.4,3.6
		c1.2,0.8,3,1.2,5.4,1.2c8.9,0,16.1-3.7,21.8-11.1c4.5-5.9,6.8-12.4,6.8-19.7c0-6.1-1.5-11.7-4.5-16.9c-3-5.2-7.3-9.1-12.9-11.9
		c-5.6-2.8-12.1-4.2-19.3-4.2c-8.5,0-16.1,1.7-22.8,5.2c-6.6,3.5-11.9,8.7-15.7,15.6c-3.8,6.9-5.7,14.4-5.7,22.4
		c0,7.3,1.7,14,5,20.2c3.4,6.2,8.5,10.9,15.4,14.1c6.9,3.2,15.1,4.8,24.6,4.8c9.8,0,18.1-1.9,24.9-5.6c5.9-3.3,10.4-7.8,13.2-13.6
		h-9.2C581.2,298.3,577.2,301.2,572.3,303.1z M557.1,276c-1.1,3.3-2.4,5.9-3.9,7.6c-1.1,1.2-2.1,2.1-3.2,2.7c-1.4,0.8-3,1.2-4.6,1.2
		c-2.2,0-4-0.9-5.5-2.6c-1.5-1.7-2.2-4.4-2.2-8c0-2.7,0.5-5.8,1.6-9.3c1.1-3.5,2.6-6.2,4.8-8.1c2.1-1.9,4.4-2.8,6.9-2.8
		c2.3,0,4.2,0.9,5.7,2.6c1.5,1.7,2.3,4.2,2.3,7.4C558.8,269.6,558.2,272.7,557.1,276z"/>
	<path fill="#FFFFFF" d="M902.4,231.9h-279l-25.8-29l-29.2-32.6c-5.2-5.8-10.7-8.8-16.5-8.8c-5.7,0-11.1,2.9-16.1,8.6L519.1,189h-24
		h-3v3v27.3l-11.2,12.6H200.6c-16.9,0-30.7,13.8-30.7,30.7V302c0,16.9,13.8,30.7,30.7,30.7H492c3.2,4.7,8.6,7.9,14.8,7.9H597
		c6.1,0,11.6-3.1,14.8-7.9h0.3h290.3c16.9,0,30.7-13.8,30.7-30.7v-39.4C933.1,245.7,919.3,231.9,902.4,231.9z M200.6,329.7
		c-15.3,0-27.7-12.4-27.7-27.7v-39.4c0-15.3,12.4-27.7,27.7-27.7h277.7l-0.5,0.6l-7.5,8.4c-3,3.4-3.8,7.8-2.2,11.5
		c1.6,3.7,5.4,6.1,9.9,6.2c1.6,0,3.4,0.1,5.4,0.1c1.8,0,3.5,0,5.3,0c0.1,0,0.2,0,0.3,0v61.2c0,2.5,0.5,4.8,1.4,7H200.6z M612,258.5
		l-0.2,0v64.2c0,0.5,0,1-0.1,1.5c0,0.2-0.1,0.4-0.1,0.6c0,0.3-0.1,0.5-0.1,0.8c-0.1,0.3-0.1,0.5-0.2,0.8c0,0.2-0.1,0.4-0.1,0.5
		c-0.1,0.3-0.2,0.6-0.3,0.9c0,0.1-0.1,0.2-0.1,0.3c-0.1,0.3-0.3,0.7-0.5,1c0,0.1-0.1,0.1-0.1,0.2c-0.1,0.2-0.2,0.4-0.4,0.6
		c-0.2,0.3-0.3,0.6-0.5,0.9c-0.1,0.2-0.2,0.4-0.4,0.5c-0.3,0.4-0.6,0.8-1,1.2c-2.7,3-6.6,4.9-10.9,4.9h-90.2
		c-4.3,0-8.2-1.9-10.9-4.9c-0.4-0.4-0.8-0.9-1.1-1.4c0,0,0,0,0,0c-0.4-0.5-0.7-1-1-1.6c-1.1-2.1-1.7-4.4-1.7-7v-64.2
		c-2.9,0-5.7,0-8.6,0c-1.8,0-3.5,0-5.3,0c-7.2-0.2-10.3-7.3-5.5-12.7l7.5-8.4l3.6-4.1l1.3-1.5l10.2-11.4V192h25.3l17.7-19.9
		c4.5-5.1,9.2-7.6,13.9-7.6c4.8,0,9.6,2.6,14.2,7.8l29.2,32.6l29.1,32.8c1.7,1.9,3.4,3.9,5.2,5.8c2.5,2.8,4.8,6.2,3.2,10.1
		c-1.8,4.4-6.4,4.7-10.4,4.8L612,258.5z M930.1,302c0,15.3-12.4,27.7-27.7,27.7h-289c0.9-2.1,1.4-4.5,1.4-7v-61.2l7.7-0.1
		c3.4-0.1,10.5-0.2,13.2-6.6c2.6-6.2-2-11.3-3.7-13.2c-1.1-1.3-2.3-2.5-3.4-3.8c-0.6-0.7-1.2-1.3-1.8-2l-0.7-0.8h276.3
		c15.3,0,27.7,12.4,27.7,27.7V302z"/>
</g>
</svg>
