<?xml version="1.0" encoding="utf-8"?>
<!-- Generator: Adobe Illustrator 18.1.0, SVG Export Plug-In . SVG Version: 6.00 Build 0)  -->
<!DOCTYPE svg PUBLIC "-//W3C//DTD SVG 1.1//EN" "http://www.w3.org/Graphics/SVG/1.1/DTD/svg11.dtd">
<svg version="1.1" id="Layer_1" xmlns="http://www.w3.org/2000/svg" xmlns:xlink="http://www.w3.org/1999/xlink" x="0px" y="0px"
	 width="200px" height="110.6px" viewBox="-301.2 4946 200 110.6" enable-background="new -301.2 4946 200 110.6"
	 xml:space="preserve">
<g>
	<path fill="#455561" d="M-106.4,4958.2c2.4,0,4.3-1.9,4.3-4.3c0-2.4-1.9-4.3-4.3-4.3c-2.3,0-4.3,1.9-4.3,4.3
		C-110.7,4956.3-108.8,4958.2-106.4,4958.2z M-106.4,4950.7c1.8,0,3.3,1.5,3.3,3.3c0,1.8-1.5,3.3-3.3,3.3s-3.3-1.5-3.3-3.3
		C-109.7,4952.1-108.2,4950.7-106.4,4950.7z"/>
	<path fill="#455561" d="M-106.9,4954.4h0.7c0.5,0,0.5,0.4,0.5,0.8c0,0.2,0.1,0.4,0.1,0.6h1.2c-0.1-0.2-0.1-0.7-0.1-0.9
		c-0.1-0.5-0.3-0.9-0.6-1c0.4-0.1,0.6-0.6,0.6-1c0-0.7-0.6-1.1-1.3-1.1h-2.3v3.9h1.2L-106.9,4954.4L-106.9,4954.4z M-106.9,4952.7
		h0.6c0.5,0,0.6,0.1,0.6,0.4c0,0.3-0.3,0.4-0.5,0.4h-0.7V4952.7z"/>
	<path fill="#455561" d="M-101.7,5000.8c-1.3-4.9-12.9-44.3-13-44.7c-1.4-4.2-4.1-7.2-8-8.8c-1.9-0.8-4.2-1.3-6.4-1.3
		c-1.1,0-72.1,0-72.1,0s-71,0-72.1,0c-2.1,0-4.4,0.5-6.4,1.3c-3.9,1.6-6.6,4.5-8,8.8c-0.1,0.4-11.7,39.9-13,44.7
		c-0.7,2.6-0.6,5.7,0.3,8.3c1.1,3.1,3.3,5.6,6.4,7.2l92.8,40.4l0,0l92.9-40.4c3-1.5,5.2-4,6.4-7.2
		C-101.1,5006.4-100.9,5003.4-101.7,5000.8z M-106,5006.9c-0.9,1.8-2.5,3.1-4.6,3.7c-6.5,1.8-89.2,25.7-90.6,26.1
		c-1.4-0.4-84.1-24.3-90.6-26.1c-2.1-0.7-3.7-1.9-4.6-3.7c-1.7-3.3-0.6-7.3-0.1-8.9c1.1-2.9,14.1-38.6,14.1-38.6
		c1.7-4.6,5.4-6.8,8.2-6.8c2.6,0,73,0,73,0s66.5,0,72.7,0h0.4c2.7,0,6.4,2.1,8.2,6.8c0,0,13,35.6,14.1,38.6
		C-105.4,4999.6-104.3,5003.6-106,5006.9z"/>
	<path fill="#455561" d="M-174.4,4970c-9.5,0-17.2,7.7-17.2,17.2c0,9.5,7.7,17.2,17.2,17.2s17.2-7.7,17.2-17.2
		C-157.3,4977.7-165,4970-174.4,4970z M-174.4,4995.4c-4.5,0-8.2-3.7-8.2-8.2s3.7-8.2,8.2-8.2s8.2,3.7,8.2,8.2
		S-170,4995.4-174.4,4995.4z"/>
	<path fill="#455561" d="M-228.2,4970c-9.5,0-17.2,7.7-17.2,17.2c0,9.5,7.7,17.2,17.2,17.2c9.5,0,17.2-7.7,17.2-17.2
		C-211,4977.7-218.7,4970-228.2,4970z M-228.2,4995.4c-4.5,0-8.2-3.7-8.2-8.2s3.7-8.2,8.2-8.2c4.5,0,8.2,3.7,8.2,8.2
		S-223.7,4995.4-228.2,4995.4z"/>
	<path fill="#455561" d="M-262.2,4970c-9.5,0-17.2,7.7-17.2,17.2c0,9.5,7.7,17.2,17.2,17.2c4.7,0,9.2-1.9,12.4-5.3l0,0l-6-6.9
		l-0.1-0.1l-0.1,0.1c-1.5,2-3.9,3.1-6.4,3.1c-4.5,0-8.2-3.7-8.2-8.2s3.7-8.2,8.2-8.2c2.7,0,5.2,1.3,6.8,3.7v0.1l6-7l0,0l0,0
		C-252.7,4972.1-257.4,4970-262.2,4970z"/>
	<polygon fill="#455561" points="-206,4990.2 -206,4990.3 -196.9,4990.2 -196.8,4990.2 -196.8,4981.4 -206.1,4981.4 	"/>
	<path fill="#455561" d="M-137.5,4970.1h-13.6v34.4h8.9v-5.6l4.7,0.1c8,0,14.4-6.5,14.4-14.4C-123,4976.6-129.5,4970.1-137.5,4970.1
		z M-136.7,4990.2l-5.5-0.1v-11.2h5.5c3.1,0,5.6,2.5,5.6,5.6C-131.1,4987.6-133.6,4990.2-136.7,4990.2z"/>
</g>
</svg>
