<?xml version="1.0" encoding="utf-8"?>
<!-- Generator: Adobe Illustrator 18.0.0, SVG Export Plug-In . SVG Version: 6.00 Build 0)  -->
<!DOCTYPE svg PUBLIC "-//W3C//DTD SVG 1.1//EN" "http://www.w3.org/Graphics/SVG/1.1/DTD/svg11.dtd">
<svg version="1.1" id="Layer_1" xmlns="http://www.w3.org/2000/svg" xmlns:xlink="http://www.w3.org/1999/xlink" x="0px" y="0px"
	 width="166.9px" height="44.1px" viewBox="100.7 7.9 166.9 44.1" style="enable-background:new 100.7 7.9 166.9 44.1;"
	 xml:space="preserve">
<style type="text/css">
	.st0{fill:#636567;}
	.st1{fill:#005F88;}
	.st2{fill:#929497;}
</style>
<g>
	<path class="st0" d="M153.3,49.8l0,0.1c-0.2,1.1-0.9,2.1-2.2,2.1c-1.5,0-1.7-0.9-1.3-3c0.4-2.1,1.1-3,2.6-3c1.7,0,1.5,1.2,1.4,1.8
		l0,0.1h-0.9l0-0.1c0.1-0.5,0.1-1.2-0.6-1.1c-0.7,0-1.1,0.4-1.5,2.3c-0.4,1.9-0.2,2.3,0.5,2.3c0.8,0,1-0.9,1.2-1.4l0-0.1H153.3z"/>
	<path class="st0" d="M158.1,49c0.4-2.1,1.2-3,2.6-3c1.3,0,1.7,0.9,1.3,3c-0.4,2.1-1.2,3-2.6,3C158,52,157.7,51.1,158.1,49 M161,49
		c0.4-2,0-2.3-0.5-2.3c-0.6,0-1.1,0.3-1.5,2.3c-0.4,2-0.1,2.4,0.5,2.4C160.1,51.3,160.6,51,161,49"/>
	<polygon class="st0" points="167.5,46.1 168.9,46.1 169,50.4 169,50.4 171,46.1 172.4,46.1 171.2,51.9 170.3,51.9 171.3,47.1 
		171.3,47.1 169.1,51.9 168.3,51.9 168.2,47.1 168.1,47.1 167.1,51.9 166.2,51.9 	"/>
	<polygon class="st0" points="177.4,46.1 178.9,46.1 179,50.4 179,50.4 180.9,46.1 182.4,46.1 181.1,51.9 180.2,51.9 181.3,47.1 
		181.3,47.1 179,51.9 178.3,51.9 178.1,47.1 178.1,47.1 177.1,51.9 176.2,51.9 	"/>
	<path class="st0" d="M188.3,46.1l-0.9,4.2c-0.2,0.7,0.1,1.1,0.6,1.1c0.6,0,0.9-0.3,1.1-1.1l0.9-4.2h0.9l-0.9,4.1
		c-0.3,1.3-1.1,1.8-2.2,1.8c-1.1,0-1.7-0.5-1.4-1.8l0.9-4.1H188.3z"/>
	<polygon class="st0" points="195.9,46.1 197,46.1 197.8,50.4 197.8,50.4 198.7,46.1 199.6,46.1 198.3,51.9 197.2,51.9 196.5,47.5 
		196.4,47.5 195.5,51.9 194.6,51.9 	"/>
	<polygon class="st0" points="204.6,46.1 205.5,46.1 204.3,51.9 203.3,51.9 	"/>
	<path class="st0" d="M213.3,49.8l0,0.1C213,51,212.4,52,211,52c-1.5,0-1.7-0.9-1.3-3c0.4-2.1,1.1-3,2.6-3c1.7,0,1.5,1.2,1.4,1.8
		l0,0.1h-0.9l0-0.1c0.1-0.5,0.1-1.2-0.6-1.1c-0.7,0-1.1,0.4-1.5,2.3c-0.4,1.9-0.2,2.3,0.5,2.3c0.8,0,1-0.9,1.2-1.4l0-0.1H213.3z"/>
	<path class="st0" d="M219.9,46.1h1.2l0.3,5.8h-1l-0.1-1.4h-1.7l-0.7,1.4h-1L219.9,46.1z M220.4,49.7l-0.1-2.9h0l-1.3,2.9H220.4z"/>
	<polygon class="st0" points="227.5,46.9 226.1,46.9 226.2,46.1 229.9,46.1 229.8,46.9 228.4,46.9 227.3,51.9 226.4,51.9 	"/>
	<polygon class="st0" points="234.5,46.1 235.4,46.1 234.2,51.9 233.2,51.9 	"/>
	<path class="st0" d="M239.7,49c0.4-2.1,1.2-3,2.6-3c1.3,0,1.7,0.9,1.3,3c-0.4,2.1-1.2,3-2.6,3S239.2,51.1,239.7,49 M242.6,49
		c0.4-2,0-2.3-0.5-2.3c-0.6,0-1.1,0.3-1.5,2.3c-0.4,2-0.1,2.4,0.5,2.4C241.6,51.3,242.2,51,242.6,49"/>
	<polygon class="st0" points="249,46.1 250.2,46.1 250.9,50.4 250.9,50.4 251.9,46.1 252.7,46.1 251.5,51.9 250.4,51.9 249.6,47.5 
		249.6,47.5 248.7,51.9 247.8,51.9 	"/>
	<path class="st0" d="M257.7,50.1l0,0.1c-0.2,0.7,0.1,1.1,0.7,1.1c0.6,0,1-0.4,1.1-0.8c0.1-0.6-0.1-0.9-0.6-1l-0.6-0.2
		c-0.8-0.3-1.1-0.8-0.9-1.6c0.2-1.1,1.1-1.6,2.2-1.6c1.5,0,1.5,0.9,1.3,1.5l0,0.1h-0.9l0-0.1c0.1-0.5-0.1-0.8-0.6-0.8
		c-0.4,0-0.8,0.2-1,0.8c-0.1,0.5,0.1,0.8,0.7,1l0.6,0.2c0.8,0.3,1,0.7,0.9,1.5c-0.3,1.2-1.1,1.8-2.3,1.8c-1.4,0-1.6-1-1.4-1.8l0-0.1
		H257.7z"/>
	<path class="st1" d="M161.2,14.3c0.7,1.2,1.5,2.5,2.4,3.9c0.8,1.3,1.7,2.7,2.6,4c0.9,1.3,1.7,2.6,2.5,3.8c0.8,1.2,1.5,2.3,2.2,3.2
		c0.7,0.9,1.2,1.7,1.6,2.2c0.2-0.7,0.4-1.6,0.7-2.7c0.3-1.1,0.5-2.3,0.8-3.5c0.3-1.3,0.5-2.6,0.8-3.9s0.5-2.7,0.8-3.9
		c0.2-1.2,0.4-2.4,0.6-3.4c0.2-1,0.3-1.9,0.4-2.5c0.5,0.1,1,0.2,1.6,0.2c0.5,0,1.1-0.1,1.7-0.2c-0.2,0.6-0.3,1.2-0.4,1.7
		c-0.1,0.5-0.3,1.2-0.5,2.2c-0.2,0.9-0.5,2.1-0.9,3.7c-0.3,1.5-0.8,3.6-1.4,6.2c-0.3,1.5-0.7,3.5-1.2,6c-0.5,2.5-1,5.4-1.6,8.5
		c-0.5-0.1-1.1-0.2-1.7-0.2c-0.3,0-0.6,0-0.9,0.1c-0.3,0-0.5,0.1-0.7,0.1c-2-3.5-4.2-7-6.4-10.4c-2.3-3.4-4.6-6.8-6.9-10.3
		c-0.4,1.7-0.8,3.5-1.2,5.5c-0.4,2-0.8,3.9-1.2,5.8c-0.4,1.9-0.7,3.6-1,5.2c-0.3,1.6-0.5,2.8-0.6,3.6c-0.3-0.1-0.6-0.1-0.8-0.1h-0.9
		c-0.7,0-1.2,0-1.7,0.1c0.2-0.5,0.4-1.3,0.7-2.4c0.3-1.2,0.6-2.5,1-4.1c0.4-1.6,0.7-3.3,1.1-5.2c0.4-1.9,0.8-3.7,1.2-5.7
		c0.4-1.9,0.8-3.8,1.1-5.7c0.3-1.9,0.6-3.6,0.9-5.2c0.5,0.1,1.1,0.2,1.8,0.2c0.6,0,1.2-0.1,1.8-0.2
		C159.8,11.9,160.5,13.1,161.2,14.3"/>
	<path class="st1" d="M195.7,36.3c-0.1,0.4-0.3,0.9-0.5,1.7c-0.9,0.6-1.8,1-2.9,1.2c-1,0.2-2.1,0.3-3.2,0.3c-1.6,0-2.9-0.2-4.1-0.7
		c-1.2-0.5-2.1-1.1-2.8-2c-0.7-0.8-1.3-1.8-1.7-2.9c-0.4-1.1-0.5-2.2-0.5-3.4c0-1.3,0.2-2.7,0.7-4c0.4-1.3,1.1-2.5,2-3.6
		c0.9-1.1,2-1.9,3.3-2.6c1.3-0.7,2.8-1,4.6-1c2.5,0,4.4,0.7,5.7,2c1.3,1.3,1.9,3.1,1.9,5.3c0,0.5,0,1-0.1,1.6
		c-0.1,0.5-0.1,1.1-0.2,1.6c-1.7-0.1-3.1-0.1-4.3-0.1c-1.2,0-2.2,0-3.1,0h-1.9h-1.2c-0.5,0-1,0-1.6,0c-0.1,0.3-0.1,0.7-0.1,1.1
		c0,0.4,0,0.8,0,1.1c0,1.6,0.4,2.9,1.1,3.9c0.8,1,2,1.5,3.7,1.5c0.8,0,1.6-0.2,2.5-0.5c0.9-0.3,1.8-0.9,2.6-1.7l0.6,0.3
		C196,35.6,195.9,35.9,195.7,36.3 M192.7,22.1c-0.4-0.7-1-1-2-1c-0.7,0-1.3,0.2-1.8,0.6c-0.5,0.4-0.9,0.9-1.3,1.5
		c-0.4,0.6-0.7,1.3-0.9,2.1c-0.2,0.8-0.5,1.6-0.6,2.4c0.2,0,0.4,0,0.7,0.1c0.2,0,0.5,0,0.7,0h1.5h1.7c0.3,0,0.6,0,1,0
		c0.4,0,0.8,0,1.2-0.1c0.1-0.4,0.2-0.8,0.3-1.4c0.1-0.6,0.1-1.2,0.1-2C193.2,23.5,193.1,22.7,192.7,22.1"/>
	<path class="st1" d="M207.9,39.6c-0.5,0.1-1.1,0.2-1.8,0.2c-0.7,0-1.3-0.1-1.9-0.3c-0.6-0.2-1.1-0.5-1.6-0.8
		c-0.5-0.4-0.8-0.8-1.1-1.4c-0.3-0.6-0.4-1.2-0.4-1.9c0-0.3,0-0.7,0-1c0-0.3,0.1-0.7,0.2-1.1c0.1-0.4,0.2-0.9,0.3-1.4
		c0.1-0.5,0.2-1.1,0.4-1.9c0.3-1.4,0.6-2.8,0.9-4.1c0.3-1.4,0.6-2.7,0.9-4.1c-0.4,0-0.8,0-1.2,0c-0.4,0-0.9,0-1.6,0.1
		c0.1-0.4,0.2-0.7,0.2-0.9c0.1-0.3,0.1-0.7,0.2-1.2c0.3,0,0.6,0,0.8,0.1c0.3,0,0.5,0,0.7,0h1.2c0.1-0.6,0.2-1.3,0.3-2.1
		c0.1-0.8,0.2-1.6,0.4-2.5c0.7-0.2,1.2-0.5,1.7-0.6c0.5-0.2,0.9-0.4,1.3-0.5c0.4-0.2,0.9-0.4,1.3-0.6c0.5-0.2,1-0.5,1.7-0.8l0.3,0.4
		c-0.2,0.7-0.4,1.2-0.5,1.8c-0.1,0.5-0.3,1.1-0.4,1.6c-0.1,0.5-0.3,1-0.4,1.6c-0.1,0.5-0.2,1.2-0.4,1.8h1.5c0.3,0,0.6,0,0.9,0
		c0.4,0,0.7,0,1.2-0.1c-0.2,0.4-0.3,0.8-0.3,1.1c-0.1,0.4-0.1,0.7-0.1,1c-0.4,0-0.7,0-1-0.1c-0.3,0-0.6,0-0.9,0h-1.6
		c-0.1,0.5-0.3,1.3-0.5,2.4c-0.3,1.1-0.5,2.3-0.8,3.5c-0.3,1.2-0.5,2.4-0.7,3.4c-0.2,1-0.3,1.7-0.4,2.1c-0.1,0.7-0.2,1.2-0.3,1.6
		c-0.1,0.4-0.1,0.8-0.1,1.1c0,0.7,0.2,1.2,0.6,1.5c0.4,0.3,0.9,0.4,1.6,0.4c0.4,0,0.8-0.1,1.3-0.2l-0.4,1.3
		C208.9,39.3,208.4,39.4,207.9,39.6"/>
	<path class="st1" d="M229.2,14.7c-0.8-0.9-1.9-1.3-3.5-1.3c-0.7,0-1.3,0.1-1.8,0.3c-0.5,0.2-1,0.5-1.3,0.8
		c-0.3,0.3-0.6,0.7-0.8,1.2c-0.2,0.4-0.3,0.9-0.3,1.4c0,0.5,0.1,1,0.3,1.5c0.2,0.5,0.5,0.9,0.9,1.4c0.4,0.5,0.9,1,1.5,1.5
		c0.6,0.5,1.3,1.1,2.1,1.8c0.6,0.5,1.2,1,1.8,1.6c0.6,0.5,1.1,1.1,1.5,1.7c0.4,0.6,0.8,1.3,1,2c0.3,0.7,0.4,1.5,0.4,2.4
		c0,1.4-0.3,2.7-0.8,3.8c-0.5,1.1-1.2,2-2.1,2.7c-0.9,0.7-1.9,1.3-3.1,1.6c-1.2,0.4-2.4,0.5-3.7,0.5c-1.6,0-3.1-0.2-4.4-0.5
		c-1.3-0.4-2.7-1-4-1.8c0.4-0.8,0.8-1.7,1.1-2.6c0.3-0.9,0.5-1.7,0.6-2.4h0.8c0.1,1.5,0.7,2.8,1.7,3.7c1,0.9,2.3,1.4,3.9,1.4
		c0.6,0,1.2-0.1,1.7-0.3c0.6-0.2,1-0.4,1.5-0.8c0.4-0.4,0.8-0.8,1-1.3c0.3-0.5,0.4-1.1,0.4-1.7c0-0.5-0.1-1.1-0.3-1.6
		c-0.2-0.5-0.5-1-0.9-1.4c-0.4-0.5-0.8-0.9-1.4-1.4c-0.5-0.5-1.1-0.9-1.7-1.4c-0.7-0.6-1.3-1.1-2-1.7c-0.6-0.6-1.1-1.1-1.6-1.8
		c-0.5-0.6-0.8-1.3-1.1-2.1c-0.3-0.8-0.4-1.6-0.4-2.6c0-1.4,0.2-2.6,0.7-3.7c0.5-1.1,1.1-2,2-2.7c0.8-0.7,1.8-1.3,3-1.6
		c1.1-0.4,2.4-0.6,3.6-0.6c1.5,0,2.8,0.2,4,0.5c1.2,0.3,2.4,0.9,3.6,1.7c-0.5,1-0.9,1.9-1.1,2.6c-0.2,0.7-0.4,1.5-0.6,2.2h-0.9
		C230.4,16.6,230,15.5,229.2,14.7"/>
	<path class="st1" d="M250.2,36.3c-0.1,0.4-0.3,0.9-0.5,1.7c-0.9,0.6-1.8,1-2.9,1.2c-1,0.2-2.1,0.3-3.2,0.3c-1.6,0-2.9-0.2-4.1-0.7
		c-1.2-0.5-2.1-1.1-2.8-2c-0.7-0.8-1.3-1.8-1.7-2.9c-0.4-1.1-0.5-2.2-0.5-3.4c0-1.3,0.2-2.7,0.7-4c0.4-1.3,1.1-2.5,2-3.6
		c0.9-1.1,2-1.9,3.3-2.6c1.3-0.7,2.8-1,4.6-1c2.5,0,4.4,0.7,5.7,2c1.3,1.3,1.9,3.1,1.9,5.3c0,0.5,0,1-0.1,1.6
		c-0.1,0.5-0.1,1.1-0.2,1.6c-1.7-0.1-3.1-0.1-4.3-0.1c-1.2,0-2.2,0-3.1,0h-1.9h-1.2c-0.5,0-1,0-1.6,0c-0.1,0.3-0.1,0.7-0.1,1.1
		c0,0.4,0,0.8,0,1.1c0,1.6,0.4,2.9,1.1,3.9c0.8,1,2,1.5,3.7,1.5c0.8,0,1.6-0.2,2.5-0.5c0.9-0.3,1.8-0.9,2.6-1.7l0.6,0.3
		C250.5,35.6,250.4,35.9,250.2,36.3 M247.2,22.1c-0.4-0.7-1-1-2-1c-0.7,0-1.3,0.2-1.8,0.6c-0.5,0.4-0.9,0.9-1.3,1.5
		c-0.4,0.6-0.7,1.3-0.9,2.1c-0.2,0.8-0.5,1.6-0.6,2.4c0.2,0,0.4,0,0.7,0.1c0.2,0,0.5,0,0.7,0h1.5h1.7c0.3,0,0.6,0,1,0
		c0.4,0,0.8,0,1.2-0.1c0.1-0.4,0.2-0.8,0.3-1.4c0.1-0.6,0.1-1.2,0.1-2C247.7,23.5,247.6,22.7,247.2,22.1"/>
	<path class="st1" d="M262.4,39.6c-0.5,0.1-1.1,0.2-1.8,0.2c-0.7,0-1.3-0.1-1.9-0.3c-0.6-0.2-1.1-0.5-1.6-0.8
		c-0.5-0.4-0.8-0.8-1.1-1.4c-0.3-0.6-0.4-1.2-0.4-1.9c0-0.3,0-0.7,0-1c0-0.3,0.1-0.7,0.2-1.1c0.1-0.4,0.2-0.9,0.3-1.4
		c0.1-0.5,0.2-1.1,0.4-1.9c0.3-1.4,0.6-2.8,0.9-4.1c0.3-1.4,0.6-2.7,0.9-4.1c-0.4,0-0.8,0-1.2,0c-0.4,0-0.9,0-1.6,0.1
		c0.1-0.4,0.2-0.7,0.2-0.9c0.1-0.3,0.1-0.7,0.2-1.2c0.3,0,0.6,0,0.8,0.1c0.3,0,0.5,0,0.7,0h1.2c0.1-0.6,0.2-1.3,0.3-2.1
		c0.1-0.8,0.2-1.6,0.4-2.5c0.7-0.2,1.2-0.5,1.7-0.6c0.5-0.2,0.9-0.4,1.3-0.5c0.4-0.2,0.9-0.4,1.3-0.6c0.5-0.2,1-0.5,1.7-0.8l0.3,0.4
		c-0.2,0.7-0.4,1.2-0.5,1.8c-0.1,0.5-0.3,1.1-0.4,1.6c-0.1,0.5-0.3,1-0.4,1.6c-0.1,0.5-0.2,1.2-0.4,1.8h1.5c0.3,0,0.6,0,0.9,0
		c0.4,0,0.7,0,1.2-0.1c-0.2,0.4-0.3,0.8-0.3,1.1c-0.1,0.4-0.1,0.7-0.1,1c-0.4,0-0.7,0-1-0.1c-0.3,0-0.6,0-0.9,0h-1.6
		c-0.1,0.5-0.3,1.3-0.5,2.4c-0.3,1.1-0.5,2.3-0.8,3.5c-0.3,1.2-0.5,2.4-0.7,3.4c-0.2,1-0.4,1.7-0.4,2.1c-0.1,0.7-0.2,1.2-0.3,1.6
		c-0.1,0.4-0.1,0.8-0.1,1.1c0,0.7,0.2,1.2,0.6,1.5c0.4,0.3,0.9,0.4,1.6,0.4c0.4,0,0.8-0.1,1.2-0.2l-0.4,1.3
		C263.4,39.3,262.9,39.4,262.4,39.6"/>
	<path class="st2" d="M136.6,23.7c0,0.4-0.1,0.9-0.2,1.4c-0.1,0.6-0.3,1.2-0.5,2c-0.2,0.8-0.5,1.8-0.8,3.1c-0.3,1.1-0.6,2.1-0.8,3
		c-0.2,0.9-0.4,1.7-0.6,2.5c-0.2,0.8-0.3,1.5-0.5,2.2c-0.1,0.7-0.3,1.5-0.5,2.3c-0.6-0.1-1.2-0.1-1.8-0.1h-2.1h-2.1
		c-0.7,0-1.3,0-1.9,0.1c0.1-0.3,0.4-0.8,0.7-1.7c0.3-0.9,0.6-1.8,1-2.9c0.4-1.1,0.7-2.3,1.1-3.5c0.4-1.2,0.7-2.4,1-3.5
		c0.3-1.1,0.6-2.1,0.8-3c0.2-0.9,0.3-1.5,0.3-1.9c0-0.9-0.3-1.5-0.8-1.9c-0.5-0.4-1.3-0.6-2.2-0.6c-1.3,0-2.5,0.5-3.8,1.4
		c-1.2,1-2.2,2.5-3,4.5c-0.3,0.8-0.6,1.7-0.9,2.7c-0.3,1.1-0.6,2.2-0.9,3.4c-0.3,1.2-0.6,2.4-0.8,3.7c-0.3,1.3-0.5,2.4-0.7,3.5
		c-0.6-0.1-1.2-0.1-1.8-0.1H113H111c-0.7,0-1.3,0-1.9,0.1c0.5-1.4,0.9-2.9,1.4-4.5c0.5-1.6,0.9-3.3,1.4-5c0.5-1.8,0.9-3.7,1.4-5.8
		c0.5-2.1,1-4.4,1.5-6.9c0.5,0.1,1.1,0.1,1.8,0.2c0.7,0,1.3,0.1,2,0.1c0.6,0,1.2,0,1.7-0.1c0.6,0,1.1-0.1,1.6-0.2
		c-0.1,0.4-0.3,0.7-0.4,1c-0.1,0.3-0.2,0.6-0.3,0.9c-0.1,0.3-0.2,0.6-0.2,0.9c-0.1,0.3-0.2,0.7-0.3,1.1c1.3-1.4,2.6-2.5,4.1-3.2
		c1.5-0.8,3.3-1.1,5.4-1.1c2.2,0,3.8,0.5,4.9,1.4c1,0.9,1.5,2.1,1.5,3.5C136.6,22.9,136.6,23.3,136.6,23.7"/>
	<path class="st2" d="M126.2,41.1c0.5,0.3,1.4,0.6,2,0.7c0.6,0.2,1.2,0.1,1.7,0.1c1.5,0,4,0.2,7.3-1.2c2.4-1.1,3.3-2.2,4.5-3.6
		c1.2-1.4,2.1-3.1,2.8-5c0.7-1.9,1.1-4,1.1-6.3c0-2.7-0.5-5.2-1.6-7.4c-1-2.2-2.5-4.1-4.3-5.6c-1.8-1.6-4-2.8-6.5-3.6
		c-2.5-0.8-5.2-1.3-8.1-1.3c-3.5,0-6.7,0.6-9.7,1.8c-3,1.2-5.6,2.8-7.8,4.9c-2.2,2.1-3.9,4.5-5.2,7.3c-1.2,2.8-1.9,5.8-1.9,9.1
		c0,2.8,0.5,5.5,1.5,8.1c1,2.6,2.5,4.9,4.5,6.9c2,2,4.5,3.6,7.4,4.8c2.9,1.2,6.3,1.8,10.1,1.8c3.9,0,7.3-0.6,10.2-1.7
		c2.9-1.1,5.7-2.6,8.3-4.5l-1.6-2.1c-2.4,1.7-4.9,3.1-7.6,4.1c-2.6,1.1-5.7,1.6-9.2,1.6c-3.4,0-6.4-0.5-8.9-1.6
		c-2.6-1-4.7-2.5-6.5-4.2s-3-3.8-3.9-6c-0.9-2.3-1.3-4.6-1.3-7c0-2.7,0.5-5.3,1.5-7.7c1-2.5,2.4-4.6,4.3-6.5
		c1.9-1.9,4.1-3.4,6.8-4.5c2.6-1.1,5.6-1.7,8.9-1.7c2.5,0,4.9,0.4,7,1.1c2.1,0.7,4,1.7,5.5,3c1.5,1.3,2.7,2.9,3.6,4.7
		c0.9,1.8,1.3,3.9,1.3,6.1c0,1.7-0.2,3.3-0.7,4.9c-0.5,1.6-1.1,2.9-1.9,4.1c-0.8,1.2-1.7,2.1-2.7,2.8c-1,0.7-2,1-3,1
		c-0.2,0-0.4,0-0.7-0.1c-0.3,0-0.6-0.1-0.9-0.3c-0.3-0.2-0.5-0.4-0.7-0.8l-0.1-0.1l-7.1,3.1C125,40.5,125.9,41,126.2,41.1"/>
</g>
</svg>
