<?xml version="1.0" encoding="utf-8"?>
<!-- Generator: Adobe Illustrator 18.0.0, SVG Export Plug-In . SVG Version: 6.00 Build 0)  -->
<!DOCTYPE svg PUBLIC "-//W3C//DTD SVG 1.1//EN" "http://www.w3.org/Graphics/SVG/1.1/DTD/svg11.dtd">
<svg version="1.1" id="Layer_1" xmlns="http://www.w3.org/2000/svg" xmlns:xlink="http://www.w3.org/1999/xlink" x="0px" y="0px"
	 width="367.7px" height="60.5px" viewBox="0 0 367.7 60.5" style="enable-background:new 0 0 367.7 60.5;" xml:space="preserve">
<style type="text/css">
	.st0{fill:#FFFFFF;}
</style>
<g>
	<path class="st0" d="M53,57.9L53,57.9c-0.2,1.2-0.9,2.2-2.2,2.2c-1.5,0-1.7-0.9-1.3-3s1.1-3,2.6-3c1.7,0,1.5,1.2,1.4,1.8V56h-0.9
		v-0.1c0.1-0.5,0.1-1.2-0.6-1.1c-0.7,0-1.1,0.4-1.5,2.3c-0.4,1.9-0.2,2.3,0.5,2.3c0.8,0,1-0.9,1.2-1.4v-0.1
		C52.2,57.9,53,57.9,53,57.9z"/>
	<path class="st0" d="M57.8,57.1c0.4-2.1,1.2-3,2.6-3c1.3,0,1.7,0.9,1.3,3c-0.4,2.1-1.2,3-2.6,3S57.4,59.1,57.8,57.1 M60.7,57
		c0.4-2,0-2.3-0.5-2.3c-0.6,0-1.1,0.3-1.5,2.3s-0.1,2.4,0.5,2.4S60.3,59,60.7,57"/>
	<polygon class="st0" points="67.2,54.1 68.6,54.1 68.7,58.5 68.7,58.5 70.7,54.1 72.1,54.1 70.9,60 70,60 71,55.1 71,55.1 68.8,60 
		68,60 67.9,55.1 67.8,55.1 66.8,60 65.9,60 	"/>
	<polygon class="st0" points="77.1,54.1 78.6,54.1 78.7,58.5 78.7,58.5 80.6,54.1 82.1,54.1 80.8,60 79.9,60 81,55.1 81,55.1 
		78.7,60 78,60 77.8,55.1 77.8,55.1 76.8,60 75.9,60 	"/>
	<path class="st0" d="M88,54.1l-0.9,4.2c-0.2,0.7,0.1,1.1,0.6,1.1c0.6,0,0.9-0.3,1.1-1.1l0.9-4.2h0.9l-0.9,4.1
		c-0.3,1.3-1.1,1.8-2.2,1.8s-1.7-0.5-1.4-1.8l0.9-4.1H88z"/>
	<polygon class="st0" points="95.6,54.1 96.7,54.1 97.5,58.5 97.5,58.5 98.4,54.1 99.3,54.1 98,60 96.9,60 96.2,55.5 96.1,55.5 
		95.2,60 94.3,60 	"/>
	<polygon class="st0" points="104.3,54.1 105.2,54.1 104,60 103,60 	"/>
	<path class="st0" d="M113,57.9L113,57.9c-0.2,1.2-0.9,2.2-2.2,2.2c-1.5,0-1.7-0.9-1.3-3c0.4-2.1,1.1-3,2.6-3c1.7,0,1.5,1.2,1.4,1.8
		V56h-0.9v-0.1c0.1-0.5,0.1-1.2-0.6-1.1c-0.7,0-1.1,0.4-1.5,2.3c-0.4,1.9-0.2,2.3,0.5,2.3c0.8,0,1-0.9,1.2-1.4v-0.1
		C112.2,57.9,113,57.9,113,57.9z"/>
	<path class="st0" d="M119.6,54.1h1.2l0.3,5.8h-1l-0.1-1.4h-1.7l-0.6,1.5h-1L119.6,54.1z M120.1,57.8l-0.1-2.9l0,0l-1.3,2.9H120.1z"
		/>
	<polygon class="st0" points="127.2,54.9 125.8,54.9 125.9,54.2 129.6,54.2 129.5,54.9 128.1,54.9 127,60 126.1,60 	"/>
	<polygon class="st0" points="134.2,54.1 135.1,54.1 133.9,60 132.9,60 	"/>
	<path class="st0" d="M139.4,57.1c0.4-2.1,1.2-3,2.6-3c1.3,0,1.7,0.9,1.3,3c-0.4,2.1-1.2,3-2.6,3S138.9,59.1,139.4,57.1 M142.3,57
		c0.4-2,0-2.3-0.5-2.3c-0.6,0-1.1,0.3-1.5,2.3s-0.1,2.4,0.5,2.4C141.3,59.4,141.9,59,142.3,57"/>
	<polygon class="st0" points="148.7,54.1 149.9,54.1 150.6,58.5 150.6,58.5 151.6,54.1 152.5,54.1 151.2,60 150.1,60 149.3,55.5 
		149.3,55.5 148.4,60 147.5,60 	"/>
	<path class="st0" d="M157.4,58.2L157.4,58.2c-0.2,0.8,0.1,1.2,0.7,1.2s1-0.4,1.1-0.8c0.1-0.6-0.1-0.9-0.6-1l-0.6-0.2
		c-0.8-0.3-1.1-0.8-0.9-1.6c0.2-1.1,1.1-1.6,2.2-1.6c1.5,0,1.5,0.9,1.3,1.5v0.1h-0.9v-0.1c0.1-0.5-0.1-0.8-0.6-0.8
		c-0.4,0-0.8,0.2-1,0.8c-0.1,0.5,0.1,0.8,0.7,1l0.6,0.2c0.8,0.3,1,0.7,0.9,1.5c-0.3,1.2-1.1,1.8-2.3,1.8c-1.4,0-1.6-1-1.4-1.8v-0.1
		h0.8V58.2z"/>
	<path class="st0" d="M60.9,22.4c0.7,1.2,1.5,2.5,2.4,3.9c0.8,1.3,1.7,2.7,2.6,4s1.7,2.6,2.5,3.8s1.5,2.3,2.2,3.2s1.2,1.7,1.6,2.2
		c0.2-0.7,0.4-1.6,0.7-2.7c0.3-1.1,0.5-2.3,0.8-3.5c0.3-1.3,0.5-2.6,0.8-3.9c0.3-1.4,0.5-2.7,0.8-3.9c0.2-1.2,0.4-2.4,0.6-3.4
		s0.3-1.9,0.4-2.5c0.5,0.1,1,0.2,1.6,0.2c0.5,0,1.1-0.1,1.7-0.2c-0.2,0.6-0.3,1.2-0.4,1.7s-0.3,1.2-0.5,2.2
		c-0.2,0.9-0.5,2.1-0.9,3.7c-0.3,1.5-0.8,3.6-1.4,6.2c-0.3,1.5-0.7,3.5-1.2,6s-1,5.4-1.6,8.5c-0.5-0.1-1.1-0.2-1.7-0.2
		c-0.3,0-0.6,0-0.9,0.1c-0.3,0-0.5,0.1-0.7,0.1c-2-3.5-4.2-7-6.4-10.4c-2.3-3.4-4.6-6.8-6.9-10.3c-0.4,1.7-0.8,3.5-1.2,5.5
		c-0.4,2-0.8,3.9-1.2,5.8c-0.4,1.9-0.7,3.6-1,5.2c-0.3,1.6-0.5,2.8-0.6,3.6c-0.3-0.1-0.6-0.1-0.8-0.1h-0.9c-0.7,0-1.2,0-1.7,0.1
		c0.2-0.5,0.4-1.3,0.7-2.4c0.3-1.2,0.6-2.5,1-4.1s0.7-3.3,1.1-5.2c0.4-1.9,0.8-3.7,1.2-5.7c0.4-1.9,0.8-3.8,1.1-5.7
		c0.3-1.9,0.6-3.6,0.9-5.2c0.5,0.1,1.1,0.2,1.8,0.2c0.6,0,1.2-0.1,1.8-0.2C59.5,20,60.2,21.1,60.9,22.4"/>
	<path class="st0" d="M95.4,44.4c-0.1,0.4-0.3,0.9-0.5,1.7c-0.9,0.6-1.8,1-2.9,1.2c-1,0.2-2.1,0.3-3.2,0.3c-1.6,0-2.9-0.2-4.1-0.7
		s-2.1-1.1-2.8-2c-0.7-0.8-1.3-1.8-1.7-2.9c-0.4-1.1-0.5-2.2-0.5-3.4c0-1.3,0.2-2.7,0.7-4c0.4-1.3,1.1-2.5,2-3.6s2-1.9,3.3-2.6
		s2.8-1,4.6-1c2.5,0,4.4,0.7,5.7,2c1.3,1.3,1.9,3.1,1.9,5.3c0,0.5,0,1-0.1,1.6c-0.1,0.5-0.1,1.1-0.2,1.6c-1.7-0.1-3.1-0.1-4.3-0.1
		c-1.2,0-2.2,0-3.1,0h-1.9h-1.2c-0.5,0-1,0-1.6,0c-0.1,0.3-0.1,0.7-0.1,1.1c0,0.4,0,0.8,0,1.1c0,1.6,0.4,2.9,1.1,3.9
		c0.8,1,2,1.5,3.7,1.5c0.8,0,1.6-0.2,2.5-0.5s1.8-0.9,2.6-1.7l0.6,0.3C95.7,43.7,95.6,44,95.4,44.4 M92.4,30.1c-0.3-0.7-1-1-2-1
		c-0.7,0-1.3,0.2-1.8,0.6s-0.9,0.9-1.3,1.5s-0.7,1.3-0.9,2.1c-0.2,0.8-0.5,1.6-0.6,2.4c0.2,0,0.4,0,0.7,0.1c0.2,0,0.5,0,0.7,0h1.5
		h1.7c0.3,0,0.6,0,1,0s0.8,0,1.2-0.1c0.1-0.4,0.2-0.8,0.3-1.4c0.1-0.6,0.1-1.2,0.1-2C92.9,31.5,92.8,30.8,92.4,30.1"/>
	<path class="st0" d="M107.6,47.6c-0.5,0.1-1.1,0.2-1.8,0.2c-0.7,0-1.3-0.1-1.9-0.3s-1.1-0.5-1.6-0.8c-0.5-0.4-0.8-0.8-1.1-1.4
		c-0.3-0.6-0.4-1.2-0.4-1.9c0-0.3,0-0.7,0-1s0.1-0.7,0.2-1.1c0.1-0.4,0.2-0.9,0.3-1.4c0.1-0.5,0.2-1.1,0.4-1.9
		c0.3-1.4,0.6-2.8,0.9-4.1c0.3-1.4,0.6-2.7,0.9-4.1c-0.4,0-0.8,0-1.2,0c-0.4,0-0.9,0-1.6,0.1c0.1-0.4,0.2-0.7,0.2-0.9
		c0.1-0.3,0.1-0.7,0.2-1.2c0.3,0,0.6,0,0.8,0.1c0.3,0,0.5,0,0.7,0h1.2c0.1-0.6,0.2-1.3,0.3-2.1c0.1-0.8,0.2-1.6,0.4-2.5
		c0.7-0.2,1.2-0.5,1.7-0.6c0.5-0.2,0.9-0.4,1.3-0.5c0.4-0.2,0.9-0.4,1.3-0.6c0.5-0.2,1-0.5,1.7-0.8l0.3,0.4
		c-0.2,0.7-0.4,1.2-0.5,1.8c-0.1,0.5-0.3,1.1-0.4,1.6s-0.3,1-0.4,1.6c-0.1,0.5-0.2,1.2-0.4,1.8h1.5c0.3,0,0.6,0,0.9,0s0.7,0,1.2-0.1
		c-0.2,0.4-0.3,0.8-0.3,1.1c-0.1,0.4-0.1,0.7-0.1,1c-0.4,0-0.7,0-1-0.1c-0.3,0-0.6,0-0.9,0h-1.6c-0.1,0.5-0.3,1.3-0.5,2.4
		c-0.3,1.1-0.5,2.3-0.8,3.5s-0.5,2.4-0.7,3.4s-0.4,1.7-0.4,2.1c-0.1,0.7-0.2,1.2-0.3,1.6c-0.1,0.4-0.1,0.8-0.1,1.1
		c0,0.7,0.2,1.2,0.6,1.5s0.9,0.4,1.6,0.4c0.4,0,0.8-0.1,1.3-0.2l-0.4,1.3C108.6,47.4,108.1,47.5,107.6,47.6"/>
	<path class="st0" d="M128.9,22.7c-0.8-0.9-1.9-1.3-3.5-1.3c-0.7,0-1.3,0.1-1.8,0.3c-0.5,0.2-1,0.5-1.3,0.8s-0.6,0.7-0.8,1.2
		c-0.2,0.4-0.3,0.9-0.3,1.4s0.1,1,0.3,1.5c0.2,0.5,0.5,0.9,0.9,1.4s0.9,1,1.5,1.5s1.3,1.1,2.1,1.8c0.6,0.5,1.2,1,1.8,1.6
		c0.6,0.5,1.1,1.1,1.5,1.7c0.4,0.6,0.8,1.3,1,2c0.3,0.7,0.4,1.5,0.4,2.4c0,1.4-0.3,2.7-0.8,3.8s-1.2,2-2.1,2.7s-1.9,1.3-3.1,1.6
		c-1.2,0.4-2.4,0.5-3.7,0.5c-1.6,0-3.1-0.2-4.4-0.5c-1.3-0.4-2.7-1-4-1.8c0.4-0.8,0.8-1.7,1.1-2.6c0.3-0.9,0.5-1.7,0.6-2.4h0.8
		c0.1,1.5,0.7,2.8,1.7,3.7s2.3,1.4,3.9,1.4c0.6,0,1.2-0.1,1.7-0.3c0.6-0.2,1-0.4,1.5-0.8c0.4-0.4,0.8-0.8,1-1.3
		c0.3-0.5,0.4-1.1,0.4-1.7c0-0.5-0.1-1.1-0.3-1.6c-0.2-0.5-0.5-1-0.9-1.4c-0.4-0.5-0.8-0.9-1.4-1.4c-0.5-0.5-1.1-0.9-1.7-1.4
		c-0.7-0.6-1.3-1.1-2-1.7c-0.6-0.6-1.1-1.1-1.6-1.8c-0.5-0.6-0.8-1.3-1.1-2.1c-0.3-0.8-0.4-1.6-0.4-2.6c0-1.4,0.2-2.6,0.7-3.7
		s1.1-2,2-2.7c0.8-0.7,1.8-1.3,3-1.6c1.1-0.4,2.4-0.6,3.6-0.6c1.5,0,2.8,0.2,4,0.5s2.4,0.9,3.6,1.7c-0.5,1-0.9,1.9-1.1,2.6
		s-0.4,1.5-0.6,2.2h-0.9C130.1,24.7,129.7,23.6,128.9,22.7"/>
	<path class="st0" d="M149.9,44.4c-0.1,0.4-0.3,0.9-0.5,1.7c-0.9,0.6-1.8,1-2.9,1.2c-1,0.2-2.1,0.3-3.2,0.3c-1.6,0-2.9-0.2-4.1-0.7
		s-2.1-1.1-2.8-2c-0.7-0.8-1.3-1.8-1.7-2.9c-0.4-1.1-0.5-2.2-0.5-3.4c0-1.3,0.2-2.7,0.7-4c0.4-1.3,1.1-2.5,2-3.6s2-1.9,3.3-2.6
		s2.8-1,4.6-1c2.5,0,4.4,0.7,5.7,2c1.3,1.3,1.9,3.1,1.9,5.3c0,0.5,0,1-0.1,1.6c-0.1,0.5-0.1,1.1-0.2,1.6c-1.7-0.1-3.1-0.1-4.3-0.1
		c-1.2,0-2.2,0-3.1,0h-1.9h-1.2c-0.5,0-1,0-1.6,0c-0.1,0.3-0.1,0.7-0.1,1.1c0,0.4,0,0.8,0,1.1c0,1.6,0.4,2.9,1.1,3.9
		c0.8,1,2,1.5,3.7,1.5c0.8,0,1.6-0.2,2.5-0.5s1.8-0.9,2.6-1.7l0.6,0.3C150.2,43.7,150.1,44,149.9,44.4 M146.9,30.1c-0.4-0.7-1-1-2-1
		c-0.7,0-1.3,0.2-1.8,0.6s-0.9,0.9-1.3,1.5s-0.7,1.3-0.9,2.1c-0.2,0.8-0.5,1.6-0.6,2.4c0.2,0,0.4,0,0.7,0.1c0.2,0,0.5,0,0.7,0h1.5
		h1.7c0.3,0,0.6,0,1,0s0.8,0,1.2-0.1c0.1-0.4,0.2-0.8,0.3-1.4c0.1-0.6,0.1-1.2,0.1-2C147.4,31.5,147.3,30.8,146.9,30.1"/>
	<path class="st0" d="M162.1,47.6c-0.5,0.1-1.1,0.2-1.8,0.2c-0.7,0-1.3-0.1-1.9-0.3s-1.1-0.5-1.6-0.8c-0.5-0.4-0.8-0.8-1.1-1.4
		c-0.3-0.6-0.4-1.2-0.4-1.9c0-0.3,0-0.7,0-1s0.1-0.7,0.2-1.1c0.1-0.4,0.2-0.9,0.3-1.4c0.1-0.5,0.2-1.1,0.4-1.9
		c0.3-1.4,0.6-2.8,0.9-4.1c0.3-1.4,0.6-2.7,0.9-4.1c-0.4,0-0.8,0-1.2,0c-0.4,0-0.9,0-1.6,0.1c0.1-0.4,0.2-0.7,0.2-0.9
		c0.1-0.3,0.1-0.7,0.2-1.2c0.3,0,0.6,0,0.8,0.1c0.3,0,0.5,0,0.7,0h1.2c0.1-0.6,0.2-1.3,0.3-2.1c0.1-0.8,0.2-1.6,0.4-2.5
		c0.7-0.2,1.2-0.5,1.7-0.6c0.5-0.2,0.9-0.4,1.3-0.5c0.4-0.2,0.9-0.4,1.3-0.6c0.5-0.2,1-0.5,1.7-0.8l0.3,0.4
		c-0.2,0.7-0.4,1.2-0.5,1.8c-0.1,0.5-0.3,1.1-0.4,1.6s-0.3,1-0.4,1.6c-0.1,0.5-0.2,1.2-0.4,1.8h1.5c0.3,0,0.6,0,0.9,0
		c0.4,0,0.7,0,1.2-0.1c-0.2,0.4-0.3,0.8-0.3,1.1c-0.1,0.4-0.1,0.7-0.1,1c-0.4,0-0.7,0-1-0.1c-0.3,0-0.6,0-0.9,0h-1.6
		c-0.1,0.5-0.3,1.3-0.5,2.4c-0.3,1.1-0.5,2.3-0.8,3.5s-0.5,2.4-0.7,3.4s-0.4,1.7-0.4,2.1c-0.1,0.7-0.2,1.2-0.3,1.6
		c-0.1,0.4-0.1,0.8-0.1,1.1c0,0.7,0.2,1.2,0.6,1.5s0.9,0.4,1.6,0.4c0.4,0,0.8-0.1,1.2-0.2l-0.4,1.3
		C163.1,47.4,162.6,47.5,162.1,47.6"/>
	<path class="st0" d="M36.3,31.8c0,0.4-0.1,0.9-0.2,1.4c-0.1,0.6-0.3,1.2-0.5,2s-0.5,1.8-0.8,3.1c-0.3,1.1-0.6,2.1-0.8,3
		s-0.4,1.7-0.6,2.5c-0.2,0.8-0.3,1.5-0.5,2.2c-0.1,0.7-0.3,1.5-0.5,2.3c-0.6-0.1-1.2-0.1-1.8-0.1h-2.1h-2.1c-0.7,0-1.3,0-1.9,0.1
		c0.1-0.3,0.4-0.8,0.7-1.7s0.6-1.8,1-2.9c0.4-1.1,0.7-2.3,1.1-3.5c0.4-1.2,0.7-2.4,1-3.5s0.6-2.1,0.8-3s0.3-1.5,0.3-1.9
		c0-0.9-0.3-1.5-0.8-1.9s-1.3-0.6-2.2-0.6c-1.3,0-2.5,0.5-3.8,1.4c-1.2,1-2.2,2.5-3,4.5c-0.3,0.8-0.6,1.7-0.9,2.7
		c-0.3,1.1-0.6,2.2-0.9,3.4c-0.3,1.2-0.6,2.4-0.8,3.7c-0.3,1.3-0.5,2.4-0.7,3.5c-0.6-0.1-1.2-0.1-1.8-0.1h-1.8h-2
		c-0.7,0-1.3,0-1.9,0.1c0.5-1.4,0.9-2.9,1.4-4.5s0.9-3.3,1.4-5c0.5-1.8,0.9-3.7,1.4-5.8s1-4.4,1.5-6.9c0.5,0.1,1.1,0.1,1.8,0.2
		c0.7,0,1.3,0.1,2,0.1c0.6,0,1.2,0,1.7-0.1c0.6,0,1.1-0.1,1.6-0.2c-0.1,0.4-0.3,0.7-0.4,1c-0.1,0.3-0.2,0.6-0.3,0.9
		s-0.2,0.6-0.2,0.9c-0.1,0.3-0.2,0.7-0.3,1.1c1.3-1.4,2.6-2.5,4.1-3.2c1.5-0.8,3.3-1.1,5.4-1.1c2.2,0,3.8,0.5,4.9,1.4
		c1,0.9,1.5,2.1,1.5,3.5C36.3,31,36.3,31.4,36.3,31.8"/>
	<path class="st0" d="M25.9,49.2c0.5,0.3,1.4,0.6,2,0.7c0.6,0.2,1.2,0.1,1.7,0.1c1.5,0,4,0.2,7.3-1.2c2.4-1.1,3.3-2.2,4.5-3.6
		c1.2-1.4,2.1-3.1,2.8-5s1.1-4,1.1-6.3c0-2.7-0.5-5.2-1.6-7.4c-1-2.2-2.5-4.1-4.3-5.6c-1.8-1.6-4-2.8-6.5-3.6
		c-2.5-0.8-5.2-1.3-8.1-1.3c-3.5,0-6.7,0.6-9.7,1.8c-3,1.2-5.6,2.8-7.8,4.9S3.4,27.2,2.1,30c-1.2,2.8-1.9,5.8-1.9,9.1
		c0,2.8,0.5,5.5,1.5,8.1s2.5,4.9,4.5,6.9s4.5,3.6,7.4,4.8s6.3,1.8,10.1,1.8c3.9,0,7.3-0.6,10.2-1.7c2.9-1.1,5.7-2.6,8.3-4.5
		l-1.6-2.1c-2.4,1.7-4.9,3.1-7.6,4.1c-2.6,1.1-5.7,1.6-9.2,1.6c-3.4,0-6.4-0.5-8.9-1.6c-2.6-1-4.7-2.5-6.5-4.2c-1.7-1.8-3-3.8-3.9-6
		c-0.9-2.3-1.3-4.6-1.3-7c0-2.7,0.5-5.3,1.5-7.7c1-2.5,2.4-4.6,4.3-6.5c1.9-1.9,4.1-3.4,6.8-4.5c2.6-1.1,5.6-1.7,8.9-1.7
		c2.5,0,4.9,0.4,7,1.1s4,1.7,5.5,3s2.7,2.9,3.6,4.7c0.9,1.8,1.3,3.9,1.3,6.1c0,1.7-0.2,3.3-0.7,4.9c-0.5,1.6-1.1,2.9-1.9,4.1
		c-0.8,1.2-1.7,2.1-2.7,2.8s-2,1-3,1c-0.2,0-0.4,0-0.7-0.1c-0.3,0-0.6-0.1-0.9-0.3c-0.3-0.2-0.5-0.4-0.7-0.8l-0.1-0.1l-7.1,3.1
		C24.7,48.6,25.6,49,25.9,49.2"/>
</g>
<g>
	<path class="st0" d="M241,31.1c6.7,0,11.1,3.4,11.7,8.9h-6c-0.7-2.6-2.5-3.8-5.6-3.8c-2.8,0-4.8,1.3-4.8,3.1c0,1.9,0.8,2.2,7.5,3.4
		c4.1,0.7,5.7,1.3,7.1,2.5c1.7,1.4,2.6,3.4,2.6,5.9c0,5.3-4.7,8.9-11.7,8.9c-7.4,0-11.9-3.4-12.5-9.4h6.2c0.6,3.1,2.5,4.6,6.1,4.6
		c3.2,0,5.3-1.4,5.3-3.5c0-1.7-1-2.4-4.7-3c-5.1-0.8-8.3-2-10.1-3.5c-1.5-1.4-2.3-3.1-2.3-5.1C230.1,34.8,234.6,31.1,241,31.1
		L241,31.1z"/>
	<path class="st0" d="M278.8,22.1V35c-2.6-2.6-5.4-3.9-8.5-3.9c-6.5,0-11.6,6.4-11.6,14.6c0,8.3,5.1,14.3,12.1,14.3
		c3.1,0,5-0.9,8-3.9v3.1h6.8V30.5v-8.4H278.8z M272.4,54.7c-3.9,0-6.7-3.7-6.7-8.9c0-5.4,2.6-8.9,6.7-8.9c3.9,0,6.6,3.5,6.6,8.8
		C279.1,51.1,276.4,54.7,272.4,54.7z"/>
	<path class="st0" d="M306.1,31.1c5.8,0,9.6,4.2,9.6,10.6v17.6h-6.9V42.7c0-3.4-2-5.6-5-5.6c-3.4,0-5.7,2.6-5.7,6.5v15.6h-6.9V31.9
		h6.9v3.8C300.4,32.6,302.9,31.1,306.1,31.1L306.1,31.1z"/>
	<path class="st0" d="M335.5,54.4c-4.3,0-7-2.7-7.1-7.2h20c-0.2-10-5.3-16-13.7-16c-7.9,0-13.4,6-13.4,14.5
		c0,8.4,5.9,14.3,14.1,14.3c6.1,0,11.1-3.4,12.8-8.9h-7.1C339.9,53.3,338.1,54.4,335.5,54.4z M334.9,36.2c3.7,0,5.9,2.1,6.4,6.2
		h-12.8C328.8,38.5,331.2,36.2,334.9,36.2z"/>
	<path class="st0" d="M354.7,50.1V36.3h-3.8V32h3.8v-9.2h6.8V32h5.2v4.3h-5.2v13.8c-0.1,3.4,0.6,4.3,3.1,4.3c0.3,0,1-0.1,1.9-0.1
		c0.1,0,0.3,0,0.6,0v5h-4.8c-4.3,0-6-0.8-6.9-3.2C354.8,54.6,354.7,53.6,354.7,50.1L354.7,50.1z"/>
	<path class="st0" d="M359.3,15.8c-3.2-3.5-7-6.3-11.2-8.2s-8.7-2.9-13.3-3c-4.6-0.1-9.1,0.8-13.4,2.7c-4.2,1.8-8.1,4.6-11.4,8
		l-3.1-3.3c3.7-3.8,8-6.9,12.8-8.9c4.8-2,9.9-3.1,15-3c5.1,0.1,10.3,1.2,15,3.4c4.7,2.2,9,5.3,12.6,9.3L359.3,15.8L359.3,15.8z"/>
	<path class="st0" d="M353,22.2c-2.4-2.6-5.2-4.8-8.4-6.2c-3.1-1.4-6.5-2.2-10-2.2c-3.4,0-6.8,0.6-10,2c-3.2,1.4-6.1,3.5-8.5,6
		l-3.1-3.3c2.8-3,6.2-5.4,9.9-7c3.7-1.6,7.7-2.4,11.7-2.4s8,0.9,11.6,2.6c3.7,1.7,7,4.2,9.8,7.2L353,22.2L353,22.2z"/>
	<path class="st0" d="M346.7,28.6c-1.6-1.8-3.5-3.2-5.5-4.2c-2.1-1-4.3-1.5-6.6-1.5c-2.3,0-4.5,0.4-6.6,1.4c-2.1,0.9-4,2.4-5.6,4.1
		l-3.1-3.3c2-2.2,4.4-3.9,7-5.1c2.6-1.2,5.5-1.7,8.3-1.7s5.7,0.7,8.3,1.9c2.6,1.2,5,3,7,5.2L346.7,28.6L346.7,28.6z"/>
</g>
<g>
	<path class="st0" d="M186,41.7v-6.8h10.7V24.3h6.8V35h10.7v6.8h-10.7v10.7h-6.8V41.7H186z"/>
</g>
</svg>
