<?xml version="1.0" encoding="utf-8"?>
<!-- Generator: Adobe Illustrator 18.1.0, SVG Export Plug-In . SVG Version: 6.00 Build 0)  -->
<!DOCTYPE svg PUBLIC "-//W3C//DTD SVG 1.1//EN" "http://www.w3.org/Graphics/SVG/1.1/DTD/svg11.dtd">
<svg version="1.1" id="Layer_1" xmlns="http://www.w3.org/2000/svg" xmlns:xlink="http://www.w3.org/1999/xlink" x="0px" y="0px"
	 width="277px" height="184px" viewBox="-111 159 277 184" enable-background="new -111 159 277 184" xml:space="preserve">
<g>
	<g>
		<path fill="#0387B6" d="M151.8,211.1c-6.4-7.1-14.2-12.8-22.7-16.8c-8.5-3.9-17.8-6-27-6.1c-9.3-0.1-18.6,1.7-27.2,5.4
			c-8.6,3.7-16.5,9.3-23.1,16.2l-6.2-6.7c7.4-7.8,16.3-14,26-18.2s20.1-6.2,30.6-6.1c10.4,0.1,20.8,2.5,30.4,6.9
			s18.4,10.9,25.6,18.8L151.8,211.1L151.8,211.1z"/>
		<path fill="#73808A" d="M138.9,224.1c-4.8-5.3-10.6-9.7-17-12.6c-6.4-2.9-13.3-4.5-20.2-4.6s-13.9,1.3-20.3,4.1
			c-6.4,2.8-12.3,7-17.2,12.3l-6.2-6.7c5.7-6.1,12.7-11,20.2-14.2c7.5-3.3,15.6-4.9,23.7-4.8c8.1,0.1,16.2,1.9,23.6,5.3
			c7.4,3.4,14.3,8.5,19.9,14.7L138.9,224.1L138.9,224.1z"/>
		<path fill="#76C044" d="M126.1,237.1c-3.2-3.6-7.1-6.5-11.3-8.5s-8.8-3-13.4-3c-4.6,0-9.2,0.9-13.5,2.8s-8.2,4.8-11.4,8.3
			l-6.2-6.7c4.1-4.4,9-7.9,14.3-10.3s11.1-3.5,16.9-3.5s11.5,1.3,16.8,3.8s10.2,6.1,14.1,10.6L126.1,237.1L126.1,237.1z"/>
	</g>
	<g>
		<path fill="#FFFFFF" d="M-100.4,287.3c0.9,1.4,2,2.6,3.4,3.4c1.4,0.8,3,1.4,4.8,1.8s3.6,0.5,5.5,0.5c1.5,0,3-0.1,4.6-0.3
			c1.6-0.2,3.1-0.6,4.4-1.2s2.5-1.4,3.3-2.6c0.9-1.1,1.3-2.6,1.3-4.3c0-2.4-0.9-4.2-2.7-5.5c-1.8-1.2-4.1-2.2-6.8-3
			c-2.7-0.8-5.7-1.5-8.9-2.1s-6.2-1.5-8.9-2.6c-2.7-1.1-5-2.7-6.8-4.8c-1.8-2-2.7-4.9-2.7-8.5c0-2.8,0.6-5.3,1.9-7.3s2.9-3.7,4.9-5
			s4.3-2.2,6.8-2.8s5-0.9,7.5-0.9c3.2,0,6.2,0.3,8.9,0.8c2.7,0.5,5.1,1.5,7.2,2.8c2.1,1.3,3.7,3.2,5,5.5c1.2,2.3,2,5.2,2.2,8.6h-9.3
			c-0.1-1.8-0.6-3.3-1.4-4.5c-0.8-1.2-1.8-2.2-3.1-2.9c-1.2-0.7-2.6-1.3-4.1-1.6s-3-0.5-4.5-0.5c-1.4,0-2.8,0.1-4.2,0.3
			s-2.7,0.6-3.9,1.1s-2.1,1.3-2.8,2.2s-1.1,2.1-1.1,3.6c0,1.6,0.6,2.9,1.7,4c1.1,1.1,2.6,1.9,4.3,2.6s3.7,1.3,5.9,1.7
			c2.2,0.5,4.4,1,6.6,1.5c2.3,0.5,4.6,1.1,6.8,1.9c2.2,0.7,4.2,1.7,5.9,2.9c1.7,1.2,3.1,2.7,4.2,4.5c1.1,1.8,1.6,4.1,1.6,6.8
			c0,3.4-0.7,6.3-2.1,8.5c-1.4,2.3-3.3,4.1-5.6,5.5c-2.3,1.4-4.9,2.3-7.8,2.9c-2.9,0.5-5.7,0.8-8.6,0.8c-3.1,0-6.1-0.3-9-1
			c-2.8-0.7-5.4-1.7-7.5-3.2c-2.2-1.5-3.9-3.5-5.2-5.9c-1.3-2.4-2-5.4-2.2-8.9h9.3C-101.7,284.2-101.3,285.9-100.4,287.3z"/>
		<path fill="#FFFFFF" d="M-8.9,300v-7.7h-0.2c-1.5,3.1-3.9,5.4-7.2,6.8s-6.9,2.1-10.8,2.1c-4.4,0-8.2-0.8-11.4-2.4
			s-5.9-3.8-8.1-6.4c-2.1-2.7-3.8-5.8-4.9-9.4c-1.1-3.6-1.6-7.4-1.6-11.4s0.5-7.8,1.6-11.4s2.7-6.7,4.8-9.3c2.1-2.7,4.8-4.8,8.1-6.3
			c3.2-1.6,7-2.3,11.3-2.3c1.5,0,3,0.1,4.7,0.4s3.4,0.8,5,1.5c1.7,0.7,3.3,1.6,4.8,2.7s2.7,2.5,3.8,4.2h0.2V222h9.3v78H-8.9
			L-8.9,300z M-42.3,279.9c0.7,2.5,1.7,4.8,3.2,6.7c1.4,2,3.2,3.5,5.5,4.7c2.2,1.2,4.8,1.7,7.8,1.7c3.1,0,5.8-0.6,8-1.9
			c2.2-1.2,4-2.9,5.4-4.9s2.4-4.3,3-6.8s0.9-5.1,0.9-7.8c0-2.8-0.3-5.4-1-8s-1.7-4.9-3.1-6.8c-1.4-2-3.3-3.6-5.5-4.8
			c-2.3-1.2-5-1.8-8.2-1.8c-3.1,0-5.8,0.6-8,1.9c-2.2,1.2-3.9,2.9-5.2,4.9s-2.3,4.4-2.8,7c-0.6,2.6-0.9,5.3-0.9,8.1
			C-43.4,274.8-43,277.4-42.3,279.9z"/>
		<path fill="#FFFFFF" d="M23.4,243.5v9h0.2c3.9-6.8,10-10.3,18.4-10.3c3.7,0,6.8,0.5,9.3,1.5s4.5,2.4,6,4.3c1.5,1.8,2.6,4,3.2,6.5
			c0.6,2.5,0.9,5.3,0.9,8.4v37.2h-9.3v-38.3c0-3.5-1-6.3-3.1-8.3c-2-2-4.8-3.1-8.4-3.1c-2.8,0-5.3,0.4-7.4,1.3
			c-2.1,0.9-3.8,2.1-5.2,3.7c-1.4,1.6-2.4,3.5-3.1,5.6c-0.7,2.1-1,4.5-1,7v31.9h-9.3v-56.5L23.4,243.5L23.4,243.5z"/>
		<path fill="#FFFFFF" d="M119.3,296.3c-4.2,3.2-9.5,4.8-16,4.8c-4.5,0-8.4-0.7-11.7-2.2s-6.1-3.5-8.4-6.1s-4-5.8-5.1-9.4
			c-1.1-3.6-1.8-7.6-1.9-11.9c0-4.3,0.7-8.2,2-11.8c1.3-3.6,3.2-6.7,5.5-9.3c2.4-2.6,5.2-4.7,8.4-6.1c3.2-1.5,6.8-2.2,10.7-2.2
			c5,0,9.2,1,12.5,3.1s6,4.7,8,7.9c2,3.2,3.4,6.7,4.2,10.5c0.8,3.8,1.1,7.4,0.9,10.8H86.1c-0.1,2.5,0.2,4.8,0.9,7s1.7,4.2,3.2,5.9
			c1.5,1.7,3.3,3.1,5.6,4.1s4.9,1.5,8,1.5c3.9,0,7.2-0.9,9.7-2.7c2.5-1.8,4.2-4.6,5-8.3h9.2C126.2,288.4,123.5,293.1,119.3,296.3z
			 M117,260.1c-0.8-2-2-3.7-3.4-5.1c-1.4-1.4-3.1-2.5-5-3.4c-1.9-0.8-4.1-1.3-6.4-1.3c-2.4,0-4.6,0.4-6.5,1.3c-1.9,0.8-3.6,2-5,3.4
			c-1.4,1.5-2.5,3.2-3.3,5.1s-1.3,4-1.4,6.2h32.5C118.3,264.1,117.9,262,117,260.1z"/>
		<path fill="#FFFFFF" d="M165.9,243.5v8.2h-11.3v35.1c0,1.1,0.1,2,0.3,2.6c0.2,0.7,0.5,1.2,1,1.5c0.5,0.4,1.2,0.6,2.1,0.7
			c0.9,0.1,2.1,0.2,3.6,0.2h4.3v8.2h-7.1c-2.4,0-4.5-0.2-6.2-0.5s-3.1-0.9-4.2-1.8s-1.8-2.1-2.3-3.7s-0.8-3.7-0.8-6.3v-36h-9.6v-8.2
			h9.6v-16.9h9.3v16.9L165.9,243.5L165.9,243.5z"/>
	</g>
	<g>
		<path fill="#FFFFFF" d="M-105.4,314.1v1.4l0,0c0.3-0.5,0.6-0.9,0.9-1.2s0.8-0.4,1.4-0.3v1.1c-0.4,0-0.8,0.1-1.1,0.2
			s-0.5,0.3-0.7,0.5s-0.3,0.5-0.4,0.8c-0.1,0.3-0.1,0.7-0.1,1.1v2.9h-1.1v-6.5H-105.4z"/>
		<path fill="#FFFFFF" d="M-95.4,320.5v-1l0,0c-0.2,0.4-0.5,0.7-0.9,0.9c-0.3,0.2-0.8,0.3-1.2,0.3s-0.8-0.1-1.1-0.2
			c-0.3-0.1-0.5-0.3-0.7-0.5s-0.3-0.5-0.4-0.7c-0.1-0.3-0.1-0.6-0.1-1v-4.2h1.1v4.4c0,0.4,0.1,0.7,0.3,0.9c0.2,0.2,0.6,0.3,1,0.3
			c0.3,0,0.6,0,0.8-0.1s0.4-0.2,0.6-0.4c0.2-0.2,0.3-0.4,0.4-0.6c0.1-0.2,0.1-0.5,0.1-0.8v-3.6h1.1v6.5h-1
			C-95.4,320.7-95.4,320.5-95.4,320.5z"/>
		<path fill="#FFFFFF" d="M-89.3,314.1v1.4l0,0c0.3-0.5,0.6-0.9,0.9-1.2s0.8-0.4,1.4-0.3v1.1c-0.4,0-0.8,0.1-1.1,0.2
			c-0.3,0.1-0.5,0.3-0.7,0.5s-0.3,0.5-0.4,0.8c-0.1,0.3-0.1,0.7-0.1,1.1v2.9h-1.1v-6.5H-89.3z"/>
		<path fill="#FFFFFF" d="M-78.7,320.7c-0.3,0-0.5-0.1-0.7-0.2c-0.2-0.2-0.2-0.4-0.2-0.8c-0.3,0.4-0.6,0.6-1,0.8
			c-0.4,0.2-0.8,0.2-1.3,0.2c-0.3,0-0.6,0-0.8-0.1c-0.3-0.1-0.5-0.2-0.7-0.3c-0.2-0.1-0.3-0.3-0.5-0.6s-0.2-0.5-0.2-0.8
			c0-0.4,0.1-0.7,0.2-0.9c0.1-0.2,0.3-0.4,0.5-0.6c0.2-0.1,0.4-0.3,0.7-0.3c0.3-0.1,0.5-0.1,0.8-0.2s0.6-0.1,0.8-0.1
			c0.3,0,0.5-0.1,0.7-0.1c0.2-0.1,0.4-0.1,0.5-0.2c0.1-0.1,0.2-0.3,0.2-0.5s0-0.4-0.1-0.6c-0.1-0.1-0.2-0.2-0.3-0.3
			c-0.1-0.1-0.3-0.1-0.5-0.2c-0.2,0-0.3,0-0.5,0c-0.4,0-0.8,0.1-1.1,0.3c-0.3,0.2-0.5,0.5-0.5,1h-1.1c0-0.4,0.1-0.7,0.2-1
			c0.1-0.3,0.3-0.5,0.6-0.7c0.2-0.2,0.5-0.3,0.9-0.4c0.3-0.1,0.7-0.1,1-0.1s0.6,0,0.9,0.1c0.3,0,0.5,0.1,0.8,0.3
			c0.2,0.1,0.4,0.3,0.6,0.5c0.1,0.2,0.2,0.5,0.2,0.9v3.3c0,0.2,0,0.4,0,0.5s0.1,0.2,0.3,0.2c0.1,0,0.2,0,0.3-0.1v0.8
			C-78.1,320.6-78.3,320.7-78.7,320.7z M-80.2,317.4c-0.2,0-0.4,0.1-0.7,0.1c-0.2,0-0.5,0.1-0.7,0.1s-0.5,0.1-0.6,0.2
			c-0.2,0.1-0.3,0.2-0.5,0.4c-0.1,0.2-0.2,0.4-0.2,0.6s0,0.3,0.1,0.4c0.1,0.1,0.2,0.2,0.3,0.3c0.1,0.1,0.2,0.1,0.4,0.2
			c0.2,0,0.3,0,0.5,0c0.3,0,0.6,0,0.9-0.1c0.2-0.1,0.5-0.2,0.6-0.4c0.2-0.1,0.3-0.3,0.3-0.5c0.1-0.2,0.1-0.3,0.1-0.5v-1.1
			C-79.8,317.3-79.9,317.4-80.2,317.4z"/>
		<path fill="#FFFFFF" d="M-73.3,311.6v8.9h-1.1v-8.9H-73.3z"/>
		<path fill="#FFFFFF" d="M-62.1,311.6v3.4l0,0c0.1-0.2,0.2-0.4,0.3-0.5s0.3-0.2,0.5-0.3c0.2-0.1,0.4-0.2,0.6-0.2
			c0.2,0,0.4-0.1,0.6-0.1c0.4,0,0.8,0.1,1.1,0.2s0.5,0.3,0.7,0.5s0.3,0.5,0.4,0.7c0.1,0.3,0.1,0.6,0.1,1v4.2h-1.1v-4.4
			c0-0.4-0.1-0.7-0.3-0.9c-0.2-0.2-0.6-0.4-1-0.4c-0.3,0-0.6,0.1-0.8,0.2s-0.4,0.2-0.6,0.4c-0.2,0.2-0.3,0.4-0.4,0.6
			c-0.1,0.2-0.1,0.5-0.1,0.8v3.6h-1.1v-8.9L-62.1,311.6L-62.1,311.6z"/>
		<path fill="#FFFFFF" d="M-53.7,312.9v-1.3h1.1v1.3H-53.7z M-52.6,314.1v6.5h-1.1v-6.5H-52.6z"/>
		<path fill="#FFFFFF" d="M-43.6,322.4c-0.5,0.5-1.2,0.8-2.3,0.8c-0.3,0-0.6,0-0.9-0.1c-0.3-0.1-0.6-0.2-0.8-0.3
			c-0.3-0.2-0.5-0.3-0.6-0.6c-0.2-0.2-0.3-0.5-0.3-0.9h1.1c0,0.2,0.1,0.4,0.2,0.5c0.1,0.1,0.2,0.2,0.4,0.3c0.2,0.1,0.3,0.1,0.5,0.2
			c0.2,0,0.4,0.1,0.5,0.1c0.3,0,0.6-0.1,0.9-0.2c0.2-0.1,0.4-0.3,0.6-0.5c0.2-0.2,0.3-0.5,0.3-0.8c0.1-0.3,0.1-0.6,0.1-1v-0.4l0,0
			c-0.2,0.4-0.5,0.7-0.8,0.9c-0.4,0.2-0.8,0.3-1.2,0.3c-0.5,0-0.9-0.1-1.3-0.3c-0.4-0.2-0.7-0.4-0.9-0.7c-0.2-0.3-0.4-0.6-0.5-1
			s-0.2-0.8-0.2-1.3c0-0.4,0-0.8,0.1-1.2c0.1-0.4,0.3-0.8,0.5-1.1c0.2-0.3,0.5-0.6,0.9-0.8c0.4-0.2,0.9-0.3,1.4-0.3
			c0.4,0,0.8,0.1,1.1,0.3c0.3,0.2,0.6,0.4,0.8,0.8l0,0v-0.9h1v5.9C-42.9,321-43.1,321.8-43.6,322.4z M-45,319.5
			c0.2-0.1,0.4-0.3,0.6-0.6c0.1-0.2,0.3-0.5,0.3-0.8c0.1-0.3,0.1-0.6,0.1-0.9s0-0.6-0.1-0.8c-0.1-0.3-0.2-0.5-0.3-0.7
			s-0.3-0.4-0.6-0.5c-0.2-0.1-0.5-0.2-0.8-0.2s-0.6,0.1-0.9,0.2c-0.2,0.1-0.4,0.3-0.6,0.5s-0.3,0.5-0.3,0.7
			c-0.1,0.3-0.1,0.6-0.1,0.9s0,0.6,0.1,0.9s0.2,0.6,0.3,0.8c0.1,0.2,0.3,0.4,0.6,0.6c0.2,0.1,0.5,0.2,0.9,0.2S-45.2,319.6-45,319.5z
			"/>
		<path fill="#FFFFFF" d="M-37.7,311.6v3.4l0,0c0.1-0.2,0.2-0.4,0.3-0.5s0.3-0.2,0.5-0.3c0.2-0.1,0.4-0.2,0.6-0.2
			c0.2,0,0.4-0.1,0.6-0.1c0.4,0,0.8,0.1,1.1,0.2s0.5,0.3,0.7,0.5s0.3,0.5,0.4,0.7c0.1,0.3,0.1,0.6,0.1,1v4.2h-1.1v-4.4
			c0-0.4-0.1-0.7-0.3-0.9c-0.2-0.2-0.6-0.4-1-0.4c-0.3,0-0.6,0.1-0.8,0.2s-0.4,0.2-0.6,0.4c-0.2,0.2-0.3,0.4-0.4,0.6
			c-0.1,0.2-0.1,0.5-0.1,0.8v3.6h-1.1v-8.9L-37.7,311.6L-37.7,311.6z"/>
		<path fill="#FFFFFF" d="M-22.5,319.1c0.1,0.2,0.2,0.3,0.4,0.4s0.3,0.2,0.5,0.2s0.4,0.1,0.6,0.1s0.3,0,0.5,0s0.4-0.1,0.5-0.1
			c0.2-0.1,0.3-0.2,0.4-0.3c0.1-0.1,0.2-0.3,0.2-0.5c0-0.3-0.1-0.5-0.3-0.6s-0.5-0.3-0.8-0.3c-0.3-0.1-0.7-0.2-1-0.2
			c-0.4-0.1-0.7-0.2-1-0.3c-0.3-0.1-0.6-0.3-0.8-0.5s-0.3-0.6-0.3-1c0-0.3,0.1-0.6,0.2-0.8c0.1-0.2,0.3-0.4,0.6-0.6
			c0.2-0.1,0.5-0.3,0.8-0.3c0.3-0.1,0.6-0.1,0.9-0.1c0.4,0,0.7,0,1,0.1s0.6,0.2,0.8,0.3c0.2,0.2,0.4,0.4,0.6,0.6
			c0.1,0.3,0.2,0.6,0.2,1h-1.1c0-0.2-0.1-0.4-0.2-0.5s-0.2-0.2-0.3-0.3s-0.3-0.1-0.5-0.2c-0.2,0-0.3-0.1-0.5-0.1s-0.3,0-0.5,0
			s-0.3,0.1-0.4,0.1c-0.1,0.1-0.2,0.1-0.3,0.2s-0.1,0.2-0.1,0.4c0,0.2,0.1,0.3,0.2,0.5c0.1,0.1,0.3,0.2,0.5,0.3
			c0.2,0.1,0.4,0.1,0.7,0.2c0.2,0.1,0.5,0.1,0.7,0.2c0.3,0.1,0.5,0.1,0.8,0.2s0.5,0.2,0.7,0.3c0.2,0.1,0.4,0.3,0.5,0.5
			s0.2,0.5,0.2,0.8c0,0.4-0.1,0.7-0.2,1c-0.2,0.3-0.4,0.5-0.6,0.6c-0.3,0.2-0.6,0.3-0.9,0.3c-0.3,0.1-0.7,0.1-1,0.1
			c-0.4,0-0.7,0-1-0.1s-0.6-0.2-0.9-0.4c-0.2-0.2-0.4-0.4-0.6-0.7c-0.1-0.3-0.2-0.6-0.2-1h1.1C-22.7,318.7-22.6,318.9-22.5,319.1z"
			/>
		<path fill="#FFFFFF" d="M-13.5,314.1v0.9l0,0c0.2-0.4,0.4-0.6,0.8-0.8c0.4-0.2,0.8-0.2,1.2-0.2c0.5,0,0.9,0.1,1.3,0.3
			c0.4,0.2,0.7,0.4,0.9,0.7c0.2,0.3,0.4,0.7,0.6,1.1c0.1,0.4,0.2,0.8,0.2,1.3s-0.1,0.9-0.2,1.3c-0.1,0.4-0.3,0.8-0.5,1.1
			c-0.2,0.3-0.6,0.5-0.9,0.7c-0.4,0.2-0.8,0.3-1.3,0.3c-0.2,0-0.3,0-0.5,0s-0.4-0.1-0.6-0.2c-0.2-0.1-0.4-0.2-0.5-0.3
			c-0.2-0.1-0.3-0.3-0.4-0.5l0,0v3.3h-1.1v-8.9L-13.5,314.1L-13.5,314.1z M-9.7,316.4c-0.1-0.3-0.2-0.5-0.4-0.8s-0.4-0.4-0.6-0.5
			c-0.3-0.1-0.6-0.2-0.9-0.2c-0.4,0-0.7,0.1-0.9,0.2s-0.5,0.3-0.6,0.6c-0.2,0.2-0.3,0.5-0.3,0.8c-0.1,0.3-0.1,0.6-0.1,0.9
			s0,0.6,0.1,0.9s0.2,0.6,0.4,0.8c0.2,0.2,0.4,0.4,0.6,0.5c0.3,0.1,0.6,0.2,0.9,0.2c0.4,0,0.7-0.1,0.9-0.2s0.4-0.3,0.6-0.6
			c0.1-0.2,0.3-0.5,0.3-0.8c0.1-0.3,0.1-0.6,0.1-0.9S-9.6,316.7-9.7,316.4z"/>
		<path fill="#FFFFFF" d="M-0.1,320.1c-0.5,0.4-1.1,0.5-1.8,0.5c-0.5,0-1-0.1-1.3-0.2c-0.4-0.2-0.7-0.4-1-0.7
			c-0.3-0.3-0.5-0.7-0.6-1.1s-0.2-0.9-0.2-1.4s0.1-0.9,0.2-1.3s0.4-0.8,0.6-1.1s0.6-0.5,1-0.7s0.8-0.2,1.2-0.2
			c0.6,0,1.1,0.1,1.4,0.4c0.4,0.2,0.7,0.5,0.9,0.9s0.4,0.8,0.5,1.2c0.1,0.4,0.1,0.8,0.1,1.2h-4.8c0,0.3,0,0.6,0.1,0.8
			c0.1,0.3,0.2,0.5,0.4,0.7s0.4,0.4,0.6,0.5c0.3,0.1,0.6,0.2,0.9,0.2c0.4,0,0.8-0.1,1.1-0.3c0.3-0.2,0.5-0.5,0.6-0.9h1
			C0.7,319.2,0.4,319.8-0.1,320.1z M-0.4,316c-0.1-0.2-0.2-0.4-0.4-0.6s-0.4-0.3-0.6-0.4s-0.5-0.1-0.7-0.1c-0.3,0-0.5,0-0.7,0.1
			s-0.4,0.2-0.6,0.4c-0.2,0.2-0.3,0.4-0.4,0.6c-0.1,0.2-0.1,0.5-0.2,0.7h3.7C-0.2,316.4-0.3,316.2-0.4,316z"/>
		<path fill="#FFFFFF" d="M9.1,320.1c-0.5,0.4-1.1,0.5-1.8,0.5c-0.5,0-1-0.1-1.3-0.2c-0.4-0.2-0.7-0.4-1-0.7
			c-0.3-0.3-0.5-0.7-0.6-1.1s-0.2-0.9-0.2-1.4s0.1-0.9,0.2-1.3s0.4-0.8,0.6-1.1s0.6-0.5,1-0.7s0.8-0.2,1.2-0.2
			c0.6,0,1.1,0.1,1.4,0.4c0.4,0.2,0.7,0.5,0.9,0.9s0.4,0.8,0.5,1.2s0.1,0.8,0.1,1.2H5.3c0,0.3,0,0.6,0.1,0.8
			c0.1,0.3,0.2,0.5,0.4,0.7s0.4,0.4,0.6,0.5c0.3,0.1,0.6,0.2,0.9,0.2c0.4,0,0.8-0.1,1.1-0.3c0.3-0.2,0.5-0.5,0.6-0.9h1
			C9.9,319.2,9.6,319.8,9.1,320.1z M8.8,316c-0.1-0.2-0.2-0.4-0.4-0.6S8,315.1,7.8,315s-0.5-0.1-0.7-0.1c-0.3,0-0.5,0-0.7,0.1
			s-0.4,0.2-0.6,0.4c-0.2,0.2-0.3,0.4-0.4,0.6s-0.1,0.5-0.2,0.7h3.7C9,316.4,8.9,316.2,8.8,316z"/>
		<path fill="#FFFFFF" d="M18.4,320.5v-0.9l0,0c-0.2,0.4-0.4,0.6-0.8,0.8c-0.4,0.2-0.8,0.2-1.2,0.2c-0.5,0-0.9-0.1-1.3-0.3
			c-0.4-0.2-0.7-0.4-0.9-0.7c-0.2-0.3-0.4-0.7-0.6-1.1c-0.1-0.4-0.2-0.8-0.2-1.3s0.1-0.9,0.2-1.3c0.1-0.4,0.3-0.8,0.5-1.1
			c0.2-0.3,0.6-0.5,0.9-0.7c0.4-0.2,0.8-0.3,1.3-0.3c0.2,0,0.3,0,0.5,0s0.4,0.1,0.6,0.2s0.4,0.2,0.5,0.3c0.2,0.1,0.3,0.3,0.4,0.5
			l0,0v-3.3h1.1v8.9L18.4,320.5L18.4,320.5z M14.6,318.2c0.1,0.3,0.2,0.5,0.4,0.8c0.2,0.2,0.4,0.4,0.6,0.5c0.3,0.1,0.6,0.2,0.9,0.2
			c0.4,0,0.7-0.1,0.9-0.2s0.5-0.3,0.6-0.6c0.2-0.2,0.3-0.5,0.3-0.8c0.1-0.3,0.1-0.6,0.1-0.9s0-0.6-0.1-0.9s-0.2-0.6-0.4-0.8
			c-0.2-0.2-0.4-0.4-0.6-0.5c-0.3-0.1-0.6-0.2-0.9-0.2c-0.4,0-0.7,0.1-0.9,0.2s-0.4,0.3-0.6,0.6c-0.2,0.2-0.3,0.5-0.3,0.8
			c-0.1,0.3-0.1,0.6-0.1,0.9C14.5,317.7,14.5,318,14.6,318.2z"/>
		<path fill="#FFFFFF" d="M34.9,320.5l-1.3-5.1l0,0l-1.3,5.1h-1.2L29,314h1.2l1.5,5.3l0,0L33,314h1.2l1.3,5.3l0,0l1.4-5.3H38
			l-2.1,6.5H34.9z"/>
		<path fill="#FFFFFF" d="M41.6,312.9v-1.3h1.1v1.3H41.6z M42.7,314.1v6.5h-1.1v-6.5H42.7z"/>
		<path fill="#FFFFFF" d="M47.8,314.1v1.4l0,0c0.3-0.5,0.6-0.9,0.9-1.2c0.4-0.2,0.8-0.4,1.4-0.3v1.1c-0.4,0-0.8,0.1-1.1,0.2
			s-0.5,0.3-0.7,0.5s-0.3,0.5-0.4,0.8s-0.1,0.7-0.1,1.1v2.9h-1.1v-6.5H47.8z"/>
		<path fill="#FFFFFF" d="M57.9,320.1c-0.5,0.4-1.1,0.5-1.8,0.5c-0.5,0-1-0.1-1.3-0.2c-0.4-0.2-0.7-0.4-1-0.7
			c-0.3-0.3-0.5-0.7-0.6-1.1s-0.2-0.9-0.2-1.4s0.1-0.9,0.2-1.3s0.4-0.8,0.6-1.1s0.6-0.5,1-0.7s0.8-0.2,1.2-0.2
			c0.6,0,1.1,0.1,1.4,0.4c0.4,0.2,0.7,0.5,0.9,0.9s0.4,0.8,0.5,1.2c0.1,0.4,0.1,0.8,0.1,1.2h-4.8c0,0.3,0,0.6,0.1,0.8
			c0.1,0.3,0.2,0.5,0.4,0.7s0.4,0.4,0.6,0.5c0.3,0.1,0.6,0.2,0.9,0.2c0.4,0,0.8-0.1,1.1-0.3c0.3-0.2,0.5-0.5,0.6-0.9h1.1
			C58.7,319.2,58.3,319.8,57.9,320.1z M57.6,316c-0.1-0.2-0.2-0.4-0.4-0.6s-0.4-0.3-0.6-0.4s-0.5-0.1-0.7-0.1c-0.3,0-0.5,0-0.7,0.1
			s-0.4,0.2-0.6,0.4c-0.2,0.2-0.3,0.4-0.4,0.6s-0.1,0.5-0.2,0.7h3.7C57.8,316.4,57.7,316.2,57.6,316z"/>
		<path fill="#FFFFFF" d="M63.6,311.6v8.9h-1.1v-8.9H63.6z"/>
		<path fill="#FFFFFF" d="M72.3,320.1c-0.5,0.4-1.1,0.5-1.8,0.5c-0.5,0-1-0.1-1.3-0.2c-0.4-0.2-0.7-0.4-1-0.7
			c-0.3-0.3-0.5-0.7-0.6-1.1c-0.1-0.4-0.2-0.9-0.2-1.4s0.1-0.9,0.2-1.3c0.1-0.4,0.4-0.8,0.6-1.1s0.6-0.5,1-0.7
			c0.4-0.2,0.8-0.2,1.2-0.2c0.6,0,1.1,0.1,1.4,0.4c0.4,0.2,0.7,0.5,0.9,0.9s0.4,0.8,0.5,1.2c0.1,0.4,0.1,0.8,0.1,1.2h-4.8
			c0,0.3,0,0.6,0.1,0.8c0.1,0.3,0.2,0.5,0.4,0.7c0.2,0.2,0.4,0.4,0.6,0.5c0.3,0.1,0.6,0.2,0.9,0.2c0.4,0,0.8-0.1,1.1-0.3
			c0.3-0.2,0.5-0.5,0.6-0.9h1.1C73.1,319.2,72.8,319.8,72.3,320.1z M72.1,316c-0.1-0.2-0.2-0.4-0.4-0.6c-0.2-0.2-0.4-0.3-0.6-0.4
			s-0.5-0.1-0.7-0.1c-0.3,0-0.5,0-0.7,0.1s-0.4,0.2-0.6,0.4c-0.2,0.2-0.3,0.4-0.4,0.6c-0.1,0.2-0.1,0.5-0.2,0.7h3.7
			C72.2,316.4,72.2,316.2,72.1,316z"/>
		<path fill="#FFFFFF" d="M77.8,319.1c0.1,0.2,0.2,0.3,0.4,0.4c0.2,0.1,0.3,0.2,0.5,0.2s0.4,0.1,0.6,0.1s0.3,0,0.5,0
			s0.4-0.1,0.5-0.1c0.2-0.1,0.3-0.2,0.4-0.3c0.1-0.1,0.2-0.3,0.2-0.5c0-0.3-0.1-0.5-0.3-0.6s-0.5-0.3-0.8-0.3
			c-0.3-0.1-0.7-0.2-1-0.2c-0.4-0.1-0.7-0.2-1-0.3c-0.3-0.1-0.6-0.3-0.8-0.5s-0.3-0.6-0.3-1c0-0.3,0.1-0.6,0.2-0.8
			c0.1-0.2,0.3-0.4,0.6-0.6c0.2-0.1,0.5-0.3,0.8-0.3c0.3-0.1,0.6-0.1,0.9-0.1c0.4,0,0.7,0,1,0.1s0.6,0.2,0.8,0.3
			c0.2,0.2,0.4,0.4,0.6,0.6c0.1,0.3,0.2,0.6,0.2,1h-1.1c0-0.2-0.1-0.4-0.2-0.5c-0.1-0.1-0.2-0.2-0.4-0.3c-0.1-0.1-0.3-0.1-0.5-0.2
			c-0.2,0-0.3-0.1-0.5-0.1s-0.3,0-0.5,0s-0.3,0.1-0.4,0.1c-0.1,0.1-0.2,0.1-0.3,0.2s-0.1,0.2-0.1,0.4c0,0.2,0.1,0.3,0.2,0.5
			c0.1,0.1,0.3,0.2,0.5,0.3c0.2,0.1,0.4,0.1,0.7,0.2c0.2,0.1,0.5,0.1,0.7,0.2c0.3,0.1,0.5,0.1,0.8,0.2s0.5,0.2,0.7,0.3
			s0.4,0.3,0.5,0.5c0.1,0.2,0.2,0.5,0.2,0.8c0,0.4-0.1,0.7-0.2,1c-0.2,0.3-0.4,0.5-0.6,0.6c-0.3,0.2-0.6,0.3-0.9,0.3
			c-0.3,0.1-0.7,0.1-1,0.1c-0.4,0-0.7,0-1-0.1s-0.6-0.2-0.9-0.4c-0.2-0.2-0.4-0.4-0.6-0.7c-0.1-0.3-0.2-0.6-0.2-1h1.1
			C77.6,318.7,77.7,318.9,77.8,319.1z"/>
		<path fill="#FFFFFF" d="M86.5,319.1c0.1,0.2,0.2,0.3,0.4,0.4c0.2,0.1,0.3,0.2,0.5,0.2s0.4,0.1,0.6,0.1s0.3,0,0.5,0
			s0.4-0.1,0.5-0.1c0.2-0.1,0.3-0.2,0.4-0.3c0.1-0.1,0.2-0.3,0.2-0.5c0-0.3-0.1-0.5-0.3-0.6s-0.5-0.3-0.8-0.3
			c-0.3-0.1-0.7-0.2-1-0.2c-0.4-0.1-0.7-0.2-1-0.3c-0.3-0.1-0.6-0.3-0.8-0.5s-0.3-0.6-0.3-1c0-0.3,0.1-0.6,0.2-0.8
			c0.1-0.2,0.3-0.4,0.6-0.6c0.2-0.1,0.5-0.3,0.8-0.3c0.3-0.1,0.6-0.1,0.9-0.1c0.4,0,0.7,0,1,0.1s0.6,0.2,0.8,0.3
			c0.2,0.2,0.4,0.4,0.6,0.6c0.1,0.3,0.2,0.6,0.2,1h-1.1c0-0.2-0.1-0.4-0.2-0.5c-0.1-0.1-0.2-0.2-0.4-0.3c-0.1-0.1-0.3-0.1-0.5-0.2
			c-0.2,0-0.3-0.1-0.5-0.1s-0.3,0-0.5,0s-0.3,0.1-0.4,0.1c-0.1,0.1-0.2,0.1-0.3,0.2s-0.1,0.2-0.1,0.4c0,0.2,0.1,0.3,0.2,0.5
			c0.1,0.1,0.3,0.2,0.5,0.3s0.4,0.1,0.7,0.2c0.2,0.1,0.5,0.1,0.7,0.2c0.3,0.1,0.5,0.1,0.8,0.2s0.5,0.2,0.7,0.3s0.4,0.3,0.5,0.5
			c0.1,0.2,0.2,0.5,0.2,0.8c0,0.4-0.1,0.7-0.2,1c-0.2,0.3-0.4,0.5-0.6,0.6c-0.3,0.2-0.6,0.3-0.9,0.3c-0.3,0.1-0.7,0.1-1,0.1
			c-0.4,0-0.7,0-1-0.1s-0.6-0.2-0.9-0.4c-0.2-0.2-0.4-0.4-0.6-0.7c-0.1-0.3-0.2-0.6-0.2-1h1.1C86.4,318.7,86.4,318.9,86.5,319.1z"/>
		<path fill="#FFFFFF" d="M100.5,312.9v-1.3h1.1v1.3H100.5z M101.6,314.1v6.5h-1.1v-6.5H101.6z"/>
		<path fill="#FFFFFF" d="M106.7,314.1v1l0,0c0.4-0.8,1.1-1.2,2.1-1.2c0.4,0,0.8,0.1,1.1,0.2c0.3,0.1,0.5,0.3,0.7,0.5
			s0.3,0.5,0.4,0.7c0.1,0.3,0.1,0.6,0.1,1v4.2H110v-4.4c0-0.4-0.1-0.7-0.4-0.9c-0.2-0.2-0.6-0.4-1-0.4c-0.3,0-0.6,0.1-0.8,0.2
			s-0.4,0.2-0.6,0.4c-0.2,0.2-0.3,0.4-0.4,0.6c-0.1,0.2-0.1,0.5-0.1,0.8v3.6h-1.1v-6.5h1.1V314.1z"/>
		<path fill="#FFFFFF" d="M117.9,314.1v0.9h-1.3v4c0,0.1,0,0.2,0,0.3c0,0.1,0.1,0.1,0.1,0.2c0.1,0,0.1,0.1,0.2,0.1
			c0.1,0,0.2,0,0.4,0h0.5v0.9H117c-0.3,0-0.5,0-0.7-0.1c-0.2,0-0.4-0.1-0.5-0.2c-0.1-0.1-0.2-0.2-0.3-0.4c-0.1-0.2-0.1-0.4-0.1-0.7
			V315h-1.1v-0.9h1.1v-1.9h1.1v1.9H117.9L117.9,314.1z"/>
		<path fill="#FFFFFF" d="M126.2,320.1c-0.5,0.4-1.1,0.5-1.8,0.5c-0.5,0-1-0.1-1.3-0.2c-0.4-0.2-0.7-0.4-1-0.7
			c-0.3-0.3-0.5-0.7-0.6-1.1c-0.1-0.4-0.2-0.9-0.2-1.4s0.1-0.9,0.2-1.3c0.1-0.4,0.4-0.8,0.6-1.1s0.6-0.5,1-0.7
			c0.4-0.2,0.8-0.2,1.2-0.2c0.6,0,1.1,0.1,1.4,0.4c0.4,0.2,0.7,0.5,0.9,0.9c0.2,0.4,0.4,0.8,0.5,1.2c0.1,0.4,0.1,0.8,0.1,1.2h-4.8
			c0,0.3,0,0.6,0.1,0.8c0.1,0.3,0.2,0.5,0.4,0.7c0.2,0.2,0.4,0.4,0.6,0.5c0.3,0.1,0.6,0.2,0.9,0.2c0.4,0,0.8-0.1,1.1-0.3
			c0.3-0.2,0.5-0.5,0.6-0.9h1.1C127,319.2,126.7,319.8,126.2,320.1z M125.9,316c-0.1-0.2-0.2-0.4-0.4-0.6c-0.2-0.2-0.4-0.3-0.6-0.4
			s-0.5-0.1-0.7-0.1c-0.3,0-0.5,0-0.7,0.1s-0.4,0.2-0.6,0.4c-0.2,0.2-0.3,0.4-0.4,0.6c-0.1,0.2-0.1,0.5-0.2,0.7h3.7
			C126.1,316.4,126,316.2,125.9,316z"/>
		<path fill="#FFFFFF" d="M131.8,314.1v1.4l0,0c0.3-0.5,0.6-0.9,0.9-1.2c0.4-0.2,0.8-0.4,1.4-0.3v1.1c-0.4,0-0.8,0.1-1.1,0.2
			s-0.5,0.3-0.7,0.5s-0.3,0.5-0.4,0.8c-0.1,0.3-0.1,0.7-0.1,1.1v2.9h-1.1v-6.5H131.8z"/>
		<path fill="#FFFFFF" d="M138.7,314.1v1l0,0c0.4-0.8,1.1-1.2,2.1-1.2c0.4,0,0.8,0.1,1.1,0.2s0.5,0.3,0.7,0.5s0.3,0.5,0.4,0.7
			c0.1,0.3,0.1,0.6,0.1,1v4.2H142v-4.4c0-0.4-0.1-0.7-0.4-0.9c-0.2-0.2-0.6-0.4-1-0.4c-0.3,0-0.6,0.1-0.8,0.2s-0.4,0.2-0.6,0.4
			c-0.2,0.2-0.3,0.4-0.4,0.6c-0.1,0.2-0.1,0.5-0.1,0.8v3.6h-1.1v-6.5h1.1V314.1z"/>
		<path fill="#FFFFFF" d="M151.7,320.1c-0.5,0.4-1.1,0.5-1.8,0.5c-0.5,0-1-0.1-1.3-0.2c-0.4-0.2-0.7-0.4-1-0.7
			c-0.3-0.3-0.5-0.7-0.6-1.1s-0.2-0.9-0.2-1.4s0.1-0.9,0.2-1.3c0.1-0.4,0.4-0.8,0.6-1.1c0.3-0.3,0.6-0.5,1-0.7s0.8-0.2,1.2-0.2
			c0.6,0,1.1,0.1,1.4,0.4c0.4,0.2,0.7,0.5,0.9,0.9s0.4,0.8,0.5,1.2c0.1,0.4,0.1,0.8,0.1,1.2h-4.8c0,0.3,0,0.6,0.1,0.8
			c0.1,0.3,0.2,0.5,0.4,0.7s0.4,0.4,0.6,0.5c0.3,0.1,0.6,0.2,0.9,0.2c0.4,0,0.8-0.1,1.1-0.3c0.3-0.2,0.5-0.5,0.6-0.9h1.1
			C152.5,319.2,152.2,319.8,151.7,320.1z M151.5,316c-0.1-0.2-0.2-0.4-0.4-0.6s-0.4-0.3-0.6-0.4c-0.2-0.1-0.5-0.1-0.7-0.1
			c-0.3,0-0.5,0-0.7,0.1s-0.4,0.2-0.6,0.4c-0.2,0.2-0.3,0.4-0.4,0.6c-0.1,0.2-0.1,0.5-0.2,0.7h3.7
			C151.6,316.4,151.6,316.2,151.5,316z"/>
		<path fill="#FFFFFF" d="M159.1,314.1v0.9h-1.3v4c0,0.1,0,0.2,0,0.3c0,0.1,0.1,0.1,0.1,0.2c0.1,0,0.1,0.1,0.2,0.1
			c0.1,0,0.2,0,0.4,0h0.5v0.9h-0.8c-0.3,0-0.5,0-0.7-0.1c-0.2,0-0.4-0.1-0.5-0.2s-0.2-0.2-0.3-0.4c-0.1-0.2-0.1-0.4-0.1-0.7V315
			h-1.1v-0.9h1.1v-1.9h1.1v1.9H159.1L159.1,314.1z"/>
	</g>
</g>
</svg>
